G04 start of page 6 for group -4062 idx -4062 *
G04 Title: (unknown), soldermask *
G04 Creator: pcb 4.0.2 *
G04 CreationDate: Wed Oct 16 23:20:42 2019 UTC *
G04 For: walter *
G04 Format: Gerber/RS-274X *
G04 PCB-Dimensions (mil): 4429.13 2362.20 *
G04 PCB-Coordinate-Origin: lower left *
%MOIN*%
%FSLAX25Y25*%
%LNBOTTOMMASK*%
%ADD86C,0.1380*%
%ADD85C,0.0860*%
%ADD84C,0.0960*%
%ADD83C,0.1400*%
%ADD82C,0.0660*%
%ADD81C,0.0900*%
%ADD80C,0.0001*%
%ADD79C,0.1260*%
G54D79*X279763Y55236D03*
X433700Y86732D03*
X339684Y7835D03*
G54D80*G36*
X129162Y10405D02*Y1405D01*
X138162D01*
Y10405D01*
X129162D01*
G37*
G36*
X259280Y222216D02*Y213216D01*
X268280D01*
Y222216D01*
X259280D01*
G37*
G54D81*X263780Y207716D03*
Y197716D03*
X287425Y223229D03*
X263780Y187716D03*
Y177716D03*
Y167716D03*
G54D80*G36*
X234692Y136961D02*Y130361D01*
X241292D01*
Y136961D01*
X234692D01*
G37*
G54D82*X237992Y143661D03*
X284686Y146065D03*
G54D79*X368346Y134763D03*
G54D80*G36*
X326601Y198201D02*Y189201D01*
X335601D01*
Y198201D01*
X326601D01*
G37*
G54D81*X351101Y193701D03*
G54D80*G36*
X314004Y171627D02*Y162627D01*
X323004D01*
Y171627D01*
X314004D01*
G37*
G54D81*X318504Y147127D03*
X297425Y223229D03*
G54D80*G36*
X291386Y149365D02*Y142765D01*
X297986D01*
Y149365D01*
X291386D01*
G37*
G54D81*X307425Y223229D03*
X330425D03*
X340425D03*
X350425D03*
X373425D03*
X383425D03*
X393425D03*
G54D83*X426574Y217806D03*
G54D84*X394385Y184946D03*
X374385D03*
G54D83*X426574Y158642D03*
Y178042D03*
G54D84*X394385Y204946D03*
X374385D03*
G54D83*X426574Y198406D03*
G54D80*G36*
X144716Y223985D02*Y215385D01*
X153316D01*
Y223985D01*
X144716D01*
G37*
G54D85*X139016Y209685D03*
Y229685D03*
X159016Y209685D03*
Y229685D03*
G54D80*G36*
X215185Y217492D02*Y208492D01*
X224185D01*
Y217492D01*
X215185D01*
G37*
G54D81*X209685Y212992D03*
X199685D03*
G54D80*G36*
X215185Y231665D02*Y222665D01*
X224185D01*
Y231665D01*
X215185D01*
G37*
G54D81*X209685Y227165D03*
X199685D03*
G54D80*G36*
X21681Y30287D02*Y21287D01*
X30681D01*
Y30287D01*
X21681D01*
G37*
G54D81*X16181Y25787D03*
X26181Y35787D03*
X16181D03*
X26181Y45787D03*
X16181D03*
X26181Y55787D03*
X16181D03*
X26181Y65787D03*
X16181D03*
X85570Y5874D03*
X75531D03*
X65492D03*
X5452D03*
X15492D03*
G54D80*G36*
X120303Y36783D02*Y27783D01*
X129303D01*
Y36783D01*
X120303D01*
G37*
G54D81*X124803Y52283D03*
X123662Y5905D03*
X113662D03*
X103662D03*
X26181Y75787D03*
Y85787D03*
Y95787D03*
X16181Y75787D03*
Y85787D03*
Y95787D03*
Y105787D03*
Y115787D03*
X26181Y105787D03*
Y115787D03*
G54D80*G36*
X56347Y114519D02*Y107919D01*
X62947D01*
Y114519D01*
X56347D01*
G37*
G54D82*X49647Y111219D03*
G54D79*X39952Y140384D03*
G54D82*X105315Y142322D03*
X95315D03*
G54D79*X39952Y201384D03*
G54D86*X27952Y193384D03*
Y148384D03*
G54D81*X62952Y153384D03*
Y183384D03*
Y173384D03*
Y163384D03*
X52952Y178384D03*
Y168384D03*
Y188384D03*
Y158384D03*
M02*
