G04 start of page 7 for group -4079 idx -4079 *
G04 Title: (unknown), topsilk *
G04 Creator: pcb 4.0.2 *
G04 CreationDate: Wed Oct 16 23:20:42 2019 UTC *
G04 For: walter *
G04 Format: Gerber/RS-274X *
G04 PCB-Dimensions (mil): 4429.13 2362.20 *
G04 PCB-Coordinate-Origin: lower left *
%MOIN*%
%FSLAX25Y25*%
%LNTOPSILK*%
%ADD93C,0.0020*%
%ADD92C,0.0250*%
%ADD91C,0.0200*%
%ADD90C,0.0100*%
%ADD89C,0.0080*%
%ADD88C,0.0060*%
%ADD87C,0.0079*%
G54D87*X225196Y112204D02*X223425Y110433D01*
X225197Y112204D02*X225196D01*
X218307Y125197D02*Y112205D01*
X225000Y125197D02*Y112205D01*
X238386Y125197D02*Y112205D01*
X228740Y106890D02*Y93898D01*
X235433Y106890D02*Y93898D01*
X242126Y107087D02*Y94095D01*
G54D88*X221480Y125676D02*X221088D01*
X217560Y129204D01*
G54D87*X171654Y225984D02*X184646D01*
X171457Y218897D02*X184449D01*
X204724Y188975D02*Y175983D01*
X22441Y222619D02*Y209627D01*
X14764Y222619D02*Y209627D01*
X8071Y222619D02*Y209627D01*
X31497Y215533D02*X36615D01*
Y218486D02*X31497D01*
X34056Y215927D02*X36615Y218486D01*
X34056Y215927D02*X31497Y218486D01*
X34056Y215926D02*Y215927D01*
X231693Y125197D02*Y112205D01*
X227362Y218503D02*X240354D01*
X227362Y211417D02*X240354D01*
X226968Y162991D02*Y149999D01*
X233661Y162991D02*Y149999D01*
X240354Y162991D02*Y149999D01*
X290946Y210038D02*X293505Y212597D01*
X290552D02*Y207479D01*
X290946Y210038D02*X293505Y207479D01*
X272960Y208178D02*X278078D01*
X275519Y207784D02*X278078Y205225D01*
X272960D02*X278078D01*
X275519Y207784D02*X272960Y205225D01*
X257284Y149409D02*X270276D01*
X257284Y142716D02*X270276D01*
X257284Y136023D02*X270276D01*
X257284Y129133D02*X270276D01*
X257284Y121850D02*X270276D01*
X257284Y115157D02*X270276D01*
X283662Y164565D02*Y159447D01*
X284056Y162006D02*X286615Y164565D01*
X284056Y162006D02*X286615Y159447D01*
Y164565D02*Y159447D01*
X293505Y212597D02*Y207479D01*
X371742Y170961D02*Y165843D01*
X372136Y168402D02*X374695Y170961D01*
X372136Y168402D02*X374695Y165843D01*
Y170961D02*Y165843D01*
X393537Y170961D02*Y165843D01*
X393931Y168402D02*X396490Y170961D01*
X393931Y168402D02*X396490Y165843D01*
Y170961D02*Y165843D01*
X285433Y196850D02*X298425D01*
G54D89*X266523Y41892D02*Y15120D01*
X257074Y5671D02*X266523Y15120D01*
X205499Y41892D02*Y5671D01*
X257074D01*
G54D87*X272639Y17914D02*X270080Y20473D01*
X272639Y17914D02*X275198Y20473D01*
X270080D01*
Y17520D02*X275198D01*
X272639Y38386D02*X270080Y40945D01*
X272639Y38386D02*X275198Y40945D01*
X270080D01*
Y37992D02*X275198D01*
X48228Y94685D02*X61220D01*
X106102Y104921D02*X119094D01*
X114173Y91535D02*X127165D01*
X185434Y98031D02*X198426D01*
X185237Y89370D02*X198229D01*
X48228Y88189D02*X61220D01*
X95276Y171456D02*Y158464D01*
X101969Y171456D02*Y158464D01*
X89567Y121850D02*Y108858D01*
X71457Y131496D02*X84449D01*
X52756D02*X65748D01*
X48228Y81692D02*X61220D01*
X185237Y82874D02*X198229D01*
X48228Y75196D02*X61220D01*
X185237Y76181D02*X198229D01*
X48228Y68700D02*X61220D01*
X62795Y54724D02*X75787D01*
X62598Y47637D02*X75590D01*
X123819Y105708D02*X120079Y101968D01*
X152559Y89173D02*Y83070D01*
X130512Y105708D02*X123819D01*
X227184Y12939D02*X227684Y12439D01*
X225684Y12939D02*X227184D01*
X225184Y12439D02*X225684Y12939D01*
X225184Y12439D02*Y11439D01*
X225684Y10939D01*
X227184D01*
X227684Y10439D01*
Y9439D01*
X227184Y8939D02*X227684Y9439D01*
X225684Y8939D02*X227184D01*
X225184Y9439D02*X225684Y8939D01*
X228884Y12939D02*X229884D01*
X229384D02*Y8939D01*
X228884D02*X229884D01*
X231084Y12939D02*Y8939D01*
Y12939D02*X232584Y11439D01*
X234084Y12939D01*
Y8939D01*
X237584D02*X239084D01*
X237084Y9439D02*X237584Y8939D01*
X237084Y12439D02*Y9439D01*
Y12439D02*X237584Y12939D01*
X239084D01*
X241784Y10939D02*X242284Y10439D01*
X240784Y10939D02*X241784D01*
X240284Y10439D02*X240784Y10939D01*
X240284Y10439D02*Y9439D01*
X240784Y8939D01*
X242284Y10939D02*Y9439D01*
X242784Y8939D01*
X240784D02*X241784D01*
X242284Y9439D01*
X244484Y10439D02*Y8939D01*
Y10439D02*X244984Y10939D01*
X245984D01*
X243984D02*X244484Y10439D01*
X249184Y12939D02*Y8939D01*
X248684D02*X249184Y9439D01*
X247684Y8939D02*X248684D01*
X247184Y9439D02*X247684Y8939D01*
X247184Y10439D02*Y9439D01*
Y10439D02*X247684Y10939D01*
X248684D01*
X249184Y10439D01*
X422744Y9566D02*X424244D01*
X422244Y10066D02*X422744Y9566D01*
X422244Y13066D02*Y10066D01*
Y13066D02*X422744Y13566D01*
X424244D01*
X425444Y13066D02*Y10066D01*
Y13066D02*X425944Y13566D01*
X426944D01*
X427444Y13066D01*
Y10066D01*
X426944Y9566D02*X427444Y10066D01*
X425944Y9566D02*X426944D01*
X425444Y10066D02*X425944Y9566D01*
X428644Y13566D02*X430644D01*
X431144Y13066D01*
Y12066D01*
X430644Y11566D02*X431144Y12066D01*
X429144Y11566D02*X430644D01*
X429144Y13566D02*Y9566D01*
Y11566D02*X431144Y9566D01*
X432344Y13566D02*X434344D01*
X433344D02*Y9566D01*
X435544Y11566D02*X437044D01*
X435544Y9566D02*X437544D01*
X435544Y13566D02*Y9566D01*
Y13566D02*X437544D01*
X411416Y172076D02*X411916Y171576D01*
X411416Y175076D02*X411916Y175576D01*
X411416Y175076D02*Y172076D01*
X413116Y173576D02*X415116D01*
X416316Y175576D02*X416816Y175076D01*
Y172076D01*
X416316Y171576D02*X416816Y172076D01*
X436039Y191052D02*X440039D01*
X436039Y192552D02*Y190552D01*
Y192552D02*X436539Y193052D01*
X437539D01*
X438039Y192552D02*X437539Y193052D01*
X438039Y192552D02*Y191052D01*
X436539Y194252D02*X440039D01*
X436539D02*X436039Y194752D01*
Y196252D02*Y194752D01*
Y196252D02*X436539Y196752D01*
X440039D01*
X438039D02*Y194252D01*
X436039Y197952D02*X440039D01*
X436039D02*X436539D01*
X439039Y200452D01*
X436039D02*X440039D01*
X438039Y203152D02*Y201652D01*
X440039Y203652D02*Y201652D01*
X436039D02*X440039D01*
X436039Y203652D02*Y201652D01*
Y204852D02*X440039D01*
Y206852D02*Y204852D01*
X439539Y209852D02*X436539Y212852D01*
Y215852D02*X440039D01*
X436539D02*X436039Y216352D01*
Y217852D02*Y216352D01*
Y217852D02*X436539Y218352D01*
X440039D01*
X438039D02*Y215852D01*
X440039Y220052D02*Y219552D01*
Y223252D02*Y221752D01*
X439539Y221252D02*X440039Y221752D01*
X436539Y221252D02*X439539D01*
X436539D02*X436039Y221752D01*
Y223252D02*Y221752D01*
X440039Y224952D02*Y224452D01*
X411810Y160855D02*X412310Y160355D01*
X411810Y163855D02*X412310Y164355D01*
X411810Y163855D02*Y160855D01*
X413510Y162355D02*X415510D01*
X414510Y163355D02*Y161355D01*
X416710Y164355D02*X417210Y163855D01*
Y160855D01*
X416710Y160355D02*X417210Y160855D01*
X441022Y165977D02*Y163977D01*
Y165977D02*X440522Y166477D01*
X439522D02*X440522D01*
X439022Y165977D02*X439522Y166477D01*
X439022Y165977D02*Y164477D01*
X437022D02*X441022D01*
X437022Y165977D02*Y163977D01*
Y165977D02*X437522Y166477D01*
X438522D01*
X439022Y165977D02*X438522Y166477D01*
X437522Y167677D02*X441022D01*
X437522D02*X437022Y168177D01*
Y169677D02*Y168177D01*
Y169677D02*X437522Y170177D01*
X441022D01*
X439022D02*Y167677D01*
X437022Y173377D02*Y171377D01*
Y172377D02*X441022D01*
X410235Y212234D02*X410735Y211734D01*
X410235Y215234D02*X410735Y215734D01*
X410235Y215234D02*Y212234D01*
X411935Y213734D02*X413935D01*
X415135Y215734D02*X415635Y215234D01*
Y212234D01*
X415135Y211734D02*X415635Y212234D01*
X410629Y201013D02*X411129Y200513D01*
X410629Y204013D02*X411129Y204513D01*
X410629Y204013D02*Y201013D01*
X412329Y202513D02*X414329D01*
X413329Y203513D02*Y201513D01*
X415529Y204513D02*X416029Y204013D01*
Y201013D01*
X415529Y200513D02*X416029Y201013D01*
X141339Y6874D02*Y3374D01*
X141839Y2874D01*
X142839D01*
X143339Y3374D01*
Y6874D02*Y3374D01*
X146539Y6874D02*X147039Y6374D01*
X145039Y6874D02*X146539D01*
X144539Y6374D02*X145039Y6874D01*
X144539Y6374D02*Y5374D01*
X145039Y4874D01*
X146539D01*
X147039Y4374D01*
Y3374D01*
X146539Y2874D02*X147039Y3374D01*
X145039Y2874D02*X146539D01*
X144539Y3374D02*X145039Y2874D01*
X148239D02*X150239D01*
X150739Y3374D01*
Y4374D02*Y3374D01*
X150239Y4874D02*X150739Y4374D01*
X148739Y4874D02*X150239D01*
X148739Y6874D02*Y2874D01*
X148239Y6874D02*X150239D01*
X150739Y6374D01*
Y5374D01*
X150239Y4874D02*X150739Y5374D01*
X7267Y80708D02*Y79708D01*
X3267Y80208D02*X7267D01*
X3267Y80708D02*Y79708D01*
X3767Y78508D02*X6767D01*
X7267Y78008D01*
Y77008D01*
X6767Y76508D01*
X3767D02*X6767D01*
X3267Y77008D02*X3767Y76508D01*
X3267Y78008D02*Y77008D01*
X3767Y78508D02*X3267Y78008D01*
Y73008D02*X7267D01*
Y73508D02*Y71508D01*
X6767Y71008D01*
X5767D02*X6767D01*
X5267Y71508D02*X5767Y71008D01*
X5267Y73008D02*Y71508D01*
X3767Y69808D02*X4767D01*
X5267Y69308D01*
Y68308D01*
X4767Y67808D01*
X3767D02*X4767D01*
X3267Y68308D02*X3767Y67808D01*
X3267Y69308D02*Y68308D01*
X3767Y69808D02*X3267Y69308D01*
Y66108D02*X4767D01*
X5267Y65608D01*
Y64608D01*
Y66608D02*X4767Y66108D01*
X3767Y62908D02*X7267D01*
X3767D02*X3267Y62408D01*
X5767Y63408D02*Y62408D01*
X3937Y135386D02*X5437D01*
X3937Y133386D02*X5937D01*
X3937Y137386D02*Y133386D01*
Y137386D02*X5937D01*
X7137D02*X9137D01*
X8137D02*Y133386D01*
X10337Y137386D02*Y133386D01*
X12837Y137386D02*Y133386D01*
X10337Y135386D02*X12837D01*
X14037D02*X15537D01*
X14037Y133386D02*X16037D01*
X14037Y137386D02*Y133386D01*
Y137386D02*X16037D01*
X17237D02*X19237D01*
X19737Y136886D01*
Y135886D01*
X19237Y135386D02*X19737Y135886D01*
X17737Y135386D02*X19237D01*
X17737Y137386D02*Y133386D01*
Y135386D02*X19737Y133386D01*
X20937Y137386D02*Y133386D01*
Y137386D02*Y136886D01*
X23437Y134386D01*
Y137386D02*Y133386D01*
X24637Y135386D02*X26137D01*
X24637Y133386D02*X26637D01*
X24637Y137386D02*Y133386D01*
Y137386D02*X26637D01*
X27837D02*X29837D01*
X28837D02*Y133386D01*
X265189Y6873D02*X265689Y6373D01*
X263689Y6873D02*X265189D01*
X263189Y6373D02*X263689Y6873D01*
X263189Y6373D02*Y3373D01*
X263689Y2873D01*
X265189D01*
X265689Y3373D01*
Y4373D02*Y3373D01*
X265189Y4873D02*X265689Y4373D01*
X264189Y4873D02*X265189D01*
X268889Y6873D02*X269389Y6373D01*
X267389Y6873D02*X268889D01*
X266889Y6373D02*X267389Y6873D01*
X266889Y6373D02*Y5373D01*
X267389Y4873D01*
X268889D01*
X269389Y4373D01*
Y3373D01*
X268889Y2873D02*X269389Y3373D01*
X267389Y2873D02*X268889D01*
X266889Y3373D02*X267389Y2873D01*
X270589Y6873D02*Y2873D01*
Y6873D02*X272089Y5373D01*
X273589Y6873D01*
Y2873D01*
X162795Y6874D02*Y2874D01*
Y6874D02*X164295Y5374D01*
X165795Y6874D01*
Y2874D01*
X166995Y5874D02*Y5374D01*
Y4374D02*Y2874D01*
X168495Y4874D02*X169995D01*
X167995Y4374D02*X168495Y4874D01*
X167995Y4374D02*Y3374D01*
X168495Y2874D01*
X169995D01*
X171695Y4374D02*Y2874D01*
Y4374D02*X172195Y4874D01*
X173195D01*
X171195D02*X171695Y4374D01*
X174395D02*Y3374D01*
Y4374D02*X174895Y4874D01*
X175895D01*
X176395Y4374D01*
Y3374D01*
X175895Y2874D02*X176395Y3374D01*
X174895Y2874D02*X175895D01*
X174395Y3374D02*X174895Y2874D01*
X179595Y6874D02*X180095Y6374D01*
X178095Y6874D02*X179595D01*
X177595Y6374D02*X178095Y6874D01*
X177595Y6374D02*Y5374D01*
X178095Y4874D01*
X179595D01*
X180095Y4374D01*
Y3374D01*
X179595Y2874D02*X180095Y3374D01*
X178095Y2874D02*X179595D01*
X177595Y3374D02*X178095Y2874D01*
X181795Y6874D02*Y2874D01*
X183295Y6874D02*X183795Y6374D01*
Y3374D01*
X183295Y2874D02*X183795Y3374D01*
X181295Y2874D02*X183295D01*
X181295Y6874D02*X183295D01*
X256677Y194094D02*Y193094D01*
X252677Y193594D02*X256677D01*
X252677Y194094D02*Y193094D01*
Y191394D02*Y189894D01*
X253177Y191894D02*X252677Y191394D01*
X253177Y191894D02*X256177D01*
X256677Y191394D01*
Y189894D01*
Y186694D02*X256177Y186194D01*
X256677Y188194D02*Y186694D01*
X256177Y188694D02*X256677Y188194D01*
X255177Y188694D02*X256177D01*
X255177D02*X254677Y188194D01*
Y186694D01*
X254177Y186194D01*
X253177D02*X254177D01*
X252677Y186694D02*X253177Y186194D01*
X252677Y188194D02*Y186694D01*
X253177Y188694D02*X252677Y188194D01*
Y184494D02*X256677D01*
Y184994D02*Y182994D01*
X256177Y182494D01*
X255177D02*X256177D01*
X254677Y182994D02*X255177Y182494D01*
X254677Y184494D02*Y182994D01*
X217882Y201197D02*X217382Y201697D01*
X217882Y201197D02*X219382D01*
X219882Y201697D02*X219382Y201197D01*
X219882Y202697D02*Y201697D01*
Y202697D02*X219382Y203197D01*
X217882D02*X219382D01*
X217882D02*X217382Y203697D01*
Y204697D02*Y203697D01*
X217882Y205197D02*X217382Y204697D01*
X217882Y205197D02*X219382D01*
X219882Y204697D02*X219382Y205197D01*
X214682Y203197D02*X216182D01*
X214182Y205197D02*X216182D01*
Y201197D01*
X214182D02*X216182D01*
X210982D02*X212982D01*
X210982D02*X210482Y201697D01*
Y202697D02*Y201697D01*
X210982Y203197D02*X210482Y202697D01*
X210982Y203197D02*X212482D01*
Y205197D02*Y201197D01*
Y203197D02*X210482Y205197D01*
X208282Y201197D02*X209282D01*
X208782Y205197D02*Y201197D01*
X208282Y205197D02*X209282D01*
X207082D02*Y201697D01*
X206582Y201197D01*
X205082D02*X206582D01*
X205082D02*X204582Y201697D01*
Y205197D02*Y201697D01*
Y203197D02*X207082D01*
X203382Y205197D02*Y201197D01*
X201382Y205197D02*X203382D01*
X28988Y232456D02*X28488Y231956D01*
X28988Y233956D02*Y232456D01*
X28488Y234456D02*X28988Y233956D01*
X25488Y234456D02*X28488D01*
X25488D02*X24988Y233956D01*
Y232456D01*
X25488Y231956D01*
X26488D01*
X26988Y232456D02*X26488Y231956D01*
X26988Y233456D02*Y232456D01*
X24988Y230256D02*X28988D01*
Y230756D02*Y228756D01*
X28488Y228256D01*
X27488D02*X28488D01*
X26988Y228756D02*X27488Y228256D01*
X26988Y230256D02*Y228756D01*
X28988Y225056D02*X28488Y224556D01*
X28988Y226556D02*Y225056D01*
X28488Y227056D02*X28988Y226556D01*
X27488Y227056D02*X28488D01*
X27488D02*X26988Y226556D01*
Y225056D01*
X26488Y224556D01*
X25488D02*X26488D01*
X24988Y225056D02*X25488Y224556D01*
X24988Y226556D02*Y225056D01*
X25488Y227056D02*X24988Y226556D01*
X3232Y233672D02*X7232D01*
X3232D02*Y231672D01*
X5732Y230472D02*X6232D01*
X3232D02*X4732D01*
X3232Y228972D02*X4732D01*
X5232Y228472D01*
Y227972D01*
X4732Y227472D01*
X3232D02*X4732D01*
X5232Y229472D02*X4732Y228972D01*
X3232Y226272D02*X7232D01*
X4732D02*X3232Y224772D01*
X4732Y226272D02*X5732Y225272D01*
X9504Y232976D02*Y231976D01*
Y232476D02*X13504D01*
X12504Y233476D02*X13504Y232476D01*
X10004Y230776D02*X9504Y230276D01*
X10004Y230776D02*X13004D01*
X13504Y230276D01*
Y229276D01*
X13004Y228776D01*
X10004D02*X13004D01*
X9504Y229276D02*X10004Y228776D01*
X9504Y230276D02*Y229276D01*
X10504Y230776D02*X12504Y228776D01*
X10004Y227576D02*X9504Y227076D01*
X10004Y227576D02*X13004D01*
X13504Y227076D01*
Y226076D01*
X13004Y225576D01*
X10004D02*X13004D01*
X9504Y226076D02*X10004Y225576D01*
X9504Y227076D02*Y226076D01*
X10504Y227576D02*X12504Y225576D01*
X15580Y233476D02*X19080D01*
X19580Y232976D01*
Y231476D01*
X19080Y230976D01*
X15580D02*X19080D01*
X17580Y233476D02*Y230976D01*
Y229276D02*Y227776D01*
X17080Y229776D02*X17580Y229276D01*
X16080Y229776D02*X17080D01*
X16080D02*X15580Y229276D01*
Y227776D01*
X16080Y226076D02*X19580D01*
X16080D02*X15580Y225576D01*
X18080Y226576D02*Y225576D01*
G54D90*X110315Y142322D02*G75*G03X110315Y142322I-10000J0D01*G01*
G54D89*X61912Y9505D02*Y2305D01*
X19112Y9505D02*Y2305D01*
X1812Y9505D02*X89212D01*
X1812D02*Y5905D01*
Y2305D02*X89212D01*
Y9505D02*Y2305D01*
X1812Y5805D02*Y2305D01*
G54D90*X21181Y30787D02*Y20787D01*
Y30787D02*X31181D01*
X11181Y20787D02*X31181D01*
X11181Y120787D02*Y20787D01*
Y120787D02*X31181D01*
Y20787D01*
X64647Y111219D02*G75*G03X64647Y111219I-10000J0D01*G01*
G54D89*X135239Y69486D02*X169884D01*
X135239Y82085D02*X169884D01*
G54D90*X124803Y22283D02*G75*G03X124803Y22283I0J20000D01*G01*
G54D89*X91142Y48226D02*X91536D01*
X103347Y51376D02*Y47832D01*
X89961Y51376D02*Y47832D01*
X94685Y44289D02*X98622D01*
X94685Y54525D02*X98622D01*
X200631Y60431D02*Y8069D01*
X147087Y60431D02*X200631D01*
X147087D02*Y8069D01*
X200631D01*
X151025Y8068D02*X155356Y12399D01*
X196694Y8068D02*X192363Y12399D01*
X155356D02*X192363D01*
X191576Y23029D02*G75*G03X190395Y24210I-1181J0D01*G01*
X190394Y21847D02*G75*G03X191576Y23029I0J1182D01*G01*
X189214Y23027D02*G75*G03X190394Y21847I1180J0D01*G01*
X190397Y24210D02*G75*G03X189214Y23027I0J-1183D01*G01*
X100244Y98613D02*X103144Y95713D01*
X76386Y98613D02*X100244D01*
X76386D02*Y71855D01*
X103144D01*
Y95713D02*Y71855D01*
X100244Y96713D02*G75*G03X100244Y96713I0J-1000D01*G01*
G54D90*X128662Y905D02*X138662D01*
X128662Y10905D02*Y905D01*
X138662Y10905D02*Y905D01*
X98662D02*X138662D01*
X98662Y10905D02*Y905D01*
Y10905D02*X138662D01*
X133016Y203685D02*Y235685D01*
X165016Y203685D02*X133016D01*
X165016Y235685D02*Y203685D01*
X133016Y235685D02*X165016D01*
G54D89*X192372Y169875D02*X195272Y166975D01*
X140954Y169875D02*X192372D01*
X140954D02*Y115557D01*
X195272D01*
Y166975D02*Y115557D01*
X192372Y167975D02*G75*G03X192372Y167975I0J-1000D01*G01*
X71452Y202384D02*Y139384D01*
X452D02*X71452D01*
X452Y202384D02*Y139384D01*
Y202384D02*X71452D01*
X76638Y235851D02*X127819D01*
X76638Y174039D02*X127819D01*
Y235851D02*Y174039D01*
X76638Y235851D02*Y174039D01*
X85497Y225614D02*G75*G03X87859Y227976I0J2362D01*G01*
X83134Y227977D02*G75*G03X85497Y225614I2363J0D01*G01*
X85496Y230339D02*G75*G03X83134Y227977I0J-2362D01*G01*
X87859Y227976D02*G75*G03X85496Y230339I-2363J0D01*G01*
G54D90*X214685Y207992D02*X224685D01*
X214685Y217992D02*Y207992D01*
X224685Y217992D02*Y207992D01*
X194685D02*X224685D01*
X194685Y217992D02*Y207992D01*
Y217992D02*X224685D01*
X214685Y222165D02*X224685D01*
X214685Y232165D02*Y222165D01*
X224685Y232165D02*Y222165D01*
X194685D02*X224685D01*
X194685Y232165D02*Y222165D01*
Y232165D02*X224685D01*
X304425Y235229D02*Y229229D01*
X290425Y235229D02*Y229229D01*
G54D91*X277425Y235229D02*Y229229D01*
X317425D01*
Y235229D02*Y229229D01*
X277425Y235229D02*X317425D01*
X277425D02*Y217229D01*
X317425D01*
Y235229D02*Y217229D01*
X277425Y235229D02*X317425D01*
G54D90*X390425D02*Y229229D01*
X376425Y235229D02*Y229229D01*
G54D91*X363425Y235229D02*Y229229D01*
X403425D01*
Y235229D02*Y229229D01*
X363425Y235229D02*X403425D01*
X363425D02*Y217229D01*
X403425D01*
Y235229D02*Y217229D01*
X363425Y235229D02*X403425D01*
G54D90*X347425D02*Y229229D01*
X333425Y235229D02*Y229229D01*
G54D91*X320425Y235229D02*Y229229D01*
X360425D01*
Y235229D02*Y229229D01*
X320425Y235229D02*X360425D01*
X320425D02*Y217229D01*
X360425D01*
Y235229D02*Y217229D01*
X320425Y235229D02*X360425D01*
G54D90*X321101Y193701D02*G75*G03X321101Y193701I20000J0D01*G01*
X318504Y177127D02*G75*G03X318504Y177127I0J-20000D01*G01*
G54D89*X387754Y199646D02*X390786D01*
X379922Y191773D02*Y188781D01*
X378386Y190277D02*X381418D01*
X389251Y202048D02*G75*G03X386888Y199685I0J-2363D01*G01*
G75*G03X389289Y197284I2401J0D01*G01*
G75*G03X391691Y199686I0J2402D01*G01*
G75*G03X389329Y202048I-2362J0D01*G01*
X379883Y192679D02*G75*G03X377520Y190316I0J-2363D01*G01*
G75*G03X379921Y187915I2401J0D01*G01*
G75*G03X382323Y190317I0J2402D01*G01*
G75*G03X379961Y192679I-2362J0D01*G01*
G54D92*X404385Y194946D02*G75*G03X384385Y214946I-20000J0D01*G01*
G75*G03X364385Y194946I0J-20000D01*G01*
Y194946D02*G75*G03X384385Y174946I20000J0D01*G01*
X384384D02*G75*G03X404385Y194947I0J20001D01*G01*
G54D89*X406496Y227757D02*Y188387D01*
X442716Y227757D02*Y188387D01*
G54D90*X407574Y228015D02*Y226015D01*
Y188306D02*Y186306D01*
X409574D01*
Y188306D02*Y186306D01*
X406574Y188306D02*X442574D01*
X409574Y228015D02*Y226015D01*
X407574D02*X409574D01*
X406574Y228015D02*X442574D01*
X440574Y217806D02*X442574D01*
X440574Y198406D02*X442574D01*
X299686Y146065D02*G75*G03X299686Y146065I-10000J0D01*G01*
G54D89*X282523Y214842D02*Y204842D01*
X302523Y214842D02*X281523D01*
X302523Y204842D02*Y214842D01*
X281523Y204842D02*X302523D01*
X281523Y214842D02*Y204842D01*
X275634Y167205D02*Y157205D01*
X295634Y167205D02*X274634D01*
X295634Y157205D02*Y167205D01*
X274634Y157205D02*X295634D01*
X274634Y167205D02*Y157205D01*
G54D90*X268780Y222716D02*Y212716D01*
X258780D02*X268780D01*
X258780Y222716D02*X268780D01*
Y162716D01*
X258780D02*X268780D01*
X258780Y222716D02*Y162716D01*
X234391Y190132D02*X247457D01*
X216325D02*X229391D01*
X247457D02*Y168920D01*
X216325D02*X247457D01*
X216325Y190132D02*Y168920D01*
X229391Y190132D02*G75*G03X234391Y190132I2500J0D01*G01*
G54D89*X343149Y118622D02*X344330Y119803D01*
X343149Y124921D02*X344330Y123740D01*
X278976Y118622D02*X343149D01*
X278976Y124921D02*X343149D01*
X278976Y118622D02*X277795Y119803D01*
Y126889D02*Y116652D01*
X433700Y134370D02*Y26496D01*
X344330Y126889D02*Y116652D01*
X433700Y134370D02*X277795D01*
X278976Y124921D02*X277795Y123740D01*
X414015Y26102D02*X442755D01*
X414015Y433D02*Y26102D01*
X277795Y6417D02*X414015D01*
X277795D02*Y134370D01*
X406496Y187993D02*Y148623D01*
X442716Y187993D02*Y148623D01*
G54D90*X407574Y188251D02*Y186251D01*
Y148542D02*Y146542D01*
X409574D01*
Y148542D02*Y146542D01*
X406574Y148542D02*X442574D01*
X409574Y188251D02*Y186251D01*
X407574D02*X409574D01*
X406574Y188251D02*X442574D01*
X440574Y178042D02*X442574D01*
X440574Y158642D02*X442574D01*
X368092Y162956D02*X360892Y160356D01*
X368092Y162956D02*X403292D01*
Y139356D01*
X368092D02*X403292D01*
X360892Y141956D02*X368092Y139356D01*
G54D91*X360892Y160356D02*Y141956D01*
G54D89*X385168Y173404D02*Y163404D01*
X384168Y173404D02*X405168D01*
Y163404D01*
X384168D02*X405168D01*
X384168Y173404D02*Y163404D01*
X363608Y173404D02*Y163404D01*
X362608Y173404D02*X383608D01*
Y163404D01*
X362608D02*X383608D01*
X362608Y173404D02*Y163404D01*
G54D93*X342023Y155083D02*Y147209D01*
X348716Y155083D02*Y147209D01*
X342023D02*X348716D01*
X342023Y155083D02*X348716D01*
X342023Y151146D02*X342416D01*
X348322D02*X348716D01*
X348322Y153508D02*X348716D01*
X342023D02*X342416D01*
X342023Y148784D02*X342416D01*
X348322D02*X348716D01*
X343007Y154493D02*G75*G03X342613Y154099I0J-394D01*G01*
G75*G03X343007Y153705I394J0D01*G01*
G75*G03X343401Y154099I0J394D01*G01*
G75*G03X343007Y154493I-394J0D01*G01*
G54D89*X249986Y76536D02*X251167Y75355D01*
X249986Y76536D02*X248805Y75355D01*
X249986Y76536D02*Y71418D01*
X246443Y54883D02*X251955D01*
X253923Y56851D02*X251955Y54883D01*
X253923Y69843D02*Y56851D01*
X246443Y69843D02*X253923D01*
X246443D02*Y54883D01*
X261404Y77717D02*Y56458D01*
X267309Y83622D02*X261404Y77717D01*
X267309Y50553D02*X261404Y56458D01*
X267309Y83623D02*Y83622D01*
Y50553D02*Y50552D01*
X210223Y77717D02*Y56458D01*
X204317Y83623D02*X210223Y77717D01*
X204317Y50552D02*X210223Y56458D01*
X257467Y106064D02*X267309D01*
X257467D02*Y91103D01*
X214160D02*X257467D01*
X214160Y106064D02*Y91103D01*
X204317Y106064D02*X214160D01*
X267309D02*Y43072D01*
X204317D02*X267309D01*
X204317Y106064D02*Y43072D01*
X189568Y90550D02*X194686D01*
X189568Y96850D02*X194686D01*
G54D90*X237992Y128661D02*G75*G03X237992Y128661I0J10000D01*G01*
G54D87*X346653Y123607D02*Y120107D01*
X347153Y119607D01*
X348153D01*
X348653Y120107D01*
Y123607D02*Y120107D01*
X350353Y119607D02*X351353D01*
X350853Y123607D02*Y119607D01*
X349853Y122607D02*X350853Y123607D01*
X352553Y120107D02*X353053Y119607D01*
X352553Y123107D02*Y120107D01*
Y123107D02*X353053Y123607D01*
X354053D01*
X354553Y123107D01*
Y120107D01*
X354053Y119607D02*X354553Y120107D01*
X353053Y119607D02*X354053D01*
X352553Y120607D02*X354553Y122607D01*
X353684Y137672D02*Y136172D01*
X353184Y135672D02*X353684Y136172D01*
X350184Y135672D02*X353184D01*
X350184D02*X349684Y136172D01*
Y137672D02*Y136172D01*
X350184Y138872D02*X349684Y139372D01*
Y140372D02*Y139372D01*
Y140372D02*X350184Y140872D01*
X353184D01*
X353684Y140372D02*X353184Y140872D01*
X353684Y140372D02*Y139372D01*
X353184Y138872D02*X353684Y139372D01*
X351684Y140872D02*Y139372D01*
X349684Y144072D02*Y142072D01*
X351684D01*
X351184Y142572D01*
Y143572D02*Y142572D01*
Y143572D02*X351684Y144072D01*
X353184D01*
X353684Y143572D02*X353184Y144072D01*
X353684Y143572D02*Y142572D01*
X353184Y142072D02*X353684Y142572D01*
X354449Y152255D02*X358449D01*
Y150755D02*X357949Y150255D01*
X354949D02*X357949D01*
X354449Y150755D02*X354949Y150255D01*
X354449Y152755D02*Y150755D01*
X358449Y152755D02*Y150755D01*
X356449Y149055D02*X358449Y147055D01*
X356449Y149055D02*Y146555D01*
X354449Y147055D02*X358449D01*
X347508Y167012D02*X349508D01*
X350008Y166512D01*
Y165512D01*
X349508Y165012D02*X350008Y165512D01*
X348008Y165012D02*X349508D01*
X348008Y167012D02*Y163012D01*
Y165012D02*X350008Y163012D01*
X351208Y166512D02*X351708Y167012D01*
X353208D01*
X353708Y166512D01*
Y165512D01*
X351208Y163012D02*X353708Y165512D01*
X351208Y163012D02*X353708D01*
X354908D02*X356908Y165012D01*
Y166512D02*Y165012D01*
X356408Y167012D02*X356908Y166512D01*
X355408Y167012D02*X356408D01*
X354908Y166512D02*X355408Y167012D01*
X354908Y166512D02*Y165512D01*
X355408Y165012D01*
X356908D01*
X349606Y159129D02*Y156129D01*
Y159129D02*X350106Y159629D01*
X351106D01*
X351606Y159129D01*
Y156129D01*
X351106Y155629D02*X351606Y156129D01*
X350106Y155629D02*X351106D01*
X349606Y156129D02*X350106Y155629D01*
X350606Y156629D02*X351606Y155629D01*
X353306D02*X354306D01*
X353806Y159629D02*Y155629D01*
X352806Y158629D02*X353806Y159629D01*
X363884Y178576D02*Y174576D01*
X365384Y178576D02*X365884Y178076D01*
Y175076D01*
X365384Y174576D02*X365884Y175076D01*
X363384Y174576D02*X365384D01*
X363384Y178576D02*X365384D01*
X367084Y178076D02*X367584Y178576D01*
X369084D01*
X369584Y178076D01*
Y177076D01*
X367084Y174576D02*X369584Y177076D01*
X367084Y174576D02*X369584D01*
X268307Y230889D02*Y227389D01*
X268807Y226889D01*
X269807D01*
X270307Y227389D01*
Y230889D02*Y227389D01*
X272007Y226889D02*X273007D01*
X272507Y230889D02*Y226889D01*
X271507Y229889D02*X272507Y230889D01*
X264748Y229724D02*Y228224D01*
X261248D02*X264748D01*
X260748Y228724D02*X261248Y228224D01*
X260748Y229224D02*Y228724D01*
X261248Y229724D02*X260748Y229224D01*
X264748Y227024D02*Y225024D01*
X262748Y227024D02*X264748D01*
X262748D02*X263248Y226524D01*
Y225524D01*
X262748Y225024D01*
X261248D02*X262748D01*
X260748Y225524D02*X261248Y225024D01*
X260748Y226524D02*Y225524D01*
X261248Y227024D02*X260748Y226524D01*
X270579Y219078D02*Y215078D01*
X272079Y219078D02*X272579Y218578D01*
Y215578D01*
X272079Y215078D02*X272579Y215578D01*
X270079Y215078D02*X272079D01*
X270079Y219078D02*X272079D01*
X273779Y218578D02*X274279Y219078D01*
X275279D01*
X275779Y218578D01*
Y215578D01*
X275279Y215078D02*X275779Y215578D01*
X274279Y215078D02*X275279D01*
X273779Y215578D02*X274279Y215078D01*
Y217078D02*X275779D01*
X281956Y172304D02*Y168304D01*
X283456Y172304D02*X283956Y171804D01*
Y168804D01*
X283456Y168304D02*X283956Y168804D01*
X281456Y168304D02*X283456D01*
X281456Y172304D02*X283456D01*
X285156Y168804D02*X285656Y168304D01*
X285156Y169804D02*Y168804D01*
Y169804D02*X285656Y170304D01*
X286656D01*
X287156Y169804D01*
Y168804D01*
X286656Y168304D02*X287156Y168804D01*
X285656Y168304D02*X286656D01*
X285156Y170804D02*X285656Y170304D01*
X285156Y171804D02*Y170804D01*
Y171804D02*X285656Y172304D01*
X286656D01*
X287156Y171804D01*
Y170804D01*
X286656Y170304D02*X287156Y170804D01*
X305087Y139646D02*X306587D01*
X307087Y139146D02*X306587Y139646D01*
X307087Y139146D02*Y136146D01*
X306587Y135646D01*
X305087D02*X306587D01*
X303887Y136146D02*X303387Y135646D01*
X301887D02*X303387D01*
X301887D02*X301387Y136146D01*
Y137146D02*Y136146D01*
X303887Y139646D02*X301387Y137146D01*
Y139646D02*X303887D01*
X298687Y135646D02*X298187Y136146D01*
X298687Y135646D02*X299687D01*
X300187Y136146D02*X299687Y135646D01*
X300187Y139146D02*Y136146D01*
Y139146D02*X299687Y139646D01*
X298687Y137646D02*X298187Y138146D01*
X298687Y137646D02*X300187D01*
X298687Y139646D02*X299687D01*
X298687D02*X298187Y139146D01*
Y138146D01*
X273441Y143535D02*Y141535D01*
Y143535D02*X273941Y144035D01*
X274941D01*
X275441Y143535D02*X274941Y144035D01*
X275441Y143535D02*Y142035D01*
X273441D02*X277441D01*
X275441D02*X277441Y144035D01*
X273441Y146735D02*X273941Y147235D01*
X273441Y146735D02*Y145735D01*
X273941Y145235D02*X273441Y145735D01*
X273941Y145235D02*X276941D01*
X277441Y145735D01*
X275441Y146735D02*X275941Y147235D01*
X275441Y146735D02*Y145235D01*
X277441Y146735D02*Y145735D01*
Y146735D02*X276941Y147235D01*
X275941D02*X276941D01*
X277441Y148435D02*X275441Y150435D01*
X273941D02*X275441D01*
X273441Y149935D02*X273941Y150435D01*
X273441Y149935D02*Y148935D01*
X273941Y148435D02*X273441Y148935D01*
X273941Y148435D02*X274941D01*
X275441Y148935D01*
Y150435D02*Y148935D01*
X305028Y211795D02*Y207795D01*
X306528Y211795D02*X307028Y211295D01*
Y208295D01*
X306528Y207795D02*X307028Y208295D01*
X304528Y207795D02*X306528D01*
X304528Y211795D02*X306528D01*
X308228Y207795D02*X310728Y210295D01*
Y211795D02*Y210295D01*
X308228Y211795D02*X310728D01*
X315854Y204251D02*X317354D01*
X315354Y204751D02*X315854Y204251D01*
X315354Y207751D02*Y204751D01*
Y207751D02*X315854Y208251D01*
X317354D01*
X319054Y204251D02*X320054D01*
X319554Y208251D02*Y204251D01*
X318554Y207251D02*X319554Y208251D01*
X321754Y204251D02*X322754D01*
X322254Y208251D02*Y204251D01*
X321254Y207251D02*X322254Y208251D01*
X309173Y185129D02*Y183629D01*
X309673Y185629D02*X309173Y185129D01*
X309673Y185629D02*X312673D01*
X313173Y185129D01*
Y183629D01*
X312673Y182429D02*X313173Y181929D01*
Y180929D01*
X312673Y180429D01*
X309673D02*X312673D01*
X309173Y180929D02*X309673Y180429D01*
X309173Y181929D02*Y180929D01*
X309673Y182429D02*X309173Y181929D01*
X311173D02*Y180429D01*
X309173Y178729D02*Y177729D01*
Y178229D02*X313173D01*
X312173Y179229D02*X313173Y178229D01*
X271654Y184039D02*X273654D01*
X274154Y183539D01*
Y182539D01*
X273654Y182039D02*X274154Y182539D01*
X272154Y182039D02*X273654D01*
X272154Y184039D02*Y180039D01*
Y182039D02*X274154Y180039D01*
X275854D02*X276854D01*
X276354Y184039D02*Y180039D01*
X275354Y183039D02*X276354Y184039D01*
X278054D02*X280054D01*
X278054D02*Y182039D01*
X278554Y182539D01*
X279554D01*
X280054Y182039D01*
Y180539D01*
X279554Y180039D02*X280054Y180539D01*
X278554Y180039D02*X279554D01*
X278054Y180539D02*X278554Y180039D01*
X301394Y186645D02*Y184645D01*
Y186645D02*X301894Y187145D01*
X302894D01*
X303394Y186645D02*X302894Y187145D01*
X303394Y186645D02*Y185145D01*
X301394D02*X305394D01*
X303394D02*X305394Y187145D01*
Y189845D02*Y188845D01*
X301394Y189345D02*X305394D01*
X302394Y188345D02*X301394Y189345D01*
X305394Y192545D02*Y191545D01*
X301394Y192045D02*X305394D01*
X302394Y191045D02*X301394Y192045D01*
X301197Y196881D02*Y194881D01*
Y196881D02*X301697Y197381D01*
X302697D01*
X303197Y196881D02*X302697Y197381D01*
X303197Y196881D02*Y195381D01*
X301197D02*X305197D01*
X303197D02*X305197Y197381D01*
Y200081D02*Y199081D01*
X301197Y199581D02*X305197D01*
X302197Y198581D02*X301197Y199581D01*
X304697Y201281D02*X305197Y201781D01*
X301697Y201281D02*X304697D01*
X301697D02*X301197Y201781D01*
Y202781D02*Y201781D01*
Y202781D02*X301697Y203281D01*
X304697D01*
X305197Y202781D02*X304697Y203281D01*
X305197Y202781D02*Y201781D01*
X304197Y201281D02*X302197Y203281D01*
X269307Y60161D02*Y58661D01*
Y60161D02*X272807D01*
X273307Y59661D02*X272807Y60161D01*
X273307Y59661D02*Y59161D01*
X272807Y58661D02*X273307Y59161D01*
X272807Y61361D02*X273307Y61861D01*
X271807Y61361D02*X272807D01*
X271807D02*X271307Y61861D01*
Y62861D02*Y61861D01*
Y62861D02*X271807Y63361D01*
X272807D01*
X273307Y62861D02*X272807Y63361D01*
X273307Y62861D02*Y61861D01*
X270807Y61361D02*X271307Y61861D01*
X269807Y61361D02*X270807D01*
X269807D02*X269307Y61861D01*
Y62861D02*Y61861D01*
Y62861D02*X269807Y63361D01*
X270807D01*
X271307Y62861D02*X270807Y63361D01*
X267914Y92503D02*X269914D01*
X270414Y92003D01*
Y91003D01*
X269914Y90503D02*X270414Y91003D01*
X268414Y90503D02*X269914D01*
X268414Y92503D02*Y88503D01*
Y90503D02*X270414Y88503D01*
X271614Y90503D02*X273614Y92503D01*
X271614Y90503D02*X274114D01*
X273614Y92503D02*Y88503D01*
X275314Y89003D02*X275814Y88503D01*
X275314Y92003D02*Y89003D01*
Y92003D02*X275814Y92503D01*
X276814D01*
X277314Y92003D01*
Y89003D01*
X276814Y88503D02*X277314Y89003D01*
X275814Y88503D02*X276814D01*
X275314Y89503D02*X277314Y91503D01*
X268412Y30299D02*Y26299D01*
X269912Y30299D02*X270412Y29799D01*
Y26799D01*
X269912Y26299D02*X270412Y26799D01*
X267912Y26299D02*X269912D01*
X267912Y30299D02*X269912D01*
X272112Y26299D02*X273112D01*
X272612Y30299D02*Y26299D01*
X271612Y29299D02*X272612Y30299D01*
X274312Y29799D02*X274812Y30299D01*
X276312D01*
X276812Y29799D01*
Y28799D01*
X274312Y26299D02*X276812Y28799D01*
X274312Y26299D02*X276812D01*
X222835Y37385D02*X224835D01*
X225335Y36885D01*
Y35885D01*
X224835Y35385D02*X225335Y35885D01*
X223335Y35385D02*X224835D01*
X223335Y37385D02*Y33385D01*
Y35385D02*X225335Y33385D01*
X226535Y36885D02*X227035Y37385D01*
X228535D01*
X229035Y36885D01*
Y35885D01*
X226535Y33385D02*X229035Y35885D01*
X226535Y33385D02*X229035D01*
X230235Y37385D02*X232235D01*
X230235D02*Y35385D01*
X230735Y35885D01*
X231735D01*
X232235Y35385D01*
Y33885D01*
X231735Y33385D02*X232235Y33885D01*
X230735Y33385D02*X231735D01*
X230235Y33885D02*X230735Y33385D01*
X236024Y37582D02*X238024D01*
X238524Y37082D01*
Y36082D01*
X238024Y35582D02*X238524Y36082D01*
X236524Y35582D02*X238024D01*
X236524Y37582D02*Y33582D01*
Y35582D02*X238524Y33582D01*
X239724Y37082D02*X240224Y37582D01*
X241724D01*
X242224Y37082D01*
Y36082D01*
X239724Y33582D02*X242224Y36082D01*
X239724Y33582D02*X242224D01*
X243424D02*X245924Y36082D01*
Y37582D02*Y36082D01*
X243424Y37582D02*X245924D01*
X247835Y26559D02*X249835D01*
X250335Y26059D01*
Y25059D01*
X249835Y24559D02*X250335Y25059D01*
X248335Y24559D02*X249835D01*
X248335Y26559D02*Y22559D01*
Y24559D02*X250335Y22559D01*
X251535Y26059D02*X252035Y26559D01*
X253535D01*
X254035Y26059D01*
Y25059D01*
X251535Y22559D02*X254035Y25059D01*
X251535Y22559D02*X254035D01*
X255235Y24559D02*X257235Y26559D01*
X255235Y24559D02*X257735D01*
X257235Y26559D02*Y22559D01*
X225787Y111598D02*X227787D01*
X228287Y111098D01*
Y110098D01*
X227787Y109598D02*X228287Y110098D01*
X226287Y109598D02*X227787D01*
X226287Y111598D02*Y107598D01*
Y109598D02*X228287Y107598D01*
X229487Y111098D02*X229987Y111598D01*
X230987D01*
X231487Y111098D01*
Y108098D01*
X230987Y107598D02*X231487Y108098D01*
X229987Y107598D02*X230987D01*
X229487Y108098D02*X229987Y107598D01*
Y109598D02*X231487D01*
X232687Y111098D02*X233187Y111598D01*
X234187D01*
X234687Y111098D01*
Y108098D01*
X234187Y107598D02*X234687Y108098D01*
X233187Y107598D02*X234187D01*
X232687Y108098D02*X233187Y107598D01*
Y109598D02*X234687D01*
X236418Y111598D02*X238418D01*
X238918Y111098D01*
Y110098D01*
X238418Y109598D02*X238918Y110098D01*
X236918Y109598D02*X238418D01*
X236918Y111598D02*Y107598D01*
Y109598D02*X238918Y107598D01*
X240118Y111098D02*X240618Y111598D01*
X241618D01*
X242118Y111098D01*
Y108098D01*
X241618Y107598D02*X242118Y108098D01*
X240618Y107598D02*X241618D01*
X240118Y108098D02*X240618Y107598D01*
Y109598D02*X242118D01*
X243318Y111598D02*X245318D01*
X243318D02*Y109598D01*
X243818Y110098D01*
X244818D01*
X245318Y109598D01*
Y108098D01*
X244818Y107598D02*X245318Y108098D01*
X243818Y107598D02*X244818D01*
X243318Y108098D02*X243818Y107598D01*
X247835Y102149D02*X249835D01*
X250335Y101649D01*
Y100649D01*
X249835Y100149D02*X250335Y100649D01*
X248335Y100149D02*X249835D01*
X248335Y102149D02*Y98149D01*
Y100149D02*X250335Y98149D01*
X251535Y101649D02*X252035Y102149D01*
X253035D01*
X253535Y101649D01*
Y98649D01*
X253035Y98149D02*X253535Y98649D01*
X252035Y98149D02*X253035D01*
X251535Y98649D02*X252035Y98149D01*
Y100149D02*X253535D01*
X256235Y102149D02*X256735Y101649D01*
X255235Y102149D02*X256235D01*
X254735Y101649D02*X255235Y102149D01*
X254735Y101649D02*Y98649D01*
X255235Y98149D01*
X256235Y100149D02*X256735Y99649D01*
X254735Y100149D02*X256235D01*
X255235Y98149D02*X256235D01*
X256735Y98649D01*
Y99649D02*Y98649D01*
X213582Y101953D02*X215582D01*
X216082Y101453D01*
Y100453D01*
X215582Y99953D02*X216082Y100453D01*
X214082Y99953D02*X215582D01*
X214082Y101953D02*Y97953D01*
Y99953D02*X216082Y97953D01*
X217282Y101453D02*X217782Y101953D01*
X219282D01*
X219782Y101453D01*
Y100453D01*
X217282Y97953D02*X219782Y100453D01*
X217282Y97953D02*X219782D01*
X220982Y98453D02*X221482Y97953D01*
X220982Y99453D02*Y98453D01*
Y99453D02*X221482Y99953D01*
X222482D01*
X222982Y99453D01*
Y98453D01*
X222482Y97953D02*X222982Y98453D01*
X221482Y97953D02*X222482D01*
X220982Y100453D02*X221482Y99953D01*
X220982Y101453D02*Y100453D01*
Y101453D02*X221482Y101953D01*
X222482D01*
X222982Y101453D01*
Y100453D01*
X222482Y99953D02*X222982Y100453D01*
X214477Y106023D02*X215977D01*
X213977Y106523D02*X214477Y106023D01*
X213977Y109523D02*Y106523D01*
Y109523D02*X214477Y110023D01*
X215977D01*
X217177Y109523D02*X217677Y110023D01*
X218677D01*
X219177Y109523D01*
Y106523D01*
X218677Y106023D02*X219177Y106523D01*
X217677Y106023D02*X218677D01*
X217177Y106523D02*X217677Y106023D01*
Y108023D02*X219177D01*
X220377D02*X222377Y110023D01*
X220377Y108023D02*X222877D01*
X222377Y110023D02*Y106023D01*
X272260Y129952D02*Y127952D01*
Y129952D02*X272760Y130452D01*
X273760D01*
X274260Y129952D02*X273760Y130452D01*
X274260Y129952D02*Y128452D01*
X272260D02*X276260D01*
X274260D02*X276260Y130452D01*
X274260Y131652D02*X272260Y133652D01*
X274260Y134152D02*Y131652D01*
X272260Y133652D02*X276260D01*
X272260Y136852D02*X272760Y137352D01*
X272260Y136852D02*Y135852D01*
X272760Y135352D02*X272260Y135852D01*
X272760Y135352D02*X275760D01*
X276260Y135852D01*
X274260Y136852D02*X274760Y137352D01*
X274260Y136852D02*Y135352D01*
X276260Y136852D02*Y135852D01*
Y136852D02*X275760Y137352D01*
X274760D02*X275760D01*
X271866Y115779D02*Y113779D01*
Y115779D02*X272366Y116279D01*
X273366D01*
X273866Y115779D02*X273366Y116279D01*
X273866Y115779D02*Y114279D01*
X271866D02*X275866D01*
X273866D02*X275866Y116279D01*
X273866Y117479D02*X271866Y119479D01*
X273866Y119979D02*Y117479D01*
X271866Y119479D02*X275866D01*
X272366Y121179D02*X271866Y121679D01*
Y122679D02*Y121679D01*
Y122679D02*X272366Y123179D01*
X275366D01*
X275866Y122679D02*X275366Y123179D01*
X275866Y122679D02*Y121679D01*
X275366Y121179D02*X275866Y121679D01*
X273866Y123179D02*Y121679D01*
X252575Y108496D02*Y106496D01*
Y108496D02*X253075Y108996D01*
X254075D01*
X254575Y108496D02*X254075Y108996D01*
X254575Y108496D02*Y106996D01*
X252575D02*X256575D01*
X254575D02*X256575Y108996D01*
X254575Y110196D02*X252575Y112196D01*
X254575Y112696D02*Y110196D01*
X252575Y112196D02*X256575D01*
X254575Y113896D02*X252575Y115896D01*
X254575Y116396D02*Y113896D01*
X252575Y115896D02*X256575D01*
X252575Y121881D02*Y119881D01*
Y121881D02*X253075Y122381D01*
X254075D01*
X254575Y121881D02*X254075Y122381D01*
X254575Y121881D02*Y120381D01*
X252575D02*X256575D01*
X254575D02*X256575Y122381D01*
X254575Y123581D02*X252575Y125581D01*
X254575Y126081D02*Y123581D01*
X252575Y125581D02*X256575D01*
X252575Y129281D02*Y127281D01*
X254575D01*
X254075Y127781D01*
Y128781D02*Y127781D01*
Y128781D02*X254575Y129281D01*
X256075D01*
X256575Y128781D02*X256075Y129281D01*
X256575Y128781D02*Y127781D01*
X256075Y127281D02*X256575Y127781D01*
X230028Y125708D02*X231528D01*
X229528Y126208D02*X230028Y125708D01*
X229528Y129208D02*Y126208D01*
Y129208D02*X230028Y129708D01*
X231528D01*
X232728Y129208D02*X233228Y129708D01*
X234228D01*
X234728Y129208D01*
Y126208D01*
X234228Y125708D02*X234728Y126208D01*
X233228Y125708D02*X234228D01*
X232728Y126208D02*X233228Y125708D01*
Y127708D02*X234728D01*
X237428Y129708D02*X237928Y129208D01*
X236428Y129708D02*X237428D01*
X235928Y129208D02*X236428Y129708D01*
X235928Y129208D02*Y126208D01*
X236428Y125708D01*
X237428Y127708D02*X237928Y127208D01*
X235928Y127708D02*X237428D01*
X236428Y125708D02*X237428D01*
X237928Y126208D01*
Y127208D02*Y126208D01*
X237993Y129512D02*X239993D01*
X240493Y129012D01*
Y128012D01*
X239993Y127512D02*X240493Y128012D01*
X238493Y127512D02*X239993D01*
X238493Y129512D02*Y125512D01*
Y127512D02*X240493Y125512D01*
X241693Y127512D02*X243693Y129512D01*
X241693Y127512D02*X244193D01*
X243693Y129512D02*Y125512D01*
X245393Y126012D02*X245893Y125512D01*
X245393Y127012D02*Y126012D01*
Y127012D02*X245893Y127512D01*
X246893D01*
X247393Y127012D01*
Y126012D01*
X246893Y125512D02*X247393Y126012D01*
X245893Y125512D02*X246893D01*
X245393Y128012D02*X245893Y127512D01*
X245393Y129012D02*Y128012D01*
Y129012D02*X245893Y129512D01*
X246893D01*
X247393Y129012D01*
Y128012D01*
X246893Y127512D02*X247393Y128012D01*
X252576Y149047D02*Y147047D01*
Y149047D02*X253076Y149547D01*
X254076D01*
X254576Y149047D02*X254076Y149547D01*
X254576Y149047D02*Y147547D01*
X252576D02*X256576D01*
X254576D02*X256576Y149547D01*
Y150747D02*X254076Y153247D01*
X252576D02*X254076D01*
X252576D02*Y150747D01*
X256076Y154447D02*X256576Y154947D01*
X253076Y154447D02*X256076D01*
X253076D02*X252576Y154947D01*
Y155947D02*Y154947D01*
Y155947D02*X253076Y156447D01*
X256076D01*
X256576Y155947D02*X256076Y156447D01*
X256576Y155947D02*Y154947D01*
X255576Y154447D02*X253576Y156447D01*
X245748Y136054D02*Y134554D01*
X245248Y134054D02*X245748Y134554D01*
X242248Y134054D02*X245248D01*
X242248D02*X241748Y134554D01*
Y136054D02*Y134554D01*
X242248Y137254D02*X241748Y137754D01*
Y139254D02*Y137754D01*
Y139254D02*X242248Y139754D01*
X243248D01*
X245748Y137254D02*X243248Y139754D01*
X245748D02*Y137254D01*
X242248Y140954D02*X241748Y141454D01*
Y142454D02*Y141454D01*
Y142454D02*X242248Y142954D01*
X245248D01*
X245748Y142454D02*X245248Y142954D01*
X245748Y142454D02*Y141454D01*
X245248Y140954D02*X245748Y141454D01*
X243748Y142954D02*Y141454D01*
X252378Y136449D02*Y134449D01*
Y136449D02*X252878Y136949D01*
X253878D01*
X254378Y136449D02*X253878Y136949D01*
X254378Y136449D02*Y134949D01*
X252378D02*X256378D01*
X254378D02*X256378Y136949D01*
X254378Y138149D02*X252378Y140149D01*
X254378Y140649D02*Y138149D01*
X252378Y140149D02*X256378D01*
Y141849D02*X253878Y144349D01*
X252378D02*X253878D01*
X252378D02*Y141849D01*
X247047Y162385D02*X249047D01*
X249547Y161885D01*
Y160885D01*
X249047Y160385D02*X249547Y160885D01*
X247547Y160385D02*X249047D01*
X247547Y162385D02*Y158385D01*
Y160385D02*X249547Y158385D01*
X250747Y162385D02*X252747D01*
X250747D02*Y160385D01*
X251247Y160885D01*
X252247D01*
X252747Y160385D01*
Y158885D01*
X252247Y158385D02*X252747Y158885D01*
X251247Y158385D02*X252247D01*
X250747Y158885D02*X251247Y158385D01*
X253947Y161885D02*X254447Y162385D01*
X255447D01*
X255947Y161885D01*
Y158885D01*
X255447Y158385D02*X255947Y158885D01*
X254447Y158385D02*X255447D01*
X253947Y158885D02*X254447Y158385D01*
Y160385D02*X255947D01*
X219824Y142236D02*X221324D01*
X219324Y142736D02*X219824Y142236D01*
X219324Y145736D02*Y142736D01*
Y145736D02*X219824Y146236D01*
X221324D01*
X222524Y145736D02*X223024Y146236D01*
X224524D01*
X225024Y145736D01*
Y144736D01*
X222524Y142236D02*X225024Y144736D01*
X222524Y142236D02*X225024D01*
X226724D02*X227724D01*
X227224Y146236D02*Y142236D01*
X226224Y145236D02*X227224Y146236D01*
X234252Y167701D02*X236252D01*
X236752Y167201D01*
Y166201D01*
X236252Y165701D02*X236752Y166201D01*
X234752Y165701D02*X236252D01*
X234752Y167701D02*Y163701D01*
Y165701D02*X236752Y163701D01*
X237952Y167701D02*X239952D01*
X237952D02*Y165701D01*
X238452Y166201D01*
X239452D01*
X239952Y165701D01*
Y164201D01*
X239452Y163701D02*X239952Y164201D01*
X238452Y163701D02*X239452D01*
X237952Y164201D02*X238452Y163701D01*
X241152Y165701D02*X243152Y167701D01*
X241152Y165701D02*X243652D01*
X243152Y167701D02*Y163701D01*
X224015Y167700D02*X226015D01*
X226515Y167200D01*
Y166200D01*
X226015Y165700D02*X226515Y166200D01*
X224515Y165700D02*X226015D01*
X224515Y167700D02*Y163700D01*
Y165700D02*X226515Y163700D01*
X227715Y167700D02*X229715D01*
X227715D02*Y165700D01*
X228215Y166200D01*
X229215D01*
X229715Y165700D01*
Y164200D01*
X229215Y163700D02*X229715Y164200D01*
X228215Y163700D02*X229215D01*
X227715Y164200D02*X228215Y163700D01*
X230915Y167700D02*X232915D01*
X230915D02*Y165700D01*
X231415Y166200D01*
X232415D01*
X232915Y165700D01*
Y164200D01*
X232415Y163700D02*X232915Y164200D01*
X231415Y163700D02*X232415D01*
X230915Y164200D02*X231415Y163700D01*
X233146Y227377D02*X234646D01*
X233146Y230877D02*Y227377D01*
X233646Y231377D02*X233146Y230877D01*
X233646Y231377D02*X234146D01*
X234646Y230877D02*X234146Y231377D01*
X230446D02*X231446D01*
X230946D02*Y227377D01*
X231946Y228377D02*X230946Y227377D01*
X229246Y229377D02*X227246Y227377D01*
X226746Y229377D02*X229246D01*
X227246Y231377D02*Y227377D01*
X232299Y198260D02*Y196260D01*
Y198260D02*X232799Y198760D01*
X233799D01*
X234299Y198260D02*X233799Y198760D01*
X234299Y198260D02*Y196760D01*
X232299D02*X236299D01*
X234299D02*X236299Y198760D01*
X232299Y201960D02*Y199960D01*
X234299D01*
X233799Y200460D01*
Y201460D02*Y200460D01*
Y201460D02*X234299Y201960D01*
X235799D01*
X236299Y201460D02*X235799Y201960D01*
X236299Y201460D02*Y200460D01*
X235799Y199960D02*X236299Y200460D01*
Y204660D02*Y203660D01*
X232299Y204160D02*X236299D01*
X233299Y203160D02*X232299Y204160D01*
X239960Y195654D02*Y192154D01*
X240460Y191654D01*
X241460D01*
X241960Y192154D01*
Y195654D02*Y192154D01*
X243660Y191654D02*X244660D01*
X244160Y195654D02*Y191654D01*
X243160Y194654D02*X244160Y195654D01*
X246360Y191654D02*X247360D01*
X246860Y195654D02*Y191654D01*
X245860Y194654D02*X246860Y195654D01*
X248729Y220984D02*X250229D01*
X248229Y221484D02*X248729Y220984D01*
X248229Y224484D02*Y221484D01*
Y224484D02*X248729Y224984D01*
X250229D01*
X251429Y224484D02*X251929Y224984D01*
X252929D01*
X253429Y224484D01*
Y221484D01*
X252929Y220984D02*X253429Y221484D01*
X251929Y220984D02*X252929D01*
X251429Y221484D02*X251929Y220984D01*
Y222984D02*X253429D01*
X254629Y220984D02*X257129Y223484D01*
Y224984D02*Y223484D01*
X254629Y224984D02*X257129D01*
X241748Y209283D02*Y207283D01*
Y209283D02*X242248Y209783D01*
X243248D01*
X243748Y209283D02*X243248Y209783D01*
X243748Y209283D02*Y207783D01*
X241748D02*X245748D01*
X243748D02*X245748Y209783D01*
X241748Y212983D02*Y210983D01*
X243748D01*
X243248Y211483D01*
Y212483D02*Y211483D01*
Y212483D02*X243748Y212983D01*
X245248D01*
X245748Y212483D02*X245248Y212983D01*
X245748Y212483D02*Y211483D01*
X245248Y210983D02*X245748Y211483D01*
X241748Y215683D02*X242248Y216183D01*
X241748Y215683D02*Y214683D01*
X242248Y214183D02*X241748Y214683D01*
X242248Y214183D02*X245248D01*
X245748Y214683D01*
X243748Y215683D02*X244248Y216183D01*
X243748Y215683D02*Y214183D01*
X245748Y215683D02*Y214683D01*
Y215683D02*X245248Y216183D01*
X244248D02*X245248D01*
X240039Y227197D02*Y225697D01*
X239539Y225197D02*X240039Y225697D01*
X236539Y225197D02*X239539D01*
X236539D02*X236039Y225697D01*
Y227197D02*Y225697D01*
X238039Y228397D02*X236039Y230397D01*
X238039Y230897D02*Y228397D01*
X236039Y230397D02*X240039D01*
X238039Y232097D02*X236039Y234097D01*
X238039Y234597D02*Y232097D01*
X236039Y234097D02*X240039D01*
X380905Y182661D02*Y179161D01*
X381405Y178661D01*
X382405D01*
X382905Y179161D01*
Y182661D02*Y179161D01*
X384105Y182161D02*X384605Y182661D01*
X386105D01*
X386605Y182161D01*
Y181161D01*
X384105Y178661D02*X386605Y181161D01*
X384105Y178661D02*X386605D01*
X411564Y191344D02*X413064D01*
X411564Y194844D02*Y191344D01*
X412064Y195344D02*X411564Y194844D01*
X412064Y195344D02*X412564D01*
X413064Y194844D02*X412564Y195344D01*
X408864D02*X409864D01*
X409364D02*Y191344D01*
X410364Y192344D02*X409364Y191344D01*
X412364Y151344D02*X413864D01*
X412364Y154844D02*Y151344D01*
X412864Y155344D02*X412364Y154844D01*
X412864Y155344D02*X413364D01*
X413864Y154844D02*X413364Y155344D01*
X411164Y151844D02*X410664Y151344D01*
X409164D02*X410664D01*
X409164D02*X408664Y151844D01*
Y152844D02*Y151844D01*
X411164Y155344D02*X408664Y152844D01*
Y155344D02*X411164D01*
X400536Y178576D02*Y174576D01*
X402036Y178576D02*X402536Y178076D01*
Y175076D01*
X402036Y174576D02*X402536Y175076D01*
X400036Y174576D02*X402036D01*
X400036Y178576D02*X402036D01*
X404236Y174576D02*X405236D01*
X404736Y178576D02*Y174576D01*
X403736Y177576D02*X404736Y178576D01*
X441296Y141004D02*Y139504D01*
X440796Y139004D02*X441296Y139504D01*
X437796Y139004D02*X440796D01*
X437796D02*X437296Y139504D01*
Y141004D02*Y139504D01*
X441296Y143704D02*Y142704D01*
X437296Y143204D02*X441296D01*
X438296Y142204D02*X437296Y143204D01*
X440796Y144904D02*X441296Y145404D01*
X437796Y144904D02*X440796D01*
X437796D02*X437296Y145404D01*
Y146404D02*Y145404D01*
Y146404D02*X437796Y146904D01*
X440796D01*
X441296Y146404D02*X440796Y146904D01*
X441296Y146404D02*Y145404D01*
X440296Y144904D02*X438296Y146904D01*
X409268Y132968D02*Y130968D01*
Y132968D02*X409768Y133468D01*
X410768D01*
X411268Y132968D02*X410768Y133468D01*
X411268Y132968D02*Y131468D01*
X409268D02*X413268D01*
X411268D02*X413268Y133468D01*
Y136168D02*Y135168D01*
X409268Y135668D02*X413268D01*
X410268Y134668D02*X409268Y135668D01*
X426988Y128656D02*Y127156D01*
X426488Y126656D02*X426988Y127156D01*
X423488Y126656D02*X426488D01*
X423488D02*X422988Y127156D01*
Y128656D02*Y127156D01*
Y131356D02*X423488Y131856D01*
X422988Y131356D02*Y130356D01*
X423488Y129856D02*X422988Y130356D01*
X423488Y129856D02*X426488D01*
X426988Y130356D01*
X424988Y131356D02*X425488Y131856D01*
X424988Y131356D02*Y129856D01*
X426988Y131356D02*Y130356D01*
Y131356D02*X426488Y131856D01*
X425488D02*X426488D01*
X363386Y215338D02*Y211838D01*
X363886Y211338D01*
X364886D01*
X365386Y211838D01*
Y215338D02*Y211838D01*
X366586Y213338D02*X368586Y215338D01*
X366586Y213338D02*X369086D01*
X368586Y215338D02*Y211338D01*
X355119Y215337D02*Y211837D01*
X355619Y211337D01*
X356619D01*
X357119Y211837D01*
Y215337D02*Y211837D01*
X358319Y215337D02*X360319D01*
X358319D02*Y213337D01*
X358819Y213837D01*
X359819D01*
X360319Y213337D01*
Y211837D01*
X359819Y211337D02*X360319Y211837D01*
X358819Y211337D02*X359819D01*
X358319Y211837D02*X358819Y211337D01*
X180330Y70701D02*Y68701D01*
Y70701D02*X180830Y71201D01*
X181830D01*
X182330Y70701D02*X181830Y71201D01*
X182330Y70701D02*Y69201D01*
X180330D02*X184330D01*
X182330D02*X184330Y71201D01*
X180830Y72401D02*X180330Y72901D01*
Y74401D02*Y72901D01*
Y74401D02*X180830Y74901D01*
X181830D01*
X184330Y72401D02*X181830Y74901D01*
X184330D02*Y72401D01*
X180330Y77601D02*X180830Y78101D01*
X180330Y77601D02*Y76601D01*
X180830Y76101D02*X180330Y76601D01*
X180830Y76101D02*X183830D01*
X184330Y76601D01*
X182330Y77601D02*X182830Y78101D01*
X182330Y77601D02*Y76101D01*
X184330Y77601D02*Y76601D01*
Y77601D02*X183830Y78101D01*
X182830D02*X183830D01*
X184527Y98456D02*Y96956D01*
X184027Y96456D02*X184527Y96956D01*
X181027Y96456D02*X184027D01*
X181027D02*X180527Y96956D01*
Y98456D02*Y96956D01*
X182527Y99656D02*X180527Y101656D01*
X182527Y102156D02*Y99656D01*
X180527Y101656D02*X184527D01*
X184027Y103356D02*X184527Y103856D01*
X181027Y103356D02*X184027D01*
X181027D02*X180527Y103856D01*
Y104856D02*Y103856D01*
Y104856D02*X181027Y105356D01*
X184027D01*
X184527Y104856D02*X184027Y105356D01*
X184527Y104856D02*Y103856D01*
X183527Y103356D02*X181527Y105356D01*
X189396Y95664D02*Y95164D01*
X191896Y92664D01*
Y91664D01*
X189396Y92664D02*Y91664D01*
Y92664D02*X191896Y95164D01*
Y95664D02*Y95164D01*
X193596Y91664D02*X194596D01*
X194096Y95664D02*Y91664D01*
X193096Y94664D02*X194096Y95664D01*
X170185Y94803D02*X171685D01*
X169685Y95303D02*X170185Y94803D01*
X169685Y98303D02*Y95303D01*
Y98303D02*X170185Y98803D01*
X171685D01*
X172885Y98303D02*X173385Y98803D01*
X174885D01*
X175385Y98303D01*
Y97303D01*
X172885Y94803D02*X175385Y97303D01*
X172885Y94803D02*X175385D01*
X176585Y95303D02*X177085Y94803D01*
X176585Y96303D02*Y95303D01*
Y96303D02*X177085Y96803D01*
X178085D01*
X178585Y96303D01*
Y95303D01*
X178085Y94803D02*X178585Y95303D01*
X177085Y94803D02*X178085D01*
X176585Y97303D02*X177085Y96803D01*
X176585Y98303D02*Y97303D01*
Y98303D02*X177085Y98803D01*
X178085D01*
X178585Y98303D01*
Y97303D01*
X178085Y96803D02*X178585Y97303D01*
X174881Y82905D02*Y81405D01*
X174381Y80905D02*X174881Y81405D01*
X171381Y80905D02*X174381D01*
X171381D02*X170881Y81405D01*
Y82905D02*Y81405D01*
X172881Y84105D02*X170881Y86105D01*
X172881Y86605D02*Y84105D01*
X170881Y86105D02*X174881D01*
X171381Y87805D02*X170881Y88305D01*
Y89805D02*Y88305D01*
Y89805D02*X171381Y90305D01*
X172381D01*
X174881Y87805D02*X172381Y90305D01*
X174881D02*Y87805D01*
X184331Y83496D02*Y81996D01*
X183831Y81496D02*X184331Y81996D01*
X180831Y81496D02*X183831D01*
X180831D02*X180331Y81996D01*
Y83496D02*Y81996D01*
X180831Y84696D02*X180331Y85196D01*
Y86196D02*Y85196D01*
Y86196D02*X180831Y86696D01*
X183831D01*
X184331Y86196D02*X183831Y86696D01*
X184331Y86196D02*Y85196D01*
X183831Y84696D02*X184331Y85196D01*
X182331Y86696D02*Y85196D01*
X183831Y87896D02*X184331Y88396D01*
X182831Y87896D02*X183831D01*
X182831D02*X182331Y88396D01*
Y89396D02*Y88396D01*
Y89396D02*X182831Y89896D01*
X183831D01*
X184331Y89396D02*X183831Y89896D01*
X184331Y89396D02*Y88396D01*
X181831Y87896D02*X182331Y88396D01*
X180831Y87896D02*X181831D01*
X180831D02*X180331Y88396D01*
Y89396D02*Y88396D01*
Y89396D02*X180831Y89896D01*
X181831D01*
X182331Y89396D02*X181831Y89896D01*
X205408Y129576D02*X207408D01*
X207908Y129076D01*
Y128076D01*
X207408Y127576D02*X207908Y128076D01*
X205908Y127576D02*X207408D01*
X205908Y129576D02*Y125576D01*
Y127576D02*X207908Y125576D01*
X209108Y129076D02*X209608Y129576D01*
X210608D01*
X211108Y129076D01*
Y126076D01*
X210608Y125576D02*X211108Y126076D01*
X209608Y125576D02*X210608D01*
X209108Y126076D02*X209608Y125576D01*
Y127576D02*X211108D01*
X212308Y126076D02*X212808Y125576D01*
X212308Y127076D02*Y126076D01*
Y127076D02*X212808Y127576D01*
X213808D01*
X214308Y127076D01*
Y126076D01*
X213808Y125576D02*X214308Y126076D01*
X212808Y125576D02*X213808D01*
X212308Y128076D02*X212808Y127576D01*
X212308Y129076D02*Y128076D01*
Y129076D02*X212808Y129576D01*
X213808D01*
X214308Y129076D01*
Y128076D01*
X213808Y127576D02*X214308Y128076D01*
X211220Y27149D02*X213220D01*
X213720Y26649D01*
Y25649D01*
X213220Y25149D02*X213720Y25649D01*
X211720Y25149D02*X213220D01*
X211720Y27149D02*Y23149D01*
Y25149D02*X213720Y23149D01*
X214920Y26649D02*X215420Y27149D01*
X216920D01*
X217420Y26649D01*
Y25649D01*
X214920Y23149D02*X217420Y25649D01*
X214920Y23149D02*X217420D01*
X203425Y103969D02*Y102469D01*
X202925Y101969D02*X203425Y102469D01*
X199925Y101969D02*X202925D01*
X199925D02*X199425Y102469D01*
Y103969D02*Y102469D01*
X199925Y105169D02*X199425Y105669D01*
Y107169D02*Y105669D01*
Y107169D02*X199925Y107669D01*
X200925D01*
X203425Y105169D02*X200925Y107669D01*
X203425D02*Y105169D01*
Y108869D02*X200925Y111369D01*
X199425D02*X200925D01*
X199425D02*Y108869D01*
X199229Y77394D02*Y75394D01*
Y77394D02*X199729Y77894D01*
X200729D01*
X201229Y77394D02*X200729Y77894D01*
X201229Y77394D02*Y75894D01*
X199229D02*X203229D01*
X201229D02*X203229Y77894D01*
X199729Y79094D02*X199229Y79594D01*
Y80594D02*Y79594D01*
Y80594D02*X199729Y81094D01*
X202729D01*
X203229Y80594D02*X202729Y81094D01*
X203229Y80594D02*Y79594D01*
X202729Y79094D02*X203229Y79594D01*
X201229Y81094D02*Y79594D01*
X202729Y82294D02*X203229Y82794D01*
X199729Y82294D02*X202729D01*
X199729D02*X199229Y82794D01*
Y83794D02*Y82794D01*
Y83794D02*X199729Y84294D01*
X202729D01*
X203229Y83794D02*X202729Y84294D01*
X203229Y83794D02*Y82794D01*
X202229Y82294D02*X200229Y84294D01*
X194882Y6479D02*X196382D01*
Y2979D01*
X195882Y2479D02*X196382Y2979D01*
X195382Y2479D02*X195882D01*
X194882Y2979D02*X195382Y2479D01*
X198082D02*X199082D01*
X198582Y6479D02*Y2479D01*
X197582Y5479D02*X198582Y6479D01*
X200282D02*X202282D01*
X200282D02*Y4479D01*
X200782Y4979D01*
X201782D01*
X202282Y4479D01*
Y2979D01*
X201782Y2479D02*X202282Y2979D01*
X200782Y2479D02*X201782D01*
X200282Y2979D02*X200782Y2479D01*
X47850Y131724D02*Y129724D01*
Y131724D02*X48350Y132224D01*
X49350D01*
X49850Y131724D02*X49350Y132224D01*
X49850Y131724D02*Y130224D01*
X47850D02*X51850D01*
X49850D02*X51850Y132224D01*
X48350Y133424D02*X47850Y133924D01*
Y135424D02*Y133924D01*
Y135424D02*X48350Y135924D01*
X49350D01*
X51850Y133424D02*X49350Y135924D01*
X51850D02*Y133424D01*
X48350Y137124D02*X47850Y137624D01*
Y138624D02*Y137624D01*
Y138624D02*X48350Y139124D01*
X51350D01*
X51850Y138624D02*X51350Y139124D01*
X51850Y138624D02*Y137624D01*
X51350Y137124D02*X51850Y137624D01*
X49850Y139124D02*Y137624D01*
X19701Y123940D02*Y122440D01*
Y123940D02*X23201D01*
X23701Y123440D02*X23201Y123940D01*
X23701Y123440D02*Y122940D01*
X23201Y122440D02*X23701Y122940D01*
Y125140D02*X21201Y127640D01*
X19701D02*X21201D01*
X19701D02*Y125140D01*
X44456Y122715D02*X45956D01*
X46456Y122215D02*X45956Y122715D01*
X46456Y122215D02*Y119215D01*
X45956Y118715D01*
X44456D02*X45956D01*
X43256Y119215D02*X42756Y118715D01*
X41256D02*X42756D01*
X41256D02*X40756Y119215D01*
Y120215D02*Y119215D01*
X43256Y122715D02*X40756Y120215D01*
Y122715D02*X43256D01*
X39556Y122215D02*X39056Y122715D01*
X39556Y122215D02*Y119215D01*
X39056Y118715D01*
X38056D02*X39056D01*
X38056D02*X37556Y119215D01*
Y122215D02*Y119215D01*
X38056Y122715D02*X37556Y122215D01*
X38056Y122715D02*X39056D01*
X39556Y121715D02*X37556Y119715D01*
X40277Y102058D02*Y100558D01*
X40777Y102558D02*X40277Y102058D01*
X40777Y102558D02*X43777D01*
X44277Y102058D01*
Y100558D01*
X40277Y98858D02*Y97858D01*
Y98358D02*X44277D01*
X43277Y99358D02*X44277Y98358D01*
Y95158D02*X43777Y94658D01*
X44277Y96158D02*Y95158D01*
X43777Y96658D02*X44277Y96158D01*
X40777Y96658D02*X43777D01*
X40777D02*X40277Y96158D01*
X42277Y95158D02*X41777Y94658D01*
X42277Y96658D02*Y95158D01*
X40277Y96158D02*Y95158D01*
X40777Y94658D01*
X41777D01*
X44473Y89763D02*Y87763D01*
X43973Y87263D01*
X42973D02*X43973D01*
X42473Y87763D02*X42973Y87263D01*
X42473Y89263D02*Y87763D01*
X40473Y89263D02*X44473D01*
X42473D02*X40473Y87263D01*
Y85563D02*Y84563D01*
Y85063D02*X44473D01*
X43473Y86063D02*X44473Y85063D01*
X43973Y83363D02*X44473Y82863D01*
Y81863D01*
X43973Y81363D01*
X40973D02*X43973D01*
X40473Y81863D02*X40973Y81363D01*
X40473Y82863D02*Y81863D01*
X40973Y83363D02*X40473Y82863D01*
X42473D02*Y81363D01*
X40866Y76468D02*Y74968D01*
X41366Y76968D02*X40866Y76468D01*
X41366Y76968D02*X44366D01*
X44866Y76468D01*
Y74968D01*
X44366Y73768D02*X44866Y73268D01*
Y71768D01*
X44366Y71268D01*
X43366D02*X44366D01*
X40866Y73768D02*X43366Y71268D01*
X40866Y73768D02*Y71268D01*
X44366Y70068D02*X44866Y69568D01*
Y68068D01*
X44366Y67568D01*
X43366D02*X44366D01*
X40866Y70068D02*X43366Y67568D01*
X40866Y70068D02*Y67568D01*
X65173Y116567D02*Y114567D01*
Y116567D02*X65673Y117067D01*
X66673D01*
X67173Y116567D02*X66673Y117067D01*
X67173Y116567D02*Y115067D01*
X65173D02*X69173D01*
X67173D02*X69173Y117067D01*
X65673Y118267D02*X65173Y118767D01*
Y120267D02*Y118767D01*
Y120267D02*X65673Y120767D01*
X66673D01*
X69173Y118267D02*X66673Y120767D01*
X69173D02*Y118267D01*
X65673Y121967D02*X65173Y122467D01*
Y123967D02*Y122467D01*
Y123967D02*X65673Y124467D01*
X66673D01*
X69173Y121967D02*X66673Y124467D01*
X69173D02*Y121967D01*
X60645Y14295D02*Y12795D01*
Y14295D02*X64145D01*
X64645Y13795D02*X64145Y14295D01*
X64645Y13795D02*Y13295D01*
X64145Y12795D02*X64645Y13295D01*
Y15495D02*X62645Y17495D01*
X61145D02*X62645D01*
X60645Y16995D02*X61145Y17495D01*
X60645Y16995D02*Y15995D01*
X61145Y15495D02*X60645Y15995D01*
X61145Y15495D02*X62145D01*
X62645Y15995D01*
Y17495D02*Y15995D01*
X66520Y96456D02*Y94456D01*
X66020Y93956D01*
X65020D02*X66020D01*
X64520Y94456D02*X65020Y93956D01*
X64520Y95956D02*Y94456D01*
X62520Y95956D02*X66520D01*
X64520D02*X62520Y93956D01*
Y92256D02*Y91256D01*
Y91756D02*X66520D01*
X65520Y92756D02*X66520Y91756D01*
X66020Y90056D02*X66520Y89556D01*
Y88056D01*
X66020Y87556D01*
X65020D02*X66020D01*
X62520Y90056D02*X65020Y87556D01*
X62520Y90056D02*Y87556D01*
X62914Y82570D02*Y81070D01*
X63414Y83070D02*X62914Y82570D01*
X63414Y83070D02*X66414D01*
X66914Y82570D01*
Y81070D01*
X66414Y79870D02*X66914Y79370D01*
Y77870D01*
X66414Y77370D01*
X65414D02*X66414D01*
X62914Y79870D02*X65414Y77370D01*
X62914Y79870D02*Y77370D01*
X64914Y76170D02*X66914Y74170D01*
X64914Y76170D02*Y73670D01*
X62914Y74170D02*X66914D01*
X65929Y70077D02*Y68077D01*
X65429Y67577D01*
X64429D02*X65429D01*
X63929Y68077D02*X64429Y67577D01*
X63929Y69577D02*Y68077D01*
X61929Y69577D02*X65929D01*
X63929D02*X61929Y67577D01*
Y65877D02*Y64877D01*
Y65377D02*X65929D01*
X64929Y66377D02*X65929Y65377D01*
X61929Y63677D02*X63929Y61677D01*
X65429D01*
X65929Y62177D02*X65429Y61677D01*
X65929Y63177D02*Y62177D01*
X65429Y63677D02*X65929Y63177D01*
X64429Y63677D02*X65429D01*
X64429D02*X63929Y63177D01*
Y61677D01*
X141221Y61448D02*Y59948D01*
X140721Y59448D02*X141221Y59948D01*
X137721Y59448D02*X140721D01*
X137721D02*X137221Y59948D01*
Y61448D02*Y59948D01*
X141221Y64148D02*Y63148D01*
X137221Y63648D02*X141221D01*
X138221Y62648D02*X137221Y63648D01*
X124094Y66763D02*Y65263D01*
X123594Y64763D02*X124094Y65263D01*
X120594Y64763D02*X123594D01*
X120594D02*X120094Y65263D01*
Y66763D02*Y65263D01*
X124094Y69463D02*Y68463D01*
X120094Y68963D02*X124094D01*
X121094Y67963D02*X120094Y68963D01*
X122094Y70663D02*X120094Y72663D01*
X122094Y73163D02*Y70663D01*
X120094Y72663D02*X124094D01*
X131874Y81298D02*Y79298D01*
X131374Y78798D01*
X130374D02*X131374D01*
X129874Y79298D02*X130374Y78798D01*
X129874Y80798D02*Y79298D01*
X127874Y80798D02*X131874D01*
X129874D02*X127874Y78798D01*
Y77598D02*X129874Y75598D01*
X131374D01*
X131874Y76098D02*X131374Y75598D01*
X131874Y77098D02*Y76098D01*
X131374Y77598D02*X131874Y77098D01*
X130374Y77598D02*X131374D01*
X130374D02*X129874Y77098D01*
Y75598D01*
X97076Y79329D02*X100576D01*
X97076D02*X96576Y78829D01*
Y77829D01*
X97076Y77329D01*
X100576D01*
X96576Y76129D02*X99076Y73629D01*
X100576D01*
Y76129D02*Y73629D01*
X83268Y52148D02*Y48648D01*
X83768Y48148D01*
X84768D01*
X85268Y48648D01*
Y52148D02*Y48648D01*
X86468Y51648D02*X86968Y52148D01*
X87968D01*
X88468Y51648D01*
Y48648D01*
X87968Y48148D02*X88468Y48648D01*
X86968Y48148D02*X87968D01*
X86468Y48648D02*X86968Y48148D01*
Y50148D02*X88468D01*
X108543Y57905D02*Y56405D01*
X108043Y55905D02*X108543Y56405D01*
X105043Y55905D02*X108043D01*
X105043D02*X104543Y56405D01*
Y57905D02*Y56405D01*
X108543Y60605D02*Y59605D01*
X104543Y60105D02*X108543D01*
X105543Y59105D02*X104543Y60105D01*
X108043Y61805D02*X108543Y62305D01*
X107043Y61805D02*X108043D01*
X107043D02*X106543Y62305D01*
Y63305D02*Y62305D01*
Y63305D02*X107043Y63805D01*
X108043D01*
X108543Y63305D02*X108043Y63805D01*
X108543Y63305D02*Y62305D01*
X106043Y61805D02*X106543Y62305D01*
X105043Y61805D02*X106043D01*
X105043D02*X104543Y62305D01*
Y63305D02*Y62305D01*
Y63305D02*X105043Y63805D01*
X106043D01*
X106543Y63305D02*X106043Y63805D01*
X80298Y63189D02*Y61189D01*
X79798Y60689D01*
X78798D02*X79798D01*
X78298Y61189D02*X78798Y60689D01*
X78298Y62689D02*Y61189D01*
X76298Y62689D02*X80298D01*
X78298D02*X76298Y60689D01*
Y58989D02*Y57989D01*
Y58489D02*X80298D01*
X79298Y59489D02*X80298Y58489D01*
X76798Y56789D02*X76298Y56289D01*
X76798Y56789D02*X77798D01*
X78298Y56289D01*
Y55289D01*
X77798Y54789D01*
X76798D02*X77798D01*
X76298Y55289D02*X76798Y54789D01*
X76298Y56289D02*Y55289D01*
X78798Y56789D02*X78298Y56289D01*
X78798Y56789D02*X79798D01*
X80298Y56289D01*
Y55289D01*
X79798Y54789D01*
X78798D02*X79798D01*
X78298Y55289D02*X78798Y54789D01*
X61401Y55708D02*Y53708D01*
X60901Y53208D01*
X59901D02*X60901D01*
X59401Y53708D02*X59901Y53208D01*
X59401Y55208D02*Y53708D01*
X57401Y55208D02*X61401D01*
X59401D02*X57401Y53208D01*
Y51508D02*Y50508D01*
Y51008D02*X61401D01*
X60401Y52008D02*X61401Y51008D01*
X57401Y49308D02*X59901Y46808D01*
X61401D01*
Y49308D02*Y46808D01*
X80298Y48425D02*Y46425D01*
X79798Y45925D01*
X78798D02*X79798D01*
X78298Y46425D02*X78798Y45925D01*
X78298Y47925D02*Y46425D01*
X76298Y47925D02*X80298D01*
X78298D02*X76298Y45925D01*
Y44225D02*Y43225D01*
Y43725D02*X80298D01*
X79298Y44725D02*X80298Y43725D01*
Y40525D02*X79798Y40025D01*
X80298Y41525D02*Y40525D01*
X79798Y42025D02*X80298Y41525D01*
X76798Y42025D02*X79798D01*
X76798D02*X76298Y41525D01*
X78298Y40525D02*X77798Y40025D01*
X78298Y42025D02*Y40525D01*
X76298Y41525D02*Y40525D01*
X76798Y40025D01*
X77798D01*
X90339Y36614D02*Y34614D01*
X89839Y34114D01*
X88839D02*X89839D01*
X88339Y34614D02*X88839Y34114D01*
X88339Y36114D02*Y34614D01*
X86339Y36114D02*X90339D01*
X88339D02*X86339Y34114D01*
Y32414D02*Y31414D01*
Y31914D02*X90339D01*
X89339Y32914D02*X90339Y31914D01*
X88339Y30214D02*X90339Y28214D01*
X88339Y30214D02*Y27714D01*
X86339Y28214D02*X90339D01*
X136295Y14189D02*X137795D01*
X136295Y17689D02*Y14189D01*
X136795Y18189D02*X136295Y17689D01*
X136795Y18189D02*X137295D01*
X137795Y17689D02*X137295Y18189D01*
X133595D02*X134595D01*
X134095D02*Y14189D01*
X135095Y15189D02*X134095Y14189D01*
X132395Y18189D02*X129895Y15689D01*
Y14189D01*
X132395D01*
X107205Y18988D02*Y17488D01*
X107705Y19488D02*X107205Y18988D01*
X107705Y19488D02*X110705D01*
X111205Y18988D01*
Y17488D01*
X110705Y16288D02*X111205Y15788D01*
Y14288D01*
X110705Y13788D01*
X109705D02*X110705D01*
X107205Y16288D02*X109705Y13788D01*
X107205Y16288D02*Y13788D01*
X97362Y22334D02*Y20834D01*
X97862Y22834D02*X97362Y22334D01*
X97862Y22834D02*X100862D01*
X101362Y22334D01*
Y20834D01*
X99362Y19634D02*X101362Y17634D01*
X99362Y19634D02*Y17134D01*
X97362Y17634D02*X101362D01*
X97362Y15934D02*X99862Y13434D01*
X101362D01*
Y15934D02*Y13434D01*
X150575Y202362D02*Y200862D01*
X147075D02*X150575D01*
X146575Y201362D02*X147075Y200862D01*
X146575Y201862D02*Y201362D01*
X147075Y202362D02*X146575Y201862D01*
Y199162D02*Y198162D01*
Y198662D02*X150575D01*
X149575Y199662D02*X150575Y198662D01*
X147075Y196962D02*X146575Y196462D01*
X147075Y196962D02*X148075D01*
X148575Y196462D01*
Y195462D01*
X148075Y194962D01*
X147075D02*X148075D01*
X146575Y195462D02*X147075Y194962D01*
X146575Y196462D02*Y195462D01*
X149075Y196962D02*X148575Y196462D01*
X149075Y196962D02*X150075D01*
X150575Y196462D01*
Y195462D01*
X150075Y194962D01*
X149075D02*X150075D01*
X148575Y195462D02*X149075Y194962D01*
X128623Y162629D02*Y161129D01*
X128123Y160629D02*X128623Y161129D01*
X125123Y160629D02*X128123D01*
X125123D02*X124623Y161129D01*
Y162629D02*Y161129D01*
X125123Y163829D02*X124623Y164329D01*
Y165329D02*Y164329D01*
Y165329D02*X125123Y165829D01*
X128123D01*
X128623Y165329D02*X128123Y165829D01*
X128623Y165329D02*Y164329D01*
X128123Y163829D02*X128623Y164329D01*
X126623Y165829D02*Y164329D01*
X128623Y167029D02*X126623Y169029D01*
X125123D02*X126623D01*
X124623Y168529D02*X125123Y169029D01*
X124623Y168529D02*Y167529D01*
X125123Y167029D02*X124623Y167529D01*
X125123Y167029D02*X126123D01*
X126623Y167529D01*
Y169029D02*Y167529D01*
X76394Y140188D02*Y138188D01*
Y140188D02*X76894Y140688D01*
X77894D01*
X78394Y140188D02*X77894Y140688D01*
X78394Y140188D02*Y138688D01*
X76394D02*X80394D01*
X78394D02*X80394Y140688D01*
X76894Y141888D02*X76394Y142388D01*
Y143888D02*Y142388D01*
Y143888D02*X76894Y144388D01*
X77894D01*
X80394Y141888D02*X77894Y144388D01*
X80394D02*Y141888D01*
X79894Y145588D02*X80394Y146088D01*
X76894Y145588D02*X79894D01*
X76894D02*X76394Y146088D01*
Y147088D02*Y146088D01*
Y147088D02*X76894Y147588D01*
X79894D01*
X80394Y147088D02*X79894Y147588D01*
X80394Y147088D02*Y146088D01*
X79394Y145588D02*X77394Y147588D01*
X82559Y158889D02*Y157389D01*
X82059Y156889D02*X82559Y157389D01*
X79059Y156889D02*X82059D01*
X79059D02*X78559Y157389D01*
Y158889D02*Y157389D01*
Y162089D02*Y160089D01*
X80559D01*
X80059Y160589D01*
Y161589D02*Y160589D01*
Y161589D02*X80559Y162089D01*
X82059D01*
X82559Y161589D02*X82059Y162089D01*
X82559Y161589D02*Y160589D01*
X82059Y160089D02*X82559Y160589D01*
X82059Y163289D02*X82559Y163789D01*
X79059Y163289D02*X82059D01*
X79059D02*X78559Y163789D01*
Y164789D02*Y163789D01*
Y164789D02*X79059Y165289D01*
X82059D01*
X82559Y164789D02*X82059Y165289D01*
X82559Y164789D02*Y163789D01*
X81559Y163289D02*X79559Y165289D01*
X81889Y155496D02*X83889D01*
X84389Y154996D01*
Y153996D01*
X83889Y153496D02*X84389Y153996D01*
X82389Y153496D02*X83889D01*
X82389Y155496D02*Y151496D01*
Y153496D02*X84389Y151496D01*
X85589D02*X88089Y153996D01*
Y155496D02*Y153996D01*
X85589Y155496D02*X88089D01*
X89289Y154996D02*X89789Y155496D01*
X90789D01*
X91289Y154996D01*
Y151996D01*
X90789Y151496D02*X91289Y151996D01*
X89789Y151496D02*X90789D01*
X89289Y151996D02*X89789Y151496D01*
Y153496D02*X91289D01*
X93504Y155496D02*X95504D01*
X96004Y154996D01*
Y153996D01*
X95504Y153496D02*X96004Y153996D01*
X94004Y153496D02*X95504D01*
X94004Y155496D02*Y151496D01*
Y153496D02*X96004Y151496D01*
X97204D02*X99704Y153996D01*
Y155496D02*Y153996D01*
X97204Y155496D02*X99704D01*
X100904Y154996D02*X101404Y155496D01*
X102904D01*
X103404Y154996D01*
Y153996D01*
X100904Y151496D02*X103404Y153996D01*
X100904Y151496D02*X103404D01*
X76953Y156890D02*Y155390D01*
X73453D02*X76953D01*
X72953Y155890D02*X73453Y155390D01*
X72953Y156390D02*Y155890D01*
X73453Y156890D02*X72953Y156390D01*
Y153690D02*Y152690D01*
Y153190D02*X76953D01*
X75953Y154190D02*X76953Y153190D01*
X76453Y151490D02*X76953Y150990D01*
Y149490D01*
X76453Y148990D01*
X75453D02*X76453D01*
X72953Y151490D02*X75453Y148990D01*
X72953Y151490D02*Y148990D01*
X108465Y170456D02*X110465D01*
X110965Y169956D01*
Y168956D01*
X110465Y168456D02*X110965Y168956D01*
X108965Y168456D02*X110465D01*
X108965Y170456D02*Y166456D01*
Y168456D02*X110965Y166456D01*
X112165D02*X114665Y168956D01*
Y170456D02*Y168956D01*
X112165Y170456D02*X114665D01*
X116365Y166456D02*X117365D01*
X116865Y170456D02*Y166456D01*
X115865Y169456D02*X116865Y170456D01*
X58874Y211252D02*Y209252D01*
Y211252D02*X59374Y211752D01*
X60374D01*
X60874Y211252D02*X60374Y211752D01*
X60874Y211252D02*Y209752D01*
X58874D02*X62874D01*
X60874D02*X62874Y211752D01*
Y212952D02*X60374Y215452D01*
X58874D02*X60374D01*
X58874D02*Y212952D01*
X60874Y216652D02*X58874Y218652D01*
X60874Y219152D02*Y216652D01*
X58874Y218652D02*X62874D01*
X39484Y213192D02*Y209192D01*
X37984D02*X37484Y209692D01*
Y212692D02*Y209692D01*
X37984Y213192D02*X37484Y212692D01*
X37984Y213192D02*X39984D01*
X37984Y209192D02*X39984D01*
X34784Y213192D02*X35784D01*
X35284D02*Y209192D01*
X36284Y210192D02*X35284Y209192D01*
X33584Y209692D02*X33084Y209192D01*
X32084D02*X33084D01*
X32084D02*X31584Y209692D01*
Y212692D02*Y209692D01*
X32084Y213192D02*X31584Y212692D01*
X32084Y213192D02*X33084D01*
X33584Y212692D02*X33084Y213192D01*
X31584Y211192D02*X33084D01*
X16356Y208684D02*Y204684D01*
X14856D02*X14356Y205184D01*
Y208184D02*Y205184D01*
X14856Y208684D02*X14356Y208184D01*
X14856Y208684D02*X16856D01*
X14856Y204684D02*X16856D01*
X11656Y208684D02*X12656D01*
X12156D02*Y204684D01*
X13156Y205684D02*X12156Y204684D01*
X10456Y208184D02*X9956Y208684D01*
X10456Y208184D02*Y205184D01*
X9956Y204684D01*
X8956D02*X9956D01*
X8956D02*X8456Y205184D01*
Y208184D02*Y205184D01*
X8956Y208684D02*X8456Y208184D01*
X8956Y208684D02*X9956D01*
X10456Y207684D02*X8456Y205684D01*
X26352Y208684D02*Y204684D01*
X24852D02*X24352Y205184D01*
Y208184D02*Y205184D01*
X24852Y208684D02*X24352Y208184D01*
X24852Y208684D02*X26852D01*
X24852Y204684D02*X26852D01*
X21652Y208684D02*X22652D01*
X22152D02*Y204684D01*
X23152Y205684D02*X22152Y204684D01*
X18952Y208684D02*X19952D01*
X19452D02*Y204684D01*
X20452Y205684D02*X19452Y204684D01*
X6360Y208880D02*Y204880D01*
X4860D02*X4360Y205380D01*
Y208380D02*Y205380D01*
X4860Y208880D02*X4360Y208380D01*
X4860Y208880D02*X6860D01*
X4860Y204880D02*X6860D01*
X3160Y208880D02*X1160Y206880D01*
Y205380D01*
X1660Y204880D02*X1160Y205380D01*
X1660Y204880D02*X2660D01*
X3160Y205380D02*X2660Y204880D01*
X3160Y206380D02*Y205380D01*
Y206380D02*X2660Y206880D01*
X1160D02*X2660D01*
X149409Y93881D02*Y93381D01*
X151909Y90881D01*
Y89881D01*
X149409Y90881D02*Y89881D01*
Y90881D02*X151909Y93381D01*
Y93881D02*Y93381D01*
X153109D02*X153609Y93881D01*
X155109D01*
X155609Y93381D01*
Y92381D01*
X153109Y89881D02*X155609Y92381D01*
X153109Y89881D02*X155609D01*
X144765Y91763D02*Y90263D01*
X144265Y89763D02*X144765Y90263D01*
X141265Y89763D02*X144265D01*
X141265D02*X140765Y90263D01*
Y91763D02*Y90263D01*
X142765Y92963D02*X140765Y94963D01*
X142765Y95463D02*Y92963D01*
X140765Y94963D02*X144765D01*
X140765Y98663D02*Y96663D01*
X142765D01*
X142265Y97163D01*
Y98163D02*Y97163D01*
Y98163D02*X142765Y98663D01*
X144265D01*
X144765Y98163D02*X144265Y98663D01*
X144765Y98163D02*Y97163D01*
X144265Y96663D02*X144765Y97163D01*
X135709Y104953D02*Y103453D01*
X135209Y102953D02*X135709Y103453D01*
X132209Y102953D02*X135209D01*
X132209D02*X131709Y103453D01*
Y104953D02*Y103453D01*
X135709Y106153D02*X133709Y108153D01*
X132209D02*X133709D01*
X131709Y107653D02*X132209Y108153D01*
X131709Y107653D02*Y106653D01*
X132209Y106153D02*X131709Y106653D01*
X132209Y106153D02*X133209D01*
X133709Y106653D01*
Y108153D02*Y106653D01*
X101394Y107118D02*Y105118D01*
Y107118D02*X101894Y107618D01*
X102894D01*
X103394Y107118D02*X102894Y107618D01*
X103394Y107118D02*Y105618D01*
X101394D02*X105394D01*
X103394D02*X105394Y107618D01*
Y108818D02*X102894Y111318D01*
X101394D02*X102894D01*
X101394D02*Y108818D01*
X131874Y99213D02*Y97213D01*
X131374Y96713D01*
X130374D02*X131374D01*
X129874Y97213D02*X130374Y96713D01*
X129874Y98713D02*Y97213D01*
X127874Y98713D02*X131874D01*
X129874D02*X127874Y96713D01*
X131874Y94013D02*X131374Y93513D01*
X131874Y95013D02*Y94013D01*
X131374Y95513D02*X131874Y95013D01*
X128374Y95513D02*X131374D01*
X128374D02*X127874Y95013D01*
X129874Y94013D02*X129374Y93513D01*
X129874Y95513D02*Y94013D01*
X127874Y95013D02*Y94013D01*
X128374Y93513D01*
X129374D01*
X131873Y90553D02*Y88553D01*
X131373Y88053D01*
X130373D02*X131373D01*
X129873Y88553D02*X130373Y88053D01*
X129873Y90053D02*Y88553D01*
X127873Y90053D02*X131873D01*
X129873D02*X127873Y88053D01*
X128373Y86853D02*X127873Y86353D01*
X128373Y86853D02*X129373D01*
X129873Y86353D01*
Y85353D01*
X129373Y84853D01*
X128373D02*X129373D01*
X127873Y85353D02*X128373Y84853D01*
X127873Y86353D02*Y85353D01*
X130373Y86853D02*X129873Y86353D01*
X130373Y86853D02*X131373D01*
X131873Y86353D01*
Y85353D01*
X131373Y84853D01*
X130373D02*X131373D01*
X129873Y85353D02*X130373Y84853D01*
X136051Y115353D02*X139551D01*
X136051D02*X135551Y114853D01*
Y113853D01*
X136051Y113353D01*
X139551D01*
X135551Y112153D02*X137551Y110153D01*
X139051D01*
X139551Y110653D02*X139051Y110153D01*
X139551Y111653D02*Y110653D01*
X139051Y112153D02*X139551Y111653D01*
X138051Y112153D02*X139051D01*
X138051D02*X137551Y111653D01*
Y110153D01*
X106874Y124212D02*Y122212D01*
X106374Y121712D01*
X105374D02*X106374D01*
X104874Y122212D02*X105374Y121712D01*
X104874Y123712D02*Y122212D01*
X102874Y123712D02*X106874D01*
X104874D02*X102874Y121712D01*
X106874Y120512D02*Y118512D01*
X104874Y120512D02*X106874D01*
X104874D02*X105374Y120012D01*
Y119012D01*
X104874Y118512D01*
X103374D02*X104874D01*
X102874Y119012D02*X103374Y118512D01*
X102874Y120012D02*Y119012D01*
X103374Y120512D02*X102874Y120012D01*
Y117312D02*X104874Y115312D01*
X106374D01*
X106874Y115812D02*X106374Y115312D01*
X106874Y116812D02*Y115812D01*
X106374Y117312D02*X106874Y116812D01*
X105374Y117312D02*X106374D01*
X105374D02*X104874Y116812D01*
Y115312D01*
X118584Y136251D02*Y134751D01*
X118084Y134251D02*X118584Y134751D01*
X115084Y134251D02*X118084D01*
X115084D02*X114584Y134751D01*
Y136251D02*Y134751D01*
X116584Y137451D02*X114584Y139451D01*
X116584Y139951D02*Y137451D01*
X114584Y139451D02*X118584D01*
Y142651D02*Y141651D01*
X114584Y142151D02*X118584D01*
X115584Y141151D02*X114584Y142151D01*
X128426Y133299D02*Y131799D01*
X127926Y131299D02*X128426Y131799D01*
X124926Y131299D02*X127926D01*
X124926D02*X124426Y131799D01*
Y133299D02*Y131799D01*
X126426Y134499D02*X124426Y136499D01*
X126426Y136999D02*Y134499D01*
X124426Y136499D02*X128426D01*
X124926Y138199D02*X124426Y138699D01*
Y139699D02*Y138699D01*
Y139699D02*X124926Y140199D01*
X127926D01*
X128426Y139699D02*X127926Y140199D01*
X128426Y139699D02*Y138699D01*
X127926Y138199D02*X128426Y138699D01*
X126426Y140199D02*Y138699D01*
X122260Y114795D02*Y112795D01*
Y114795D02*X122760Y115295D01*
X123760D01*
X124260Y114795D02*X123760Y115295D01*
X124260Y114795D02*Y113295D01*
X122260D02*X126260D01*
X124260D02*X126260Y115295D01*
X122760Y116495D02*X122260Y116995D01*
Y117995D02*Y116995D01*
Y117995D02*X122760Y118495D01*
X125760D01*
X126260Y117995D02*X125760Y118495D01*
X126260Y117995D02*Y116995D01*
X125760Y116495D02*X126260Y116995D01*
X124260Y118495D02*Y116995D01*
X96260Y117307D02*X98260D01*
X98760Y116807D01*
Y115807D01*
X98260Y115307D02*X98760Y115807D01*
X96760Y115307D02*X98260D01*
X96760Y117307D02*Y113307D01*
Y115307D02*X98760Y113307D01*
X99960Y115307D02*X101960Y117307D01*
X99960Y115307D02*X102460D01*
X101960Y117307D02*Y113307D01*
X76770Y117309D02*X78770D01*
X79270Y116809D01*
Y115809D01*
X78770Y115309D02*X79270Y115809D01*
X77270Y115309D02*X78770D01*
X77270Y117309D02*Y113309D01*
Y115309D02*X79270Y113309D01*
X80470Y117309D02*X82470D01*
X80470D02*Y115309D01*
X80970Y115809D01*
X81970D01*
X82470Y115309D01*
Y113809D01*
X81970Y113309D02*X82470Y113809D01*
X80970Y113309D02*X81970D01*
X80470Y113809D02*X80970Y113309D01*
X85645Y125424D02*Y123424D01*
Y125424D02*X86145Y125924D01*
X87145D01*
X87645Y125424D02*X87145Y125924D01*
X87645Y125424D02*Y123924D01*
X85645D02*X89645D01*
X87645D02*X89645Y125924D01*
X86145Y127124D02*X85645Y127624D01*
Y129124D02*Y127624D01*
Y129124D02*X86145Y129624D01*
X87145D01*
X89645Y127124D02*X87145Y129624D01*
X89645D02*Y127124D01*
Y132324D02*Y131324D01*
X85645Y131824D02*X89645D01*
X86645Y130824D02*X85645Y131824D01*
X102920Y134658D02*X104920D01*
X102920D02*X102420Y135158D01*
Y136158D02*Y135158D01*
X102920Y136658D02*X102420Y136158D01*
X102920Y136658D02*X104420D01*
Y138658D02*Y134658D01*
Y136658D02*X102420Y138658D01*
X99720Y134658D02*X99220Y135158D01*
X99720Y134658D02*X100720D01*
X101220Y135158D02*X100720Y134658D01*
X101220Y138158D02*Y135158D01*
Y138158D02*X100720Y138658D01*
X99720Y136658D02*X99220Y137158D01*
X99720Y136658D02*X101220D01*
X99720Y138658D02*X100720D01*
X99720D02*X99220Y138158D01*
Y137158D01*
X98020Y138158D02*X97520Y138658D01*
X98020Y138158D02*Y135158D01*
X97520Y134658D01*
X96520D02*X97520D01*
X96520D02*X96020Y135158D01*
Y138158D02*Y135158D01*
X96520Y138658D02*X96020Y138158D01*
X96520Y138658D02*X97520D01*
X98020Y137658D02*X96020Y135658D01*
X211092Y151920D02*X213092D01*
X213592Y151420D01*
Y150420D01*
X213092Y149920D02*X213592Y150420D01*
X211592Y149920D02*X213092D01*
X211592Y151920D02*Y147920D01*
Y149920D02*X213592Y147920D01*
X214792Y151920D02*X216792D01*
X214792D02*Y149920D01*
X215292Y150420D01*
X216292D01*
X216792Y149920D01*
Y148420D01*
X216292Y147920D02*X216792Y148420D01*
X215292Y147920D02*X216292D01*
X214792Y148420D02*X215292Y147920D01*
X217992D02*X220492Y150420D01*
Y151920D02*Y150420D01*
X217992Y151920D02*X220492D01*
X195787Y176074D02*Y174574D01*
X196287Y176574D02*X195787Y176074D01*
X196287Y176574D02*X199287D01*
X199787Y176074D01*
Y174574D01*
X199287Y173374D02*X199787Y172874D01*
Y171874D01*
X199287Y171374D01*
X196287D02*X199287D01*
X195787Y171874D02*X196287Y171374D01*
X195787Y172874D02*Y171874D01*
X196287Y173374D02*X195787Y172874D01*
X197787D02*Y171374D01*
X199287Y170174D02*X199787Y169674D01*
Y168174D01*
X199287Y167674D01*
X198287D02*X199287D01*
X195787Y170174D02*X198287Y167674D01*
X195787Y170174D02*Y167674D01*
X210551Y168200D02*Y166700D01*
X211051Y168700D02*X210551Y168200D01*
X211051Y168700D02*X214051D01*
X214551Y168200D01*
Y166700D01*
X214051Y165500D02*X214551Y165000D01*
Y164000D01*
X214051Y163500D01*
X211051D02*X214051D01*
X210551Y164000D02*X211051Y163500D01*
X210551Y165000D02*Y164000D01*
X211051Y165500D02*X210551Y165000D01*
X212551D02*Y163500D01*
X214051Y162300D02*X214551Y161800D01*
Y160800D01*
X214051Y160300D01*
X211051D02*X214051D01*
X210551Y160800D02*X211051Y160300D01*
X210551Y161800D02*Y160800D01*
X211051Y162300D02*X210551Y161800D01*
X212551D02*Y160300D01*
X213854Y157479D02*X214354D01*
X213854D02*X211354Y154979D01*
X210354D02*X211354D01*
X210354Y157479D02*X211354D01*
X213854Y154979D01*
X214354D01*
X192595Y203361D02*X194095D01*
X192595Y206861D02*Y203361D01*
X193095Y207361D02*X192595Y206861D01*
X193095Y207361D02*X193595D01*
X194095Y206861D02*X193595Y207361D01*
X189895D02*X190895D01*
X190395D02*Y203361D01*
X191395Y204361D02*X190395Y203361D01*
X188695Y203861D02*X188195Y203361D01*
X187195D02*X188195D01*
X187195D02*X186695Y203861D01*
Y206861D02*Y203861D01*
X187195Y207361D02*X186695Y206861D01*
X187195Y207361D02*X188195D01*
X188695Y206861D02*X188195Y207361D01*
X186695Y205361D02*X188195D01*
X176197Y204755D02*Y202755D01*
Y204755D02*X176697Y205255D01*
X177697D01*
X178197Y204755D02*X177697Y205255D01*
X178197Y204755D02*Y203255D01*
X176197D02*X180197D01*
X178197D02*X180197Y205255D01*
X176197Y208455D02*Y206455D01*
X178197D01*
X177697Y206955D01*
Y207955D02*Y206955D01*
Y207955D02*X178197Y208455D01*
X179697D01*
X180197Y207955D02*X179697Y208455D01*
X180197Y207955D02*Y206955D01*
X179697Y206455D02*X180197Y206955D01*
X176697Y209655D02*X176197Y210155D01*
Y211655D02*Y210155D01*
Y211655D02*X176697Y212155D01*
X177697D01*
X180197Y209655D02*X177697Y212155D01*
X180197D02*Y209655D01*
X186237Y218532D02*Y216532D01*
Y218532D02*X186737Y219032D01*
X187737D01*
X188237Y218532D02*X187737Y219032D01*
X188237Y218532D02*Y217032D01*
X186237D02*X190237D01*
X188237D02*X190237Y219032D01*
X186237Y222232D02*Y220232D01*
X188237D01*
X187737Y220732D01*
Y221732D02*Y220732D01*
Y221732D02*X188237Y222232D01*
X189737D01*
X190237Y221732D02*X189737Y222232D01*
X190237Y221732D02*Y220732D01*
X189737Y220232D02*X190237Y220732D01*
X189737Y223432D02*X190237Y223932D01*
X188737Y223432D02*X189737D01*
X188737D02*X188237Y223932D01*
Y224932D02*Y223932D01*
Y224932D02*X188737Y225432D01*
X189737D01*
X190237Y224932D02*X189737Y225432D01*
X190237Y224932D02*Y223932D01*
X187737Y223432D02*X188237Y223932D01*
X186737Y223432D02*X187737D01*
X186737D02*X186237Y223932D01*
Y224932D02*Y223932D01*
Y224932D02*X186737Y225432D01*
X187737D01*
X188237Y224932D02*X187737Y225432D01*
X170748Y228180D02*Y226680D01*
X170248Y226180D02*X170748Y226680D01*
X167248Y226180D02*X170248D01*
X167248D02*X166748Y226680D01*
Y228180D02*Y226680D01*
X168748Y229380D02*X166748Y231380D01*
X168748Y231880D02*Y229380D01*
X166748Y231380D02*X170748D01*
X170248Y233080D02*X170748Y233580D01*
X169248Y233080D02*X170248D01*
X169248D02*X168748Y233580D01*
Y234580D02*Y233580D01*
Y234580D02*X169248Y235080D01*
X170248D01*
X170748Y234580D02*X170248Y235080D01*
X170748Y234580D02*Y233580D01*
X168248Y233080D02*X168748Y233580D01*
X167248Y233080D02*X168248D01*
X167248D02*X166748Y233580D01*
Y234580D02*Y233580D01*
Y234580D02*X167248Y235080D01*
X168248D01*
X168748Y234580D02*X168248Y235080D01*
X183780Y193397D02*Y191897D01*
X184280Y193897D02*X183780Y193397D01*
X184280Y193897D02*X187280D01*
X187780Y193397D01*
Y191897D01*
X183780Y190197D02*Y189197D01*
Y189697D02*X187780D01*
X186780Y190697D02*X187780Y189697D01*
X183780Y187997D02*X185780Y185997D01*
X187280D01*
X187780Y186497D02*X187280Y185997D01*
X187780Y187497D02*Y186497D01*
X187280Y187997D02*X187780Y187497D01*
X186280Y187997D02*X187280D01*
X186280D02*X185780Y187497D01*
Y185997D01*
X194791Y190078D02*X196291D01*
X194291Y190578D02*X194791Y190078D01*
X194291Y193578D02*Y190578D01*
Y193578D02*X194791Y194078D01*
X196291D01*
X197491Y193578D02*X197991Y194078D01*
X199491D01*
X199991Y193578D01*
Y192578D01*
X197491Y190078D02*X199991Y192578D01*
X197491Y190078D02*X199991D01*
X201191D02*X203191Y192078D01*
Y193578D02*Y192078D01*
X202691Y194078D02*X203191Y193578D01*
X201691Y194078D02*X202691D01*
X201191Y193578D02*X201691Y194078D01*
X201191Y193578D02*Y192578D01*
X201691Y192078D01*
X203191D01*
X206799Y190274D02*X208299D01*
X206299Y190774D02*X206799Y190274D01*
X206299Y193774D02*Y190774D01*
Y193774D02*X206799Y194274D01*
X208299D01*
X209499Y193774D02*X209999Y194274D01*
X210999D01*
X211499Y193774D01*
Y190774D01*
X210999Y190274D02*X211499Y190774D01*
X209999Y190274D02*X210999D01*
X209499Y190774D02*X209999Y190274D01*
Y192274D02*X211499D01*
X212699Y190774D02*X213199Y190274D01*
X212699Y193774D02*Y190774D01*
Y193774D02*X213199Y194274D01*
X214199D01*
X214699Y193774D01*
Y190774D01*
X214199Y190274D02*X214699Y190774D01*
X213199Y190274D02*X214199D01*
X212699Y191274D02*X214699Y193274D01*
X167625Y185354D02*X169125D01*
X167125Y185854D02*X167625Y185354D01*
X167125Y188854D02*Y185854D01*
Y188854D02*X167625Y189354D01*
X169125D01*
X170325Y188854D02*X170825Y189354D01*
X172325D01*
X172825Y188854D01*
Y187854D01*
X170325Y185354D02*X172825Y187854D01*
X170325Y185354D02*X172825D01*
X174025Y189354D02*X176025D01*
X174025D02*Y187354D01*
X174525Y187854D01*
X175525D01*
X176025Y187354D01*
Y185854D01*
X175525Y185354D02*X176025Y185854D01*
X174525Y185354D02*X175525D01*
X174025Y185854D02*X174525Y185354D01*
X211484Y134280D02*X213484D01*
X213984Y133780D01*
Y132780D01*
X213484Y132280D02*X213984Y132780D01*
X211984Y132280D02*X213484D01*
X211984Y134280D02*Y130280D01*
Y132280D02*X213984Y130280D01*
X215184Y132280D02*X217184Y134280D01*
X215184Y132280D02*X217684D01*
X217184Y134280D02*Y130280D01*
X218884Y133780D02*X219384Y134280D01*
X220884D01*
X221384Y133780D01*
Y132780D01*
X218884Y130280D02*X221384Y132780D01*
X218884Y130280D02*X221384D01*
X210996Y143356D02*Y141856D01*
X210496Y141356D02*X210996Y141856D01*
X207496Y141356D02*X210496D01*
X207496D02*X206996Y141856D01*
Y143356D02*Y141856D01*
X210996Y146056D02*Y145056D01*
X206996Y145556D02*X210996D01*
X207996Y144556D02*X206996Y145556D01*
X210996Y147256D02*X208496Y149756D01*
X206996D02*X208496D01*
X206996D02*Y147256D01*
M02*
