G04 start of page 3 for group 1 idx 1 *
G04 Title: (unknown), solder *
G04 Creator: pcb 4.0.2 *
G04 CreationDate: Wed Oct 16 23:20:42 2019 UTC *
G04 For: walter *
G04 Format: Gerber/RS-274X *
G04 PCB-Dimensions (mil): 4429.13 2362.20 *
G04 PCB-Coordinate-Origin: lower left *
%MOIN*%
%FSLAX25Y25*%
%LNBOTTOM*%
%ADD61C,0.1280*%
%ADD60C,0.0490*%
%ADD59C,0.0300*%
%ADD58C,0.0787*%
%ADD57C,0.0200*%
%ADD56C,0.1181*%
%ADD55C,0.0158*%
%ADD54C,0.0160*%
%ADD53C,0.0800*%
%ADD52C,0.0400*%
%ADD51C,0.1260*%
%ADD50C,0.0320*%
%ADD49C,0.0320*%
%ADD48C,0.1320*%
%ADD47C,0.0900*%
%ADD46C,0.1100*%
%ADD45C,0.0600*%
%ADD44C,0.0700*%
%ADD43C,0.1200*%
%ADD42C,0.0100*%
%ADD41C,0.0394*%
%ADD40C,0.0150*%
%ADD39C,0.0591*%
%ADD38C,0.0079*%
%ADD37C,0.0001*%
G54D37*G36*
X128772Y222108D02*Y218188D01*
X120540D01*
Y222108D01*
X128772D01*
G37*
G36*
X158172Y226224D02*X154973D01*
X154654Y226419D01*
X154291Y226570D01*
X153908Y226662D01*
X153516Y226685D01*
X144124Y226662D01*
X143741Y226570D01*
X143378Y226419D01*
X143059Y226224D01*
X131712D01*
Y236220D01*
X158172D01*
Y226224D01*
G37*
G36*
X134064Y227988D02*X119364D01*
Y236220D01*
X134064D01*
Y227988D01*
G37*
G36*
X124068Y220148D02*X116160D01*
Y221853D01*
X116165Y221912D01*
X116146Y222147D01*
X116091Y222377D01*
X116001Y222595D01*
X115877Y222796D01*
X115724Y222976D01*
X115679Y223014D01*
X114586Y224107D01*
X114548Y224152D01*
X114368Y224305D01*
X114167Y224429D01*
X113949Y224519D01*
X113719Y224574D01*
X113484Y224593D01*
X113425Y224588D01*
X70117D01*
X70000Y224724D01*
X69715Y224968D01*
X69394Y225165D01*
X69047Y225309D01*
X68682Y225396D01*
X68307Y225426D01*
X67932Y225396D01*
X67567Y225309D01*
X67220Y225165D01*
X66899Y224968D01*
X66614Y224724D01*
X66370Y224439D01*
X66173Y224118D01*
X66029Y223771D01*
X65942Y223406D01*
X65912Y223031D01*
X65942Y222656D01*
X66029Y222291D01*
X66173Y221944D01*
X66370Y221623D01*
X66614Y221338D01*
X66899Y221094D01*
X67220Y220897D01*
X67567Y220753D01*
X67932Y220666D01*
X68307Y220636D01*
X68682Y220666D01*
X69047Y220753D01*
X69394Y220897D01*
X69715Y221094D01*
X70000Y221338D01*
X70214Y221588D01*
X112863D01*
X113160Y221291D01*
Y220148D01*
X0D01*
Y236220D01*
X124068D01*
Y220148D01*
G37*
G36*
X103835Y55905D02*X124068D01*
Y36736D01*
X103835D01*
Y48228D01*
X113685D01*
X113780Y48133D01*
Y43218D01*
X113553Y43078D01*
X113268Y42834D01*
X113024Y42549D01*
X112827Y42228D01*
X112683Y41881D01*
X112596Y41516D01*
X112566Y41141D01*
X112596Y40766D01*
X112683Y40401D01*
X112827Y40054D01*
X113024Y39733D01*
X113268Y39448D01*
X113553Y39204D01*
X113874Y39007D01*
X114221Y38863D01*
X114586Y38776D01*
X114961Y38746D01*
X115336Y38776D01*
X115701Y38863D01*
X116048Y39007D01*
X116369Y39204D01*
X116654Y39448D01*
X116898Y39733D01*
X117095Y40054D01*
X117239Y40401D01*
X117326Y40766D01*
X117348Y41141D01*
X117326Y41516D01*
X117239Y41881D01*
X117095Y42228D01*
X116898Y42549D01*
X116654Y42834D01*
X116369Y43078D01*
X116142Y43218D01*
Y48576D01*
X116145Y48622D01*
X116131Y48807D01*
X116131Y48807D01*
X116087Y48988D01*
X116016Y49160D01*
X115919Y49318D01*
X115798Y49459D01*
X115763Y49489D01*
X115041Y50211D01*
X115011Y50246D01*
X114870Y50367D01*
X114712Y50464D01*
X114540Y50535D01*
X114359Y50579D01*
X114359Y50579D01*
X114174Y50593D01*
X114128Y50590D01*
X103835D01*
Y55905D01*
G37*
G36*
X55332D02*X103835D01*
Y50590D01*
X94794D01*
X94654Y50817D01*
X94410Y51102D01*
X94125Y51346D01*
X93804Y51543D01*
X93457Y51687D01*
X93092Y51774D01*
X92717Y51804D01*
X92342Y51774D01*
X91977Y51687D01*
X91630Y51543D01*
X91309Y51346D01*
X91024Y51102D01*
X90780Y50817D01*
X90583Y50496D01*
X90439Y50149D01*
X90352Y49784D01*
X90322Y49409D01*
X90352Y49034D01*
X90439Y48669D01*
X90583Y48322D01*
X90780Y48001D01*
X91024Y47716D01*
X91309Y47472D01*
X91630Y47275D01*
X91977Y47131D01*
X92342Y47044D01*
X92717Y47014D01*
X93092Y47044D01*
X93457Y47131D01*
X93804Y47275D01*
X94125Y47472D01*
X94410Y47716D01*
X94654Y48001D01*
X94794Y48228D01*
X103835D01*
Y36736D01*
X55332D01*
Y55905D01*
G37*
G36*
X90352Y116440D02*X90404Y116485D01*
X90434Y116520D01*
X91156Y117242D01*
X91191Y117272D01*
X91312Y117413D01*
X91409Y117571D01*
X91480Y117743D01*
X91524Y117924D01*
X91538Y118109D01*
X91534Y118155D01*
Y145967D01*
X91631Y146064D01*
X104622D01*
X104137Y145947D01*
X103585Y145718D01*
X103075Y145406D01*
X102620Y145017D01*
X102231Y144562D01*
X101919Y144052D01*
X101690Y143500D01*
X101550Y142918D01*
X101503Y142322D01*
X101550Y141726D01*
X101690Y141144D01*
X101918Y140594D01*
X97033Y135709D01*
X96998Y135679D01*
X96877Y135538D01*
X96780Y135380D01*
X96709Y135208D01*
X96665Y135027D01*
X96665Y135027D01*
X96651Y134842D01*
X96654Y134796D01*
Y129242D01*
X96427Y129102D01*
X96142Y128858D01*
X95898Y128573D01*
X95701Y128252D01*
X95557Y127905D01*
X95470Y127540D01*
X95440Y127165D01*
X95470Y126790D01*
X95557Y126425D01*
X95701Y126078D01*
X95898Y125757D01*
X96142Y125472D01*
X96427Y125228D01*
X96748Y125031D01*
X97095Y124887D01*
X97460Y124800D01*
X97835Y124770D01*
X98210Y124800D01*
X98575Y124887D01*
X98922Y125031D01*
X99243Y125228D01*
X99528Y125472D01*
X99772Y125757D01*
X99969Y126078D01*
X100113Y126425D01*
X100200Y126790D01*
X100222Y127165D01*
X100200Y127540D01*
X100113Y127905D01*
X99969Y128252D01*
X99772Y128573D01*
X99528Y128858D01*
X99243Y129102D01*
X99016Y129242D01*
Y134353D01*
X103587Y138925D01*
X104137Y138697D01*
X104719Y138557D01*
X105315Y138510D01*
X105911Y138557D01*
X106493Y138697D01*
X107045Y138926D01*
X107555Y139238D01*
X108010Y139627D01*
X108399Y140082D01*
X108711Y140592D01*
X108940Y141144D01*
X109080Y141726D01*
X109115Y142322D01*
X109080Y142918D01*
X108940Y143500D01*
X108711Y144052D01*
X108399Y144562D01*
X108010Y145017D01*
X107555Y145406D01*
X107045Y145718D01*
X106493Y145947D01*
X106008Y146064D01*
X110928D01*
X111024Y145967D01*
Y142825D01*
X110797Y142685D01*
X110512Y142441D01*
X110268Y142156D01*
X110071Y141835D01*
X109927Y141488D01*
X109840Y141123D01*
X109810Y140748D01*
X109840Y140373D01*
X109927Y140008D01*
X110071Y139661D01*
X110268Y139340D01*
X110512Y139055D01*
X110797Y138811D01*
X111118Y138614D01*
X111465Y138470D01*
X111830Y138383D01*
X112205Y138353D01*
X112580Y138383D01*
X112945Y138470D01*
X113292Y138614D01*
X113613Y138811D01*
X113898Y139055D01*
X114142Y139340D01*
X114339Y139661D01*
X114483Y140008D01*
X114570Y140373D01*
X114592Y140748D01*
X114570Y141123D01*
X114483Y141488D01*
X114339Y141835D01*
X114142Y142156D01*
X113898Y142441D01*
X113613Y142685D01*
X113386Y142825D01*
Y146410D01*
X113389Y146456D01*
X113375Y146641D01*
X113375Y146641D01*
X113331Y146822D01*
X113260Y146994D01*
X113163Y147152D01*
X113042Y147293D01*
X113007Y147323D01*
X112693Y147638D01*
X118803D01*
X118898Y147542D01*
Y110492D01*
X118894Y110433D01*
X118908Y110248D01*
X118952Y110067D01*
X119023Y109895D01*
X119120Y109737D01*
X119124Y109733D01*
X119242Y109595D01*
X119277Y109565D01*
X119999Y108843D01*
X120029Y108808D01*
X120170Y108687D01*
X120328Y108590D01*
X120500Y108519D01*
X120681Y108475D01*
X120728Y108473D01*
X120865Y108462D01*
X120899Y108464D01*
X124068D01*
Y105904D01*
X110283D01*
X110237Y105908D01*
X110055Y105894D01*
X110051Y105894D01*
X109870Y105850D01*
X109698Y105779D01*
X109540Y105682D01*
X109399Y105561D01*
X109363Y105519D01*
X108654Y104810D01*
X108612Y104774D01*
X108491Y104633D01*
X108394Y104475D01*
X108323Y104303D01*
X108279Y104122D01*
X108276Y104071D01*
X108266Y103937D01*
X108268Y103903D01*
Y89269D01*
X108172Y89172D01*
X98730D01*
X98591Y89399D01*
X98347Y89684D01*
X98062Y89928D01*
X97741Y90125D01*
X97394Y90269D01*
X97029Y90356D01*
X96654Y90386D01*
X96279Y90356D01*
X95914Y90269D01*
X95567Y90125D01*
X95246Y89928D01*
X94961Y89684D01*
X94717Y89399D01*
X94520Y89078D01*
X94376Y88731D01*
X94289Y88366D01*
X94259Y87991D01*
X94289Y87616D01*
X94376Y87251D01*
X94520Y86904D01*
X94717Y86583D01*
X94961Y86298D01*
X95246Y86054D01*
X95567Y85857D01*
X95914Y85713D01*
X96279Y85626D01*
X96654Y85596D01*
X97029Y85626D01*
X97394Y85713D01*
X97741Y85857D01*
X98062Y86054D01*
X98347Y86298D01*
X98591Y86583D01*
X98731Y86812D01*
X108615D01*
X108661Y86808D01*
X108846Y86822D01*
X108846Y86822D01*
X109027Y86866D01*
X109199Y86937D01*
X109357Y87034D01*
X109498Y87155D01*
X109529Y87190D01*
X109844Y87505D01*
Y85541D01*
X109616Y85401D01*
X109331Y85157D01*
X109087Y84872D01*
X108890Y84551D01*
X108746Y84204D01*
X108659Y83839D01*
X108629Y83464D01*
X108659Y83089D01*
X108746Y82724D01*
X108890Y82377D01*
X109087Y82056D01*
X109331Y81771D01*
X109616Y81527D01*
X109937Y81330D01*
X110284Y81186D01*
X110649Y81099D01*
X111024Y81069D01*
X111399Y81099D01*
X111764Y81186D01*
X112111Y81330D01*
X112432Y81527D01*
X112717Y81771D01*
X112961Y82056D01*
X113158Y82377D01*
X113302Y82724D01*
X113389Y83089D01*
X113412Y83464D01*
X113389Y83839D01*
X113302Y84204D01*
X113158Y84551D01*
X112961Y84872D01*
X112717Y85157D01*
X112432Y85401D01*
X112204Y85541D01*
Y101874D01*
X112299Y101968D01*
X120250D01*
X120158Y101889D01*
X119914Y101604D01*
X119717Y101283D01*
X119573Y100936D01*
X119486Y100571D01*
X119456Y100196D01*
X119486Y99821D01*
X119573Y99456D01*
X119717Y99109D01*
X119914Y98788D01*
X120158Y98503D01*
X120443Y98259D01*
X120764Y98062D01*
X121111Y97918D01*
X121476Y97831D01*
X121851Y97801D01*
X122226Y97831D01*
X122591Y97918D01*
X122938Y98062D01*
X123259Y98259D01*
X123544Y98503D01*
X123788Y98788D01*
X123928Y99016D01*
X124068D01*
Y62992D01*
X90352D01*
Y74513D01*
X91259Y73606D01*
X91289Y73571D01*
X91430Y73450D01*
X91588Y73353D01*
X91760Y73282D01*
X91941Y73238D01*
X91941Y73238D01*
X92126Y73224D01*
X92172Y73228D01*
X98515D01*
X98655Y73000D01*
X98899Y72715D01*
X99184Y72471D01*
X99505Y72274D01*
X99852Y72130D01*
X100217Y72043D01*
X100592Y72013D01*
X100967Y72043D01*
X101332Y72130D01*
X101679Y72274D01*
X102000Y72471D01*
X102285Y72715D01*
X102529Y73000D01*
X102726Y73321D01*
X102870Y73668D01*
X102957Y74033D01*
X102980Y74408D01*
X102957Y74783D01*
X102870Y75148D01*
X102726Y75495D01*
X102529Y75816D01*
X102285Y76101D01*
X102000Y76345D01*
X101679Y76542D01*
X101332Y76686D01*
X100967Y76773D01*
X100592Y76803D01*
X100217Y76773D01*
X99852Y76686D01*
X99505Y76542D01*
X99184Y76345D01*
X98899Y76101D01*
X98655Y75816D01*
X98515Y75588D01*
X92615D01*
X90352Y77852D01*
Y116440D01*
G37*
G36*
X59647Y116142D02*X89521D01*
X89567Y116138D01*
X89752Y116152D01*
X89752Y116152D01*
X89933Y116196D01*
X90105Y116267D01*
X90263Y116364D01*
X90352Y116440D01*
Y77852D01*
X86701Y81502D01*
X86665Y81544D01*
X86623Y81580D01*
X85907Y82296D01*
X85877Y82331D01*
X85842Y82361D01*
X85126Y83077D01*
X85090Y83119D01*
X85048Y83155D01*
X82517Y85687D01*
X82594Y85872D01*
X82681Y86237D01*
X82704Y86612D01*
X82681Y86987D01*
X82594Y87352D01*
X82450Y87699D01*
X82253Y88020D01*
X82009Y88305D01*
X81724Y88549D01*
X81403Y88746D01*
X81056Y88890D01*
X80691Y88977D01*
X80316Y89007D01*
X79941Y88977D01*
X79576Y88890D01*
X79229Y88746D01*
X78908Y88549D01*
X78623Y88305D01*
X78379Y88020D01*
X78182Y87699D01*
X78038Y87352D01*
X77951Y86987D01*
X77921Y86612D01*
X77951Y86237D01*
X78038Y85872D01*
X78182Y85525D01*
X78379Y85204D01*
X78623Y84919D01*
X78908Y84675D01*
X79229Y84478D01*
X79576Y84334D01*
X79941Y84247D01*
X80316Y84217D01*
X80623Y84241D01*
X83072Y81792D01*
Y81196D01*
X80594Y78717D01*
X80494Y78741D01*
X80119Y78771D01*
X79744Y78741D01*
X79379Y78654D01*
X79032Y78510D01*
X78711Y78313D01*
X78426Y78069D01*
X78182Y77784D01*
X77985Y77463D01*
X77841Y77116D01*
X77754Y76751D01*
X77724Y76376D01*
X77754Y76001D01*
X77841Y75636D01*
X77985Y75289D01*
X78182Y74968D01*
X78426Y74683D01*
X78711Y74439D01*
X79032Y74242D01*
X79379Y74098D01*
X79744Y74011D01*
X80119Y73981D01*
X80494Y74011D01*
X80859Y74098D01*
X81206Y74242D01*
X81527Y74439D01*
X81812Y74683D01*
X82056Y74968D01*
X82253Y75289D01*
X82397Y75636D01*
X82484Y76001D01*
X82506Y76376D01*
X82484Y76751D01*
X82397Y77116D01*
X82378Y77162D01*
X84742Y79526D01*
X85338D01*
X90352Y74513D01*
Y62992D01*
X74061D01*
X74343Y63059D01*
X75143Y63390D01*
X75881Y63843D01*
X76539Y64405D01*
X77101Y65063D01*
X77554Y65801D01*
X77885Y66601D01*
X78087Y67443D01*
X78138Y68306D01*
X78087Y69169D01*
X77885Y70011D01*
X77554Y70811D01*
X77101Y71549D01*
X76539Y72207D01*
X75881Y72769D01*
X75143Y73222D01*
X74343Y73553D01*
X73501Y73755D01*
X72638Y73823D01*
X71775Y73755D01*
X70933Y73553D01*
X70133Y73222D01*
X69395Y72769D01*
X68737Y72207D01*
X68175Y71549D01*
X67722Y70811D01*
X67391Y70011D01*
X67189Y69169D01*
X67121Y68306D01*
X67189Y67443D01*
X67391Y66601D01*
X67722Y65801D01*
X68175Y65063D01*
X68737Y64405D01*
X69395Y63843D01*
X70133Y63390D01*
X70933Y63059D01*
X71215Y62992D01*
X59647D01*
Y107423D01*
X62773Y107426D01*
X62895Y107456D01*
X63011Y107504D01*
X63119Y107570D01*
X63214Y107652D01*
X63296Y107747D01*
X63362Y107855D01*
X63410Y107971D01*
X63440Y108093D01*
X63447Y108219D01*
X63440Y114345D01*
X63410Y114467D01*
X63362Y114583D01*
X63296Y114691D01*
X63214Y114786D01*
X63119Y114868D01*
X63011Y114934D01*
X62895Y114982D01*
X62773Y115012D01*
X62647Y115019D01*
X59647Y115015D01*
Y116142D01*
G37*
G36*
X55332D02*X59647D01*
Y115015D01*
X56521Y115012D01*
X56399Y114982D01*
X56283Y114934D01*
X56175Y114868D01*
X56080Y114786D01*
X55998Y114691D01*
X55932Y114583D01*
X55884Y114467D01*
X55854Y114345D01*
X55847Y114219D01*
X55854Y108093D01*
X55884Y107971D01*
X55932Y107855D01*
X55998Y107747D01*
X56080Y107652D01*
X56175Y107570D01*
X56283Y107504D01*
X56399Y107456D01*
X56521Y107426D01*
X56647Y107419D01*
X59647Y107423D01*
Y62992D01*
X55332D01*
Y116142D01*
G37*
G36*
X106752Y177896D02*Y214013D01*
X106757Y214072D01*
X106738Y214307D01*
X106683Y214537D01*
X106593Y214755D01*
X106469Y214956D01*
X106316Y215136D01*
X106271Y215174D01*
X105178Y216267D01*
X105140Y216312D01*
X104960Y216465D01*
X104759Y216589D01*
X104541Y216679D01*
X104311Y216734D01*
X104076Y216753D01*
X104017Y216748D01*
X81777D01*
X81666Y216877D01*
X81381Y217121D01*
X81060Y217318D01*
X80713Y217462D01*
X80348Y217549D01*
X79973Y217579D01*
X79598Y217549D01*
X79233Y217462D01*
X78886Y217318D01*
X78565Y217121D01*
X78280Y216877D01*
X78036Y216592D01*
X77839Y216271D01*
X77695Y215924D01*
X77608Y215559D01*
X77578Y215184D01*
X77608Y214809D01*
X77695Y214444D01*
X77839Y214097D01*
X78036Y213776D01*
X78280Y213491D01*
X78565Y213247D01*
X78886Y213050D01*
X79233Y212906D01*
X79598Y212819D01*
X79973Y212789D01*
X80348Y212819D01*
X80713Y212906D01*
X81060Y213050D01*
X81381Y213247D01*
X81666Y213491D01*
X81886Y213748D01*
X103455D01*
X103752Y213451D01*
Y177789D01*
X103622Y177677D01*
X103378Y177392D01*
X103181Y177071D01*
X103037Y176724D01*
X102950Y176359D01*
X102920Y175984D01*
X102950Y175609D01*
X103037Y175244D01*
X103181Y174897D01*
X103378Y174576D01*
X103622Y174291D01*
X103714Y174212D01*
X100224D01*
X100315Y174290D01*
X100559Y174575D01*
X100756Y174896D01*
X100900Y175243D01*
X100987Y175608D01*
X101010Y175983D01*
X100987Y176358D01*
X100900Y176723D01*
X100756Y177070D01*
X100559Y177391D01*
X100315Y177676D01*
X100088Y177871D01*
Y208721D01*
X100093Y208780D01*
X100074Y209015D01*
X100019Y209245D01*
X99929Y209463D01*
X99805Y209664D01*
X99652Y209844D01*
X99607Y209882D01*
X98514Y210975D01*
X98476Y211020D01*
X98296Y211173D01*
X98095Y211297D01*
X97877Y211387D01*
X97647Y211442D01*
X97412Y211461D01*
X97353Y211456D01*
X81777D01*
X81666Y211585D01*
X81381Y211829D01*
X81060Y212026D01*
X80713Y212170D01*
X80348Y212257D01*
X79973Y212287D01*
X79598Y212257D01*
X79233Y212170D01*
X78886Y212026D01*
X78565Y211829D01*
X78280Y211585D01*
X78036Y211300D01*
X77839Y210979D01*
X77695Y210632D01*
X77608Y210267D01*
X77578Y209892D01*
X77608Y209517D01*
X77695Y209152D01*
X77839Y208805D01*
X78036Y208484D01*
X78280Y208199D01*
X78565Y207955D01*
X78886Y207758D01*
X79233Y207614D01*
X79598Y207527D01*
X79973Y207497D01*
X80348Y207527D01*
X80713Y207614D01*
X81060Y207758D01*
X81381Y207955D01*
X81666Y208199D01*
X81886Y208456D01*
X96791D01*
X97088Y208159D01*
Y177813D01*
X96929Y177676D01*
X96685Y177391D01*
X96488Y177070D01*
X96344Y176723D01*
X96257Y176358D01*
X96227Y175983D01*
X96257Y175608D01*
X96344Y175243D01*
X96488Y174896D01*
X96685Y174575D01*
X96929Y174290D01*
X97020Y174212D01*
X93530D01*
X93622Y174291D01*
X93866Y174576D01*
X94063Y174897D01*
X94207Y175244D01*
X94294Y175609D01*
X94316Y175984D01*
X94294Y176359D01*
X94207Y176724D01*
X94063Y177071D01*
X93866Y177392D01*
X93622Y177677D01*
X93424Y177847D01*
Y183241D01*
X93429Y183300D01*
X93410Y183535D01*
X93355Y183765D01*
X93265Y183983D01*
X93141Y184184D01*
X92988Y184364D01*
X92943Y184402D01*
X91850Y185495D01*
X91812Y185540D01*
X91632Y185693D01*
X91431Y185817D01*
X91213Y185907D01*
X90983Y185962D01*
X90748Y185981D01*
X90689Y185976D01*
X81777D01*
X81666Y186105D01*
X81381Y186349D01*
X81060Y186546D01*
X80713Y186690D01*
X80348Y186777D01*
X79973Y186807D01*
X79598Y186777D01*
X79233Y186690D01*
X78886Y186546D01*
X78565Y186349D01*
X78280Y186105D01*
X78036Y185820D01*
X77839Y185499D01*
X77695Y185152D01*
X77608Y184787D01*
X77578Y184412D01*
X77608Y184037D01*
X77695Y183672D01*
X77839Y183325D01*
X78036Y183004D01*
X78280Y182719D01*
X78565Y182475D01*
X78886Y182278D01*
X79233Y182134D01*
X79598Y182047D01*
X79973Y182017D01*
X80348Y182047D01*
X80713Y182134D01*
X81060Y182278D01*
X81381Y182475D01*
X81666Y182719D01*
X81886Y182976D01*
X90127D01*
X90424Y182679D01*
Y177838D01*
X90236Y177677D01*
X89992Y177392D01*
X89795Y177071D01*
X89651Y176724D01*
X89564Y176359D01*
X89534Y175984D01*
X89564Y175609D01*
X89651Y175244D01*
X89795Y174897D01*
X89992Y174576D01*
X90236Y174291D01*
X90328Y174212D01*
X77014D01*
X76968Y174215D01*
X76783Y174201D01*
X76602Y174157D01*
X76430Y174086D01*
X76272Y173989D01*
X76131Y173868D01*
X76101Y173833D01*
X75379Y173111D01*
X75344Y173081D01*
X75223Y172940D01*
X75126Y172782D01*
X75055Y172610D01*
X75011Y172429D01*
X75011Y172429D01*
X74997Y172244D01*
X75000Y172198D01*
Y132772D01*
X74905Y132676D01*
X65257D01*
Y159753D01*
X65487Y159894D01*
X66002Y160334D01*
X66442Y160849D01*
X66795Y161426D01*
X67054Y162051D01*
X67212Y162709D01*
X67252Y163384D01*
X67212Y164059D01*
X67054Y164717D01*
X66795Y165342D01*
X66442Y165919D01*
X66002Y166434D01*
X65487Y166874D01*
X65257Y167015D01*
Y169293D01*
X68308Y166243D01*
Y152864D01*
X68080Y152724D01*
X67795Y152480D01*
X67551Y152195D01*
X67354Y151874D01*
X67210Y151527D01*
X67123Y151162D01*
X67093Y150787D01*
X67123Y150412D01*
X67210Y150047D01*
X67354Y149700D01*
X67551Y149379D01*
X67795Y149094D01*
X68080Y148850D01*
X68401Y148653D01*
X68748Y148509D01*
X69113Y148422D01*
X69488Y148392D01*
X69863Y148422D01*
X70228Y148509D01*
X70575Y148653D01*
X70896Y148850D01*
X71181Y149094D01*
X71425Y149379D01*
X71622Y149700D01*
X71766Y150047D01*
X71853Y150412D01*
X71876Y150787D01*
X71853Y151162D01*
X71766Y151527D01*
X71622Y151874D01*
X71425Y152195D01*
X71181Y152480D01*
X70896Y152724D01*
X70668Y152864D01*
Y166686D01*
X70672Y166732D01*
X70658Y166917D01*
X70658Y166917D01*
X70614Y167098D01*
X70543Y167270D01*
X70446Y167428D01*
X70325Y167569D01*
X70290Y167599D01*
X66669Y171220D01*
X66795Y171426D01*
X67054Y172051D01*
X67212Y172709D01*
X67252Y173384D01*
X67212Y174059D01*
X67054Y174717D01*
X66795Y175342D01*
X66442Y175919D01*
X66002Y176434D01*
X65487Y176874D01*
X65257Y177015D01*
Y179753D01*
X65487Y179894D01*
X66002Y180334D01*
X66442Y180849D01*
X66795Y181426D01*
X67054Y182051D01*
X67212Y182709D01*
X67252Y183384D01*
X67212Y184059D01*
X67054Y184717D01*
X66795Y185342D01*
X66442Y185919D01*
X66002Y186434D01*
X65487Y186874D01*
X65257Y187015D01*
Y227008D01*
X124068D01*
Y201997D01*
X124015Y201985D01*
X123668Y201841D01*
X123347Y201644D01*
X123062Y201400D01*
X122945Y201264D01*
X116457D01*
X116160Y201561D01*
Y221853D01*
X116165Y221912D01*
X116146Y222147D01*
X116091Y222377D01*
X116001Y222595D01*
X115877Y222796D01*
X115724Y222976D01*
X115679Y223014D01*
X114586Y224107D01*
X114548Y224152D01*
X114368Y224305D01*
X114167Y224429D01*
X113949Y224519D01*
X113719Y224574D01*
X113484Y224593D01*
X113425Y224588D01*
X70117D01*
X70000Y224724D01*
X69715Y224968D01*
X69394Y225165D01*
X69047Y225309D01*
X68682Y225396D01*
X68307Y225426D01*
X67932Y225396D01*
X67567Y225309D01*
X67220Y225165D01*
X66899Y224968D01*
X66614Y224724D01*
X66370Y224439D01*
X66173Y224118D01*
X66029Y223771D01*
X65942Y223406D01*
X65912Y223031D01*
X65942Y222656D01*
X66029Y222291D01*
X66173Y221944D01*
X66370Y221623D01*
X66614Y221338D01*
X66899Y221094D01*
X67220Y220897D01*
X67567Y220753D01*
X67932Y220666D01*
X68307Y220636D01*
X68682Y220666D01*
X69047Y220753D01*
X69394Y220897D01*
X69715Y221094D01*
X70000Y221338D01*
X70214Y221588D01*
X112863D01*
X113160Y221291D01*
Y200999D01*
X113155Y200940D01*
X113174Y200705D01*
X113229Y200475D01*
X113319Y200257D01*
X113443Y200056D01*
X113596Y199876D01*
X113641Y199838D01*
X114734Y198745D01*
X114772Y198700D01*
X114952Y198547D01*
X115153Y198423D01*
X115371Y198333D01*
X115601Y198278D01*
X115836Y198259D01*
X115895Y198264D01*
X122848D01*
X123062Y198014D01*
X123347Y197770D01*
X123668Y197573D01*
X124015Y197429D01*
X124068Y197417D01*
Y174212D01*
X106916D01*
X107008Y174291D01*
X107252Y174576D01*
X107449Y174897D01*
X107593Y175244D01*
X107680Y175609D01*
X107703Y175984D01*
X107680Y176359D01*
X107593Y176724D01*
X107449Y177071D01*
X107252Y177392D01*
X107008Y177677D01*
X106752Y177896D01*
G37*
G36*
X65257Y187015D02*X65242Y187024D01*
Y193612D01*
X65249Y193700D01*
X65221Y194053D01*
X65138Y194397D01*
X65099Y194493D01*
X65003Y194725D01*
X64888Y194912D01*
X64818Y195027D01*
X64818Y195027D01*
X64588Y195296D01*
X64521Y195353D01*
X63464Y196410D01*
X63407Y196477D01*
X63138Y196707D01*
X63138Y196707D01*
X63023Y196777D01*
X62836Y196892D01*
X62604Y196988D01*
X62508Y197027D01*
X62164Y197110D01*
X61811Y197138D01*
X61723Y197131D01*
X55332D01*
Y227008D01*
X65257D01*
Y187015D01*
G37*
G36*
Y132676D02*X55332D01*
Y154799D01*
X55487Y154894D01*
X56002Y155334D01*
X56442Y155849D01*
X56795Y156426D01*
X57054Y157051D01*
X57212Y157709D01*
X57252Y158384D01*
X57212Y159059D01*
X57054Y159717D01*
X56795Y160342D01*
X56442Y160919D01*
X56002Y161434D01*
X55487Y161874D01*
X55332Y161969D01*
Y164799D01*
X55487Y164894D01*
X56002Y165334D01*
X56442Y165849D01*
X56795Y166426D01*
X57054Y167051D01*
X57212Y167709D01*
X57252Y168384D01*
X57212Y169059D01*
X57054Y169717D01*
X56795Y170342D01*
X56442Y170919D01*
X56002Y171434D01*
X55487Y171874D01*
X55332Y171969D01*
Y174799D01*
X55487Y174894D01*
X56002Y175334D01*
X56442Y175849D01*
X56795Y176426D01*
X57054Y177051D01*
X57212Y177709D01*
X57252Y178384D01*
X57212Y179059D01*
X57054Y179717D01*
X56795Y180342D01*
X56442Y180919D01*
X56002Y181434D01*
X55487Y181874D01*
X55332Y181969D01*
Y184799D01*
X55487Y184894D01*
X56002Y185334D01*
X56442Y185849D01*
X56795Y186426D01*
X57054Y187051D01*
X57212Y187709D01*
X57252Y188384D01*
X57212Y189059D01*
X57054Y189717D01*
X56795Y190342D01*
X56442Y190919D01*
X56002Y191434D01*
X55487Y191874D01*
X55332Y191969D01*
Y192631D01*
X60742D01*
Y187073D01*
X60417Y186874D01*
X59902Y186434D01*
X59462Y185919D01*
X59109Y185342D01*
X58850Y184717D01*
X58692Y184059D01*
X58639Y183384D01*
X58692Y182709D01*
X58850Y182051D01*
X59109Y181426D01*
X59462Y180849D01*
X59902Y180334D01*
X60417Y179894D01*
X60994Y179541D01*
X61619Y179282D01*
X62277Y179124D01*
X62952Y179071D01*
X63627Y179124D01*
X64285Y179282D01*
X64910Y179541D01*
X65257Y179753D01*
Y177015D01*
X64910Y177227D01*
X64285Y177486D01*
X63627Y177644D01*
X62952Y177697D01*
X62277Y177644D01*
X61619Y177486D01*
X60994Y177227D01*
X60417Y176874D01*
X59902Y176434D01*
X59462Y175919D01*
X59109Y175342D01*
X58850Y174717D01*
X58692Y174059D01*
X58639Y173384D01*
X58692Y172709D01*
X58850Y172051D01*
X59109Y171426D01*
X59462Y170849D01*
X59902Y170334D01*
X60417Y169894D01*
X60994Y169541D01*
X61619Y169282D01*
X62277Y169124D01*
X62952Y169071D01*
X63627Y169124D01*
X64285Y169282D01*
X64910Y169541D01*
X64972Y169579D01*
X65257Y169293D01*
Y167015D01*
X64910Y167227D01*
X64285Y167486D01*
X63627Y167644D01*
X62952Y167697D01*
X62277Y167644D01*
X61619Y167486D01*
X60994Y167227D01*
X60417Y166874D01*
X59902Y166434D01*
X59462Y165919D01*
X59109Y165342D01*
X58850Y164717D01*
X58692Y164059D01*
X58639Y163384D01*
X58692Y162709D01*
X58850Y162051D01*
X59109Y161426D01*
X59462Y160849D01*
X59902Y160334D01*
X60417Y159894D01*
X60994Y159541D01*
X61619Y159282D01*
X62277Y159124D01*
X62952Y159071D01*
X63627Y159124D01*
X64285Y159282D01*
X64910Y159541D01*
X65257Y159753D01*
Y132676D01*
G37*
G36*
X55332Y191969D02*X54910Y192227D01*
X54285Y192486D01*
X53682Y192631D01*
X55332D01*
Y191969D01*
G37*
G36*
X49240Y170557D02*X47919D01*
Y192571D01*
X47979Y192631D01*
X52222D01*
X51619Y192486D01*
X50994Y192227D01*
X50417Y191874D01*
X49902Y191434D01*
X49462Y190919D01*
X49109Y190342D01*
X48850Y189717D01*
X48692Y189059D01*
X48639Y188384D01*
X48692Y187709D01*
X48850Y187051D01*
X49109Y186426D01*
X49462Y185849D01*
X49902Y185334D01*
X50417Y184894D01*
X50994Y184541D01*
X51619Y184282D01*
X52277Y184124D01*
X52952Y184071D01*
X53627Y184124D01*
X54285Y184282D01*
X54910Y184541D01*
X55332Y184799D01*
Y181969D01*
X54910Y182227D01*
X54285Y182486D01*
X53627Y182644D01*
X52952Y182697D01*
X52277Y182644D01*
X51619Y182486D01*
X50994Y182227D01*
X50417Y181874D01*
X49902Y181434D01*
X49462Y180919D01*
X49109Y180342D01*
X48850Y179717D01*
X48692Y179059D01*
X48639Y178384D01*
X48692Y177709D01*
X48850Y177051D01*
X49109Y176426D01*
X49462Y175849D01*
X49902Y175334D01*
X50417Y174894D01*
X50994Y174541D01*
X51619Y174282D01*
X52277Y174124D01*
X52952Y174071D01*
X53627Y174124D01*
X54285Y174282D01*
X54910Y174541D01*
X55332Y174799D01*
Y171969D01*
X54910Y172227D01*
X54285Y172486D01*
X53627Y172644D01*
X52952Y172697D01*
X52277Y172644D01*
X51619Y172486D01*
X50994Y172227D01*
X50417Y171874D01*
X49902Y171434D01*
X49462Y170919D01*
X49240Y170557D01*
G37*
G36*
X16174Y51474D02*X16181Y51474D01*
X16856Y51527D01*
X17514Y51685D01*
X18139Y51944D01*
X18200Y51981D01*
X20196Y49985D01*
X20226Y49950D01*
X20367Y49829D01*
X20525Y49732D01*
X20697Y49661D01*
X20878Y49617D01*
X20878Y49617D01*
X21063Y49603D01*
X21109Y49606D01*
X24184D01*
X23646Y49277D01*
X23131Y48837D01*
X22691Y48322D01*
X22338Y47745D01*
X22079Y47120D01*
X21921Y46462D01*
X21868Y45787D01*
X21921Y45112D01*
X22079Y44454D01*
X22338Y43829D01*
X22691Y43252D01*
X23131Y42737D01*
X23646Y42297D01*
X24223Y41944D01*
X24848Y41685D01*
X25506Y41527D01*
X26181Y41474D01*
X26856Y41527D01*
X27514Y41685D01*
X28139Y41944D01*
X28716Y42297D01*
X29231Y42737D01*
X29671Y43252D01*
X30024Y43829D01*
X30283Y44454D01*
X30441Y45112D01*
X30481Y45787D01*
X30441Y46462D01*
X30283Y47120D01*
X30024Y47745D01*
X29671Y48322D01*
X29231Y48837D01*
X28716Y49277D01*
X28178Y49606D01*
X30269D01*
X30315Y49603D01*
X30500Y49617D01*
X30500Y49617D01*
X30681Y49661D01*
X30853Y49732D01*
X31011Y49829D01*
X31152Y49950D01*
X31182Y49985D01*
X32101Y50904D01*
X32136Y50934D01*
X32257Y51075D01*
X32354Y51233D01*
X32425Y51405D01*
X32469Y51586D01*
X32483Y51771D01*
X32480Y51817D01*
Y55810D01*
X32575Y55905D01*
X55332D01*
Y36736D01*
X30542D01*
X30429Y37206D01*
X30161Y37854D01*
X29795Y38451D01*
X29339Y38984D01*
X28806Y39440D01*
X28209Y39806D01*
X27561Y40074D01*
X26880Y40238D01*
X26181Y40293D01*
X25482Y40238D01*
X24801Y40074D01*
X24153Y39806D01*
X23556Y39440D01*
X23023Y38984D01*
X22567Y38451D01*
X22201Y37854D01*
X21933Y37206D01*
X21769Y36525D01*
X21728Y35826D01*
Y32457D01*
X21714Y32283D01*
X21728Y32109D01*
Y31792D01*
X16174D01*
Y41474D01*
X16181Y41474D01*
X16856Y41527D01*
X17514Y41685D01*
X18139Y41944D01*
X18716Y42297D01*
X19231Y42737D01*
X19671Y43252D01*
X20024Y43829D01*
X20283Y44454D01*
X20441Y45112D01*
X20481Y45787D01*
X20441Y46462D01*
X20283Y47120D01*
X20024Y47745D01*
X19671Y48322D01*
X19231Y48837D01*
X18716Y49277D01*
X18139Y49630D01*
X17514Y49889D01*
X16856Y50047D01*
X16181Y50100D01*
X16174Y50100D01*
Y51474D01*
G37*
G36*
Y61474D02*X16181Y61474D01*
X16856Y61527D01*
X17514Y61685D01*
X18139Y61944D01*
X18224Y61996D01*
X20196Y60024D01*
X20226Y59989D01*
X20367Y59868D01*
X20525Y59771D01*
X20697Y59700D01*
X20878Y59656D01*
X20878Y59656D01*
X21063Y59642D01*
X21109Y59646D01*
X24260D01*
X24223Y59630D01*
X23646Y59277D01*
X23131Y58837D01*
X22691Y58322D01*
X22338Y57745D01*
X22079Y57120D01*
X21921Y56462D01*
X21868Y55787D01*
X21921Y55112D01*
X22079Y54454D01*
X22338Y53829D01*
X22691Y53252D01*
X23131Y52737D01*
X23646Y52297D01*
X24184Y51967D01*
X21552D01*
X19897Y53622D01*
X20024Y53829D01*
X20283Y54454D01*
X20441Y55112D01*
X20481Y55787D01*
X20441Y56462D01*
X20283Y57120D01*
X20024Y57745D01*
X19671Y58322D01*
X19231Y58837D01*
X18716Y59277D01*
X18139Y59630D01*
X17514Y59889D01*
X16856Y60047D01*
X16181Y60100D01*
X16174Y60100D01*
Y61474D01*
G37*
G36*
Y71474D02*X16181Y71474D01*
X16856Y71527D01*
X17514Y71685D01*
X18139Y71944D01*
X18716Y72297D01*
X19231Y72737D01*
X19671Y73252D01*
X20024Y73829D01*
X20283Y74454D01*
X20441Y75112D01*
X20481Y75787D01*
X20441Y76462D01*
X20283Y77120D01*
X20024Y77745D01*
X19927Y77903D01*
X21552Y79528D01*
X24055D01*
X23646Y79277D01*
X23131Y78837D01*
X22691Y78322D01*
X22338Y77745D01*
X22079Y77120D01*
X21921Y76462D01*
X21868Y75787D01*
X21921Y75112D01*
X22079Y74454D01*
X22338Y73829D01*
X22691Y73252D01*
X23131Y72737D01*
X23646Y72297D01*
X24223Y71944D01*
X24848Y71685D01*
X25506Y71527D01*
X26181Y71474D01*
X26856Y71527D01*
X27514Y71685D01*
X28139Y71944D01*
X28716Y72297D01*
X29231Y72737D01*
X29671Y73252D01*
X30024Y73829D01*
X30283Y74454D01*
X30320Y74606D01*
X41687D01*
X41733Y74603D01*
X41918Y74617D01*
X41918Y74617D01*
X42099Y74661D01*
X42271Y74732D01*
X42429Y74829D01*
X42570Y74950D01*
X42600Y74985D01*
X43322Y75706D01*
X43357Y75737D01*
X43478Y75878D01*
X43575Y76036D01*
X43646Y76208D01*
X43690Y76389D01*
X43704Y76574D01*
X43700Y76620D01*
Y116048D01*
X43794Y116142D01*
X55332D01*
Y62992D01*
X30607D01*
X29927Y63671D01*
X30024Y63829D01*
X30283Y64454D01*
X30441Y65112D01*
X30481Y65787D01*
X30441Y66462D01*
X30283Y67120D01*
X30024Y67745D01*
X29671Y68322D01*
X29231Y68837D01*
X28716Y69277D01*
X28139Y69630D01*
X27514Y69889D01*
X26856Y70047D01*
X26181Y70100D01*
X25506Y70047D01*
X24848Y69889D01*
X24223Y69630D01*
X23646Y69277D01*
X23131Y68837D01*
X22691Y68322D01*
X22338Y67745D01*
X22079Y67120D01*
X21921Y66462D01*
X21868Y65787D01*
X21921Y65112D01*
X22079Y64454D01*
X22338Y63829D01*
X22691Y63252D01*
X23131Y62737D01*
X23646Y62297D01*
X24121Y62007D01*
X21552D01*
X19912Y63646D01*
X20024Y63829D01*
X20283Y64454D01*
X20441Y65112D01*
X20481Y65787D01*
X20441Y66462D01*
X20283Y67120D01*
X20024Y67745D01*
X19671Y68322D01*
X19231Y68837D01*
X18716Y69277D01*
X18139Y69630D01*
X17514Y69889D01*
X16856Y70047D01*
X16181Y70100D01*
X16174Y70100D01*
Y71474D01*
G37*
G36*
Y81474D02*X16181Y81474D01*
X16856Y81527D01*
X17514Y81685D01*
X18139Y81944D01*
X18716Y82297D01*
X19231Y82737D01*
X19671Y83252D01*
X20024Y83829D01*
X20283Y84454D01*
X20441Y85112D01*
X20481Y85787D01*
X20441Y86462D01*
X20283Y87120D01*
X20024Y87745D01*
X19987Y87805D01*
X21750Y89568D01*
X24121D01*
X23646Y89277D01*
X23131Y88837D01*
X22691Y88322D01*
X22338Y87745D01*
X22079Y87120D01*
X21921Y86462D01*
X21868Y85787D01*
X21921Y85112D01*
X22079Y84454D01*
X22338Y83829D01*
X22691Y83252D01*
X23131Y82737D01*
X23646Y82297D01*
X24223Y81944D01*
X24356Y81888D01*
X21109D01*
X21063Y81892D01*
X20878Y81878D01*
X20697Y81834D01*
X20525Y81763D01*
X20367Y81666D01*
X20226Y81545D01*
X20196Y81510D01*
X18249Y79563D01*
X18139Y79630D01*
X17514Y79889D01*
X16856Y80047D01*
X16181Y80100D01*
X16174Y80100D01*
Y81474D01*
G37*
G36*
Y91474D02*X16181Y91474D01*
X16856Y91527D01*
X17514Y91685D01*
X18139Y91944D01*
X18716Y92297D01*
X19231Y92737D01*
X19671Y93252D01*
X20024Y93829D01*
X20283Y94454D01*
X20441Y95112D01*
X20481Y95787D01*
X20441Y96462D01*
X20283Y97120D01*
X20024Y97745D01*
X19972Y97830D01*
X21749Y99606D01*
X24184D01*
X23646Y99277D01*
X23131Y98837D01*
X22691Y98322D01*
X22338Y97745D01*
X22079Y97120D01*
X21921Y96462D01*
X21868Y95787D01*
X21921Y95112D01*
X22079Y94454D01*
X22338Y93829D01*
X22691Y93252D01*
X23131Y92737D01*
X23646Y92297D01*
X24223Y91944D01*
X24260Y91928D01*
X21307D01*
X21261Y91932D01*
X21076Y91918D01*
X20895Y91874D01*
X20723Y91803D01*
X20565Y91706D01*
X20424Y91585D01*
X20394Y91550D01*
X18347Y89503D01*
X18139Y89630D01*
X17514Y89889D01*
X16856Y90047D01*
X16181Y90100D01*
X16174Y90100D01*
Y91474D01*
G37*
G36*
Y101474D02*X16181Y101474D01*
X16856Y101527D01*
X17514Y101685D01*
X18139Y101944D01*
X18716Y102297D01*
X19231Y102737D01*
X19671Y103252D01*
X20024Y103829D01*
X20283Y104454D01*
X20441Y105112D01*
X20481Y105787D01*
X20441Y106462D01*
X20283Y107120D01*
X20024Y107745D01*
X19883Y107976D01*
X21552Y109646D01*
X24260D01*
X24223Y109630D01*
X23646Y109277D01*
X23131Y108837D01*
X22691Y108322D01*
X22338Y107745D01*
X22079Y107120D01*
X21921Y106462D01*
X21868Y105787D01*
X21921Y105112D01*
X22079Y104454D01*
X22338Y103829D01*
X22691Y103252D01*
X23131Y102737D01*
X23646Y102297D01*
X24184Y101968D01*
X21306D01*
X21260Y101971D01*
X21075Y101957D01*
X20894Y101913D01*
X20722Y101842D01*
X20564Y101745D01*
X20423Y101624D01*
X20393Y101589D01*
X18322Y99518D01*
X18139Y99630D01*
X17514Y99889D01*
X16856Y100047D01*
X16181Y100100D01*
X16174Y100100D01*
Y101474D01*
G37*
G36*
Y111474D02*X16181Y111474D01*
X16856Y111527D01*
X17514Y111685D01*
X18139Y111944D01*
X18716Y112297D01*
X19231Y112737D01*
X19671Y113252D01*
X20024Y113829D01*
X20283Y114454D01*
X20441Y115112D01*
X20481Y115787D01*
X20441Y116462D01*
X20283Y117120D01*
X20024Y117745D01*
X19671Y118322D01*
X19231Y118837D01*
X18716Y119277D01*
X18139Y119630D01*
X17514Y119889D01*
X17322Y119935D01*
Y130219D01*
X17419Y130316D01*
X25694D01*
X25379Y130000D01*
X25344Y129970D01*
X25223Y129829D01*
X25126Y129671D01*
X25055Y129499D01*
X25011Y129318D01*
X25011Y129318D01*
X24997Y129133D01*
X25000Y129087D01*
Y119926D01*
X24848Y119889D01*
X24223Y119630D01*
X23646Y119277D01*
X23131Y118837D01*
X22691Y118322D01*
X22338Y117745D01*
X22079Y117120D01*
X21921Y116462D01*
X21868Y115787D01*
X21921Y115112D01*
X22079Y114454D01*
X22338Y113829D01*
X22691Y113252D01*
X23131Y112737D01*
X23646Y112297D01*
X24121Y112006D01*
X21109D01*
X21063Y112010D01*
X20878Y111996D01*
X20697Y111952D01*
X20525Y111881D01*
X20367Y111784D01*
X20226Y111663D01*
X20196Y111628D01*
X18175Y109608D01*
X18139Y109630D01*
X17514Y109889D01*
X16856Y110047D01*
X16181Y110100D01*
X16174Y110100D01*
Y111474D01*
G37*
G36*
X55332Y132676D02*X16976D01*
X16930Y132680D01*
X16745Y132666D01*
X16564Y132622D01*
X16392Y132551D01*
X16234Y132454D01*
X16174Y132403D01*
Y227008D01*
X55332D01*
Y197131D01*
X47135D01*
X47047Y197138D01*
X46694Y197110D01*
X46350Y197027D01*
X46022Y196892D01*
X45720Y196707D01*
X45720Y196707D01*
X45451Y196477D01*
X45394Y196410D01*
X44140Y195156D01*
X44073Y195099D01*
X43843Y194830D01*
X43658Y194528D01*
X43523Y194200D01*
X43440Y193856D01*
X43440Y193856D01*
X43412Y193503D01*
X43419Y193415D01*
Y169576D01*
X43412Y169488D01*
X43440Y169135D01*
Y169135D01*
X43523Y168791D01*
X43658Y168463D01*
X43728Y168349D01*
X43843Y168161D01*
X43843Y168161D01*
X44073Y167892D01*
X44140Y167835D01*
X45197Y166778D01*
X45254Y166711D01*
X45523Y166481D01*
X45523Y166481D01*
X45711Y166366D01*
X45825Y166296D01*
X46153Y166161D01*
X46497Y166078D01*
X46497D01*
X46850Y166050D01*
X46938Y166057D01*
X49335D01*
X49462Y165849D01*
X49902Y165334D01*
X50417Y164894D01*
X50994Y164541D01*
X51619Y164282D01*
X52277Y164124D01*
X52952Y164071D01*
X53627Y164124D01*
X54285Y164282D01*
X54910Y164541D01*
X55332Y164799D01*
Y161969D01*
X54910Y162227D01*
X54285Y162486D01*
X53627Y162644D01*
X52952Y162697D01*
X52277Y162644D01*
X51619Y162486D01*
X50994Y162227D01*
X50417Y161874D01*
X49902Y161434D01*
X49462Y160919D01*
X49109Y160342D01*
X48850Y159717D01*
X48692Y159059D01*
X48639Y158384D01*
X48692Y157709D01*
X48850Y157051D01*
X49109Y156426D01*
X49462Y155849D01*
X49902Y155334D01*
X50417Y154894D01*
X50994Y154541D01*
X51619Y154282D01*
X52277Y154124D01*
X52952Y154071D01*
X53627Y154124D01*
X54285Y154282D01*
X54910Y154541D01*
X55332Y154799D01*
Y132676D01*
G37*
G36*
X16174Y132403D02*X16093Y132333D01*
X16063Y132298D01*
X15340Y131575D01*
X15305Y131545D01*
X15184Y131404D01*
X15087Y131246D01*
X15016Y131074D01*
X14972Y130893D01*
X14972Y130893D01*
X14958Y130708D01*
X14962Y130662D01*
Y119916D01*
X14848Y119889D01*
X14223Y119630D01*
X13646Y119277D01*
X13131Y118837D01*
X12691Y118322D01*
X12338Y117745D01*
X12079Y117120D01*
X11921Y116462D01*
X11868Y115787D01*
X11921Y115112D01*
X12079Y114454D01*
X12338Y113829D01*
X12691Y113252D01*
X13131Y112737D01*
X13646Y112297D01*
X14223Y111944D01*
X14848Y111685D01*
X15506Y111527D01*
X16174Y111474D01*
Y110100D01*
X15506Y110047D01*
X14848Y109889D01*
X14223Y109630D01*
X13646Y109277D01*
X13131Y108837D01*
X12691Y108322D01*
X12338Y107745D01*
X12079Y107120D01*
X11921Y106462D01*
X11868Y105787D01*
X11921Y105112D01*
X12079Y104454D01*
X12338Y103829D01*
X12691Y103252D01*
X13131Y102737D01*
X13646Y102297D01*
X14223Y101944D01*
X14848Y101685D01*
X15506Y101527D01*
X16174Y101474D01*
Y100100D01*
X15506Y100047D01*
X14848Y99889D01*
X14223Y99630D01*
X13646Y99277D01*
X13131Y98837D01*
X12691Y98322D01*
X12338Y97745D01*
X12079Y97120D01*
X11921Y96462D01*
X11868Y95787D01*
X11921Y95112D01*
X12079Y94454D01*
X12338Y93829D01*
X12691Y93252D01*
X13131Y92737D01*
X13646Y92297D01*
X14223Y91944D01*
X14848Y91685D01*
X15506Y91527D01*
X16174Y91474D01*
Y90100D01*
X15506Y90047D01*
X14848Y89889D01*
X14223Y89630D01*
X13646Y89277D01*
X13131Y88837D01*
X12691Y88322D01*
X12338Y87745D01*
X12079Y87120D01*
X11921Y86462D01*
X11868Y85787D01*
X11921Y85112D01*
X12079Y84454D01*
X12338Y83829D01*
X12691Y83252D01*
X13131Y82737D01*
X13646Y82297D01*
X14223Y81944D01*
X14848Y81685D01*
X15506Y81527D01*
X16174Y81474D01*
Y80100D01*
X15506Y80047D01*
X14848Y79889D01*
X14223Y79630D01*
X13646Y79277D01*
X13131Y78837D01*
X12691Y78322D01*
X12338Y77745D01*
X12079Y77120D01*
X11921Y76462D01*
X11868Y75787D01*
X11921Y75112D01*
X12079Y74454D01*
X12338Y73829D01*
X12691Y73252D01*
X13131Y72737D01*
X13646Y72297D01*
X14223Y71944D01*
X14848Y71685D01*
X15506Y71527D01*
X16174Y71474D01*
Y70100D01*
X15506Y70047D01*
X14848Y69889D01*
X14223Y69630D01*
X13646Y69277D01*
X13131Y68837D01*
X12691Y68322D01*
X12338Y67745D01*
X12079Y67120D01*
X11921Y66462D01*
X11868Y65787D01*
X11921Y65112D01*
X12079Y64454D01*
X12338Y63829D01*
X12691Y63252D01*
X13131Y62737D01*
X13646Y62297D01*
X14223Y61944D01*
X14848Y61685D01*
X15506Y61527D01*
X16174Y61474D01*
Y60100D01*
X15506Y60047D01*
X14848Y59889D01*
X14223Y59630D01*
X13646Y59277D01*
X13131Y58837D01*
X12691Y58322D01*
X12338Y57745D01*
X12079Y57120D01*
X11921Y56462D01*
X11868Y55787D01*
X11921Y55112D01*
X12079Y54454D01*
X12338Y53829D01*
X12691Y53252D01*
X13131Y52737D01*
X13646Y52297D01*
X14223Y51944D01*
X14848Y51685D01*
X15506Y51527D01*
X16174Y51474D01*
Y50100D01*
X15506Y50047D01*
X14848Y49889D01*
X14223Y49630D01*
X13646Y49277D01*
X13131Y48837D01*
X12691Y48322D01*
X12338Y47745D01*
X12079Y47120D01*
X11921Y46462D01*
X11868Y45787D01*
X11921Y45112D01*
X12079Y44454D01*
X12338Y43829D01*
X12691Y43252D01*
X13131Y42737D01*
X13646Y42297D01*
X14223Y41944D01*
X14848Y41685D01*
X15506Y41527D01*
X16174Y41474D01*
Y31792D01*
X0D01*
Y227008D01*
X16174D01*
Y132403D01*
G37*
G36*
X170276Y219685D02*Y208452D01*
X169985Y208630D01*
X169638Y208774D01*
X169273Y208861D01*
X168898Y208891D01*
X168523Y208861D01*
X168158Y208774D01*
X167811Y208630D01*
X167490Y208433D01*
X167205Y208189D01*
X166961Y207904D01*
X166764Y207583D01*
X166620Y207236D01*
X166533Y206871D01*
X166503Y206496D01*
X166533Y206121D01*
X166620Y205756D01*
X166764Y205409D01*
X166961Y205088D01*
X167205Y204803D01*
X167490Y204559D01*
X167718Y204419D01*
Y198914D01*
X167621Y198818D01*
X142172D01*
X142126Y198821D01*
X141941Y198807D01*
X141760Y198763D01*
X141588Y198692D01*
X141430Y198595D01*
X141289Y198474D01*
X141259Y198439D01*
X140537Y197717D01*
X140502Y197687D01*
X140381Y197546D01*
X140284Y197388D01*
X140213Y197216D01*
X140169Y197035D01*
X140169Y197035D01*
X140164Y196961D01*
X139931Y196818D01*
X139646Y196574D01*
X139402Y196289D01*
X139205Y195968D01*
X139061Y195621D01*
X138974Y195256D01*
X138944Y194881D01*
X138974Y194506D01*
X139061Y194141D01*
X139205Y193794D01*
X139402Y193473D01*
X139646Y193188D01*
X139931Y192944D01*
X140252Y192747D01*
X140599Y192603D01*
X140964Y192516D01*
X141339Y192486D01*
X141714Y192516D01*
X142079Y192603D01*
X142426Y192747D01*
X142747Y192944D01*
X143032Y193188D01*
X143276Y193473D01*
X143473Y193794D01*
X143617Y194141D01*
X143704Y194506D01*
X143726Y194881D01*
X143704Y195256D01*
X143617Y195621D01*
X143473Y195968D01*
X143276Y196289D01*
X143133Y196456D01*
X159944D01*
X159631Y196143D01*
X159596Y196113D01*
X159475Y195972D01*
X159378Y195814D01*
X159307Y195642D01*
X159263Y195461D01*
X159263Y195461D01*
X159249Y195276D01*
X159252Y195230D01*
Y183097D01*
X159173Y183189D01*
X158888Y183433D01*
X158567Y183630D01*
X158220Y183774D01*
X157855Y183861D01*
X157480Y183891D01*
X157408Y183885D01*
X157449Y183952D01*
X157593Y184299D01*
X157680Y184664D01*
X157702Y185039D01*
X157680Y185414D01*
X157593Y185779D01*
X157449Y186126D01*
X157252Y186447D01*
X157008Y186732D01*
X156723Y186976D01*
X156402Y187173D01*
X156055Y187317D01*
X155690Y187404D01*
X155321Y187433D01*
X155480Y187692D01*
X155624Y188039D01*
X155711Y188404D01*
X155734Y188779D01*
X155711Y189154D01*
X155624Y189519D01*
X155480Y189866D01*
X155283Y190187D01*
X155039Y190472D01*
X154754Y190716D01*
X154433Y190913D01*
X154086Y191057D01*
X153721Y191144D01*
X153346Y191174D01*
X152971Y191144D01*
X152606Y191057D01*
X152259Y190913D01*
X151938Y190716D01*
X151775Y190577D01*
X151796Y190944D01*
X151774Y191319D01*
X151687Y191684D01*
X151543Y192031D01*
X151346Y192352D01*
X151102Y192637D01*
X150817Y192881D01*
X150496Y193078D01*
X150149Y193222D01*
X149784Y193309D01*
X149409Y193339D01*
X149034Y193309D01*
X148669Y193222D01*
X148322Y193078D01*
X148001Y192881D01*
X147716Y192637D01*
X147472Y192352D01*
X147275Y192031D01*
X147131Y191684D01*
X147044Y191319D01*
X147014Y190944D01*
X147044Y190569D01*
X147131Y190204D01*
X147275Y189857D01*
X147434Y189598D01*
X147066Y189569D01*
X146701Y189482D01*
X146354Y189338D01*
X146033Y189141D01*
X145748Y188897D01*
X145504Y188612D01*
X145307Y188291D01*
X145163Y187944D01*
X145076Y187579D01*
X145046Y187204D01*
X145076Y186829D01*
X145163Y186464D01*
X145307Y186117D01*
X145350Y186046D01*
X145097Y186026D01*
X144732Y185939D01*
X144385Y185795D01*
X144064Y185598D01*
X143779Y185354D01*
X143535Y185069D01*
X143338Y184748D01*
X143194Y184401D01*
X143107Y184036D01*
X143077Y183661D01*
X143107Y183286D01*
X143194Y182921D01*
X143338Y182574D01*
X143381Y182503D01*
X143129Y182483D01*
X142764Y182396D01*
X142417Y182252D01*
X142096Y182055D01*
X141811Y181811D01*
X141567Y181526D01*
X141427Y181298D01*
X136267D01*
X136221Y181302D01*
X136036Y181288D01*
X135855Y181244D01*
X135683Y181173D01*
X135525Y181076D01*
X135384Y180955D01*
X135354Y180920D01*
X128645Y174212D01*
X114567D01*
Y198912D01*
X114734Y198745D01*
X114772Y198700D01*
X114952Y198547D01*
X115153Y198423D01*
X115371Y198333D01*
X115601Y198278D01*
X115836Y198259D01*
X115895Y198264D01*
X122848D01*
X123062Y198014D01*
X123347Y197770D01*
X123668Y197573D01*
X124015Y197429D01*
X124380Y197342D01*
X124755Y197312D01*
X125130Y197342D01*
X125495Y197429D01*
X125842Y197573D01*
X126163Y197770D01*
X126448Y198014D01*
X126692Y198299D01*
X126889Y198620D01*
X127033Y198967D01*
X127120Y199332D01*
X127142Y199707D01*
X127120Y200082D01*
X127033Y200447D01*
X126889Y200794D01*
X126692Y201115D01*
X126448Y201400D01*
X126163Y201644D01*
X125842Y201841D01*
X125495Y201985D01*
X125130Y202072D01*
X124755Y202102D01*
X124380Y202072D01*
X124015Y201985D01*
X123668Y201841D01*
X123347Y201644D01*
X123062Y201400D01*
X122945Y201264D01*
X116457D01*
X116160Y201561D01*
Y219685D01*
X142027D01*
X142039Y214793D01*
X142131Y214410D01*
X142282Y214047D01*
X142487Y213711D01*
X142743Y213412D01*
X143042Y213156D01*
X143378Y212951D01*
X143741Y212800D01*
X144124Y212708D01*
X144516Y212685D01*
X153908Y212708D01*
X154291Y212800D01*
X154654Y212951D01*
X154990Y213156D01*
X155289Y213412D01*
X155545Y213711D01*
X155750Y214047D01*
X155901Y214410D01*
X155993Y214793D01*
X156016Y215185D01*
X156005Y219685D01*
X170276D01*
G37*
G36*
X116142Y55905D02*X145629D01*
X145669Y55902D01*
X145709Y55905D01*
X147836D01*
Y41827D01*
X136914Y30905D01*
X129101D01*
X129101Y31109D01*
X129215Y31584D01*
X129270Y32283D01*
X129215Y32982D01*
X129098Y33467D01*
X129096Y35909D01*
X129066Y36031D01*
X129018Y36147D01*
X128952Y36255D01*
X128870Y36350D01*
X128775Y36432D01*
X128667Y36498D01*
X128551Y36546D01*
X128429Y36576D01*
X128303Y36583D01*
X125977Y36581D01*
X125502Y36695D01*
X124803Y36736D01*
X116142D01*
Y39065D01*
X116369Y39204D01*
X116654Y39448D01*
X116898Y39733D01*
X117095Y40054D01*
X117239Y40401D01*
X117326Y40766D01*
X117348Y41141D01*
X117326Y41516D01*
X117239Y41881D01*
X117095Y42228D01*
X116898Y42549D01*
X116654Y42834D01*
X116369Y43078D01*
X116142Y43217D01*
Y48582D01*
X116145Y48622D01*
X116142Y48662D01*
Y55905D01*
G37*
G36*
X155709Y96259D02*Y23425D01*
X149409D01*
Y30023D01*
X152967Y33580D01*
X153002Y33611D01*
X153123Y33752D01*
X153220Y33910D01*
X153291Y34082D01*
X153335Y34263D01*
X153349Y34448D01*
X153346Y34494D01*
Y93592D01*
X153573Y93732D01*
X153858Y93976D01*
X154102Y94261D01*
X154299Y94582D01*
X154443Y94929D01*
X154530Y95294D01*
X154552Y95669D01*
X154530Y96044D01*
X154479Y96259D01*
X154733D01*
X154743Y96257D01*
X155118Y96227D01*
X155493Y96257D01*
X155503Y96259D01*
X155709D01*
G37*
G36*
X96665Y135027D02*X96651Y134842D01*
X96654Y134796D01*
Y129242D01*
X96427Y129102D01*
X96142Y128858D01*
X95898Y128573D01*
X95701Y128252D01*
X95557Y127905D01*
X95470Y127540D01*
X95440Y127165D01*
X95470Y126790D01*
X95557Y126425D01*
X95701Y126078D01*
X95898Y125757D01*
X96142Y125472D01*
X96427Y125228D01*
X96748Y125031D01*
X97095Y124887D01*
X97460Y124800D01*
X97835Y124770D01*
X98210Y124800D01*
X98575Y124887D01*
X98922Y125031D01*
X99243Y125228D01*
X99528Y125472D01*
X99772Y125757D01*
X99969Y126078D01*
X100113Y126425D01*
X100200Y126790D01*
X100222Y127165D01*
X100200Y127540D01*
X100113Y127905D01*
X99969Y128252D01*
X99772Y128573D01*
X99528Y128858D01*
X99243Y129102D01*
X99016Y129242D01*
Y134353D01*
X103587Y138925D01*
X104137Y138697D01*
X104719Y138557D01*
X105315Y138510D01*
X105911Y138557D01*
X106493Y138697D01*
X107045Y138926D01*
X107555Y139238D01*
X108010Y139627D01*
X108399Y140082D01*
X108711Y140592D01*
X108940Y141144D01*
X109080Y141726D01*
X109115Y142322D01*
X109080Y142918D01*
X108940Y143500D01*
X108711Y144052D01*
X108399Y144562D01*
X108010Y145017D01*
X107555Y145406D01*
X107045Y145718D01*
X106493Y145947D01*
X106008Y146064D01*
X110928D01*
X111024Y145967D01*
Y142825D01*
X110797Y142685D01*
X110512Y142441D01*
X110268Y142156D01*
X110071Y141835D01*
X109927Y141488D01*
X109840Y141123D01*
X109810Y140748D01*
X109840Y140373D01*
X109927Y140008D01*
X110071Y139661D01*
X110268Y139340D01*
X110512Y139055D01*
X110797Y138811D01*
X111118Y138614D01*
X111465Y138470D01*
X111830Y138383D01*
X112205Y138353D01*
X112580Y138383D01*
X112945Y138470D01*
X113292Y138614D01*
X113613Y138811D01*
X113898Y139055D01*
X114142Y139340D01*
X114339Y139661D01*
X114483Y140008D01*
X114570Y140373D01*
X114592Y140748D01*
X114570Y141123D01*
X114483Y141488D01*
X114339Y141835D01*
X114142Y142156D01*
X113898Y142441D01*
X113613Y142685D01*
X113386Y142825D01*
Y146410D01*
X113389Y146456D01*
X113375Y146641D01*
X113375Y146641D01*
X113331Y146822D01*
X113260Y146994D01*
X113163Y147152D01*
X113042Y147293D01*
X113007Y147323D01*
X112693Y147638D01*
X118803D01*
X118898Y147542D01*
Y110492D01*
X118894Y110433D01*
X118908Y110248D01*
X118952Y110067D01*
X119023Y109895D01*
X119120Y109737D01*
X119124Y109733D01*
X119242Y109595D01*
X119277Y109565D01*
X119999Y108843D01*
X120029Y108808D01*
X120170Y108687D01*
X120328Y108590D01*
X120500Y108519D01*
X120681Y108475D01*
X120728Y108473D01*
X120865Y108462D01*
X120899Y108464D01*
X124695D01*
X124835Y108237D01*
X125079Y107952D01*
X125364Y107708D01*
X125685Y107511D01*
X126032Y107367D01*
X126397Y107280D01*
X126772Y107250D01*
X127147Y107280D01*
X127512Y107367D01*
X127859Y107511D01*
X128180Y107708D01*
X128465Y107952D01*
X128709Y108237D01*
X128906Y108558D01*
X129050Y108905D01*
X129137Y109270D01*
X129160Y109645D01*
X129137Y110020D01*
X129050Y110385D01*
X128906Y110732D01*
X128709Y111053D01*
X128465Y111338D01*
X128180Y111582D01*
X127968Y111712D01*
X128180Y111842D01*
X128465Y112086D01*
X128709Y112371D01*
X128906Y112692D01*
X129050Y113039D01*
X129137Y113404D01*
X129160Y113779D01*
X129137Y114154D01*
X129050Y114519D01*
X128906Y114866D01*
X128709Y115187D01*
X128465Y115472D01*
X128180Y115716D01*
X127968Y115846D01*
X128180Y115976D01*
X128465Y116220D01*
X128709Y116505D01*
X128906Y116826D01*
X129050Y117173D01*
X129137Y117538D01*
X129160Y117913D01*
X129137Y118288D01*
X129050Y118653D01*
X128906Y119000D01*
X128709Y119321D01*
X128465Y119606D01*
X128180Y119850D01*
X127859Y120047D01*
X127512Y120191D01*
X127147Y120278D01*
X126772Y120308D01*
X126397Y120278D01*
X126032Y120191D01*
X125685Y120047D01*
X125364Y119850D01*
X125079Y119606D01*
X124835Y119321D01*
X124695Y119094D01*
X124505D01*
X124408Y119190D01*
Y151135D01*
X124412Y151181D01*
X124398Y151366D01*
X124354Y151547D01*
X124283Y151719D01*
X124186Y151877D01*
X124164Y151902D01*
X124065Y152017D01*
X124037Y152042D01*
X123308Y152770D01*
X123278Y152805D01*
X123140Y152923D01*
X123136Y152927D01*
X122978Y153024D01*
X122806Y153095D01*
X122625Y153139D01*
X122440Y153153D01*
X122381Y153148D01*
X106591D01*
X106496Y153244D01*
Y155206D01*
X106723Y155346D01*
X107008Y155590D01*
X107252Y155875D01*
X107449Y156196D01*
X107593Y156543D01*
X107680Y156908D01*
X107703Y157283D01*
X107680Y157658D01*
X107593Y158023D01*
X107449Y158370D01*
X107252Y158691D01*
X107008Y158976D01*
X106723Y159220D01*
X106670Y159252D01*
X143655D01*
X143701Y159249D01*
X143886Y159263D01*
X143886Y159263D01*
X144067Y159307D01*
X144239Y159378D01*
X144397Y159475D01*
X144462Y159530D01*
X144455Y159448D01*
X144485Y159073D01*
X144572Y158708D01*
X144716Y158361D01*
X144913Y158040D01*
X145157Y157755D01*
X145442Y157511D01*
X145763Y157314D01*
X146110Y157170D01*
X146475Y157083D01*
X146850Y157053D01*
X147225Y157083D01*
X147590Y157170D01*
X147937Y157314D01*
X148258Y157511D01*
X148543Y157755D01*
X148787Y158040D01*
X148984Y158361D01*
X149128Y158708D01*
X149215Y159073D01*
X149238Y159448D01*
X149215Y159823D01*
X149128Y160188D01*
X148984Y160535D01*
X148787Y160856D01*
X148543Y161141D01*
X148258Y161385D01*
X148030Y161525D01*
Y166242D01*
X148127Y166338D01*
X156890D01*
Y153148D01*
X147093D01*
X147047Y153152D01*
X146862Y153138D01*
X146681Y153094D01*
X146509Y153023D01*
X146351Y152926D01*
X146210Y152805D01*
X146180Y152770D01*
X145458Y152048D01*
X145423Y152018D01*
X145302Y151877D01*
X145205Y151719D01*
X145134Y151547D01*
X145090Y151366D01*
X145090Y151366D01*
X145076Y151181D01*
X145080Y151135D01*
Y144583D01*
X143212Y142716D01*
X132723D01*
X132677Y142719D01*
X132492Y142705D01*
X132311Y142661D01*
X132139Y142590D01*
X131981Y142493D01*
X131840Y142372D01*
X131810Y142337D01*
X131088Y141615D01*
X131053Y141585D01*
X130932Y141444D01*
X130835Y141286D01*
X130764Y141114D01*
X130720Y140933D01*
X130720Y140933D01*
X130706Y140748D01*
X130710Y140702D01*
Y106001D01*
X130613Y105904D01*
X110283D01*
X110237Y105908D01*
X110055Y105894D01*
X110051Y105894D01*
X109870Y105850D01*
X109698Y105779D01*
X109540Y105682D01*
X109399Y105561D01*
X109363Y105519D01*
X108654Y104810D01*
X108612Y104774D01*
X108491Y104633D01*
X108394Y104475D01*
X108323Y104303D01*
X108279Y104122D01*
X108276Y104071D01*
X108266Y103937D01*
X108268Y103903D01*
Y96063D01*
X89370D01*
Y116142D01*
X89521D01*
X89567Y116138D01*
X89752Y116152D01*
X89752Y116152D01*
X89933Y116196D01*
X90105Y116267D01*
X90263Y116364D01*
X90404Y116485D01*
X90434Y116520D01*
X91156Y117242D01*
X91191Y117272D01*
X91312Y117413D01*
X91409Y117571D01*
X91480Y117743D01*
X91524Y117924D01*
X91538Y118109D01*
X91534Y118155D01*
Y145967D01*
X91631Y146064D01*
X104622D01*
X104137Y145947D01*
X103585Y145718D01*
X103075Y145406D01*
X102620Y145017D01*
X102231Y144562D01*
X101919Y144052D01*
X101690Y143500D01*
X101550Y142918D01*
X101503Y142322D01*
X101550Y141726D01*
X101690Y141144D01*
X101918Y140594D01*
X97033Y135709D01*
X96998Y135679D01*
X96877Y135538D01*
X96780Y135380D01*
X96709Y135208D01*
X96665Y135027D01*
X96665Y135027D01*
G37*
G36*
X130710Y106001D02*X130613Y105904D01*
X110283D01*
X110237Y105908D01*
X110055Y105894D01*
X110051Y105894D01*
X109870Y105850D01*
X109698Y105779D01*
X109540Y105682D01*
X109449Y105604D01*
Y140551D01*
X109826D01*
X109840Y140373D01*
X109927Y140008D01*
X110071Y139661D01*
X110268Y139340D01*
X110512Y139055D01*
X110797Y138811D01*
X111118Y138614D01*
X111465Y138470D01*
X111830Y138383D01*
X112205Y138353D01*
X112580Y138383D01*
X112945Y138470D01*
X113292Y138614D01*
X113613Y138811D01*
X113898Y139055D01*
X114142Y139340D01*
X114339Y139661D01*
X114483Y140008D01*
X114570Y140373D01*
X114581Y140551D01*
X118898D01*
Y110492D01*
X118894Y110433D01*
X118908Y110248D01*
X118952Y110067D01*
X119023Y109895D01*
X119120Y109737D01*
X119124Y109733D01*
X119242Y109595D01*
X119277Y109565D01*
X119999Y108843D01*
X120029Y108808D01*
X120170Y108687D01*
X120328Y108590D01*
X120500Y108519D01*
X120681Y108475D01*
X120728Y108473D01*
X120865Y108462D01*
X120899Y108464D01*
X124695D01*
X124835Y108237D01*
X125079Y107952D01*
X125364Y107708D01*
X125685Y107511D01*
X126032Y107367D01*
X126397Y107280D01*
X126772Y107250D01*
X127147Y107280D01*
X127512Y107367D01*
X127859Y107511D01*
X128180Y107708D01*
X128465Y107952D01*
X128709Y108237D01*
X128906Y108558D01*
X129050Y108905D01*
X129137Y109270D01*
X129160Y109645D01*
X129137Y110020D01*
X129050Y110385D01*
X128906Y110732D01*
X128709Y111053D01*
X128465Y111338D01*
X128180Y111582D01*
X127968Y111712D01*
X128180Y111842D01*
X128465Y112086D01*
X128709Y112371D01*
X128906Y112692D01*
X129050Y113039D01*
X129137Y113404D01*
X129160Y113779D01*
X129137Y114154D01*
X129050Y114519D01*
X128906Y114866D01*
X128709Y115187D01*
X128465Y115472D01*
X128180Y115716D01*
X127968Y115846D01*
X128180Y115976D01*
X128465Y116220D01*
X128709Y116505D01*
X128906Y116826D01*
X129050Y117173D01*
X129137Y117538D01*
X129160Y117913D01*
X129137Y118288D01*
X129050Y118653D01*
X128906Y119000D01*
X128709Y119321D01*
X128465Y119606D01*
X128180Y119850D01*
X127859Y120047D01*
X127512Y120191D01*
X127147Y120278D01*
X126772Y120308D01*
X126397Y120278D01*
X126032Y120191D01*
X125685Y120047D01*
X125364Y119850D01*
X125079Y119606D01*
X124835Y119321D01*
X124695Y119094D01*
X124505D01*
X124408Y119190D01*
Y140551D01*
X130710D01*
Y106001D01*
G37*
G36*
X155906Y140551D02*Y131102D01*
X150243D01*
X150197Y131105D01*
X150012Y131091D01*
X149831Y131047D01*
X149659Y130976D01*
X149501Y130879D01*
X149360Y130758D01*
X149330Y130723D01*
X143445Y124838D01*
X143260Y124915D01*
X142895Y125002D01*
X142520Y125032D01*
X142145Y125002D01*
X141780Y124915D01*
X141433Y124771D01*
X141112Y124574D01*
X140827Y124330D01*
X140583Y124045D01*
X140386Y123724D01*
X140242Y123377D01*
X140155Y123012D01*
X140125Y122637D01*
X140155Y122262D01*
X140242Y121897D01*
X140386Y121550D01*
X140583Y121229D01*
X140827Y120944D01*
X141112Y120700D01*
X141433Y120503D01*
X141611Y120429D01*
X141309Y120244D01*
X141024Y120000D01*
X140780Y119715D01*
X140583Y119394D01*
X140439Y119047D01*
X140352Y118682D01*
X140322Y118307D01*
X140352Y117932D01*
X140439Y117567D01*
X140583Y117220D01*
X140780Y116899D01*
X141024Y116614D01*
X141309Y116370D01*
X141630Y116173D01*
X141977Y116029D01*
X142342Y115942D01*
X142717Y115912D01*
X143092Y115942D01*
X143457Y116029D01*
X143804Y116173D01*
X144125Y116370D01*
X144410Y116614D01*
X144568Y116798D01*
X144572Y116779D01*
X144716Y116432D01*
X144913Y116111D01*
X145157Y115826D01*
X145442Y115582D01*
X145763Y115385D01*
X146110Y115241D01*
X146475Y115154D01*
X146850Y115124D01*
X147225Y115154D01*
X147590Y115241D01*
X147937Y115385D01*
X148258Y115582D01*
X148543Y115826D01*
X148787Y116111D01*
X148984Y116432D01*
X149016Y116508D01*
X149047Y116432D01*
X149244Y116111D01*
X149488Y115826D01*
X149773Y115582D01*
X150094Y115385D01*
X150441Y115241D01*
X150806Y115154D01*
X151181Y115124D01*
X151556Y115154D01*
X151712Y115191D01*
X139370Y102849D01*
Y130613D01*
X139465Y130708D01*
X145033D01*
X145079Y130705D01*
X145264Y130719D01*
X145264Y130719D01*
X145445Y130763D01*
X145617Y130834D01*
X145775Y130931D01*
X145916Y131052D01*
X145946Y131087D01*
X155410Y140551D01*
X155906D01*
G37*
G36*
X135434Y98520D02*X133173Y96258D01*
X130227D01*
X130087Y96486D01*
X129843Y96771D01*
X129558Y97015D01*
X129237Y97212D01*
X128890Y97356D01*
X128525Y97443D01*
X128150Y97473D01*
X127775Y97443D01*
X127410Y97356D01*
X127063Y97212D01*
X126742Y97015D01*
X126457Y96771D01*
X126213Y96486D01*
X126016Y96165D01*
X125872Y95818D01*
X125785Y95453D01*
X125755Y95078D01*
X125785Y94703D01*
X125872Y94338D01*
X126016Y93991D01*
X126213Y93670D01*
X126457Y93385D01*
X126742Y93141D01*
X127063Y92944D01*
X127410Y92800D01*
X127775Y92713D01*
X128150Y92683D01*
X128525Y92713D01*
X128890Y92800D01*
X129237Y92944D01*
X129558Y93141D01*
X129843Y93385D01*
X130087Y93670D01*
X130227Y93898D01*
X133616D01*
X133662Y93894D01*
X133847Y93908D01*
X133847Y93908D01*
X134028Y93952D01*
X134200Y94023D01*
X134358Y94120D01*
X134499Y94241D01*
X134530Y94276D01*
X137008Y96755D01*
Y96158D01*
X131204Y90354D01*
X130227D01*
X130087Y90581D01*
X129843Y90866D01*
X129558Y91110D01*
X129237Y91307D01*
X128890Y91451D01*
X128525Y91538D01*
X128150Y91568D01*
X127775Y91538D01*
X127410Y91451D01*
X127063Y91307D01*
X126742Y91110D01*
X126457Y90866D01*
X126213Y90581D01*
X126016Y90260D01*
X125872Y89913D01*
X125785Y89548D01*
X125755Y89173D01*
X125785Y88798D01*
X125872Y88433D01*
X126016Y88086D01*
X126213Y87765D01*
X126457Y87480D01*
X126742Y87236D01*
X127063Y87039D01*
X127410Y86895D01*
X127775Y86808D01*
X128150Y86778D01*
X128525Y86808D01*
X128890Y86895D01*
X129237Y87039D01*
X129558Y87236D01*
X129843Y87480D01*
X130087Y87765D01*
X130227Y87992D01*
X131647D01*
X131693Y87989D01*
X131875Y88003D01*
X131879Y88003D01*
X132060Y88047D01*
X132232Y88118D01*
X132390Y88215D01*
X132531Y88336D01*
X132567Y88378D01*
X138976Y94787D01*
Y84149D01*
X138882Y84054D01*
X130817D01*
X130677Y84282D01*
X130433Y84567D01*
X130148Y84811D01*
X129827Y85008D01*
X129480Y85152D01*
X129115Y85239D01*
X128740Y85269D01*
X128365Y85239D01*
X128000Y85152D01*
X127653Y85008D01*
X127332Y84811D01*
X127047Y84567D01*
X126803Y84282D01*
X126606Y83961D01*
X126462Y83614D01*
X126375Y83249D01*
X126345Y82874D01*
X126375Y82499D01*
X126462Y82134D01*
X126606Y81787D01*
X126803Y81466D01*
X127047Y81181D01*
X127332Y80937D01*
X127653Y80740D01*
X128000Y80596D01*
X128365Y80509D01*
X128740Y80479D01*
X129115Y80509D01*
X129480Y80596D01*
X129827Y80740D01*
X130148Y80937D01*
X130433Y81181D01*
X130677Y81466D01*
X130817Y81694D01*
X139311D01*
X139370Y81689D01*
X139555Y81703D01*
X139736Y81747D01*
X139908Y81818D01*
X140066Y81915D01*
X140120Y81963D01*
X140206Y82037D01*
X140225Y82058D01*
X140552Y82385D01*
Y77165D01*
X120669D01*
Y98120D01*
X120764Y98062D01*
X121111Y97918D01*
X121476Y97831D01*
X121851Y97801D01*
X122226Y97831D01*
X122591Y97918D01*
X122938Y98062D01*
X123259Y98259D01*
X123544Y98503D01*
X123788Y98788D01*
X123928Y99016D01*
X134218D01*
X134252Y99013D01*
X134386Y99023D01*
X134437Y99026D01*
X134618Y99070D01*
X134790Y99141D01*
X134948Y99238D01*
X135089Y99359D01*
X135125Y99401D01*
X135434Y99710D01*
Y98520D01*
G37*
G36*
X123228Y78149D02*X140552D01*
Y63087D01*
X140456Y62992D01*
X123228D01*
Y78149D01*
G37*
G36*
X199996Y15551D02*X227253D01*
X227393Y15323D01*
X227637Y15038D01*
X227728Y14960D01*
X199996D01*
Y15551D01*
G37*
G36*
X414173Y393D02*X218303D01*
Y11024D01*
X243064D01*
X243110Y11020D01*
X243295Y11034D01*
X243295Y11034D01*
X243476Y11078D01*
X243648Y11149D01*
X243806Y11246D01*
X243947Y11367D01*
X243978Y11402D01*
X244700Y12124D01*
X244735Y12155D01*
X244856Y12296D01*
X244953Y12454D01*
X245024Y12626D01*
X245068Y12807D01*
X245082Y12992D01*
X245078Y13038D01*
Y14655D01*
X245306Y14795D01*
X245591Y15039D01*
X245835Y15324D01*
X246032Y15645D01*
X246176Y15992D01*
X246263Y16357D01*
X246286Y16732D01*
X246263Y17107D01*
X246176Y17472D01*
X246032Y17819D01*
X245835Y18140D01*
X245591Y18425D01*
X245306Y18669D01*
X244985Y18866D01*
X244638Y19010D01*
X244273Y19097D01*
X243898Y19127D01*
X243523Y19097D01*
X243158Y19010D01*
X242811Y18866D01*
X242490Y18669D01*
X242205Y18425D01*
X241961Y18140D01*
X241764Y17819D01*
X241620Y17472D01*
X241533Y17107D01*
X241503Y16732D01*
X241533Y16357D01*
X241620Y15992D01*
X241764Y15645D01*
X241961Y15324D01*
X242205Y15039D01*
X242490Y14795D01*
X242718Y14655D01*
Y13481D01*
X242621Y13384D01*
X237102D01*
X237416Y13699D01*
X237451Y13729D01*
X237572Y13870D01*
X237669Y14028D01*
X237740Y14200D01*
X237784Y14381D01*
X237798Y14566D01*
X237795Y14612D01*
Y14654D01*
X238022Y14794D01*
X238307Y15038D01*
X238551Y15323D01*
X238748Y15644D01*
X238892Y15991D01*
X238979Y16356D01*
X239002Y16731D01*
X238979Y17106D01*
X238892Y17471D01*
X238748Y17818D01*
X238551Y18139D01*
X238307Y18424D01*
X238022Y18668D01*
X237701Y18865D01*
X237354Y19009D01*
X236989Y19096D01*
X236614Y19126D01*
X236239Y19096D01*
X235874Y19009D01*
X235527Y18865D01*
X235206Y18668D01*
X234921Y18424D01*
X234677Y18139D01*
X234480Y17818D01*
X234336Y17471D01*
X234249Y17106D01*
X234219Y16731D01*
X234249Y16356D01*
X234336Y15991D01*
X234480Y15644D01*
X234677Y15323D01*
X234921Y15038D01*
X235012Y14960D01*
X230932D01*
X231023Y15038D01*
X231267Y15323D01*
X231464Y15644D01*
X231608Y15991D01*
X231695Y16356D01*
X231718Y16731D01*
X231695Y17106D01*
X231608Y17471D01*
X231464Y17818D01*
X231267Y18139D01*
X231023Y18424D01*
X230738Y18668D01*
X230417Y18865D01*
X230070Y19009D01*
X229705Y19096D01*
X229330Y19126D01*
X228955Y19096D01*
X228590Y19009D01*
X228243Y18865D01*
X227922Y18668D01*
X227637Y18424D01*
X227393Y18139D01*
X227254Y17912D01*
X218303D01*
Y18077D01*
X218307Y18077D01*
X218682Y18107D01*
X219047Y18194D01*
X219394Y18338D01*
X219715Y18535D01*
X220000Y18779D01*
X220244Y19064D01*
X220441Y19385D01*
X220585Y19732D01*
X220672Y20097D01*
X220695Y20472D01*
X220672Y20847D01*
X220585Y21212D01*
X220441Y21559D01*
X220244Y21880D01*
X220000Y22165D01*
X219715Y22409D01*
X219394Y22606D01*
X219047Y22750D01*
X218682Y22837D01*
X218307Y22867D01*
X218303Y22867D01*
Y33070D01*
X414173D01*
Y393D01*
G37*
G36*
X218303Y17912D02*X199996D01*
Y33070D01*
X218303D01*
Y22867D01*
X217932Y22837D01*
X217567Y22750D01*
X217220Y22606D01*
X216899Y22409D01*
X216614Y22165D01*
X216370Y21880D01*
X216173Y21559D01*
X216029Y21212D01*
X215942Y20847D01*
X215912Y20472D01*
X215942Y20097D01*
X216029Y19732D01*
X216173Y19385D01*
X216370Y19064D01*
X216614Y18779D01*
X216899Y18535D01*
X217220Y18338D01*
X217567Y18194D01*
X217932Y18107D01*
X218303Y18077D01*
Y17912D01*
G37*
G36*
Y393D02*X199996D01*
Y11024D01*
X218303D01*
Y393D01*
G37*
G36*
X133662Y24315D02*X142417Y33070D01*
X149118D01*
X133662Y17614D01*
Y24315D01*
G37*
G36*
Y33070D02*X139079D01*
X133662Y27653D01*
Y33070D01*
G37*
G36*
X199996Y393D02*X133662D01*
Y1609D01*
X137288Y1612D01*
X137410Y1642D01*
X137526Y1690D01*
X137634Y1756D01*
X137729Y1838D01*
X137811Y1933D01*
X137877Y2041D01*
X137925Y2157D01*
X137955Y2279D01*
X137962Y2405D01*
X137955Y9531D01*
X137925Y9653D01*
X137877Y9769D01*
X137811Y9877D01*
X137729Y9972D01*
X137634Y10054D01*
X137526Y10120D01*
X137410Y10168D01*
X137288Y10198D01*
X137162Y10205D01*
X133662Y10201D01*
Y14276D01*
X152456Y33070D01*
X159252D01*
Y28651D01*
X159025Y28511D01*
X158740Y28267D01*
X158496Y27982D01*
X158299Y27661D01*
X158155Y27314D01*
X158068Y26949D01*
X158038Y26574D01*
X158068Y26199D01*
X158155Y25834D01*
X158299Y25487D01*
X158496Y25166D01*
X158740Y24881D01*
X159025Y24637D01*
X159346Y24440D01*
X159693Y24296D01*
X160058Y24209D01*
X160433Y24179D01*
X160808Y24209D01*
X161173Y24296D01*
X161520Y24440D01*
X161841Y24637D01*
X162126Y24881D01*
X162370Y25166D01*
X162567Y25487D01*
X162711Y25834D01*
X162798Y26199D01*
X162820Y26574D01*
X162798Y26949D01*
X162711Y27314D01*
X162567Y27661D01*
X162370Y27982D01*
X162126Y28267D01*
X161841Y28511D01*
X161614Y28651D01*
Y33070D01*
X167914D01*
Y28651D01*
X167686Y28511D01*
X167401Y28267D01*
X167157Y27982D01*
X166960Y27661D01*
X166816Y27314D01*
X166729Y26949D01*
X166699Y26574D01*
X166729Y26199D01*
X166816Y25834D01*
X166960Y25487D01*
X167157Y25166D01*
X167401Y24881D01*
X167686Y24637D01*
X168007Y24440D01*
X168354Y24296D01*
X168719Y24209D01*
X169094Y24179D01*
X169469Y24209D01*
X169834Y24296D01*
X170181Y24440D01*
X170502Y24637D01*
X170787Y24881D01*
X171031Y25166D01*
X171228Y25487D01*
X171372Y25834D01*
X171459Y26199D01*
X171482Y26574D01*
X171459Y26949D01*
X171372Y27314D01*
X171228Y27661D01*
X171031Y27982D01*
X170787Y28267D01*
X170502Y28511D01*
X170274Y28651D01*
Y33070D01*
X199996D01*
Y17912D01*
X187694D01*
X187598Y18008D01*
Y24497D01*
X187825Y24637D01*
X188110Y24881D01*
X188354Y25166D01*
X188551Y25487D01*
X188695Y25834D01*
X188782Y26199D01*
X188804Y26574D01*
X188782Y26949D01*
X188695Y27314D01*
X188551Y27661D01*
X188354Y27982D01*
X188110Y28267D01*
X187825Y28511D01*
X187504Y28708D01*
X187157Y28852D01*
X186792Y28939D01*
X186417Y28969D01*
X186042Y28939D01*
X185677Y28852D01*
X185330Y28708D01*
X185009Y28511D01*
X184724Y28267D01*
X184480Y27982D01*
X184283Y27661D01*
X184139Y27314D01*
X184052Y26949D01*
X184022Y26574D01*
X184052Y26199D01*
X184139Y25834D01*
X184283Y25487D01*
X184480Y25166D01*
X184724Y24881D01*
X185009Y24637D01*
X185236Y24497D01*
Y17565D01*
X185233Y17518D01*
X185247Y17337D01*
X185247Y17334D01*
X185248Y17333D01*
X185248Y17333D01*
X185269Y17245D01*
X185291Y17153D01*
X185291Y17153D01*
X185291Y17152D01*
X185326Y17068D01*
X185362Y16981D01*
X185362Y16981D01*
X185362Y16981D01*
X185411Y16902D01*
X185459Y16823D01*
X185459Y16823D01*
X185459Y16822D01*
X185461Y16820D01*
X185580Y16682D01*
X185615Y16651D01*
X186338Y15930D01*
X186368Y15895D01*
X186509Y15774D01*
X186509Y15774D01*
X186510Y15774D01*
X186587Y15726D01*
X186667Y15677D01*
X186668Y15677D01*
X186668Y15677D01*
X186754Y15641D01*
X186839Y15606D01*
X186839Y15606D01*
X186840Y15606D01*
X186928Y15584D01*
X187020Y15562D01*
X187020Y15562D01*
X187021Y15562D01*
X187206Y15548D01*
X187252Y15551D01*
X199996D01*
Y14960D01*
X183363D01*
X183268Y15055D01*
Y17411D01*
X183495Y17551D01*
X183780Y17795D01*
X184024Y18080D01*
X184221Y18401D01*
X184365Y18748D01*
X184452Y19113D01*
X184474Y19488D01*
X184452Y19863D01*
X184365Y20228D01*
X184221Y20575D01*
X184024Y20896D01*
X183780Y21181D01*
X183495Y21425D01*
X183174Y21622D01*
X182827Y21766D01*
X182462Y21853D01*
X182087Y21883D01*
X181712Y21853D01*
X181347Y21766D01*
X181000Y21622D01*
X180679Y21425D01*
X180394Y21181D01*
X180150Y20896D01*
X179953Y20575D01*
X179809Y20228D01*
X179722Y19863D01*
X179692Y19488D01*
X179722Y19113D01*
X179809Y18748D01*
X179953Y18401D01*
X180150Y18080D01*
X180394Y17795D01*
X180679Y17551D01*
X180906Y17411D01*
Y14612D01*
X180903Y14566D01*
X180917Y14381D01*
X180917Y14381D01*
X180961Y14200D01*
X181032Y14028D01*
X181129Y13870D01*
X181250Y13729D01*
X181285Y13699D01*
X181599Y13384D01*
X157379D01*
X157282Y13481D01*
Y17411D01*
X157510Y17551D01*
X157795Y17795D01*
X158039Y18080D01*
X158236Y18401D01*
X158380Y18748D01*
X158467Y19113D01*
X158490Y19488D01*
X158467Y19863D01*
X158380Y20228D01*
X158236Y20575D01*
X158039Y20896D01*
X157795Y21181D01*
X157510Y21425D01*
X157189Y21622D01*
X156842Y21766D01*
X156477Y21853D01*
X156102Y21883D01*
X155727Y21853D01*
X155362Y21766D01*
X155015Y21622D01*
X154694Y21425D01*
X154409Y21181D01*
X154165Y20896D01*
X153968Y20575D01*
X153824Y20228D01*
X153737Y19863D01*
X153707Y19488D01*
X153737Y19113D01*
X153824Y18748D01*
X153968Y18401D01*
X154165Y18080D01*
X154409Y17795D01*
X154694Y17551D01*
X154922Y17411D01*
Y13038D01*
X154918Y12992D01*
X154932Y12807D01*
X154932Y12807D01*
X154976Y12626D01*
X155047Y12454D01*
X155144Y12296D01*
X155265Y12155D01*
X155300Y12125D01*
X156023Y11402D01*
X156053Y11367D01*
X156194Y11246D01*
X156352Y11149D01*
X156524Y11078D01*
X156705Y11034D01*
X156705Y11034D01*
X156890Y11020D01*
X156936Y11024D01*
X199996D01*
Y393D01*
G37*
G36*
X133662D02*X74598D01*
Y1676D01*
X74856Y1614D01*
X75531Y1561D01*
X76206Y1614D01*
X76864Y1772D01*
X77489Y2031D01*
X78066Y2384D01*
X78581Y2824D01*
X79021Y3339D01*
X79374Y3916D01*
X79633Y4541D01*
X79791Y5199D01*
X79831Y5874D01*
X79791Y6549D01*
X79633Y7207D01*
X79374Y7832D01*
X79021Y8409D01*
X78581Y8924D01*
X78066Y9364D01*
X77489Y9717D01*
X76864Y9976D01*
X76206Y10134D01*
X75531Y10187D01*
X74856Y10134D01*
X74598Y10072D01*
Y15157D01*
X83553D01*
X83693Y14930D01*
X83937Y14645D01*
X84222Y14401D01*
X84543Y14204D01*
X84890Y14060D01*
X85255Y13973D01*
X85630Y13943D01*
X86005Y13973D01*
X86370Y14060D01*
X86717Y14204D01*
X87038Y14401D01*
X87323Y14645D01*
X87567Y14930D01*
X87764Y15251D01*
X87908Y15598D01*
X87995Y15963D01*
X88018Y16338D01*
X87995Y16713D01*
X87908Y17078D01*
X87764Y17425D01*
X87567Y17746D01*
X87323Y18031D01*
X87038Y18275D01*
X86717Y18472D01*
X86370Y18616D01*
X86005Y18703D01*
X85630Y18733D01*
X85255Y18703D01*
X84890Y18616D01*
X84543Y18472D01*
X84222Y18275D01*
X83937Y18031D01*
X83693Y17746D01*
X83553Y17518D01*
X74598D01*
Y27830D01*
X124803D01*
X125502Y27871D01*
X125987Y27988D01*
X128429Y27990D01*
X128551Y28020D01*
X128667Y28068D01*
X128775Y28134D01*
X128870Y28216D01*
X128952Y28311D01*
X129018Y28419D01*
X129066Y28535D01*
X129096Y28657D01*
X129103Y28783D01*
X129101Y31109D01*
X129215Y31584D01*
X129270Y32283D01*
X129215Y32982D01*
X129194Y33070D01*
X133662D01*
Y27653D01*
X115705Y9696D01*
X115620Y9748D01*
X114995Y10007D01*
X114337Y10165D01*
X113662Y10218D01*
X112987Y10165D01*
X112329Y10007D01*
X111704Y9748D01*
X111127Y9395D01*
X110612Y8955D01*
X110172Y8440D01*
X109819Y7863D01*
X109560Y7238D01*
X109402Y6580D01*
X109349Y5905D01*
X109402Y5230D01*
X109560Y4572D01*
X109819Y3947D01*
X110172Y3370D01*
X110612Y2855D01*
X111127Y2415D01*
X111704Y2062D01*
X112329Y1803D01*
X112987Y1645D01*
X113662Y1592D01*
X114337Y1645D01*
X114995Y1803D01*
X115620Y2062D01*
X116197Y2415D01*
X116712Y2855D01*
X117152Y3370D01*
X117505Y3947D01*
X117764Y4572D01*
X117922Y5230D01*
X117962Y5905D01*
X117922Y6580D01*
X117764Y7238D01*
X117505Y7863D01*
X117393Y8046D01*
X133662Y24315D01*
Y17614D01*
X125729Y9681D01*
X125620Y9748D01*
X124995Y10007D01*
X124337Y10165D01*
X123662Y10218D01*
X122987Y10165D01*
X122329Y10007D01*
X121704Y9748D01*
X121127Y9395D01*
X120612Y8955D01*
X120172Y8440D01*
X119819Y7863D01*
X119560Y7238D01*
X119402Y6580D01*
X119349Y5905D01*
X119402Y5230D01*
X119560Y4572D01*
X119819Y3947D01*
X120172Y3370D01*
X120612Y2855D01*
X121127Y2415D01*
X121704Y2062D01*
X122329Y1803D01*
X122987Y1645D01*
X123662Y1592D01*
X124337Y1645D01*
X124995Y1803D01*
X125620Y2062D01*
X126197Y2415D01*
X126712Y2855D01*
X127152Y3370D01*
X127505Y3947D01*
X127764Y4572D01*
X127922Y5230D01*
X127962Y5905D01*
X127922Y6580D01*
X127764Y7238D01*
X127505Y7863D01*
X127408Y8022D01*
X133662Y14276D01*
Y10201D01*
X130036Y10198D01*
X129914Y10168D01*
X129798Y10120D01*
X129690Y10054D01*
X129595Y9972D01*
X129513Y9877D01*
X129447Y9769D01*
X129399Y9653D01*
X129369Y9531D01*
X129362Y9405D01*
X129369Y2279D01*
X129399Y2157D01*
X129447Y2041D01*
X129513Y1933D01*
X129595Y1838D01*
X129690Y1756D01*
X129798Y1690D01*
X129914Y1642D01*
X130036Y1612D01*
X130162Y1605D01*
X133662Y1609D01*
Y393D01*
G37*
G36*
X74598D02*X5445D01*
Y1561D01*
X5452Y1561D01*
X6127Y1614D01*
X6785Y1772D01*
X7410Y2031D01*
X7987Y2384D01*
X8502Y2824D01*
X8942Y3339D01*
X9295Y3916D01*
X9554Y4541D01*
X9712Y5199D01*
X9752Y5874D01*
X9712Y6549D01*
X9554Y7207D01*
X9295Y7832D01*
X8942Y8409D01*
X8502Y8924D01*
X7987Y9364D01*
X7410Y9717D01*
X6785Y9976D01*
X6127Y10134D01*
X5452Y10187D01*
X5445Y10187D01*
Y33070D01*
X21728D01*
Y32457D01*
X21714Y32283D01*
X21728Y32109D01*
Y25787D01*
X21769Y25088D01*
X21886Y24603D01*
X21888Y22161D01*
X21918Y22039D01*
X21966Y21923D01*
X22032Y21815D01*
X22114Y21720D01*
X22209Y21638D01*
X22317Y21572D01*
X22433Y21524D01*
X22555Y21494D01*
X22681Y21487D01*
X25007Y21489D01*
X25482Y21375D01*
X26181Y21320D01*
X26880Y21375D01*
X27365Y21492D01*
X29807Y21494D01*
X29929Y21524D01*
X30045Y21572D01*
X30153Y21638D01*
X30248Y21720D01*
X30330Y21815D01*
X30396Y21923D01*
X30444Y22039D01*
X30474Y22161D01*
X30481Y22287D01*
X30479Y24613D01*
X30593Y25088D01*
X30634Y25787D01*
Y27830D01*
X74598D01*
Y17518D01*
X66384D01*
X66338Y17522D01*
X66153Y17508D01*
X65972Y17464D01*
X65800Y17393D01*
X65642Y17296D01*
X65501Y17175D01*
X65471Y17140D01*
X64749Y16418D01*
X64714Y16388D01*
X64593Y16247D01*
X64496Y16089D01*
X64425Y15917D01*
X64381Y15736D01*
X64381Y15736D01*
X64367Y15551D01*
X64371Y15505D01*
Y10027D01*
X64159Y9976D01*
X63534Y9717D01*
X62957Y9364D01*
X62442Y8924D01*
X62002Y8409D01*
X61649Y7832D01*
X61390Y7207D01*
X61232Y6549D01*
X61179Y5874D01*
X61232Y5199D01*
X61390Y4541D01*
X61649Y3916D01*
X62002Y3339D01*
X62442Y2824D01*
X62957Y2384D01*
X63534Y2031D01*
X64159Y1772D01*
X64817Y1614D01*
X65492Y1561D01*
X66167Y1614D01*
X66825Y1772D01*
X67450Y2031D01*
X68027Y2384D01*
X68542Y2824D01*
X68982Y3339D01*
X69335Y3916D01*
X69594Y4541D01*
X69752Y5199D01*
X69792Y5874D01*
X69752Y6549D01*
X69594Y7207D01*
X69335Y7832D01*
X68982Y8409D01*
X68542Y8924D01*
X68027Y9364D01*
X67450Y9717D01*
X66825Y9976D01*
X66732Y9999D01*
Y15062D01*
X66827Y15157D01*
X74598D01*
Y10072D01*
X74198Y9976D01*
X73573Y9717D01*
X72996Y9364D01*
X72481Y8924D01*
X72041Y8409D01*
X71688Y7832D01*
X71429Y7207D01*
X71271Y6549D01*
X71218Y5874D01*
X71271Y5199D01*
X71429Y4541D01*
X71688Y3916D01*
X72041Y3339D01*
X72481Y2824D01*
X72996Y2384D01*
X73573Y2031D01*
X74198Y1772D01*
X74598Y1676D01*
Y393D01*
G37*
G36*
X5445D02*X0D01*
Y33070D01*
X5445D01*
Y10187D01*
X4777Y10134D01*
X4119Y9976D01*
X3494Y9717D01*
X2917Y9364D01*
X2402Y8924D01*
X1962Y8409D01*
X1609Y7832D01*
X1350Y7207D01*
X1192Y6549D01*
X1139Y5874D01*
X1192Y5199D01*
X1350Y4541D01*
X1609Y3916D01*
X1962Y3339D01*
X2402Y2824D01*
X2917Y2384D01*
X3494Y2031D01*
X4119Y1772D01*
X4777Y1614D01*
X5445Y1561D01*
Y393D01*
G37*
G36*
X442717Y25787D02*X426563D01*
Y151621D01*
X426574Y151620D01*
X427672Y151707D01*
X428744Y151964D01*
X429762Y152386D01*
X430701Y152961D01*
X431539Y153677D01*
X432255Y154515D01*
X432830Y155454D01*
X433252Y156472D01*
X433509Y157544D01*
X433574Y158642D01*
X433509Y159740D01*
X433252Y160812D01*
X432830Y161830D01*
X432255Y162769D01*
X431539Y163607D01*
X430701Y164323D01*
X429762Y164898D01*
X428744Y165320D01*
X427672Y165577D01*
X426574Y165664D01*
X426563Y165663D01*
Y191385D01*
X426574Y191384D01*
X427672Y191471D01*
X428744Y191728D01*
X429762Y192150D01*
X430701Y192725D01*
X431539Y193441D01*
X432255Y194279D01*
X432830Y195218D01*
X433252Y196236D01*
X433509Y197308D01*
X433574Y198406D01*
X433509Y199504D01*
X433252Y200576D01*
X432830Y201594D01*
X432255Y202533D01*
X431539Y203371D01*
X430701Y204087D01*
X429762Y204662D01*
X428744Y205084D01*
X427672Y205341D01*
X426574Y205428D01*
X426563Y205427D01*
Y210785D01*
X426574Y210784D01*
X427672Y210871D01*
X428744Y211128D01*
X429762Y211550D01*
X430701Y212125D01*
X431539Y212841D01*
X432255Y213679D01*
X432830Y214618D01*
X433252Y215636D01*
X433509Y216708D01*
X433574Y217806D01*
X433509Y218904D01*
X433252Y219976D01*
X432830Y220994D01*
X432255Y221933D01*
X431539Y222771D01*
X430701Y223487D01*
X429762Y224062D01*
X428744Y224484D01*
X427672Y224741D01*
X426574Y224828D01*
X426563Y224827D01*
Y236220D01*
X442717D01*
Y25787D01*
G37*
G36*
X426563D02*X405315D01*
Y143404D01*
X405375Y143353D01*
X405696Y143156D01*
X406043Y143012D01*
X406408Y142925D01*
X406783Y142895D01*
X407158Y142925D01*
X407523Y143012D01*
X407870Y143156D01*
X408191Y143353D01*
X408476Y143597D01*
X408720Y143882D01*
X408917Y144203D01*
X409061Y144550D01*
X409148Y144915D01*
X409170Y145290D01*
X409148Y145665D01*
X409061Y146030D01*
X408943Y146314D01*
Y171762D01*
X408950Y171850D01*
X408922Y172203D01*
X408839Y172547D01*
X408800Y172643D01*
X408704Y172875D01*
X408589Y173062D01*
X408519Y173177D01*
X408519Y173177D01*
X408289Y173446D01*
X408222Y173503D01*
X407165Y174560D01*
X407108Y174627D01*
X406839Y174857D01*
X406839Y174857D01*
X406724Y174927D01*
X406537Y175042D01*
X406305Y175138D01*
X406209Y175177D01*
X405865Y175260D01*
X405512Y175288D01*
X405424Y175281D01*
X405315D01*
Y236220D01*
X426563D01*
Y224827D01*
X425476Y224741D01*
X424404Y224484D01*
X423386Y224062D01*
X422447Y223487D01*
X421609Y222771D01*
X420893Y221933D01*
X420318Y220994D01*
X419896Y219976D01*
X419639Y218904D01*
X419552Y217806D01*
X419639Y216708D01*
X419896Y215636D01*
X420318Y214618D01*
X420893Y213679D01*
X421609Y212841D01*
X422447Y212125D01*
X423386Y211550D01*
X424404Y211128D01*
X425476Y210871D01*
X426563Y210785D01*
Y205427D01*
X425476Y205341D01*
X424404Y205084D01*
X423386Y204662D01*
X422447Y204087D01*
X421609Y203371D01*
X420893Y202533D01*
X420318Y201594D01*
X419896Y200576D01*
X419639Y199504D01*
X419552Y198406D01*
X419639Y197308D01*
X419896Y196236D01*
X420318Y195218D01*
X420893Y194279D01*
X421609Y193441D01*
X422447Y192725D01*
X423386Y192150D01*
X424404Y191728D01*
X425476Y191471D01*
X426563Y191385D01*
Y165663D01*
X425476Y165577D01*
X424404Y165320D01*
X423386Y164898D01*
X422447Y164323D01*
X421609Y163607D01*
X420893Y162769D01*
X420318Y161830D01*
X419896Y160812D01*
X419639Y159740D01*
X419552Y158642D01*
X419639Y157544D01*
X419896Y156472D01*
X420318Y155454D01*
X420893Y154515D01*
X421609Y153677D01*
X422447Y152961D01*
X423386Y152386D01*
X424404Y151964D01*
X425476Y151707D01*
X426563Y151621D01*
Y25787D01*
G37*
G36*
X214825Y218110D02*X223526D01*
X223622Y218014D01*
Y207180D01*
X223308Y207494D01*
X223278Y207529D01*
X223137Y207650D01*
X222979Y207747D01*
X222807Y207818D01*
X222626Y207862D01*
X222626Y207862D01*
X222441Y207876D01*
X222395Y207872D01*
X214825D01*
Y218110D01*
G37*
G36*
X375644Y236220D02*X406112D01*
Y175201D01*
X405865Y175260D01*
X405512Y175288D01*
X405424Y175281D01*
X401342D01*
X401055Y175400D01*
X400690Y175487D01*
X400315Y175517D01*
X399940Y175487D01*
X399575Y175400D01*
X399288Y175281D01*
X389455D01*
Y181508D01*
X389516Y181408D01*
X390129Y180690D01*
X390847Y180077D01*
X391653Y179583D01*
X392525Y179222D01*
X393444Y179002D01*
X394385Y178927D01*
X395326Y179002D01*
X396245Y179222D01*
X397117Y179583D01*
X397923Y180077D01*
X398641Y180690D01*
X399254Y181408D01*
X399748Y182214D01*
X400109Y183086D01*
X400329Y184004D01*
X400385Y184946D01*
X400329Y185888D01*
X400109Y186806D01*
X399748Y187678D01*
X399254Y188484D01*
X398641Y189202D01*
X397923Y189815D01*
X397117Y190309D01*
X396245Y190670D01*
X395326Y190890D01*
X394385Y190965D01*
X393444Y190890D01*
X392525Y190670D01*
X391653Y190309D01*
X390847Y189815D01*
X390129Y189202D01*
X389516Y188484D01*
X389455Y188384D01*
Y214478D01*
X389462Y214566D01*
X389434Y214919D01*
X389434Y214919D01*
X389434Y214919D01*
X389395Y215081D01*
X389352Y215263D01*
X389352Y215263D01*
X389351Y215263D01*
X389286Y215422D01*
X389216Y215590D01*
X389216Y215590D01*
X389216Y215591D01*
X389123Y215742D01*
X389031Y215892D01*
X389031Y215892D01*
X389031Y215893D01*
X388801Y216162D01*
X388734Y216219D01*
X385715Y219239D01*
Y219589D01*
X385960Y219739D01*
X386475Y220179D01*
X386915Y220694D01*
X387268Y221271D01*
X387527Y221896D01*
X387685Y222554D01*
X387725Y223229D01*
X387685Y223904D01*
X387527Y224562D01*
X387268Y225187D01*
X386915Y225764D01*
X386475Y226279D01*
X385960Y226719D01*
X385383Y227072D01*
X384758Y227331D01*
X384100Y227489D01*
X383425Y227542D01*
X382750Y227489D01*
X382092Y227331D01*
X381467Y227072D01*
X380890Y226719D01*
X380375Y226279D01*
X379935Y225764D01*
X379582Y225187D01*
X379323Y224562D01*
X379165Y223904D01*
X379112Y223229D01*
X379165Y222554D01*
X379323Y221896D01*
X379582Y221271D01*
X379935Y220694D01*
X380375Y220179D01*
X380890Y219739D01*
X381215Y219540D01*
Y218395D01*
X381208Y218307D01*
X381236Y217954D01*
X381236Y217954D01*
X381236Y217954D01*
X381276Y217785D01*
X381318Y217610D01*
X381318Y217610D01*
X381319Y217610D01*
X381386Y217446D01*
X381454Y217283D01*
X381454Y217283D01*
X381454Y217282D01*
X381543Y217137D01*
X381639Y216981D01*
X381639Y216981D01*
X381639Y216980D01*
X381869Y216711D01*
X381936Y216654D01*
X384955Y213634D01*
Y174300D01*
X384948Y174212D01*
X384976Y173859D01*
Y173859D01*
X385059Y173515D01*
X385194Y173187D01*
X385264Y173073D01*
X385379Y172885D01*
X385379Y172885D01*
X385609Y172616D01*
X385676Y172559D01*
X386733Y171502D01*
X386790Y171435D01*
X387059Y171205D01*
X387059Y171205D01*
X387247Y171090D01*
X387361Y171020D01*
X387689Y170885D01*
X388033Y170802D01*
X388033D01*
X388386Y170774D01*
X388474Y170781D01*
X399839D01*
X399940Y170757D01*
X400315Y170727D01*
X400690Y170757D01*
X400791Y170781D01*
X404443D01*
Y145770D01*
X404418Y145665D01*
X404388Y145290D01*
X404418Y144915D01*
X404505Y144550D01*
X404649Y144203D01*
X404846Y143882D01*
X405090Y143597D01*
X405375Y143353D01*
X405696Y143156D01*
X406043Y143012D01*
X406112Y142996D01*
Y32380D01*
X375644D01*
Y179078D01*
X376070Y179180D01*
X376952Y178297D01*
Y158163D01*
X376949Y158148D01*
X376912Y157677D01*
X376949Y157206D01*
X376952Y157191D01*
Y154029D01*
X376949Y154014D01*
X376912Y153543D01*
X376949Y153072D01*
X376952Y153057D01*
Y149698D01*
X376949Y149683D01*
X376912Y149212D01*
X376949Y148741D01*
X376952Y148726D01*
Y145367D01*
X376949Y145352D01*
X376912Y144881D01*
X376949Y144410D01*
X377059Y143951D01*
X377240Y143515D01*
X377486Y143112D01*
X377793Y142753D01*
X378152Y142446D01*
X378555Y142200D01*
X378991Y142019D01*
X379450Y141909D01*
X379921Y141872D01*
X380392Y141909D01*
X380851Y142019D01*
X381287Y142200D01*
X381690Y142446D01*
X382049Y142753D01*
X382356Y143112D01*
X382602Y143515D01*
X382783Y143951D01*
X382893Y144410D01*
X382921Y144881D01*
X382893Y145352D01*
X382890Y145367D01*
Y148726D01*
X382893Y148741D01*
X382921Y149212D01*
X382893Y149683D01*
X382890Y149698D01*
Y153057D01*
X382893Y153072D01*
X382921Y153543D01*
X382893Y154014D01*
X382890Y154029D01*
Y157191D01*
X382893Y157206D01*
X382921Y157677D01*
X382893Y158148D01*
X382890Y158163D01*
Y179411D01*
X382899Y179527D01*
X382862Y179993D01*
X382862Y179993D01*
X382779Y180338D01*
X382753Y180447D01*
X382679Y180626D01*
X382574Y180879D01*
X382480Y181033D01*
X382330Y181277D01*
X382330Y181277D01*
X382027Y181633D01*
X381938Y181708D01*
X380196Y183450D01*
X380329Y184004D01*
X380385Y184946D01*
X380329Y185888D01*
X380109Y186806D01*
X379748Y187678D01*
X379254Y188484D01*
X378641Y189202D01*
X377923Y189815D01*
X377117Y190309D01*
X376245Y190670D01*
X375644Y190814D01*
Y199078D01*
X376245Y199222D01*
X377117Y199583D01*
X377923Y200077D01*
X378641Y200690D01*
X379254Y201408D01*
X379748Y202214D01*
X380109Y203086D01*
X380329Y204004D01*
X380385Y204946D01*
X380329Y205888D01*
X380109Y206806D01*
X379748Y207678D01*
X379254Y208484D01*
X378641Y209202D01*
X377923Y209815D01*
X377117Y210309D01*
X376245Y210670D01*
X375644Y210814D01*
Y219546D01*
X375960Y219739D01*
X376475Y220179D01*
X376915Y220694D01*
X377268Y221271D01*
X377527Y221896D01*
X377685Y222554D01*
X377725Y223229D01*
X377685Y223904D01*
X377527Y224562D01*
X377268Y225187D01*
X376915Y225764D01*
X376475Y226279D01*
X375960Y226719D01*
X375644Y226912D01*
Y229330D01*
X392031D01*
X392126Y229235D01*
Y227339D01*
X392092Y227331D01*
X391467Y227072D01*
X390890Y226719D01*
X390375Y226279D01*
X389935Y225764D01*
X389582Y225187D01*
X389323Y224562D01*
X389165Y223904D01*
X389112Y223229D01*
X389165Y222554D01*
X389323Y221896D01*
X389582Y221271D01*
X389935Y220694D01*
X390375Y220179D01*
X390890Y219739D01*
X391467Y219386D01*
X392092Y219127D01*
X392750Y218969D01*
X393425Y218916D01*
X394100Y218969D01*
X394758Y219127D01*
X395383Y219386D01*
X395960Y219739D01*
X396475Y220179D01*
X396915Y220694D01*
X397268Y221271D01*
X397527Y221896D01*
X397685Y222554D01*
X397725Y223229D01*
X397685Y223904D01*
X397527Y224562D01*
X397268Y225187D01*
X396915Y225764D01*
X396475Y226279D01*
X395960Y226719D01*
X395383Y227072D01*
X394758Y227331D01*
X394488Y227396D01*
Y229678D01*
X394491Y229724D01*
X394477Y229909D01*
X394477Y229909D01*
X394433Y230090D01*
X394362Y230262D01*
X394265Y230420D01*
X394144Y230561D01*
X394109Y230591D01*
X393355Y231346D01*
X393216Y231469D01*
X393058Y231566D01*
X392886Y231637D01*
X392705Y231681D01*
X392520Y231695D01*
X392409Y231686D01*
X392323Y231692D01*
X375644D01*
Y236220D01*
G37*
G36*
X293008D02*X375644D01*
Y231692D01*
X293008D01*
Y236220D01*
G37*
G36*
X350418Y229330D02*X375644D01*
Y226912D01*
X375383Y227072D01*
X374758Y227331D01*
X374100Y227489D01*
X373425Y227542D01*
X372750Y227489D01*
X372092Y227331D01*
X371467Y227072D01*
X370890Y226719D01*
X370375Y226279D01*
X369935Y225764D01*
X369582Y225187D01*
X369323Y224562D01*
X369165Y223904D01*
X369112Y223229D01*
X369165Y222554D01*
X369323Y221896D01*
X369582Y221271D01*
X369935Y220694D01*
X370375Y220179D01*
X370890Y219739D01*
X371467Y219386D01*
X372092Y219127D01*
X372750Y218969D01*
X373425Y218916D01*
X374100Y218969D01*
X374758Y219127D01*
X375383Y219386D01*
X375644Y219546D01*
Y210814D01*
X375326Y210890D01*
X374385Y210965D01*
X373444Y210890D01*
X372525Y210670D01*
X371653Y210309D01*
X370847Y209815D01*
X370129Y209202D01*
X369516Y208484D01*
X369022Y207678D01*
X368661Y206806D01*
X368441Y205888D01*
X368366Y204946D01*
X368441Y204004D01*
X368661Y203086D01*
X369022Y202214D01*
X369516Y201408D01*
X370129Y200690D01*
X370847Y200077D01*
X371653Y199583D01*
X372525Y199222D01*
X373444Y199002D01*
X374385Y198927D01*
X375326Y199002D01*
X375644Y199078D01*
Y190814D01*
X375326Y190890D01*
X374385Y190965D01*
X373444Y190890D01*
X372525Y190670D01*
X371653Y190309D01*
X370847Y189815D01*
X370129Y189202D01*
X369516Y188484D01*
X369022Y187678D01*
X368661Y186806D01*
X368441Y185888D01*
X368366Y184946D01*
X368441Y184004D01*
X368661Y183086D01*
X369022Y182214D01*
X369516Y181408D01*
X370129Y180690D01*
X370847Y180077D01*
X371653Y179583D01*
X372525Y179222D01*
X373444Y179002D01*
X374385Y178927D01*
X375326Y179002D01*
X375644Y179078D01*
Y32380D01*
X350418D01*
Y218916D01*
X350425Y218916D01*
X351100Y218969D01*
X351758Y219127D01*
X352383Y219386D01*
X352960Y219739D01*
X353475Y220179D01*
X353915Y220694D01*
X354268Y221271D01*
X354527Y221896D01*
X354685Y222554D01*
X354725Y223229D01*
X354685Y223904D01*
X354527Y224562D01*
X354268Y225187D01*
X353915Y225764D01*
X353475Y226279D01*
X352960Y226719D01*
X352383Y227072D01*
X351758Y227331D01*
X351100Y227489D01*
X350425Y227542D01*
X350418Y227542D01*
Y229330D01*
G37*
G36*
X331101D02*X350418D01*
Y227542D01*
X349750Y227489D01*
X349092Y227331D01*
X348467Y227072D01*
X347890Y226719D01*
X347375Y226279D01*
X346935Y225764D01*
X346582Y225187D01*
X346323Y224562D01*
X346165Y223904D01*
X346112Y223229D01*
X346165Y222554D01*
X346323Y221896D01*
X346582Y221271D01*
X346935Y220694D01*
X347375Y220179D01*
X347890Y219739D01*
X348467Y219386D01*
X349092Y219127D01*
X349750Y218969D01*
X350418Y218916D01*
Y32380D01*
X331101D01*
Y189405D01*
X334727Y189408D01*
X334849Y189438D01*
X334965Y189486D01*
X335073Y189552D01*
X335168Y189634D01*
X335250Y189729D01*
X335316Y189837D01*
X335364Y189953D01*
X335394Y190075D01*
X335401Y190201D01*
X335394Y197327D01*
X335364Y197449D01*
X335316Y197565D01*
X335250Y197673D01*
X335168Y197768D01*
X335073Y197850D01*
X334965Y197916D01*
X334849Y197964D01*
X334727Y197994D01*
X334601Y198001D01*
X331101Y197997D01*
Y218969D01*
X331758Y219127D01*
X332383Y219386D01*
X332960Y219739D01*
X333475Y220179D01*
X333915Y220694D01*
X334268Y221271D01*
X334527Y221896D01*
X334685Y222554D01*
X334725Y223229D01*
X334685Y223904D01*
X334527Y224562D01*
X334268Y225187D01*
X333915Y225764D01*
X333475Y226279D01*
X332960Y226719D01*
X332383Y227072D01*
X331758Y227331D01*
X331101Y227489D01*
Y229330D01*
G37*
G36*
X318504Y95827D02*X318610Y95892D01*
X318751Y96013D01*
X318782Y96048D01*
X319503Y96770D01*
X319538Y96800D01*
X319659Y96941D01*
X319756Y97099D01*
X319827Y97271D01*
X319871Y97452D01*
X319885Y97637D01*
X319882Y97683D01*
Y116046D01*
X323355Y119520D01*
X323575Y119572D01*
X323922Y119716D01*
X324243Y119913D01*
X324528Y120157D01*
X324772Y120442D01*
X324969Y120763D01*
X325113Y121110D01*
X325200Y121475D01*
X325222Y121850D01*
X325200Y122225D01*
X325113Y122590D01*
X324969Y122937D01*
X324772Y123258D01*
X324528Y123543D01*
X324243Y123787D01*
X323922Y123984D01*
X323575Y124128D01*
X323210Y124215D01*
X322835Y124245D01*
X322460Y124215D01*
X322095Y124128D01*
X321748Y123984D01*
X321427Y123787D01*
X321142Y123543D01*
X320898Y123258D01*
X320768Y123046D01*
X320638Y123258D01*
X320394Y123543D01*
X320109Y123787D01*
X319788Y123984D01*
X319441Y124128D01*
X319076Y124215D01*
X318701Y124245D01*
X318504Y124229D01*
Y131401D01*
X319418Y132315D01*
X319638Y132367D01*
X319985Y132511D01*
X320306Y132708D01*
X320591Y132952D01*
X320835Y133237D01*
X321032Y133558D01*
X321176Y133905D01*
X321263Y134270D01*
X321286Y134645D01*
X321263Y135020D01*
X321176Y135385D01*
X321032Y135732D01*
X320835Y136053D01*
X320591Y136338D01*
X320306Y136582D01*
X319985Y136779D01*
X319638Y136923D01*
X319273Y137010D01*
X318898Y137040D01*
X318523Y137010D01*
X318504Y137006D01*
Y162831D01*
X322130Y162834D01*
X322252Y162864D01*
X322368Y162912D01*
X322476Y162978D01*
X322571Y163060D01*
X322653Y163155D01*
X322719Y163263D01*
X322767Y163379D01*
X322797Y163501D01*
X322804Y163627D01*
X322797Y170753D01*
X322767Y170875D01*
X322719Y170991D01*
X322653Y171099D01*
X322571Y171194D01*
X322476Y171276D01*
X322368Y171342D01*
X322252Y171390D01*
X322130Y171420D01*
X322004Y171427D01*
X318504Y171423D01*
Y229330D01*
X331101D01*
Y227489D01*
X331100Y227489D01*
X330425Y227542D01*
X329750Y227489D01*
X329092Y227331D01*
X328467Y227072D01*
X327890Y226719D01*
X327375Y226279D01*
X326935Y225764D01*
X326582Y225187D01*
X326323Y224562D01*
X326165Y223904D01*
X326112Y223229D01*
X326165Y222554D01*
X326323Y221896D01*
X326582Y221271D01*
X326935Y220694D01*
X327375Y220179D01*
X327890Y219739D01*
X328467Y219386D01*
X329092Y219127D01*
X329750Y218969D01*
X330425Y218916D01*
X331100Y218969D01*
X331101Y218969D01*
Y197997D01*
X327475Y197994D01*
X327353Y197964D01*
X327237Y197916D01*
X327129Y197850D01*
X327034Y197768D01*
X326952Y197673D01*
X326886Y197565D01*
X326838Y197449D01*
X326808Y197327D01*
X326801Y197201D01*
X326808Y190075D01*
X326838Y189953D01*
X326886Y189837D01*
X326952Y189729D01*
X327034Y189634D01*
X327129Y189552D01*
X327237Y189486D01*
X327353Y189438D01*
X327475Y189408D01*
X327601Y189401D01*
X331101Y189405D01*
Y32380D01*
X318504D01*
Y95827D01*
G37*
G36*
Y137006D02*X318158Y136923D01*
X317811Y136779D01*
X317490Y136582D01*
X317205Y136338D01*
X316961Y136053D01*
X316831Y135841D01*
X316701Y136053D01*
X316457Y136338D01*
X316172Y136582D01*
X315851Y136779D01*
X315504Y136923D01*
X315139Y137010D01*
X314764Y137040D01*
X314389Y137010D01*
X314024Y136923D01*
X313677Y136779D01*
X313356Y136582D01*
X313071Y136338D01*
X312827Y136053D01*
X312630Y135732D01*
X312486Y135385D01*
X312399Y135020D01*
X312369Y134645D01*
X312399Y134270D01*
X312486Y133905D01*
X312630Y133558D01*
X312796Y133288D01*
Y102851D01*
X312699Y102754D01*
X301563D01*
X301921Y102840D01*
X302268Y102984D01*
X302589Y103181D01*
X302874Y103425D01*
X303118Y103710D01*
X303315Y104031D01*
X303459Y104378D01*
X303546Y104743D01*
X303568Y105118D01*
X303546Y105493D01*
X303459Y105858D01*
X303315Y106205D01*
X303118Y106526D01*
X302874Y106811D01*
X302589Y107055D01*
X302362Y107195D01*
Y136568D01*
X302365Y136614D01*
X302351Y136799D01*
X302351Y136799D01*
X302307Y136980D01*
X302236Y137152D01*
X302139Y137310D01*
X302018Y137451D01*
X301983Y137481D01*
X301261Y138203D01*
X301231Y138238D01*
X301090Y138359D01*
X300932Y138456D01*
X300760Y138527D01*
X300579Y138571D01*
X300579Y138571D01*
X300394Y138585D01*
X300348Y138582D01*
X293008D01*
Y142267D01*
X297812Y142272D01*
X297934Y142302D01*
X298050Y142350D01*
X298158Y142416D01*
X298253Y142498D01*
X298335Y142593D01*
X298401Y142701D01*
X298449Y142817D01*
X298479Y142939D01*
X298486Y143065D01*
X298479Y149191D01*
X298449Y149313D01*
X298401Y149429D01*
X298335Y149537D01*
X298253Y149632D01*
X298158Y149714D01*
X298050Y149780D01*
X297934Y149828D01*
X297812Y149858D01*
X297686Y149865D01*
X293008Y149859D01*
Y172734D01*
X293020Y172733D01*
X294244Y172829D01*
X295437Y173116D01*
X296572Y173586D01*
X297618Y174227D01*
X298552Y175024D01*
X299349Y175958D01*
X299990Y177004D01*
X300460Y178139D01*
X300747Y179332D01*
X300819Y180556D01*
X300747Y181780D01*
X300460Y182973D01*
X299990Y184108D01*
X299349Y185154D01*
X298552Y186088D01*
X297618Y186885D01*
X296572Y187526D01*
X295437Y187996D01*
X294244Y188283D01*
X293020Y188379D01*
X293008Y188378D01*
Y227166D01*
X295692D01*
X295467Y227072D01*
X294890Y226719D01*
X294375Y226279D01*
X293935Y225764D01*
X293582Y225187D01*
X293323Y224562D01*
X293165Y223904D01*
X293112Y223229D01*
X293165Y222554D01*
X293323Y221896D01*
X293582Y221271D01*
X293935Y220694D01*
X294375Y220179D01*
X294890Y219739D01*
X295467Y219386D01*
X296092Y219127D01*
X296750Y218969D01*
X297425Y218916D01*
X298100Y218969D01*
X298758Y219127D01*
X299383Y219386D01*
X299960Y219739D01*
X300475Y220179D01*
X300915Y220694D01*
X301268Y221271D01*
X301527Y221896D01*
X301685Y222554D01*
X301725Y223229D01*
X301685Y223904D01*
X301527Y224562D01*
X301268Y225187D01*
X300915Y225764D01*
X300475Y226279D01*
X299960Y226719D01*
X299383Y227072D01*
X299158Y227166D01*
X305692D01*
X305467Y227072D01*
X304890Y226719D01*
X304375Y226279D01*
X303935Y225764D01*
X303582Y225187D01*
X303323Y224562D01*
X303165Y223904D01*
X303112Y223229D01*
X303165Y222554D01*
X303323Y221896D01*
X303582Y221271D01*
X303935Y220694D01*
X304375Y220179D01*
X304890Y219739D01*
X305467Y219386D01*
X306092Y219127D01*
X306750Y218969D01*
X307425Y218916D01*
X308100Y218969D01*
X308758Y219127D01*
X309383Y219386D01*
X309960Y219739D01*
X310475Y220179D01*
X310915Y220694D01*
X311268Y221271D01*
X311527Y221896D01*
X311685Y222554D01*
X311725Y223229D01*
X311685Y223904D01*
X311527Y224562D01*
X311268Y225187D01*
X310915Y225764D01*
X310475Y226279D01*
X309960Y226719D01*
X309383Y227072D01*
X308758Y227331D01*
X308464Y227402D01*
Y227513D01*
X308467Y227559D01*
X308453Y227744D01*
X308453Y227744D01*
X308409Y227925D01*
X308338Y228097D01*
X308241Y228255D01*
X308120Y228396D01*
X308085Y228426D01*
X307363Y229148D01*
X307333Y229183D01*
X307192Y229304D01*
X307149Y229330D01*
X318504D01*
Y171423D01*
X314878Y171420D01*
X314756Y171390D01*
X314640Y171342D01*
X314532Y171276D01*
X314437Y171194D01*
X314355Y171099D01*
X314289Y170991D01*
X314241Y170875D01*
X314211Y170753D01*
X314204Y170627D01*
X314211Y163501D01*
X314241Y163379D01*
X314289Y163263D01*
X314355Y163155D01*
X314437Y163060D01*
X314532Y162978D01*
X314640Y162912D01*
X314756Y162864D01*
X314878Y162834D01*
X315004Y162827D01*
X318504Y162831D01*
Y137006D01*
G37*
G36*
Y124229D02*X318326Y124215D01*
X317961Y124128D01*
X317614Y123984D01*
X317293Y123787D01*
X317008Y123543D01*
X316764Y123258D01*
X316732Y123205D01*
Y129628D01*
X318504Y131401D01*
Y124229D01*
G37*
G36*
X293008Y95670D02*X317868D01*
X317914Y95666D01*
X318099Y95680D01*
X318099Y95680D01*
X318280Y95724D01*
X318452Y95795D01*
X318504Y95827D01*
Y32380D01*
X293008D01*
Y95670D01*
G37*
G36*
Y138582D02*X287300D01*
X273828Y152054D01*
X273822Y152146D01*
X273735Y152511D01*
X273591Y152858D01*
X273394Y153179D01*
X273150Y153464D01*
X273058Y153544D01*
X273724D01*
X275116Y152150D01*
X275147Y152115D01*
X275287Y151995D01*
X275288Y151994D01*
X275288Y151994D01*
X275288Y151994D01*
X275378Y151939D01*
X275446Y151897D01*
X275446Y151897D01*
X275446Y151897D01*
X275543Y151857D01*
X275618Y151826D01*
X275618Y151826D01*
X275618Y151826D01*
X275720Y151801D01*
X275798Y151782D01*
X275799Y151782D01*
X275799Y151782D01*
X275800Y151782D01*
X275984Y151768D01*
X276030Y151772D01*
X281056D01*
X281102Y151768D01*
X281287Y151782D01*
X281287Y151782D01*
X281468Y151826D01*
X281640Y151897D01*
X281798Y151994D01*
X281939Y152115D01*
X281970Y152150D01*
X283676Y153856D01*
X283711Y153887D01*
X283832Y154028D01*
X283929Y154186D01*
X284000Y154358D01*
X284044Y154539D01*
X284058Y154724D01*
X284054Y154770D01*
Y177513D01*
X284058Y177559D01*
X284044Y177744D01*
X284044Y177744D01*
X284000Y177925D01*
X283929Y178097D01*
X283832Y178255D01*
X283711Y178396D01*
X283676Y178426D01*
X277877Y184225D01*
X277941Y184493D01*
X277964Y184868D01*
X277941Y185243D01*
X277854Y185608D01*
X277710Y185955D01*
X277513Y186276D01*
X277269Y186561D01*
X276984Y186805D01*
X276663Y187002D01*
X276316Y187146D01*
X275951Y187233D01*
X275576Y187263D01*
X275201Y187233D01*
X274836Y187146D01*
X274489Y187002D01*
X274168Y186805D01*
X273883Y186561D01*
X273639Y186276D01*
X273442Y185955D01*
X273298Y185608D01*
X273211Y185243D01*
X273181Y184868D01*
X273211Y184493D01*
X273298Y184128D01*
X273442Y183781D01*
X273639Y183460D01*
X273883Y183175D01*
X274168Y182931D01*
X274489Y182734D01*
X274836Y182590D01*
X275201Y182503D01*
X275576Y182473D01*
X275951Y182503D01*
X276201Y182563D01*
X281694Y177070D01*
Y155213D01*
X281220Y154739D01*
X281268Y154818D01*
X281412Y155165D01*
X281499Y155530D01*
X281522Y155905D01*
X281499Y156280D01*
X281412Y156645D01*
X281268Y156992D01*
X281071Y157313D01*
X280827Y157598D01*
X280542Y157842D01*
X280221Y158039D01*
X279874Y158183D01*
X279509Y158270D01*
X279134Y158300D01*
X278759Y158270D01*
X278394Y158183D01*
X278047Y158039D01*
X277726Y157842D01*
X277441Y157598D01*
X277197Y157313D01*
X277060Y157090D01*
X276851Y157298D01*
X276821Y157333D01*
X276680Y157454D01*
X276522Y157551D01*
X276350Y157622D01*
X276169Y157666D01*
X276169Y157666D01*
X275984Y157680D01*
X275938Y157676D01*
X269140D01*
X269094Y157680D01*
X268910Y157666D01*
X268909Y157666D01*
X268909Y157666D01*
X268909Y157666D01*
X268803Y157640D01*
X268728Y157622D01*
X268728Y157622D01*
X268728Y157622D01*
X268625Y157579D01*
X268556Y157551D01*
X268556Y157551D01*
X268556Y157551D01*
X268465Y157495D01*
X268398Y157454D01*
X268398Y157454D01*
X268398Y157454D01*
X268397Y157453D01*
X268257Y157333D01*
X268226Y157298D01*
X265537Y154607D01*
X265502Y154577D01*
X265381Y154436D01*
X265381Y154436D01*
X265381Y154436D01*
X265342Y154372D01*
X265284Y154278D01*
X265284Y154277D01*
X265284Y154277D01*
X265255Y154209D01*
X265213Y154106D01*
X265213Y154106D01*
X265213Y154106D01*
X265195Y154031D01*
X265169Y153925D01*
X265169Y153925D01*
X265169Y153925D01*
X265155Y153740D01*
X265158Y153694D01*
Y140156D01*
X239461D01*
X239722Y140265D01*
X240232Y140577D01*
X240687Y140966D01*
X241076Y141421D01*
X241388Y141931D01*
X241617Y142483D01*
X241757Y143065D01*
X241792Y143661D01*
X241757Y144257D01*
X241617Y144839D01*
X241388Y145391D01*
X241076Y145901D01*
X240687Y146356D01*
X240232Y146745D01*
X239722Y147057D01*
X239170Y147286D01*
X238588Y147426D01*
X237992Y147473D01*
X237396Y147426D01*
X237377Y147421D01*
X237567Y147731D01*
X237711Y148078D01*
X237798Y148443D01*
X237820Y148818D01*
X237798Y149193D01*
X237711Y149558D01*
X237567Y149905D01*
X237370Y150226D01*
X237126Y150511D01*
X236841Y150755D01*
X236520Y150952D01*
X236173Y151096D01*
X235808Y151183D01*
X235715Y151191D01*
X235331Y151574D01*
X242425D01*
X242520Y151479D01*
Y150895D01*
X242293Y150755D01*
X242008Y150511D01*
X241764Y150226D01*
X241567Y149905D01*
X241423Y149558D01*
X241336Y149193D01*
X241306Y148818D01*
X241336Y148443D01*
X241423Y148078D01*
X241567Y147731D01*
X241764Y147410D01*
X242008Y147125D01*
X242293Y146881D01*
X242614Y146684D01*
X242961Y146540D01*
X243326Y146453D01*
X243701Y146423D01*
X244076Y146453D01*
X244441Y146540D01*
X244788Y146684D01*
X245109Y146881D01*
X245394Y147125D01*
X245638Y147410D01*
X245835Y147731D01*
X245979Y148078D01*
X246066Y148443D01*
X246089Y148818D01*
X246066Y149193D01*
X245979Y149558D01*
X245835Y149905D01*
X245638Y150226D01*
X245394Y150511D01*
X245109Y150755D01*
X244882Y150895D01*
Y151922D01*
X244885Y151968D01*
X244871Y152153D01*
X244871Y152153D01*
X244827Y152334D01*
X244756Y152506D01*
X244659Y152664D01*
X244538Y152805D01*
X244503Y152835D01*
X243775Y153564D01*
X243750Y153592D01*
X243638Y153688D01*
X243609Y153714D01*
X243451Y153811D01*
X243279Y153882D01*
X243098Y153926D01*
X242913Y153940D01*
X242854Y153936D01*
X214825D01*
Y155230D01*
X248140D01*
X248228Y155223D01*
X248581Y155251D01*
X248581Y155251D01*
X248925Y155334D01*
X249253Y155469D01*
X249555Y155654D01*
X249824Y155884D01*
X249881Y155951D01*
X251332Y157402D01*
X251399Y157459D01*
X251629Y157728D01*
X251629Y157728D01*
X251814Y158030D01*
X251949Y158358D01*
X252032Y158702D01*
X252060Y159055D01*
X252053Y159143D01*
Y159757D01*
X272690D01*
X273036Y159412D01*
X273063Y159346D01*
X273260Y159025D01*
X273504Y158740D01*
X273789Y158496D01*
X274110Y158299D01*
X274457Y158155D01*
X274822Y158068D01*
X275197Y158038D01*
X275572Y158068D01*
X275937Y158155D01*
X276284Y158299D01*
X276605Y158496D01*
X276890Y158740D01*
X277134Y159025D01*
X277331Y159346D01*
X277475Y159693D01*
X277562Y160058D01*
X277584Y160433D01*
X277562Y160808D01*
X277475Y161173D01*
X277447Y161240D01*
Y161919D01*
X277454Y162007D01*
X277447Y162095D01*
Y162972D01*
X277475Y163039D01*
X277562Y163404D01*
X277584Y163779D01*
X277562Y164154D01*
X277475Y164519D01*
X277331Y164866D01*
X277134Y165187D01*
X276890Y165472D01*
X276605Y165716D01*
X276284Y165913D01*
X275937Y166057D01*
X275572Y166144D01*
X275197Y166174D01*
X274822Y166144D01*
X274457Y166057D01*
X274110Y165913D01*
X273789Y165716D01*
X273504Y165472D01*
X273260Y165187D01*
X273063Y164866D01*
X273036Y164800D01*
X272493Y164257D01*
X266351D01*
X266830Y164666D01*
X267270Y165181D01*
X267623Y165758D01*
X267882Y166383D01*
X268040Y167041D01*
X268080Y167716D01*
X268040Y168391D01*
X267882Y169049D01*
X267623Y169674D01*
X267270Y170251D01*
X266830Y170766D01*
X266315Y171206D01*
X265738Y171559D01*
X265113Y171818D01*
X264455Y171976D01*
X263780Y172029D01*
X263105Y171976D01*
X262447Y171818D01*
X261822Y171559D01*
X261245Y171206D01*
X260730Y170766D01*
X260290Y170251D01*
X259937Y169674D01*
X259678Y169049D01*
X259520Y168391D01*
X259467Y167716D01*
X259520Y167041D01*
X259678Y166383D01*
X259937Y165758D01*
X260290Y165181D01*
X260730Y164666D01*
X261209Y164257D01*
X251072D01*
X250984Y164264D01*
X250984Y164264D01*
Y199038D01*
X251016Y198985D01*
X251260Y198700D01*
X251545Y198456D01*
X251772Y198316D01*
Y188431D01*
X251769Y188385D01*
X251783Y188200D01*
X251783Y188200D01*
X251827Y188019D01*
X251898Y187847D01*
X251995Y187689D01*
X252116Y187548D01*
X252151Y187518D01*
X252873Y186796D01*
X252903Y186761D01*
X253044Y186640D01*
X253202Y186543D01*
X253374Y186472D01*
X253555Y186428D01*
X253555Y186428D01*
X253740Y186414D01*
X253786Y186418D01*
X259670D01*
X259678Y186383D01*
X259937Y185758D01*
X260290Y185181D01*
X260730Y184666D01*
X261245Y184226D01*
X261822Y183873D01*
X262447Y183614D01*
X263105Y183456D01*
X263780Y183403D01*
X264455Y183456D01*
X265113Y183614D01*
X265738Y183873D01*
X266315Y184226D01*
X266830Y184666D01*
X267270Y185181D01*
X267623Y185758D01*
X267882Y186383D01*
X268040Y187041D01*
X268080Y187716D01*
X268040Y188391D01*
X267882Y189049D01*
X267623Y189674D01*
X267270Y190251D01*
X266830Y190766D01*
X266315Y191206D01*
X265777Y191536D01*
X268015D01*
X268110Y191440D01*
Y180212D01*
X267604Y179705D01*
X267270Y180251D01*
X266830Y180766D01*
X266315Y181206D01*
X265738Y181559D01*
X265113Y181818D01*
X264455Y181976D01*
X263780Y182029D01*
X263105Y181976D01*
X262447Y181818D01*
X261822Y181559D01*
X261245Y181206D01*
X260730Y180766D01*
X260290Y180251D01*
X259937Y179674D01*
X259678Y179049D01*
X259520Y178391D01*
X259467Y177716D01*
X259520Y177041D01*
X259678Y176383D01*
X259937Y175758D01*
X260290Y175181D01*
X260730Y174666D01*
X261245Y174226D01*
X261822Y173873D01*
X262447Y173614D01*
X263105Y173456D01*
X263780Y173403D01*
X264455Y173456D01*
X265113Y173614D01*
X265738Y173873D01*
X266315Y174226D01*
X266830Y174666D01*
X267270Y175181D01*
X267623Y175758D01*
X267882Y176383D01*
X267975Y176770D01*
X268019Y176797D01*
X268158Y176920D01*
X270093Y178856D01*
X270128Y178886D01*
X270249Y179027D01*
X270346Y179185D01*
X270417Y179357D01*
X270461Y179538D01*
X270475Y179723D01*
X270472Y179769D01*
Y191883D01*
X270475Y191929D01*
X270461Y192114D01*
X270461Y192114D01*
X270417Y192295D01*
X270346Y192467D01*
X270249Y192625D01*
X270128Y192766D01*
X270093Y192796D01*
X269371Y193518D01*
X269341Y193553D01*
X269200Y193674D01*
X269042Y193771D01*
X268870Y193842D01*
X268689Y193886D01*
X268689Y193886D01*
X268504Y193900D01*
X268458Y193896D01*
X257379D01*
X257282Y193993D01*
Y203694D01*
X257286Y203740D01*
X257272Y203925D01*
X257272Y203925D01*
X257228Y204106D01*
X257157Y204278D01*
X257060Y204436D01*
X256939Y204577D01*
X256904Y204607D01*
X256182Y205329D01*
X256152Y205364D01*
X256011Y205485D01*
X255853Y205582D01*
X255681Y205653D01*
X255500Y205697D01*
X255500Y205697D01*
X255315Y205711D01*
X255269Y205707D01*
X255030D01*
X254890Y205935D01*
X254646Y206220D01*
X254361Y206464D01*
X254308Y206496D01*
X259651D01*
X259678Y206383D01*
X259937Y205758D01*
X260290Y205181D01*
X260730Y204666D01*
X261245Y204226D01*
X261822Y203873D01*
X262447Y203614D01*
X263105Y203456D01*
X263780Y203403D01*
X264455Y203456D01*
X265113Y203614D01*
X265738Y203873D01*
X266315Y204226D01*
X266830Y204666D01*
X267270Y205181D01*
X267623Y205758D01*
X267882Y206383D01*
X268040Y207041D01*
X268080Y207716D01*
X268040Y208391D01*
X267882Y209049D01*
X267623Y209674D01*
X267270Y210251D01*
X266830Y210766D01*
X266315Y211206D01*
X265738Y211559D01*
X265113Y211818D01*
X264455Y211976D01*
X263780Y212029D01*
X263105Y211976D01*
X262447Y211818D01*
X261822Y211559D01*
X261245Y211206D01*
X260730Y210766D01*
X260290Y210251D01*
X259937Y209674D01*
X259678Y209049D01*
X259632Y208857D01*
X250637D01*
X250591Y208861D01*
X250406Y208847D01*
X250225Y208803D01*
X250053Y208732D01*
X249895Y208635D01*
X249754Y208514D01*
X249724Y208479D01*
X249408Y208164D01*
Y216440D01*
X249504Y216536D01*
X259485D01*
X259487Y214090D01*
X259517Y213968D01*
X259565Y213852D01*
X259631Y213744D01*
X259713Y213649D01*
X259808Y213567D01*
X259916Y213501D01*
X260032Y213453D01*
X260154Y213423D01*
X260280Y213416D01*
X267406Y213423D01*
X267528Y213453D01*
X267644Y213501D01*
X267752Y213567D01*
X267847Y213649D01*
X267929Y213744D01*
X267995Y213852D01*
X268043Y213968D01*
X268073Y214090D01*
X268080Y214216D01*
X268073Y221342D01*
X268043Y221464D01*
X267995Y221580D01*
X267929Y221688D01*
X267847Y221783D01*
X267752Y221865D01*
X267644Y221931D01*
X267528Y221979D01*
X267406Y222009D01*
X267280Y222016D01*
X260154Y222009D01*
X260032Y221979D01*
X259916Y221931D01*
X259808Y221865D01*
X259713Y221783D01*
X259631Y221688D01*
X259565Y221580D01*
X259517Y221464D01*
X259487Y221342D01*
X259480Y221216D01*
X259482Y218896D01*
X249061D01*
X249015Y218900D01*
X248830Y218886D01*
X248649Y218842D01*
X248477Y218771D01*
X248319Y218674D01*
X248178Y218553D01*
X248148Y218518D01*
X247426Y217796D01*
X247391Y217766D01*
X247270Y217625D01*
X247173Y217467D01*
X247102Y217295D01*
X247100Y217288D01*
X246969Y217441D01*
X246684Y217685D01*
X246363Y217882D01*
X246016Y218026D01*
X245651Y218113D01*
X245276Y218143D01*
X244901Y218113D01*
X244536Y218026D01*
X244189Y217882D01*
X243868Y217685D01*
X243583Y217441D01*
X243339Y217156D01*
X243142Y216835D01*
X242998Y216488D01*
X242911Y216123D01*
X242881Y215748D01*
X242911Y215373D01*
X242998Y215008D01*
X243026Y214941D01*
Y190242D01*
X232697D01*
X232630Y190270D01*
X232265Y190357D01*
X231890Y190387D01*
X231515Y190357D01*
X231150Y190270D01*
X230803Y190126D01*
X230482Y189929D01*
X230197Y189685D01*
X229953Y189400D01*
X229756Y189079D01*
X229612Y188732D01*
X229525Y188367D01*
X229495Y187992D01*
X229525Y187617D01*
X229612Y187252D01*
X229756Y186905D01*
X229953Y186584D01*
X230197Y186299D01*
X230482Y186055D01*
X230803Y185858D01*
X231150Y185714D01*
X231515Y185627D01*
X231890Y185597D01*
X232265Y185627D01*
X232630Y185714D01*
X232697Y185742D01*
X244006D01*
X244094Y185735D01*
X244447Y185763D01*
X244447Y185763D01*
X244791Y185846D01*
X245119Y185981D01*
X245421Y186166D01*
X245690Y186396D01*
X245747Y186463D01*
X246805Y187521D01*
X246872Y187578D01*
X247048Y187784D01*
Y161905D01*
X246952Y161810D01*
X214825D01*
Y203938D01*
X220377D01*
X220474Y203841D01*
Y170777D01*
X220246Y170637D01*
X219961Y170393D01*
X219717Y170108D01*
X219520Y169787D01*
X219376Y169440D01*
X219289Y169075D01*
X219259Y168700D01*
X219289Y168325D01*
X219376Y167960D01*
X219520Y167613D01*
X219717Y167292D01*
X219961Y167007D01*
X220246Y166763D01*
X220567Y166566D01*
X220914Y166422D01*
X221279Y166335D01*
X221654Y166305D01*
X222029Y166335D01*
X222394Y166422D01*
X222741Y166566D01*
X223062Y166763D01*
X223347Y167007D01*
X223591Y167292D01*
X223788Y167613D01*
X223932Y167960D01*
X224019Y168325D01*
X224042Y168700D01*
X224019Y169075D01*
X223932Y169440D01*
X223788Y169787D01*
X223591Y170108D01*
X223347Y170393D01*
X223062Y170637D01*
X222834Y170777D01*
Y171871D01*
X222866Y171820D01*
X223110Y171535D01*
X223395Y171291D01*
X223716Y171094D01*
X224063Y170950D01*
X224428Y170863D01*
X224803Y170833D01*
X225178Y170863D01*
X225543Y170950D01*
X225890Y171094D01*
X226211Y171291D01*
X226496Y171535D01*
X226740Y171820D01*
X226937Y172141D01*
X227081Y172488D01*
X227168Y172853D01*
X227191Y173228D01*
X227168Y173603D01*
X227081Y173968D01*
X226937Y174315D01*
X226740Y174636D01*
X226496Y174921D01*
X226211Y175165D01*
X225890Y175362D01*
X225543Y175506D01*
X225178Y175593D01*
X224803Y175623D01*
X224428Y175593D01*
X224408Y175589D01*
Y179433D01*
X229054Y174788D01*
X229084Y174753D01*
X229225Y174632D01*
X229383Y174535D01*
X229555Y174464D01*
X229736Y174420D01*
X229736Y174420D01*
X229810Y174415D01*
X229953Y174182D01*
X230197Y173897D01*
X230482Y173653D01*
X230803Y173456D01*
X231150Y173312D01*
X231515Y173225D01*
X231890Y173195D01*
X232265Y173225D01*
X232630Y173312D01*
X232977Y173456D01*
X233298Y173653D01*
X233583Y173897D01*
X233827Y174182D01*
X234024Y174503D01*
X234168Y174850D01*
X234255Y175215D01*
X234278Y175590D01*
X234255Y175965D01*
X234168Y176330D01*
X234024Y176677D01*
X233827Y176998D01*
X233583Y177283D01*
X233298Y177527D01*
X233086Y177657D01*
X233298Y177787D01*
X233583Y178031D01*
X233827Y178316D01*
X234024Y178637D01*
X234168Y178984D01*
X234255Y179349D01*
X234278Y179724D01*
X234255Y180099D01*
X234168Y180464D01*
X234024Y180811D01*
X233827Y181132D01*
X233583Y181417D01*
X233298Y181661D01*
X232977Y181858D01*
X232630Y182002D01*
X232265Y182089D01*
X231890Y182119D01*
X231515Y182089D01*
X231150Y182002D01*
X230803Y181858D01*
X230482Y181661D01*
X230197Y181417D01*
X230059Y181256D01*
X227558Y183756D01*
Y220032D01*
X227562Y220078D01*
X227548Y220263D01*
X227548Y220263D01*
X227504Y220444D01*
X227433Y220616D01*
X227336Y220774D01*
X227215Y220915D01*
X227180Y220945D01*
X226457Y221668D01*
X226427Y221703D01*
X226286Y221824D01*
X226128Y221921D01*
X225956Y221992D01*
X225775Y222036D01*
X225775Y222036D01*
X225590Y222050D01*
X225544Y222046D01*
X214825D01*
Y236220D01*
X293008D01*
Y231692D01*
X278061D01*
X277921Y231919D01*
X277677Y232204D01*
X277392Y232448D01*
X277071Y232645D01*
X276724Y232789D01*
X276359Y232876D01*
X275984Y232906D01*
X275609Y232876D01*
X275244Y232789D01*
X274897Y232645D01*
X274576Y232448D01*
X274291Y232204D01*
X274047Y231919D01*
X273850Y231598D01*
X273706Y231251D01*
X273619Y230886D01*
X273589Y230511D01*
X273619Y230136D01*
X273706Y229771D01*
X273850Y229424D01*
X274047Y229103D01*
X274291Y228818D01*
X274576Y228574D01*
X274897Y228377D01*
X275244Y228233D01*
X275609Y228146D01*
X275984Y228116D01*
X276359Y228146D01*
X276724Y228233D01*
X277071Y228377D01*
X277392Y228574D01*
X277677Y228818D01*
X277921Y229103D01*
X278061Y229330D01*
X279268D01*
X279225Y229304D01*
X279084Y229183D01*
X279054Y229148D01*
X277414Y227508D01*
X277392Y227527D01*
X277071Y227724D01*
X276724Y227868D01*
X276359Y227955D01*
X275984Y227985D01*
X275609Y227955D01*
X275244Y227868D01*
X274897Y227724D01*
X274576Y227527D01*
X274291Y227283D01*
X274047Y226998D01*
X273850Y226677D01*
X273706Y226330D01*
X273619Y225965D01*
X273589Y225590D01*
X273619Y225215D01*
X273706Y224850D01*
X273850Y224503D01*
X274047Y224182D01*
X274291Y223897D01*
X274576Y223653D01*
X274897Y223456D01*
X275244Y223312D01*
X275609Y223225D01*
X275984Y223195D01*
X276359Y223225D01*
X276724Y223312D01*
X277071Y223456D01*
X277392Y223653D01*
X277677Y223897D01*
X277921Y224182D01*
X278118Y224503D01*
X278262Y224850D01*
X278314Y225070D01*
X280410Y227166D01*
X285692D01*
X285467Y227072D01*
X284890Y226719D01*
X284375Y226279D01*
X283935Y225764D01*
X283582Y225187D01*
X283323Y224562D01*
X283165Y223904D01*
X283112Y223229D01*
X283165Y222554D01*
X283323Y221896D01*
X283582Y221271D01*
X283935Y220694D01*
X284375Y220179D01*
X284890Y219739D01*
X285467Y219386D01*
X286092Y219127D01*
X286750Y218969D01*
X287425Y218916D01*
X288100Y218969D01*
X288758Y219127D01*
X289383Y219386D01*
X289960Y219739D01*
X290475Y220179D01*
X290915Y220694D01*
X291268Y221271D01*
X291527Y221896D01*
X291685Y222554D01*
X291725Y223229D01*
X291685Y223904D01*
X291527Y224562D01*
X291268Y225187D01*
X290915Y225764D01*
X290475Y226279D01*
X289960Y226719D01*
X289383Y227072D01*
X289158Y227166D01*
X293008D01*
Y188378D01*
X291796Y188283D01*
X290603Y187996D01*
X289468Y187526D01*
X288422Y186885D01*
X287488Y186088D01*
X286691Y185154D01*
X286050Y184108D01*
X285580Y182973D01*
X285293Y181780D01*
X285197Y180556D01*
X285293Y179332D01*
X285580Y178139D01*
X286050Y177004D01*
X286691Y175958D01*
X287488Y175024D01*
X288422Y174227D01*
X289468Y173586D01*
X290603Y173116D01*
X291796Y172829D01*
X293008Y172734D01*
Y149859D01*
X291560Y149858D01*
X291438Y149828D01*
X291322Y149780D01*
X291214Y149714D01*
X291119Y149632D01*
X291037Y149537D01*
X290971Y149429D01*
X290923Y149313D01*
X290893Y149191D01*
X290886Y149065D01*
X290893Y142939D01*
X290923Y142817D01*
X290971Y142701D01*
X291037Y142593D01*
X291119Y142498D01*
X291214Y142416D01*
X291322Y142350D01*
X291438Y142302D01*
X291560Y142272D01*
X291686Y142265D01*
X293008Y142267D01*
Y138582D01*
G37*
G36*
X237992Y137796D02*X265701D01*
X265747Y137792D01*
X265932Y137806D01*
X265933Y137806D01*
X265933Y137806D01*
X266027Y137829D01*
X266113Y137850D01*
X266113Y137850D01*
X266114Y137850D01*
X266202Y137886D01*
X266285Y137920D01*
X266285Y137921D01*
X266286Y137921D01*
X266367Y137971D01*
X266443Y138017D01*
X266444Y138018D01*
X266444Y138018D01*
X266585Y138139D01*
X266615Y138174D01*
X266930Y138487D01*
Y129229D01*
X266833Y129132D01*
X237992D01*
Y129865D01*
X241118Y129868D01*
X241240Y129898D01*
X241356Y129946D01*
X241464Y130012D01*
X241559Y130094D01*
X241641Y130189D01*
X241707Y130297D01*
X241755Y130413D01*
X241785Y130535D01*
X241792Y130661D01*
X241785Y136787D01*
X241755Y136909D01*
X241707Y137025D01*
X241641Y137133D01*
X241559Y137228D01*
X241464Y137310D01*
X241356Y137376D01*
X241240Y137424D01*
X241118Y137454D01*
X240992Y137461D01*
X237992Y137457D01*
Y137796D01*
G37*
G36*
Y95670D02*X293008D01*
Y32380D01*
X237992D01*
Y95670D01*
G37*
G36*
Y105812D02*X238040Y105792D01*
X238405Y105705D01*
X238780Y105675D01*
X239155Y105705D01*
X239414Y105767D01*
X245575Y99606D01*
X238874D01*
X237992Y100487D01*
Y105812D01*
G37*
G36*
X252457Y102754D02*X247775Y107436D01*
X247837Y107695D01*
X247859Y108070D01*
X247837Y108445D01*
X247750Y108810D01*
X247606Y109157D01*
X247409Y109478D01*
X247165Y109763D01*
X246880Y110007D01*
X246559Y110204D01*
X246212Y110348D01*
X245847Y110435D01*
X245472Y110465D01*
X245097Y110435D01*
X244732Y110348D01*
X244385Y110204D01*
X244064Y110007D01*
X243779Y109763D01*
X243535Y109478D01*
X243338Y109157D01*
X243194Y108810D01*
X243107Y108445D01*
X243077Y108070D01*
X243107Y107695D01*
X243194Y107330D01*
X243338Y106983D01*
X243535Y106662D01*
X243779Y106377D01*
X244064Y106133D01*
X244385Y105936D01*
X244732Y105792D01*
X245097Y105705D01*
X245472Y105675D01*
X245847Y105705D01*
X246106Y105767D01*
X250692Y101180D01*
X247339D01*
X241083Y107436D01*
X241145Y107695D01*
X241168Y108070D01*
X241145Y108445D01*
X241058Y108810D01*
X240914Y109157D01*
X240717Y109478D01*
X240473Y109763D01*
X240188Y110007D01*
X239867Y110204D01*
X239520Y110348D01*
X239155Y110435D01*
X238780Y110465D01*
X238405Y110435D01*
X238040Y110348D01*
X237992Y110328D01*
Y125196D01*
X283960D01*
X284056Y125101D01*
Y123730D01*
X283828Y123590D01*
X283543Y123346D01*
X283299Y123061D01*
X283102Y122740D01*
X282958Y122393D01*
X282871Y122028D01*
X282841Y121653D01*
X282871Y121278D01*
X282958Y120913D01*
X283102Y120566D01*
X283299Y120245D01*
X283543Y119960D01*
X283828Y119716D01*
X283881Y119684D01*
X248927D01*
X248787Y119911D01*
X248543Y120196D01*
X248258Y120440D01*
X247937Y120637D01*
X247590Y120781D01*
X247225Y120868D01*
X246850Y120898D01*
X246475Y120868D01*
X246110Y120781D01*
X245763Y120637D01*
X245442Y120440D01*
X245157Y120196D01*
X244913Y119911D01*
X244716Y119590D01*
X244572Y119243D01*
X244485Y118878D01*
X244455Y118503D01*
X244485Y118128D01*
X244572Y117763D01*
X244716Y117416D01*
X244913Y117095D01*
X245157Y116810D01*
X245442Y116566D01*
X245763Y116369D01*
X246110Y116225D01*
X246475Y116138D01*
X246850Y116108D01*
X247225Y116138D01*
X247590Y116225D01*
X247937Y116369D01*
X248258Y116566D01*
X248543Y116810D01*
X248787Y117095D01*
X248927Y117322D01*
X288746D01*
X288780Y117320D01*
X288914Y117330D01*
X288965Y117333D01*
X289146Y117377D01*
X289318Y117448D01*
X289476Y117545D01*
X289617Y117666D01*
X289653Y117708D01*
X290362Y118417D01*
X290404Y118453D01*
X290525Y118594D01*
X290622Y118752D01*
X290623Y118754D01*
X290623Y118754D01*
X290694Y118926D01*
X290738Y119107D01*
X290752Y119292D01*
X290748Y119351D01*
Y119576D01*
X290975Y119716D01*
X291260Y119960D01*
X291504Y120245D01*
X291701Y120566D01*
X291845Y120913D01*
X291932Y121278D01*
X291954Y121653D01*
X291932Y122028D01*
X291845Y122393D01*
X291701Y122740D01*
X291504Y123061D01*
X291260Y123346D01*
X290975Y123590D01*
X290654Y123787D01*
X290307Y123931D01*
X289942Y124018D01*
X289567Y124048D01*
X289192Y124018D01*
X288827Y123931D01*
X288480Y123787D01*
X288159Y123590D01*
X287874Y123346D01*
X287630Y123061D01*
X287433Y122740D01*
X287402Y122664D01*
X287370Y122740D01*
X287173Y123061D01*
X286929Y123346D01*
X286644Y123590D01*
X286416Y123730D01*
Y125544D01*
X286420Y125590D01*
X286406Y125775D01*
X286406Y125775D01*
X286362Y125956D01*
X286291Y126128D01*
X286194Y126286D01*
X286073Y126427D01*
X286038Y126457D01*
X285284Y127212D01*
X285145Y127335D01*
X284987Y127432D01*
X284815Y127503D01*
X284634Y127547D01*
X284449Y127561D01*
X284338Y127552D01*
X284252Y127558D01*
X268597D01*
X268912Y127872D01*
X268947Y127903D01*
X269068Y128044D01*
X269165Y128202D01*
X269236Y128374D01*
X269280Y128555D01*
X269294Y128740D01*
X269290Y128786D01*
Y131669D01*
X269323Y131590D01*
X269520Y131269D01*
X269764Y130984D01*
X270049Y130740D01*
X270370Y130543D01*
X270717Y130399D01*
X271082Y130312D01*
X271457Y130282D01*
X271832Y130312D01*
X272197Y130399D01*
X272544Y130543D01*
X272865Y130740D01*
X273150Y130984D01*
X273394Y131269D01*
X273534Y131496D01*
X292030D01*
X292126Y131400D01*
Y110134D01*
X289414Y107421D01*
X289155Y107483D01*
X288780Y107513D01*
X288405Y107483D01*
X288040Y107396D01*
X287693Y107252D01*
X287372Y107055D01*
X287087Y106811D01*
X286843Y106526D01*
X286646Y106205D01*
X286502Y105858D01*
X286415Y105493D01*
X286385Y105118D01*
X286415Y104743D01*
X286502Y104378D01*
X286646Y104031D01*
X286843Y103710D01*
X287087Y103425D01*
X287372Y103181D01*
X287693Y102984D01*
X288040Y102840D01*
X288398Y102754D01*
X252457D01*
G37*
G36*
X237992Y110328D02*X237693Y110204D01*
X237372Y110007D01*
X237087Y109763D01*
X236843Y109478D01*
X236646Y109157D01*
X236502Y108810D01*
X236415Y108445D01*
X236385Y108070D01*
X236415Y107695D01*
X236502Y107330D01*
X236646Y106983D01*
X236843Y106662D01*
X237087Y106377D01*
X237372Y106133D01*
X237693Y105936D01*
X237992Y105812D01*
Y100487D01*
X231043Y107436D01*
X231105Y107695D01*
X231128Y108070D01*
X231105Y108445D01*
X231018Y108810D01*
X230874Y109157D01*
X230677Y109478D01*
X230433Y109763D01*
X230148Y110007D01*
X229827Y110204D01*
X229480Y110348D01*
X229115Y110435D01*
X228740Y110465D01*
X228365Y110435D01*
X228000Y110348D01*
X227653Y110204D01*
X227332Y110007D01*
X227047Y109763D01*
X226803Y109478D01*
X226606Y109157D01*
X226462Y108810D01*
X226375Y108445D01*
X226345Y108070D01*
X226375Y107695D01*
X226462Y107330D01*
X226606Y106983D01*
X226803Y106662D01*
X227047Y106377D01*
X227332Y106133D01*
X227653Y105936D01*
X228000Y105792D01*
X228365Y105705D01*
X228740Y105675D01*
X229115Y105705D01*
X229374Y105767D01*
X237110Y98030D01*
X223449D01*
X223347Y98149D01*
X223062Y98393D01*
X222741Y98590D01*
X222394Y98734D01*
X222029Y98821D01*
X221654Y98851D01*
X221279Y98821D01*
X220914Y98734D01*
X220567Y98590D01*
X220246Y98393D01*
X219961Y98149D01*
X219717Y97864D01*
X219520Y97543D01*
X219376Y97196D01*
X219289Y96831D01*
X219259Y96456D01*
X219289Y96081D01*
X219376Y95716D01*
X219520Y95369D01*
X219717Y95048D01*
X219961Y94763D01*
X220246Y94519D01*
X220567Y94322D01*
X220914Y94178D01*
X221279Y94091D01*
X221654Y94061D01*
X222029Y94091D01*
X222394Y94178D01*
X222741Y94322D01*
X223062Y94519D01*
X223347Y94763D01*
X223591Y95048D01*
X223788Y95369D01*
X223912Y95670D01*
X237992D01*
Y32380D01*
X214825D01*
Y146850D01*
X218605D01*
X219035Y146420D01*
X218860Y146462D01*
X218485Y146492D01*
X218110Y146462D01*
X217745Y146375D01*
X217398Y146231D01*
X217077Y146034D01*
X216792Y145790D01*
X216548Y145505D01*
X216351Y145184D01*
X216207Y144837D01*
X216120Y144472D01*
X216090Y144097D01*
X216120Y143722D01*
X216207Y143357D01*
X216351Y143010D01*
X216548Y142689D01*
X216792Y142404D01*
X217077Y142160D01*
X217398Y141963D01*
X217745Y141819D01*
X218110Y141732D01*
X218485Y141702D01*
X218860Y141732D01*
X219225Y141819D01*
X219572Y141963D01*
X219839Y142126D01*
X231007D01*
X234960Y138174D01*
X234990Y138139D01*
X235131Y138018D01*
X235289Y137921D01*
X235461Y137850D01*
X235642Y137806D01*
X235642Y137806D01*
X235827Y137792D01*
X235873Y137796D01*
X237992D01*
Y137457D01*
X234866Y137454D01*
X234744Y137424D01*
X234628Y137376D01*
X234520Y137310D01*
X234425Y137228D01*
X234343Y137133D01*
X234277Y137025D01*
X234229Y136909D01*
X234199Y136787D01*
X234192Y136661D01*
X234199Y130535D01*
X234229Y130413D01*
X234277Y130297D01*
X234343Y130189D01*
X234425Y130094D01*
X234520Y130012D01*
X234628Y129946D01*
X234744Y129898D01*
X234866Y129868D01*
X234992Y129861D01*
X237992Y129865D01*
Y129132D01*
X232379D01*
X231379Y130132D01*
X231349Y130167D01*
X231208Y130288D01*
X231050Y130385D01*
X230878Y130456D01*
X230697Y130500D01*
X230697Y130500D01*
X230512Y130514D01*
X230466Y130510D01*
X227015D01*
X226969Y130514D01*
X226784Y130500D01*
X226603Y130456D01*
X226431Y130385D01*
X226273Y130288D01*
X226132Y130167D01*
X226102Y130132D01*
X225102Y129132D01*
X221368D01*
X221228Y129360D01*
X220984Y129645D01*
X220699Y129889D01*
X220378Y130086D01*
X220031Y130230D01*
X219666Y130317D01*
X219291Y130347D01*
X218916Y130317D01*
X218551Y130230D01*
X218204Y130086D01*
X217883Y129889D01*
X217598Y129645D01*
X217354Y129360D01*
X217157Y129039D01*
X217013Y128692D01*
X216926Y128327D01*
X216896Y127952D01*
X216926Y127577D01*
X217013Y127212D01*
X217157Y126865D01*
X217354Y126544D01*
X217598Y126259D01*
X217883Y126015D01*
X218204Y125818D01*
X218551Y125674D01*
X218916Y125587D01*
X219291Y125557D01*
X219666Y125587D01*
X220031Y125674D01*
X220378Y125818D01*
X220699Y126015D01*
X220984Y126259D01*
X221228Y126544D01*
X221368Y126771D01*
X225545D01*
X225591Y126768D01*
X225776Y126782D01*
X225776Y126782D01*
X225957Y126826D01*
X226129Y126897D01*
X226287Y126994D01*
X226428Y127115D01*
X226458Y127150D01*
X227458Y128149D01*
X227730D01*
X227638Y128070D01*
X227394Y127785D01*
X227197Y127464D01*
X227053Y127117D01*
X226966Y126752D01*
X226936Y126377D01*
X226966Y126002D01*
X227053Y125637D01*
X227197Y125290D01*
X227394Y124969D01*
X227638Y124684D01*
X227923Y124440D01*
X228244Y124243D01*
X228591Y124099D01*
X228956Y124012D01*
X229331Y123982D01*
X229706Y124012D01*
X230071Y124099D01*
X230418Y124243D01*
X230739Y124440D01*
X231024Y124684D01*
X231268Y124969D01*
X231408Y125196D01*
X237992D01*
Y110328D01*
G37*
G36*
X191728Y141142D02*X198330D01*
X198426Y141046D01*
Y74307D01*
X198411Y74293D01*
X198376Y74263D01*
X198346Y74227D01*
X198330Y74212D01*
X191728D01*
Y141142D01*
G37*
G36*
X214825Y32380D02*X191728D01*
Y39960D01*
X207962D01*
X208102Y39733D01*
X208346Y39448D01*
X208631Y39204D01*
X208952Y39007D01*
X209299Y38863D01*
X209664Y38776D01*
X210039Y38746D01*
X210414Y38776D01*
X210779Y38863D01*
X211126Y39007D01*
X211447Y39204D01*
X211732Y39448D01*
X211976Y39733D01*
X212173Y40054D01*
X212317Y40401D01*
X212404Y40766D01*
X212426Y41141D01*
X212404Y41516D01*
X212317Y41881D01*
X212173Y42228D01*
X211976Y42549D01*
X211732Y42834D01*
X211447Y43078D01*
X211126Y43275D01*
X210779Y43419D01*
X210414Y43506D01*
X210039Y43536D01*
X209664Y43506D01*
X209299Y43419D01*
X208952Y43275D01*
X208631Y43078D01*
X208346Y42834D01*
X208102Y42549D01*
X207962Y42322D01*
X191728D01*
Y53150D01*
X208811D01*
X208857Y53146D01*
X209043Y53160D01*
X209043Y53160D01*
X209043Y53160D01*
X209141Y53184D01*
X209223Y53204D01*
X209224Y53204D01*
X209224Y53204D01*
X209315Y53241D01*
X209395Y53275D01*
X209395Y53275D01*
X209396Y53275D01*
X209482Y53328D01*
X209554Y53372D01*
X209554Y53372D01*
X209554Y53372D01*
X209695Y53493D01*
X209725Y53528D01*
X210645Y54446D01*
X210680Y54477D01*
X210799Y54616D01*
X210801Y54617D01*
X210801Y54618D01*
X210801Y54618D01*
X210847Y54693D01*
X210898Y54776D01*
X210898Y54776D01*
X210898Y54776D01*
X210932Y54857D01*
X210969Y54948D01*
X210969Y54948D01*
X210969Y54948D01*
X210989Y55030D01*
X211012Y55128D01*
X211012Y55128D01*
X211013Y55129D01*
X211013Y55131D01*
X211027Y55313D01*
X211024Y55360D01*
Y139865D01*
X211768Y140610D01*
X212027Y140548D01*
X212402Y140518D01*
X212777Y140548D01*
X213142Y140635D01*
X213489Y140779D01*
X213810Y140976D01*
X214095Y141220D01*
X214339Y141505D01*
X214536Y141826D01*
X214680Y142173D01*
X214767Y142538D01*
X214790Y142913D01*
X214767Y143288D01*
X214680Y143653D01*
X214536Y144000D01*
X214339Y144321D01*
X214095Y144606D01*
X213810Y144850D01*
X213489Y145047D01*
X213142Y145191D01*
X212777Y145278D01*
X212402Y145308D01*
X212027Y145278D01*
X211662Y145191D01*
X211315Y145047D01*
X210994Y144850D01*
X210709Y144606D01*
X210465Y144321D01*
X210268Y144000D01*
X210236Y143924D01*
X210205Y144000D01*
X210008Y144321D01*
X209764Y144606D01*
X209479Y144850D01*
X209158Y145047D01*
X208811Y145191D01*
X208446Y145278D01*
X208071Y145308D01*
X207696Y145278D01*
X207331Y145191D01*
X206984Y145047D01*
X206663Y144850D01*
X206378Y144606D01*
X206134Y144321D01*
X205937Y144000D01*
X205793Y143653D01*
X205706Y143288D01*
X205676Y142913D01*
X205706Y142538D01*
X205793Y142173D01*
X205937Y141826D01*
X206134Y141505D01*
X206378Y141220D01*
X206663Y140976D01*
X206891Y140836D01*
Y58756D01*
X206598Y58464D01*
X191728D01*
Y71850D01*
X198773D01*
X198819Y71847D01*
X199004Y71861D01*
X199004Y71861D01*
X199087Y71881D01*
X199665Y71303D01*
X199603Y71043D01*
X199573Y70668D01*
X199603Y70293D01*
X199690Y69928D01*
X199834Y69581D01*
X200031Y69260D01*
X200275Y68975D01*
X200560Y68731D01*
X200881Y68534D01*
X201228Y68390D01*
X201593Y68303D01*
X201968Y68273D01*
X202343Y68303D01*
X202708Y68390D01*
X203055Y68534D01*
X203376Y68731D01*
X203661Y68975D01*
X203905Y69260D01*
X204102Y69581D01*
X204246Y69928D01*
X204333Y70293D01*
X204356Y70668D01*
X204333Y71043D01*
X204246Y71408D01*
X204102Y71755D01*
X203905Y72076D01*
X203661Y72361D01*
X203376Y72605D01*
X203055Y72802D01*
X202708Y72946D01*
X202343Y73033D01*
X201968Y73063D01*
X201593Y73033D01*
X201335Y72971D01*
X200756Y73551D01*
X200776Y73633D01*
X200790Y73818D01*
X200786Y73864D01*
Y141489D01*
X200790Y141535D01*
X200776Y141720D01*
X200776Y141720D01*
X200732Y141901D01*
X200661Y142073D01*
X200564Y142231D01*
X200443Y142372D01*
X200408Y142402D01*
X199686Y143124D01*
X199656Y143159D01*
X199515Y143280D01*
X199357Y143377D01*
X199185Y143448D01*
X199004Y143492D01*
X199004Y143492D01*
X198819Y143506D01*
X198773Y143502D01*
X191728D01*
Y146850D01*
X214825D01*
Y32380D01*
G37*
G36*
X191728Y143502D02*X188297D01*
X188157Y143730D01*
X187913Y144015D01*
X187628Y144259D01*
X187307Y144456D01*
X186960Y144600D01*
X186595Y144687D01*
X186220Y144717D01*
X185845Y144687D01*
X185480Y144600D01*
X185133Y144456D01*
X184812Y144259D01*
X184527Y144015D01*
X184283Y143730D01*
X184086Y143409D01*
X183942Y143062D01*
X183855Y142697D01*
X183825Y142322D01*
X183855Y141947D01*
X183942Y141582D01*
X184086Y141235D01*
X184283Y140914D01*
X184527Y140629D01*
X184812Y140385D01*
X185133Y140188D01*
X185480Y140044D01*
X185845Y139957D01*
X186220Y139927D01*
X186595Y139957D01*
X186960Y140044D01*
X187307Y140188D01*
X187628Y140385D01*
X187913Y140629D01*
X188157Y140914D01*
X188297Y141142D01*
X191728D01*
Y74212D01*
X161463D01*
X161417Y74215D01*
X161232Y74201D01*
X161051Y74157D01*
X160879Y74086D01*
X160721Y73989D01*
X160580Y73868D01*
X160550Y73833D01*
X159631Y72914D01*
X159596Y72884D01*
X159475Y72743D01*
X159378Y72585D01*
X159307Y72413D01*
X159263Y72232D01*
X159263Y72232D01*
X159249Y72047D01*
X159252Y72001D01*
Y32380D01*
X155428D01*
Y96252D01*
X155493Y96257D01*
X155858Y96344D01*
X156205Y96488D01*
X156526Y96685D01*
X156811Y96929D01*
X157055Y97214D01*
X157252Y97535D01*
X157396Y97882D01*
X157483Y98247D01*
X157506Y98622D01*
X157483Y98997D01*
X157416Y99276D01*
X157696Y99209D01*
X158071Y99179D01*
X158446Y99209D01*
X158811Y99296D01*
X159158Y99440D01*
X159479Y99637D01*
X159764Y99881D01*
X160008Y100166D01*
X160205Y100487D01*
X160349Y100834D01*
X160436Y101199D01*
X160458Y101574D01*
X160436Y101949D01*
X160369Y102229D01*
X160649Y102162D01*
X161024Y102132D01*
X161399Y102162D01*
X161764Y102249D01*
X162111Y102393D01*
X162432Y102590D01*
X162717Y102834D01*
X162961Y103119D01*
X163158Y103440D01*
X163302Y103787D01*
X163389Y104152D01*
X163412Y104527D01*
X163389Y104902D01*
X163302Y105267D01*
X163158Y105614D01*
X162961Y105935D01*
X162717Y106220D01*
X162432Y106464D01*
X162111Y106661D01*
X161764Y106805D01*
X161399Y106892D01*
X161024Y106922D01*
X160649Y106892D01*
X160284Y106805D01*
X159937Y106661D01*
X159616Y106464D01*
X159331Y106220D01*
X159087Y105935D01*
X158947Y105708D01*
X155428D01*
Y110648D01*
X156395Y111614D01*
X161962D01*
X162008Y111611D01*
X162193Y111625D01*
X162193Y111625D01*
X162374Y111669D01*
X162546Y111740D01*
X162704Y111837D01*
X162845Y111958D01*
X162876Y111993D01*
X163597Y112714D01*
X163632Y112745D01*
X163753Y112886D01*
X163850Y113044D01*
X163921Y113216D01*
X163965Y113397D01*
X163979Y113582D01*
X163976Y113628D01*
Y116033D01*
X164203Y116173D01*
X164488Y116417D01*
X164732Y116702D01*
X164929Y117023D01*
X165073Y117370D01*
X165160Y117735D01*
X165182Y118110D01*
X165160Y118485D01*
X165073Y118850D01*
X164929Y119197D01*
X164732Y119518D01*
X164488Y119803D01*
X164203Y120047D01*
X164152Y120079D01*
X182582D01*
X182678Y119983D01*
Y119793D01*
X182450Y119653D01*
X182165Y119409D01*
X181921Y119124D01*
X181724Y118803D01*
X181580Y118456D01*
X181493Y118091D01*
X181463Y117716D01*
X181493Y117341D01*
X181580Y116976D01*
X181724Y116629D01*
X181921Y116308D01*
X182165Y116023D01*
X182450Y115779D01*
X182771Y115582D01*
X183118Y115438D01*
X183483Y115351D01*
X183858Y115321D01*
X184233Y115351D01*
X184598Y115438D01*
X184945Y115582D01*
X185266Y115779D01*
X185551Y116023D01*
X185795Y116308D01*
X185992Y116629D01*
X186136Y116976D01*
X186223Y117341D01*
X186246Y117716D01*
X186223Y118091D01*
X186136Y118456D01*
X185992Y118803D01*
X185795Y119124D01*
X185551Y119409D01*
X185266Y119653D01*
X185038Y119793D01*
Y120426D01*
X185042Y120472D01*
X185028Y120657D01*
X185028Y120657D01*
X184984Y120838D01*
X184913Y121010D01*
X184816Y121168D01*
X184695Y121309D01*
X184660Y121339D01*
X183938Y122061D01*
X183908Y122096D01*
X183767Y122217D01*
X183609Y122314D01*
X183437Y122385D01*
X183256Y122429D01*
X183256Y122429D01*
X183071Y122443D01*
X183025Y122440D01*
X159495D01*
X159449Y122443D01*
X159267Y122429D01*
X159263Y122429D01*
X159082Y122385D01*
X158910Y122314D01*
X158752Y122217D01*
X158611Y122096D01*
X158575Y122054D01*
X155428Y118907D01*
Y120097D01*
X159347Y124016D01*
X180072D01*
X180118Y124012D01*
X180303Y124026D01*
X180303Y124026D01*
X180484Y124070D01*
X180656Y124141D01*
X180814Y124238D01*
X180955Y124359D01*
X180986Y124394D01*
X181708Y125116D01*
X181743Y125147D01*
X181864Y125288D01*
X181961Y125446D01*
X182032Y125618D01*
X182076Y125799D01*
X182090Y125984D01*
X182086Y126030D01*
Y146755D01*
X182182Y146850D01*
X191728D01*
Y143502D01*
G37*
G36*
Y58464D02*X184623D01*
X184676Y58496D01*
X184961Y58740D01*
X185205Y59025D01*
X185402Y59346D01*
X185546Y59693D01*
X185633Y60058D01*
X185656Y60433D01*
X185633Y60808D01*
X185546Y61173D01*
X185402Y61520D01*
X185205Y61841D01*
X184961Y62126D01*
X184676Y62370D01*
X184355Y62567D01*
X184008Y62711D01*
X183643Y62798D01*
X183268Y62828D01*
X182893Y62798D01*
X182528Y62711D01*
X182181Y62567D01*
X181860Y62370D01*
X181575Y62126D01*
X181331Y61841D01*
X181191Y61614D01*
X169928D01*
X169882Y61617D01*
X169697Y61603D01*
X169516Y61559D01*
X169344Y61488D01*
X169186Y61391D01*
X169045Y61270D01*
X169015Y61235D01*
X168292Y60512D01*
X168257Y60482D01*
X168136Y60341D01*
X168039Y60183D01*
X167968Y60011D01*
X167924Y59830D01*
X167924Y59830D01*
X167910Y59645D01*
X167914Y59599D01*
Y32380D01*
X161614D01*
Y71558D01*
X161906Y71850D01*
X191728D01*
Y58464D01*
G37*
G36*
Y32380D02*X170274D01*
Y52975D01*
X170307Y52922D01*
X170551Y52637D01*
X170836Y52393D01*
X171157Y52196D01*
X171504Y52052D01*
X171869Y51965D01*
X172244Y51935D01*
X172619Y51965D01*
X172984Y52052D01*
X173331Y52196D01*
X173652Y52393D01*
X173937Y52637D01*
X174181Y52922D01*
X174321Y53150D01*
X191728D01*
Y42322D01*
X175502D01*
X175362Y42549D01*
X175118Y42834D01*
X174833Y43078D01*
X174512Y43275D01*
X174165Y43419D01*
X173800Y43506D01*
X173425Y43536D01*
X173050Y43506D01*
X172685Y43419D01*
X172338Y43275D01*
X172017Y43078D01*
X171732Y42834D01*
X171488Y42549D01*
X171291Y42228D01*
X171147Y41881D01*
X171060Y41516D01*
X171030Y41141D01*
X171060Y40766D01*
X171147Y40401D01*
X171291Y40054D01*
X171488Y39733D01*
X171732Y39448D01*
X172017Y39204D01*
X172338Y39007D01*
X172685Y38863D01*
X173050Y38776D01*
X173425Y38746D01*
X173800Y38776D01*
X174165Y38863D01*
X174512Y39007D01*
X174833Y39204D01*
X175118Y39448D01*
X175362Y39733D01*
X175502Y39960D01*
X191728D01*
Y32380D01*
G37*
G36*
X214825Y153936D02*X177015D01*
X176969Y153939D01*
X176784Y153925D01*
X176603Y153881D01*
X176431Y153810D01*
X176273Y153713D01*
X176132Y153592D01*
X176102Y153557D01*
X175386Y152841D01*
X175344Y152805D01*
X175223Y152664D01*
X175126Y152506D01*
X175055Y152334D01*
X175011Y152153D01*
X175011Y152149D01*
X174997Y151967D01*
X175000Y151921D01*
Y131197D01*
X174905Y131102D01*
X155428D01*
Y140569D01*
X157134Y142274D01*
X157142Y142283D01*
X157633Y142775D01*
X157893Y142713D01*
X158268Y142683D01*
X158643Y142713D01*
X159008Y142800D01*
X159355Y142944D01*
X159676Y143141D01*
X159961Y143385D01*
X160205Y143670D01*
X160402Y143991D01*
X160546Y144338D01*
X160633Y144703D01*
X160656Y145078D01*
X160633Y145453D01*
X160546Y145818D01*
X160402Y146165D01*
X160205Y146486D01*
X159961Y146771D01*
X159676Y147015D01*
X159355Y147212D01*
X159008Y147356D01*
X158643Y147443D01*
X158268Y147473D01*
X157893Y147443D01*
X157528Y147356D01*
X157181Y147212D01*
X156860Y147015D01*
X156575Y146771D01*
X156331Y146486D01*
X156134Y146165D01*
X156004Y145851D01*
X155874Y146165D01*
X155677Y146486D01*
X155433Y146771D01*
X155428Y146776D01*
Y147638D01*
X170623D01*
X170669Y147634D01*
X170854Y147648D01*
X170854Y147648D01*
X171035Y147692D01*
X171207Y147763D01*
X171365Y147860D01*
X171506Y147981D01*
X171536Y148016D01*
X172259Y148738D01*
X172294Y148769D01*
X172415Y148910D01*
X172512Y149068D01*
X172583Y149240D01*
X172627Y149421D01*
X172641Y149606D01*
X172638Y149652D01*
Y167305D01*
X172835Y167289D01*
X173210Y167319D01*
X173575Y167406D01*
X173922Y167550D01*
X174243Y167747D01*
X174528Y167991D01*
X174772Y168276D01*
X174969Y168597D01*
X175113Y168944D01*
X175200Y169309D01*
X175222Y169684D01*
X175200Y170059D01*
X175113Y170424D01*
X174969Y170771D01*
X174772Y171092D01*
X174528Y171377D01*
X174243Y171621D01*
X173922Y171818D01*
X173575Y171962D01*
X173210Y172049D01*
X172835Y172079D01*
X172460Y172049D01*
X172095Y171962D01*
X171748Y171818D01*
X171427Y171621D01*
X171142Y171377D01*
X171062Y171285D01*
Y172936D01*
X171158Y173032D01*
X191821D01*
X191961Y172804D01*
X192205Y172519D01*
X192490Y172275D01*
X192811Y172078D01*
X193158Y171934D01*
X193523Y171847D01*
X193898Y171817D01*
X194273Y171847D01*
X194638Y171934D01*
X194985Y172078D01*
X195306Y172275D01*
X195591Y172519D01*
X195835Y172804D01*
X196032Y173125D01*
X196176Y173472D01*
X196263Y173837D01*
X196286Y174212D01*
X196263Y174587D01*
X196176Y174952D01*
X196032Y175299D01*
X195835Y175620D01*
X195591Y175905D01*
X195306Y176149D01*
X194985Y176346D01*
X194638Y176490D01*
X194273Y176577D01*
X193898Y176607D01*
X193523Y176577D01*
X193158Y176490D01*
X192811Y176346D01*
X192490Y176149D01*
X192205Y175905D01*
X191961Y175620D01*
X191821Y175392D01*
X170715D01*
X170669Y175396D01*
X170484Y175382D01*
X170303Y175338D01*
X170131Y175267D01*
X169973Y175170D01*
X169832Y175049D01*
X169802Y175014D01*
X169488Y174700D01*
Y179238D01*
X169788Y179362D01*
X170109Y179559D01*
X170394Y179803D01*
X170638Y180088D01*
X170835Y180409D01*
X170979Y180756D01*
X171066Y181121D01*
X171088Y181496D01*
X171066Y181871D01*
X170979Y182236D01*
X170835Y182583D01*
X170638Y182904D01*
X170394Y183189D01*
X170109Y183433D01*
X169788Y183630D01*
X169441Y183774D01*
X169076Y183861D01*
X168701Y183891D01*
X168326Y183861D01*
X167961Y183774D01*
X167614Y183630D01*
X167293Y183433D01*
X167008Y183189D01*
X166764Y182904D01*
X166567Y182583D01*
X166423Y182236D01*
X166336Y181871D01*
X166306Y181496D01*
X166336Y181121D01*
X166423Y180756D01*
X166567Y180409D01*
X166764Y180088D01*
X167008Y179803D01*
X167126Y179701D01*
Y153245D01*
X167030Y153148D01*
X155428D01*
Y166338D01*
X159612D01*
X159646Y166336D01*
X159780Y166346D01*
X159831Y166349D01*
X160012Y166393D01*
X160184Y166464D01*
X160342Y166561D01*
X160483Y166682D01*
X160519Y166724D01*
X161235Y167440D01*
X161270Y167470D01*
X161388Y167608D01*
X161392Y167612D01*
X161489Y167770D01*
X161560Y167942D01*
X161604Y168123D01*
X161618Y168308D01*
X161614Y168367D01*
Y194787D01*
X161709Y194882D01*
X172985D01*
X173031Y194879D01*
X173216Y194893D01*
X173216Y194893D01*
X173397Y194937D01*
X173569Y195008D01*
X173727Y195105D01*
X173868Y195226D01*
X173898Y195261D01*
X174621Y195984D01*
X174656Y196014D01*
X174777Y196155D01*
X174874Y196313D01*
X174945Y196485D01*
X174989Y196666D01*
X175003Y196851D01*
X175000Y196897D01*
Y204419D01*
X175227Y204559D01*
X175512Y204803D01*
X175756Y205088D01*
X175953Y205409D01*
X176097Y205756D01*
X176184Y206121D01*
X176206Y206496D01*
X176184Y206871D01*
X176097Y207236D01*
X175953Y207583D01*
X175756Y207904D01*
X175512Y208189D01*
X175227Y208433D01*
X174906Y208630D01*
X174559Y208774D01*
X174194Y208861D01*
X173819Y208891D01*
X173444Y208861D01*
X173079Y208774D01*
X172732Y208630D01*
X172411Y208433D01*
X172126Y208189D01*
X171882Y207904D01*
X171685Y207583D01*
X171541Y207236D01*
X171454Y206871D01*
X171424Y206496D01*
X171454Y206121D01*
X171541Y205756D01*
X171685Y205409D01*
X171882Y205088D01*
X172126Y204803D01*
X172411Y204559D01*
X172638Y204419D01*
Y197340D01*
X172542Y197244D01*
X169386D01*
X169700Y197558D01*
X169735Y197588D01*
X169856Y197729D01*
X169953Y197887D01*
X170024Y198059D01*
X170068Y198240D01*
X170082Y198425D01*
X170078Y198471D01*
Y204419D01*
X170306Y204559D01*
X170591Y204803D01*
X170835Y205088D01*
X171032Y205409D01*
X171176Y205756D01*
X171263Y206121D01*
X171286Y206496D01*
X171263Y206871D01*
X171176Y207236D01*
X171032Y207583D01*
X170835Y207904D01*
X170591Y208189D01*
X170306Y208433D01*
X169985Y208630D01*
X169638Y208774D01*
X169273Y208861D01*
X168898Y208891D01*
X168523Y208861D01*
X168158Y208774D01*
X167811Y208630D01*
X167490Y208433D01*
X167205Y208189D01*
X166961Y207904D01*
X166764Y207583D01*
X166620Y207236D01*
X166533Y206871D01*
X166503Y206496D01*
X166533Y206121D01*
X166620Y205756D01*
X166764Y205409D01*
X166961Y205088D01*
X167205Y204803D01*
X167490Y204559D01*
X167718Y204419D01*
Y198914D01*
X167621Y198818D01*
X155428D01*
Y213574D01*
X155545Y213711D01*
X155750Y214047D01*
X155901Y214410D01*
X155993Y214793D01*
X156016Y215185D01*
X155993Y224577D01*
X155901Y224960D01*
X155750Y225323D01*
X155545Y225659D01*
X155428Y225796D01*
Y236220D01*
X214825D01*
Y222046D01*
X210922D01*
X210826Y222142D01*
Y223017D01*
X211018Y223063D01*
X211643Y223322D01*
X212220Y223675D01*
X212735Y224115D01*
X213175Y224630D01*
X213528Y225207D01*
X213787Y225832D01*
X213945Y226490D01*
X213985Y227165D01*
X213945Y227840D01*
X213787Y228498D01*
X213528Y229123D01*
X213175Y229700D01*
X212735Y230215D01*
X212220Y230655D01*
X211643Y231008D01*
X211018Y231267D01*
X210360Y231425D01*
X209685Y231478D01*
X209010Y231425D01*
X208352Y231267D01*
X207727Y231008D01*
X207150Y230655D01*
X206635Y230215D01*
X206195Y229700D01*
X205842Y229123D01*
X205583Y228498D01*
X205425Y227840D01*
X205372Y227165D01*
X205425Y226490D01*
X205583Y225832D01*
X205842Y225207D01*
X206195Y224630D01*
X206635Y224115D01*
X207150Y223675D01*
X207727Y223322D01*
X208352Y223063D01*
X208466Y223036D01*
Y221699D01*
X208462Y221653D01*
X208476Y221468D01*
X208476Y221468D01*
X208520Y221287D01*
X208591Y221115D01*
X208688Y220957D01*
X208809Y220816D01*
X208844Y220786D01*
X209158Y220472D01*
X200883D01*
X200786Y220568D01*
Y223007D01*
X201018Y223063D01*
X201643Y223322D01*
X202220Y223675D01*
X202735Y224115D01*
X203175Y224630D01*
X203528Y225207D01*
X203787Y225832D01*
X203945Y226490D01*
X203985Y227165D01*
X203945Y227840D01*
X203787Y228498D01*
X203528Y229123D01*
X203175Y229700D01*
X202735Y230215D01*
X202220Y230655D01*
X201643Y231008D01*
X201018Y231267D01*
X200360Y231425D01*
X199685Y231478D01*
X199010Y231425D01*
X198352Y231267D01*
X197727Y231008D01*
X197150Y230655D01*
X196635Y230215D01*
X196195Y229700D01*
X195842Y229123D01*
X195583Y228498D01*
X195425Y227840D01*
X195372Y227165D01*
X195425Y226490D01*
X195583Y225832D01*
X195842Y225207D01*
X196195Y224630D01*
X196635Y224115D01*
X197150Y223675D01*
X197727Y223322D01*
X198352Y223063D01*
X198426Y223045D01*
Y220125D01*
X198422Y220079D01*
X198436Y219894D01*
X198436Y219894D01*
X198480Y219713D01*
X198551Y219541D01*
X198648Y219383D01*
X198769Y219242D01*
X198804Y219212D01*
X199527Y218489D01*
X199557Y218454D01*
X199698Y218333D01*
X199856Y218236D01*
X200028Y218165D01*
X200209Y218121D01*
X200209Y218121D01*
X200394Y218107D01*
X200440Y218110D01*
X214825D01*
Y207872D01*
X211119D01*
X211024Y207968D01*
Y208892D01*
X211643Y209149D01*
X212220Y209502D01*
X212735Y209942D01*
X213175Y210457D01*
X213528Y211034D01*
X213787Y211659D01*
X213945Y212317D01*
X213985Y212992D01*
X213945Y213667D01*
X213787Y214325D01*
X213528Y214950D01*
X213175Y215527D01*
X212735Y216042D01*
X212220Y216482D01*
X211643Y216835D01*
X211018Y217094D01*
X210360Y217252D01*
X209685Y217305D01*
X209010Y217252D01*
X208352Y217094D01*
X207727Y216835D01*
X207150Y216482D01*
X206635Y216042D01*
X206195Y215527D01*
X205842Y214950D01*
X205583Y214325D01*
X205425Y213667D01*
X205372Y212992D01*
X205425Y212317D01*
X205583Y211659D01*
X205842Y211034D01*
X206195Y210457D01*
X206635Y209942D01*
X207150Y209502D01*
X207727Y209149D01*
X208352Y208890D01*
X208662Y208815D01*
Y207525D01*
X208659Y207479D01*
X208673Y207294D01*
X208673Y207294D01*
X208717Y207113D01*
X208788Y206941D01*
X208885Y206783D01*
X209006Y206642D01*
X209041Y206612D01*
X209354Y206298D01*
X200883D01*
X200786Y206395D01*
Y208834D01*
X201018Y208890D01*
X201643Y209149D01*
X202220Y209502D01*
X202735Y209942D01*
X203175Y210457D01*
X203528Y211034D01*
X203787Y211659D01*
X203945Y212317D01*
X203985Y212992D01*
X203945Y213667D01*
X203787Y214325D01*
X203528Y214950D01*
X203175Y215527D01*
X202735Y216042D01*
X202220Y216482D01*
X201643Y216835D01*
X201018Y217094D01*
X200360Y217252D01*
X199685Y217305D01*
X199010Y217252D01*
X198352Y217094D01*
X197727Y216835D01*
X197150Y216482D01*
X196635Y216042D01*
X196195Y215527D01*
X195842Y214950D01*
X195583Y214325D01*
X195425Y213667D01*
X195372Y212992D01*
X195425Y212317D01*
X195583Y211659D01*
X195842Y211034D01*
X196195Y210457D01*
X196635Y209942D01*
X197150Y209502D01*
X197727Y209149D01*
X198352Y208890D01*
X198426Y208872D01*
Y205952D01*
X198422Y205906D01*
X198436Y205721D01*
X198436Y205721D01*
X198480Y205540D01*
X198551Y205368D01*
X198648Y205210D01*
X198769Y205069D01*
X198804Y205039D01*
X199527Y204316D01*
X199557Y204281D01*
X199698Y204160D01*
X199856Y204063D01*
X200028Y203992D01*
X200209Y203948D01*
X200209Y203948D01*
X200394Y203934D01*
X200440Y203938D01*
X214825D01*
Y161810D01*
X184164D01*
X184024Y162037D01*
X183780Y162322D01*
X183495Y162566D01*
X183174Y162763D01*
X182827Y162907D01*
X182462Y162994D01*
X182087Y163024D01*
X181712Y162994D01*
X181347Y162907D01*
X181000Y162763D01*
X180679Y162566D01*
X180394Y162322D01*
X180150Y162037D01*
X179953Y161716D01*
X179809Y161369D01*
X179722Y161004D01*
X179692Y160629D01*
X179722Y160254D01*
X179809Y159889D01*
X179953Y159542D01*
X180150Y159221D01*
X180394Y158936D01*
X180679Y158692D01*
X181000Y158495D01*
X181347Y158351D01*
X181712Y158264D01*
X182087Y158234D01*
X182462Y158264D01*
X182827Y158351D01*
X183174Y158495D01*
X183495Y158692D01*
X183780Y158936D01*
X184024Y159221D01*
X184164Y159448D01*
X186832D01*
X186781Y159417D01*
X186496Y159173D01*
X186252Y158888D01*
X186055Y158567D01*
X185911Y158220D01*
X185824Y157855D01*
X185794Y157480D01*
X185824Y157105D01*
X185911Y156740D01*
X186055Y156393D01*
X186252Y156072D01*
X186496Y155787D01*
X186781Y155543D01*
X187102Y155346D01*
X187449Y155202D01*
X187814Y155115D01*
X188189Y155085D01*
X188564Y155115D01*
X188929Y155202D01*
X188996Y155230D01*
X190728D01*
X190795Y155202D01*
X191160Y155115D01*
X191535Y155085D01*
X191910Y155115D01*
X192275Y155202D01*
X192342Y155230D01*
X214825D01*
Y153936D01*
G37*
G54D38*X100985Y74408D02*X92126D01*
X79922Y86612D01*
Y76376D02*X85040Y81494D01*
X84253Y82282D02*Y80707D01*
X85828D01*
X134252Y100196D02*X121851D01*
X131102Y104724D02*X110236D01*
X132677Y103149D02*X111810D01*
X133465Y103936D02*X132678Y103149D01*
X131890Y105512D02*X131102Y104724D01*
X136615Y98031D02*X133662Y95078D01*
X128150D01*
X128741Y89173D02*X131694D01*
X131693D02*X138189Y95669D01*
X110237Y104724D02*X109450Y103937D01*
X109449D02*Y88780D01*
X111024Y102362D02*Y83464D01*
X111810Y103149D02*X111023Y102362D01*
X108661Y87992D02*X96654D01*
X109449Y88780D02*X108661Y87992D01*
X145669Y57086D02*X32086D01*
X31299Y56299D02*Y51771D01*
X92717Y49409D02*X114174D01*
X85630Y16338D02*X66338D01*
G54D39*X124803Y32283D02*X26181D01*
Y35826D02*Y25787D01*
G54D38*X66338Y16338D02*X65551Y15551D01*
Y8858D01*
X144094Y58661D02*X28937D01*
X140945Y61811D02*X30118D01*
X142520Y60236D02*X28740D01*
X114174Y49409D02*X114961Y48622D01*
X145275Y104527D02*X141732Y100984D01*
X149804Y98622D02*X149016Y97834D01*
X144685Y101574D02*X143307Y100196D01*
X144685Y101574D02*Y101575D01*
X150000Y104527D02*X144882Y99409D01*
X149409Y101574D02*X146457Y98622D01*
X36220Y96653D02*X35433Y95866D01*
X37795Y91535D02*X37008Y90748D01*
X39370Y86613D02*X38583Y85826D01*
X40945Y81496D02*X40157Y80708D01*
X26181Y75787D02*X41733D01*
X40157Y80708D02*X21063D01*
X41733Y75787D02*X42520Y76574D01*
X38583Y85826D02*X28740D01*
X21063Y80708D02*X16142Y75787D01*
X21261Y90748D02*X16142Y85629D01*
X32283Y105905D02*X28543D01*
X42520Y116535D02*Y76574D01*
X40945Y118110D02*Y81496D01*
X35433Y95866D02*X28543D01*
X21260Y100787D02*X16142Y95669D01*
X30709Y110826D02*X21063D01*
X33071Y106693D02*X32283Y105905D01*
X34646Y101772D02*X33661Y100787D01*
X21260D01*
X37795Y121259D02*Y91535D01*
X37008Y90748D02*X21261D01*
X39370Y119684D02*Y86614D01*
X31299Y51771D02*X30315Y50787D01*
X32086Y57086D02*X31299Y56299D01*
X28937Y58661D02*X26181Y55905D01*
X30315Y50787D02*X21063D01*
X16142Y65748D02*Y65747D01*
Y55708D02*X21063Y50787D01*
X16142Y65747D02*X21063Y60826D01*
X28740Y60236D02*X28150Y60826D01*
X21063D01*
X30118Y61811D02*X26181Y65748D01*
X114961Y48622D02*Y41141D01*
X152165Y34448D02*X123622Y5905D01*
X149016Y41338D02*X113583Y5905D01*
X140157Y83661D02*Y101968D01*
X141732Y100984D02*Y62598D01*
X128740Y82874D02*X139369D01*
X139370Y82873D02*X140158Y83661D01*
X143307Y100196D02*Y61023D01*
X144882Y99409D02*Y59449D01*
X146457Y98622D02*Y57874D01*
X152165Y95669D02*Y34448D01*
X149016Y97834D02*Y41338D01*
X143307Y61023D02*X142520Y60236D01*
X141732Y62598D02*X140945Y61811D01*
X144882Y59449D02*X144094Y58661D01*
X146457Y57874D02*X145669Y57086D01*
X160433Y72047D02*Y26574D01*
X169094Y59645D02*X169882Y60433D01*
X169094Y26377D02*Y59645D01*
X169882Y60433D02*X183268D01*
X199213Y73425D02*X201378Y71259D01*
X208071Y58267D02*X207087Y57283D01*
X176378D01*
X172244Y54330D02*X208858D01*
X209843Y55314D01*
X173425Y41141D02*X210039D01*
X187205Y16732D02*X186417Y17519D01*
Y26574D01*
X229331Y16732D02*X187205D01*
X236614D02*Y14566D01*
X235827Y13779D02*X182874D01*
X243898Y12992D02*X243110Y12204D01*
X182874Y13779D02*X182087Y14566D01*
Y19488D01*
X236614Y14566D02*X235827Y13779D01*
X243898Y16732D02*Y12992D01*
X243110Y12204D02*X156890D01*
X156102Y12992D01*
Y19685D01*
X135039Y100984D02*X134252Y100197D01*
X316339Y98425D02*X238385D01*
X314764Y100000D02*X246850D01*
X314764D02*X315551Y100787D01*
X140157Y101968D02*X140158D01*
X155118Y98622D02*X149804D01*
X238385Y98425D02*X228740Y108070D01*
X294094Y134251D02*X276575D01*
X296260Y135826D02*X281693D01*
X300394Y137401D02*X286811D01*
X235827Y138976D02*X265748D01*
X266339Y139566D01*
X209843Y140354D02*X212402Y142913D01*
X297047Y105118D02*Y135039D01*
X296260Y135826D01*
X301181Y105118D02*Y136614D01*
X300394Y137401D01*
X233858Y127952D02*X267322D01*
X219291D02*X225591D01*
X226969Y129330D01*
X230512D01*
X231890Y127952D01*
X233858D01*
X267322D02*X268110Y128740D01*
X145276Y139960D02*X134252D01*
X144291Y133464D02*X153740Y142913D01*
X145276Y139960D02*X147835Y142519D01*
X144291Y133464D02*X137402D01*
X183858Y120472D02*X183071Y121259D01*
X159448D01*
X183858Y117716D02*Y120472D01*
X140158Y101968D02*X159449Y121259D01*
X317914Y96850D02*X221654D01*
X251968Y101574D02*X245472Y108070D01*
X316339Y98425D02*X317126Y99212D01*
X317914Y96850D02*X318701Y97637D01*
X301182Y105118D02*X301378Y105314D01*
X301181Y105118D02*X301182D01*
X313188Y101574D02*X313976Y102362D01*
Y133857D02*X314764Y134645D01*
X315551Y130117D02*X318898Y133464D01*
Y134448D01*
X317126Y99212D02*Y120275D01*
X322835Y120669D02*Y121850D01*
X313976Y102362D02*Y133857D01*
X315551Y100787D02*Y130117D01*
X317126Y120275D02*X318701Y121850D01*
Y97637D02*Y116535D01*
X322835Y120669D01*
X246850Y100000D02*X238780Y108070D01*
X229331Y126377D02*X284252D01*
X313188Y101574D02*X251968D01*
X284449Y126377D02*X285236Y125590D01*
Y121653D01*
X246850Y118503D02*X288780D01*
Y118504D02*X289568Y119292D01*
X289567Y119290D02*Y121652D01*
X271457Y132677D02*X292519D01*
X293307Y109645D02*X288780Y105118D01*
X292913D02*Y106692D01*
X294882Y108661D01*
X292519Y132677D02*X293307Y131889D01*
Y109645D01*
X294882Y108661D02*Y133463D01*
X294094Y134251D01*
X169882Y151181D02*X169094Y150393D01*
X180906Y125984D02*Y147244D01*
X179331Y127559D02*Y148818D01*
X193898Y174212D02*X193111D01*
X170669D02*X169882Y173425D01*
Y151181D01*
X180906Y147244D02*X181693Y148031D01*
X199606Y141535D02*Y73818D01*
X208071Y142716D02*Y58267D01*
X209843Y55314D02*Y140354D01*
X199606Y73818D02*X198819Y73031D01*
X161417D01*
X160433Y72047D01*
X168307Y180708D02*Y152755D01*
X168898Y206496D02*Y198425D01*
X168110Y197637D01*
X173819Y206496D02*Y196851D01*
X161220Y196063D02*X173031D01*
X168110Y197637D02*X142126D01*
X173819Y196851D02*X173031Y196063D01*
X160433Y168307D02*Y195276D01*
X157480Y181496D02*Y169881D01*
X154331Y184842D02*Y171457D01*
X152362Y188779D02*Y173031D01*
X148425Y176180D02*X147638Y175393D01*
X136221D01*
X145669Y176968D02*X135433D01*
X150394Y190551D02*Y174606D01*
X149606Y173818D01*
X148425Y186811D02*Y176180D01*
X146457Y183267D02*Y177756D01*
X145669Y176968D01*
X269291Y179723D02*X267323Y177755D01*
X269291Y191929D02*Y179723D01*
X268504Y192716D02*X269291Y191929D01*
X253740Y187598D02*X261417D01*
X256890Y192716D02*X268504D01*
X223228Y174803D02*X224803Y173228D01*
G54D40*X245276Y189174D02*X244094Y187992D01*
X231890D01*
G54D38*X286811Y137401D02*X271457Y152755D01*
X281694Y135826D02*X271457Y146063D01*
X276576Y134251D02*X271457Y139370D01*
X223425Y149606D02*X223622Y149409D01*
X235433Y149803D02*X234055Y151181D01*
X243701Y148818D02*Y151968D01*
X242913Y152756D01*
X219291Y143307D02*X231496D01*
X235827Y138976D01*
X268110Y149803D02*Y152952D01*
X269882Y154724D01*
X274213D01*
X275984Y152952D01*
X281102D01*
X282874Y154724D01*
X266339Y139566D02*Y153740D01*
X229921Y179724D02*X231890D01*
X229921Y175590D02*X231890D01*
X226378Y183267D02*X229921Y179724D01*
X224803Y180708D02*X229921Y175590D01*
X224803Y180708D02*Y218503D01*
X223228Y174803D02*Y205905D01*
X221654Y168700D02*Y204330D01*
X220866Y205118D02*X221654Y204330D01*
X225590Y220866D02*X226378Y220078D01*
X224015Y219291D02*X224803Y218503D01*
X210433Y220866D02*X225590D01*
X210630Y206692D02*X222441D01*
X223228Y205905D01*
X226378Y183267D02*Y220078D01*
X209646Y224212D02*Y221653D01*
X210433Y220866D01*
X199606Y224409D02*Y220079D01*
X200394Y219291D01*
X199606Y209842D02*Y205906D01*
X200394Y205118D01*
Y219291D02*X224015D01*
X209843Y210039D02*Y207479D01*
X210630Y206692D01*
X200394Y205118D02*X220866D01*
X250591Y207677D02*X249803Y206889D01*
X249015Y217716D02*X248228Y216929D01*
X263780Y207677D02*X250591D01*
X261024Y217716D02*X249015D01*
X252953Y204527D02*X255315D01*
X256102Y203740D01*
Y193504D01*
X256890Y192716D01*
X248228Y167716D02*Y216929D01*
X252953Y200393D02*Y188385D01*
X253740Y187598D01*
G54D40*X245276Y215748D02*Y189174D01*
G54D38*X249803Y206889D02*Y161023D01*
X282874Y154724D02*Y177559D01*
X275591Y184842D01*
X279134Y155905D02*X276575D01*
X275984Y156496D01*
X269094D01*
X266339Y153740D01*
X248228Y161416D02*X247441Y160629D01*
X268110Y128740D02*Y149803D01*
G54D40*X248228Y157480D02*X249803Y159055D01*
Y160826D01*
X250984Y162007D01*
G54D38*X248228Y167913D02*Y161416D01*
G54D40*X250984Y162007D02*X275197D01*
Y163779D02*X273425Y162007D01*
X275197Y160433D02*X273622Y162007D01*
X275197Y163779D02*Y160433D01*
G54D38*X158858Y125196D02*X180118D01*
X180906Y125984D01*
X143701Y141535D02*X146260Y144094D01*
X156299Y143109D02*X145079Y131889D01*
X157874Y144685D02*X156299Y143110D01*
X146063Y138385D02*X149409Y141732D01*
X153740Y144881D02*Y142913D01*
X149409Y141732D02*Y148031D01*
X150197Y148818D01*
X170669D01*
X171457Y149606D01*
X193110Y174212D02*X170669D01*
X169094Y150393D02*X148622D01*
X147835Y149606D01*
X167520Y151968D02*X147047D01*
X159646Y167520D02*X160434Y168308D01*
X171457Y149606D02*Y168307D01*
X172835Y169685D01*
X147638Y167519D02*X159646D01*
X146850Y166731D02*X147638Y167519D01*
X156693Y169094D02*X145472D01*
X146850Y159448D02*Y166731D01*
X147047Y151968D02*X146260Y151181D01*
X144685Y161417D02*X143701Y160433D01*
X139960Y162007D02*X140748Y162795D01*
X144685Y168307D02*Y161417D01*
X157480Y169881D02*X156693Y169094D01*
X154331Y171457D02*X153543Y170669D01*
X152362Y173031D02*X151575Y172244D01*
X145472Y169094D02*X144685Y168307D01*
X153543Y170669D02*X138583D01*
X151575Y172244D02*X137795D01*
X149606Y173818D02*X137007D01*
X229528Y145078D02*X222047D01*
X219094Y148031D01*
X230315Y145865D02*X229528Y145078D01*
X230315Y148228D02*Y145865D01*
X218504Y144094D02*X219291Y143307D01*
X180118Y149606D02*X223425D01*
X179331Y148818D02*X180118Y149605D01*
X176969Y152755D02*X176181Y151967D01*
X182087Y160629D02*X247441D01*
G54D40*X188189Y157480D02*X248228D01*
G54D38*X242913Y152755D02*X176969D01*
X234055Y151181D02*X178543D01*
X177756Y150394D01*
X181693Y148031D02*X219094D01*
X186220Y142322D02*X198819D01*
X199606Y141535D01*
X393307Y229724D02*Y223425D01*
X392520Y230511D02*X393307Y229724D01*
G54D40*X387205Y174212D02*Y214566D01*
X383465Y218307D01*
Y223228D01*
G54D41*X374409Y185039D02*X379921Y179527D01*
G54D38*X279921Y228346D02*X277165Y225590D01*
X275984Y230511D02*X392323D01*
X307283Y223425D02*Y227559D01*
X306496Y228346D01*
X279921D01*
G54D40*X406693Y145275D02*Y171850D01*
X405512Y173031D01*
X400197D01*
X400394D02*X388386D01*
X387205Y174212D01*
G54D41*X379921Y144881D02*Y179527D01*
G54D38*X150197Y129921D02*X175394D01*
X176181Y130708D01*
Y151968D01*
X168307Y152756D02*X167520Y151969D01*
X147835Y149606D02*Y142519D01*
X142717Y122440D02*Y122441D01*
X150197Y129921D01*
X142717Y118307D02*X152756Y128346D01*
X146260Y151181D02*Y144094D01*
X145276Y104527D02*X156693Y115944D01*
X153543Y110433D02*X153544D01*
X155906Y112795D01*
X161024Y104527D02*X150000D01*
X156693Y115944D02*X158661D01*
X144685Y101575D02*X153543Y110433D01*
X158071Y101574D02*X149409D01*
X155906Y112795D02*X162008D01*
X162795Y113582D01*
Y117913D01*
X152756Y128346D02*X176969D01*
X177756Y129133D01*
Y150393D01*
X156102Y126771D02*X178543D01*
X179331Y127559D01*
X146850Y117519D02*X156102Y126771D01*
X151181Y117519D02*X158858Y125196D01*
X26181Y129133D02*Y118110D01*
X37007Y123622D02*X36220Y122835D01*
X43306Y117323D02*X42519Y116536D01*
X32283Y128346D02*X31496Y127559D01*
X33071Y125984D02*Y106692D01*
X21063Y110826D02*X16142Y105905D01*
Y130708D02*Y118110D01*
X26969Y129921D02*X26181Y129133D01*
X75394Y131496D02*X16930D01*
X76969Y129921D02*X26969D01*
X80118Y126771D02*X33858D01*
X81693Y125196D02*X35433D01*
X83268Y123622D02*X37008D01*
X84843Y122047D02*X38583D01*
X86417Y120472D02*X40157D01*
X87992Y118897D02*X41732D01*
X89567Y117322D02*X43307D01*
X88780Y119685D02*X87992Y118897D01*
X136615Y98031D02*Y132676D01*
X135040Y136023D02*Y100983D01*
X138189Y95669D02*Y131102D01*
X133465Y139173D02*Y103937D01*
X135039Y136023D02*Y137598D01*
X135827Y138385D01*
X137402Y133464D02*X136614Y132676D01*
X138189Y131102D02*X138976Y131889D01*
X145079D02*X138976D01*
X112992Y140748D02*X112205Y141535D01*
X134252Y139960D02*X133465Y139173D01*
X132677Y141535D02*X131890Y140748D01*
Y105511D01*
X123228Y118700D02*Y151180D01*
X38582Y122047D02*X37795Y121260D01*
X78543Y128346D02*X32283D01*
X35432Y125197D02*X34645Y124410D01*
X33858Y126771D02*X33071Y125984D01*
X40157Y120472D02*X39370Y119685D01*
X41732Y118897D02*X40945Y118110D01*
X77756Y130708D02*X76968Y129920D01*
X16930Y131496D02*X16142Y130708D01*
X82481Y125984D02*X81693Y125196D01*
X80906Y127559D02*X80118Y126771D01*
X84055Y124409D02*X83267Y123621D01*
X85630Y122834D02*X84842Y122046D01*
X87205Y121260D02*X86417Y120472D01*
X31496Y111613D02*Y127559D01*
Y111613D02*X30709Y110826D01*
X34646Y124409D02*Y101772D01*
X36220Y122834D02*Y96653D01*
X79331Y129134D02*X78543Y128346D01*
X135827Y163582D02*X139567Y167322D01*
X143701Y160433D02*X89568D01*
X139960Y162007D02*X87992D01*
X125394Y163582D02*X135827D01*
X123228Y151181D02*X122440Y151969D01*
X97835Y134842D02*X105512Y142519D01*
X88780Y159645D02*Y119685D01*
X90354Y118109D02*X89567Y117322D01*
X87205Y161220D02*Y121259D01*
X90354Y146456D02*Y118109D01*
X89568Y160433D02*X88780Y159645D01*
X87992Y162007D02*X87205Y161220D01*
X125393Y163582D02*X86417D01*
X85630Y162795D01*
X79331Y169094D02*Y129133D01*
X77756Y170669D02*Y130708D01*
X80906Y167519D02*Y127559D01*
X76968Y173031D02*X76181Y172244D01*
X80118Y169881D02*X79331Y169094D01*
X76181Y172244D02*Y132283D01*
X78543Y171456D02*X77756Y170669D01*
X84842Y165157D02*X84055Y164370D01*
X83268Y166732D02*X82480Y165944D01*
X81694Y168307D02*X80906Y167519D01*
X84055Y164370D02*Y124409D01*
X82480Y165944D02*Y125984D01*
X76181Y132283D02*X75393Y131495D01*
X69488Y150787D02*Y166732D01*
X62795Y173425D01*
G54D40*X52953Y168307D02*X46850D01*
X45669Y169488D01*
Y193503D01*
X47047Y194881D01*
X61811D01*
X62992Y193700D01*
Y183267D01*
G54D38*X120866Y150393D02*X99607D01*
X98819Y151181D02*Y157086D01*
X106102Y151968D02*X105315Y152755D01*
X133071Y165157D02*X84842D01*
X129921Y171456D02*X78543D01*
X130709Y169881D02*X80118D01*
X129134Y173031D02*X76968D01*
X132283Y166732D02*X83268D01*
X131496Y168307D02*X81694D01*
X92717Y148818D02*X119291D01*
X105315Y152755D02*Y156299D01*
X111417Y147244D02*X91142D01*
X99607Y150393D02*X98819Y151181D01*
X85630Y162795D02*Y122834D01*
X97835Y127165D02*Y134842D01*
X91142Y147244D02*X90354Y146456D01*
X91929Y157283D02*Y149606D01*
X92717Y148818D01*
X120079Y148031D02*Y110432D01*
X121654Y114566D02*Y149605D01*
X120078Y110433D02*X120865Y109646D01*
X120866Y109645D02*X127559D01*
Y113779D02*X122441D01*
X122440D02*X121653Y114566D01*
X127559Y117913D02*X124016D01*
X123229Y118700D01*
X122441Y151968D02*X106102D01*
X112205Y146456D02*X111417Y147244D01*
X112205Y141535D02*Y146456D01*
X120079Y148031D02*X119292Y148818D01*
X121654Y149606D02*X120866Y150394D01*
X143701Y141535D02*X132677D01*
X135827Y138385D02*X146063D01*
G54D42*X79968Y184476D02*X90748D01*
X91924Y183300D01*
Y175852D01*
X98588Y176048D02*Y208780D01*
X97412Y209956D01*
X79772D01*
X105252Y176048D02*Y214072D01*
X104076Y215248D01*
X79772D01*
X68404Y223088D02*X113484D01*
X114660Y221912D01*
Y200940D01*
X115836Y199764D01*
G54D38*X141339Y196850D02*X142126Y197637D01*
G54D42*X115836Y199764D02*X124656D01*
G54D38*X136221Y175393D02*X130709Y169881D01*
X135433Y176968D02*X129921Y171456D01*
X136221Y180118D02*X129134Y173031D01*
X137795Y172244D02*X132283Y166732D01*
X137007Y173818D02*X131496Y168307D01*
X138583Y170669D02*X133071Y165157D01*
X143504Y180118D02*X136221D01*
X160433Y195276D02*X161220Y196063D01*
X141339Y194881D02*Y196850D01*
G54D43*X279763Y55236D03*
X433700Y86732D03*
X339684Y7835D03*
G54D37*G36*
X130162Y9405D02*Y2405D01*
X137162D01*
Y9405D01*
X130162D01*
G37*
G36*
X260280Y221216D02*Y214216D01*
X267280D01*
Y221216D01*
X260280D01*
G37*
G54D44*X263780Y207716D03*
Y197716D03*
X287425Y223229D03*
X263780Y187716D03*
Y177716D03*
Y167716D03*
G54D37*G36*
X234992Y136661D02*Y130661D01*
X240992D01*
Y136661D01*
X234992D01*
G37*
G54D45*X237992Y143661D03*
X284686Y146065D03*
G54D43*X368346Y134763D03*
G54D37*G36*
X327601Y197201D02*Y190201D01*
X334601D01*
Y197201D01*
X327601D01*
G37*
G54D44*X351101Y193701D03*
G54D37*G36*
X315004Y170627D02*Y163627D01*
X322004D01*
Y170627D01*
X315004D01*
G37*
G54D44*X318504Y147127D03*
X297425Y223229D03*
G54D37*G36*
X291686Y149065D02*Y143065D01*
X297686D01*
Y149065D01*
X291686D01*
G37*
G54D44*X307425Y223229D03*
X330425D03*
X340425D03*
X350425D03*
X373425D03*
X383425D03*
X393425D03*
G54D46*X426574Y217806D03*
G54D47*X394385Y184946D03*
X374385D03*
G54D46*X426574Y158642D03*
Y178042D03*
G54D47*X394385Y204946D03*
X374385D03*
G54D46*X426574Y198406D03*
G54D37*G36*
X144516Y224185D02*Y215185D01*
X153516D01*
Y224185D01*
X144516D01*
G37*
G54D47*X139016Y209685D03*
Y229685D03*
X159016Y209685D03*
Y229685D03*
G54D37*G36*
X216185Y216492D02*Y209492D01*
X223185D01*
Y216492D01*
X216185D01*
G37*
G54D44*X209685Y212992D03*
X199685D03*
G54D37*G36*
X216185Y230665D02*Y223665D01*
X223185D01*
Y230665D01*
X216185D01*
G37*
G54D44*X209685Y227165D03*
X199685D03*
G54D37*G36*
X22681Y29287D02*Y22287D01*
X29681D01*
Y29287D01*
X22681D01*
G37*
G54D44*X16181Y25787D03*
X26181Y35787D03*
X16181D03*
X26181Y45787D03*
X16181D03*
X26181Y55787D03*
X16181D03*
X26181Y65787D03*
X16181D03*
X85570Y5874D03*
X75531D03*
X65492D03*
X5452D03*
X15492D03*
G54D37*G36*
X121303Y35783D02*Y28783D01*
X128303D01*
Y35783D01*
X121303D01*
G37*
G54D44*X124803Y52283D03*
X123662Y5905D03*
X113662D03*
X103662D03*
X26181Y75787D03*
Y85787D03*
Y95787D03*
X16181Y75787D03*
Y85787D03*
Y95787D03*
Y105787D03*
Y115787D03*
X26181Y105787D03*
Y115787D03*
G54D37*G36*
X56647Y114219D02*Y108219D01*
X62647D01*
Y114219D01*
X56647D01*
G37*
G54D45*X49647Y111219D03*
G54D43*X39952Y140384D03*
G54D45*X105315Y142322D03*
X95315D03*
G54D43*X39952Y201384D03*
G54D48*X27952Y193384D03*
Y148384D03*
G54D44*X62952Y153384D03*
Y183384D03*
Y173384D03*
Y163384D03*
X52952Y178384D03*
Y168384D03*
Y188384D03*
Y158384D03*
G54D49*X143112Y156495D03*
X165157Y164173D03*
X143112Y146653D03*
G54D50*X158268Y145078D03*
X153740D03*
X146850Y159448D03*
X157480Y181496D03*
X155315Y185039D03*
X153346Y188779D03*
X147441Y187204D03*
X149409Y190944D03*
G54D49*X168898Y222244D03*
G54D50*X141536Y163385D03*
X139567Y167322D03*
X143504Y180118D03*
X145472Y183661D03*
X141339Y194881D03*
G54D49*X172049Y117716D03*
X166732Y191929D03*
G54D50*X168701Y181496D03*
X173819Y206496D03*
X168898D03*
X172835Y169684D03*
G54D49*X190945Y117716D03*
G54D50*X186220Y142322D03*
X183858Y117716D03*
G54D49*X197835Y179527D03*
G54D50*X193898Y174212D03*
X188189Y157480D03*
X182087Y160629D03*
X191535Y157480D03*
G54D49*X115356Y145669D03*
Y157480D03*
G54D50*X112205Y140748D03*
X105315Y157283D03*
X98622Y175983D03*
X105315Y175984D03*
X91929Y157283D03*
X98819D03*
X69488Y150787D03*
G54D49*X72638Y169094D03*
G54D50*X68307Y223031D03*
X91929Y175984D03*
X79973Y184412D03*
G54D49*X79904Y179385D03*
G54D50*X79973Y215184D03*
G54D49*X124788Y230541D03*
Y220153D03*
X119692Y225445D03*
G54D50*X79973Y209892D03*
G54D49*X79904Y204865D03*
X86372Y199769D03*
X26971Y208643D03*
X124788Y204865D03*
G54D50*X124755Y199707D03*
G54D49*X119692Y212509D03*
Y191929D03*
X86372Y194673D03*
Y189577D03*
X329726Y133858D03*
X329530Y121063D03*
X328742Y109645D03*
G54D50*X318701Y121850D03*
X314764Y134645D03*
G54D49*X329726Y139566D03*
G54D50*X245472Y108070D03*
G54D49*Y113582D03*
G54D50*X246850Y118503D03*
X243701Y148818D03*
X238780Y108070D03*
X228740D03*
X221654Y96456D03*
G54D49*X220079Y52165D03*
Y41535D03*
G54D50*X229331Y126377D03*
X210039Y41141D03*
X201968Y70668D03*
X218307Y20472D03*
X218485Y144097D03*
X229330Y16731D03*
X236614D03*
X243898Y16732D03*
X275984Y225590D03*
Y230511D03*
G54D49*X275576Y214268D03*
G54D50*X271457Y151771D03*
X275197Y163779D03*
Y160433D03*
X279134Y155905D03*
X275576Y184868D03*
G54D51*X293020Y180556D03*
G54D49*X299213Y190157D03*
X221065Y138779D03*
G54D50*X212402Y142913D03*
X223622Y148229D03*
X230315Y148228D03*
X235433Y148818D03*
X219291Y127952D03*
X208071Y142913D03*
G54D49*X211417Y164173D03*
G54D50*X221654Y168700D03*
X224803Y173228D03*
X231890Y187992D03*
Y175590D03*
Y179724D03*
G54D49*Y183858D03*
X241535Y227559D03*
G54D50*X252953Y200393D03*
Y204527D03*
X245276Y215748D03*
G54D49*X229921Y225590D03*
G54D50*X322835Y121850D03*
G54D49*X438452Y113524D03*
G54D50*X318898Y134645D03*
G54D49*X436100Y141552D03*
X371224Y168404D03*
G54D50*X400315Y173122D03*
X406783Y145290D03*
G54D52*X379921Y157677D03*
Y153543D03*
Y149212D03*
Y144881D03*
G54D50*X301181Y105118D03*
X297047D03*
X292913D03*
X288780D03*
X289567Y121653D03*
X285236D03*
G54D49*X272441Y11417D03*
G54D50*X271457Y146063D03*
Y139370D03*
Y132677D03*
G54D49*X272638Y31889D03*
X94685Y22440D03*
G54D50*X85630Y16338D03*
G54D49*X100986Y92124D03*
X101772Y43110D03*
X103151Y70471D03*
G54D50*X92717Y49409D03*
X114961Y41141D03*
X100592Y74408D03*
G54D49*X47050Y71849D03*
G54D50*X176378Y57283D03*
X172244Y54330D03*
X183268Y60433D03*
X80316Y86612D03*
X80119Y76376D03*
G54D49*X78348Y83069D03*
G54D53*X72638Y68306D03*
G54D50*X156102Y19488D03*
X173425Y41141D03*
G54D49*X166144Y89960D03*
G54D50*X161024Y104527D03*
X158071Y101574D03*
G54D49*X143112Y128936D03*
X115356Y127952D03*
G54D50*X126772Y117913D03*
X142717Y118307D03*
X97835Y127165D03*
G54D49*X137008Y90157D03*
G54D50*X128150Y95078D03*
Y89173D03*
X121851Y100196D03*
X126772Y113779D03*
Y109645D03*
X142520Y122637D03*
X146850Y117519D03*
X151181D03*
X162795Y118110D03*
X158858Y115944D03*
G54D49*X78349Y90156D03*
G54D50*X111024Y83464D03*
X96654Y87991D03*
X128740Y82874D03*
G54D49*X91733Y96653D03*
X50594Y101376D03*
G54D50*X155118Y98622D03*
X152165Y95669D03*
G54D49*X164764Y19488D03*
G54D50*X160433Y26574D03*
X169094D03*
X186417D03*
X182087Y19488D03*
G54D54*G54D55*G54D54*G54D55*G54D54*G54D55*G54D54*G54D55*G54D54*G54D55*G54D54*G54D55*G54D54*G54D55*G54D54*G54D55*G54D54*G54D55*G54D54*G54D55*G54D54*G54D55*G54D54*G54D55*G54D54*G54D55*G54D54*G54D55*G54D54*G54D55*G54D56*G54D54*G54D55*G54D54*G54D55*G54D54*G54D55*G54D54*G54D55*G54D54*G54D55*G54D54*G54D55*G54D57*G54D55*G54D54*G54D55*G54D54*G54D55*G54D54*G54D55*G54D54*G54D55*G54D54*G54D52*G54D55*G54D54*G54D55*G54D54*G54D55*G54D54*G54D55*G54D54*G54D55*G54D54*G54D55*G54D54*G54D55*G54D58*G54D52*G54D59*G54D58*G54D52*G54D59*G54D52*G54D60*G54D52*G54D59*G54D58*G54D59*G54D58*G54D61*G54D52*M02*
