G04 start of page 2 for group 0 idx 0 *
G04 Title: (unknown), component *
G04 Creator: pcb 4.0.2 *
G04 CreationDate: Wed Oct 16 23:20:42 2019 UTC *
G04 For: walter *
G04 Format: Gerber/RS-274X *
G04 PCB-Dimensions (mil): 4429.13 2362.20 *
G04 PCB-Coordinate-Origin: lower left *
%MOIN*%
%FSLAX25Y25*%
%LNTOP*%
%ADD36C,0.1280*%
%ADD35C,0.0490*%
%ADD34C,0.0300*%
%ADD33C,0.0787*%
%ADD32C,0.0200*%
%ADD31C,0.1181*%
%ADD30C,0.0158*%
%ADD29C,0.0160*%
%ADD28C,0.0800*%
%ADD27C,0.0400*%
%ADD26C,0.1260*%
%ADD25C,0.0320*%
%ADD24C,0.0320*%
%ADD23C,0.1320*%
%ADD22C,0.0900*%
%ADD21C,0.1100*%
%ADD20C,0.0700*%
%ADD19C,0.1200*%
%ADD18C,0.0080*%
%ADD17C,0.0079*%
%ADD16C,0.0150*%
%ADD15C,0.0100*%
%ADD14C,0.0600*%
%ADD13C,0.0394*%
%ADD12C,0.0591*%
%ADD11C,0.0001*%
G54D11*G36*
X81144Y234456D02*X123480D01*
Y201726D01*
X123347Y201644D01*
X123062Y201400D01*
X122818Y201115D01*
X122621Y200794D01*
X122477Y200447D01*
X122390Y200082D01*
X122360Y199707D01*
X122390Y199332D01*
X122477Y198967D01*
X122621Y198620D01*
X122818Y198299D01*
X123062Y198014D01*
X123347Y197770D01*
X123480Y197688D01*
Y184178D01*
X86720D01*
X86632Y184185D01*
X86279Y184157D01*
X85935Y184074D01*
X85607Y183939D01*
X85305Y183754D01*
X85305Y183754D01*
X85036Y183524D01*
X84979Y183457D01*
X82947Y181425D01*
X82880Y181368D01*
X82650Y181099D01*
X82465Y180797D01*
X82330Y180469D01*
X82247Y180125D01*
X82247Y180125D01*
X82219Y179772D01*
X82226Y179684D01*
Y178008D01*
X81144D01*
Y182329D01*
X81381Y182475D01*
X81666Y182719D01*
X81910Y183004D01*
X82107Y183325D01*
X82251Y183672D01*
X82338Y184037D01*
X82360Y184412D01*
X82338Y184787D01*
X82251Y185152D01*
X82107Y185499D01*
X81910Y185820D01*
X81666Y186105D01*
X81381Y186349D01*
X81144Y186495D01*
Y207809D01*
X81381Y207955D01*
X81666Y208199D01*
X81910Y208484D01*
X82107Y208805D01*
X82251Y209152D01*
X82338Y209517D01*
X82360Y209892D01*
X82338Y210267D01*
X82251Y210632D01*
X82107Y210979D01*
X81910Y211300D01*
X81666Y211585D01*
X81381Y211829D01*
X81144Y211975D01*
Y213101D01*
X81381Y213247D01*
X81666Y213491D01*
X81910Y213776D01*
X82107Y214097D01*
X82251Y214444D01*
X82338Y214809D01*
X82360Y215184D01*
X82338Y215559D01*
X82251Y215924D01*
X82107Y216271D01*
X81910Y216592D01*
X81666Y216877D01*
X81381Y217121D01*
X81144Y217267D01*
Y234456D01*
G37*
G36*
X124068D02*Y201997D01*
X124015Y201985D01*
X123668Y201841D01*
X123477Y201724D01*
X122108D01*
Y234456D01*
X124068D01*
G37*
G54D12*X393503Y228150D02*Y223623D01*
X374409Y205119D02*X374410D01*
X383858Y214567D01*
X423227D01*
X393503Y223426D02*Y228150D01*
X407677Y198229D02*X394291Y184843D01*
X426771Y198229D02*X407677D01*
X423227Y214567D02*X426574Y217914D01*
X393503Y228150D02*X396653Y231300D01*
X430511D01*
G54D13*X366535Y216338D02*Y192913D01*
X374409Y185039D01*
G54D12*X430511Y231300D02*X437795Y224016D01*
Y161221D01*
X435039Y158465D01*
X426771D01*
G54D14*X426496Y158408D02*X422184D01*
X414932Y151156D01*
G54D15*X424928Y144688D02*X418264Y151352D01*
X419244Y150372D02*Y151940D01*
Y150372D02*X417480D01*
G54D16*X381416Y168404D02*X387884D01*
G54D14*X414932Y151156D02*X398272D01*
G54D16*X414932Y141748D02*Y148020D01*
X416500Y149588D01*
X414932Y148020D02*X414148Y148804D01*
G54D15*X422968Y137240D02*X383572D01*
X378280Y142532D01*
X327755Y125001D02*X331692D01*
G54D12*X334843Y138976D02*X332087D01*
G54D17*X315945Y133464D02*X314764Y134645D01*
X315945Y131299D02*Y133464D01*
X317913Y131496D02*Y133660D01*
X318898Y134645D01*
X249213Y100393D02*X250000Y99606D01*
X232087D02*X232874Y100393D01*
X219685Y116338D02*X217126D01*
X286417Y125393D02*Y122834D01*
X285236Y121653D01*
X276968Y100787D02*Y117716D01*
X278543Y124409D02*Y102362D01*
X279331Y101574D01*
X288386Y122834D02*X289567Y121653D01*
X304134Y102362D02*Y112204D01*
X308071D02*Y100788D01*
X307283Y100000D01*
X302165Y112007D02*Y105314D01*
X300197Y108464D02*Y112204D01*
X303346Y101574D02*X304134Y102362D01*
X293307Y108267D02*X290748D01*
X297047Y105118D02*Y105314D01*
X300197Y108464D01*
X298228Y110433D02*X292913Y105118D01*
X296260Y111221D02*X293307Y108267D01*
X290748D02*X288780Y106299D01*
X288386Y125393D02*Y122834D01*
X249803Y127755D02*X258071Y119487D01*
X248228Y122637D02*X258268Y112597D01*
X232874Y100393D02*X249213D01*
X307283Y100000D02*X277755D01*
X276968Y100787D01*
X279331Y101574D02*X303346D01*
X269882Y109842D02*Y108267D01*
X270472Y107677D01*
Y106299D01*
X241929Y162401D02*Y170472D01*
X218506Y138778D02*X223624D01*
X237992Y133661D02*X227559D01*
X237992Y143700D02*X229527D01*
X251378Y132873D02*X257874Y126377D01*
Y154724D02*X256102Y156496D01*
X263780Y149212D02*X261811Y147244D01*
X263780Y149212D02*Y156299D01*
X262598Y157480D01*
X258858D01*
X257677Y158661D01*
X218540Y146648D02*Y144100D01*
G54D16*X275984Y163779D02*Y160433D01*
G54D15*X329724Y110630D02*X328740Y109646D01*
X325787Y111024D02*X327165Y109646D01*
X330118D01*
X327755Y110434D02*X328543Y109646D01*
X330118D02*Y109647D01*
X331692Y111221D01*
Y112008D01*
X325787D02*Y111024D01*
X327755Y112008D02*Y110434D01*
X329724Y112008D02*Y110630D01*
X328543Y124804D02*Y118701D01*
X327755Y125001D02*Y118504D01*
X331692Y125001D02*Y118504D01*
X330905Y124804D02*Y118701D01*
X330118Y124804D02*Y118701D01*
X329330Y125001D02*Y118701D01*
X331692Y118504D02*X325787D01*
Y120473D01*
X327362Y122048D01*
X326574Y118898D02*Y120276D01*
X327165Y120867D01*
Y118898D02*Y120079D01*
G54D12*X336220Y123623D02*Y119882D01*
G54D17*X333661Y125196D02*Y118307D01*
G54D12*X336220Y119882D02*X339566D01*
G54D17*X294685Y141338D02*Y144291D01*
X295472Y140551D02*X294685Y141338D01*
X324606Y140551D02*X295472D01*
X319882Y123031D02*X318701Y121850D01*
X323031Y138189D02*X279331D01*
X279134Y155905D02*X338189D01*
X323819Y131299D02*Y137401D01*
X321850Y122835D02*X322835Y121850D01*
X321850Y125196D02*Y122835D01*
X323819Y137401D02*X323031Y138189D01*
X325394Y132874D02*Y139763D01*
X324606Y140551D01*
X325787Y132481D02*X325394Y132874D01*
X325787Y131299D02*Y132481D01*
X327756Y131299D02*Y132283D01*
X331693Y131299D02*Y132480D01*
X327756Y131299D02*X331693D01*
X319882Y125196D02*Y123031D01*
G54D12*X329724Y134055D02*Y146063D01*
X328740Y147047D01*
X318307D01*
G54D13*X358876Y19248D02*Y215311D01*
G54D12*X343307Y123623D02*X336220D01*
G54D13*X345276Y137795D02*Y124212D01*
X340157Y119094D01*
X345276Y137598D02*Y128149D01*
X342126Y125000D01*
X345352Y150764D02*Y139200D01*
G54D17*X335630Y112007D02*Y97637D01*
X334843Y96850D01*
X298228Y112007D02*Y110433D01*
X296260Y112007D02*Y111221D01*
X263977Y114764D02*X265749Y112992D01*
X270669Y94291D02*X268504Y92126D01*
Y27165D01*
X270669Y25000D01*
X270866Y45078D02*Y73228D01*
X334843Y96850D02*X278937D01*
X277756Y95669D01*
Y88385D01*
X274409Y85039D01*
G54D16*X277953Y233858D02*X279331Y232480D01*
Y216928D01*
X283661Y212598D01*
G54D17*X255314Y212401D02*X256102Y213189D01*
X241929Y212401D02*X255314D01*
X241732Y210826D02*X256889D01*
X257677Y211614D01*
X275984Y230511D02*X256889D01*
X256102Y229724D01*
X275984Y225590D02*X258464D01*
X256102Y229724D02*Y223425D01*
Y213189D02*Y223424D01*
X257677Y211614D02*Y221849D01*
X258464Y225590D02*X257677Y224803D01*
Y221850D01*
X252953Y138779D02*X257874Y133858D01*
X270079Y125196D02*X277755D01*
X264764Y128937D02*X263976Y128149D01*
X264764Y128937D02*X277756D01*
X263976Y128149D02*Y114763D01*
X277756Y125196D02*X278544Y124408D01*
X277756Y128937D02*X278543Y129724D01*
Y137401D01*
X276968Y117716D02*X276181Y118503D01*
X269882D01*
X254528Y196456D02*Y143897D01*
X252953Y194881D02*Y138779D01*
X254528Y196456D02*X253740Y197244D01*
X254528Y143897D02*X257677Y140748D01*
X279331Y138189D02*X278543Y137401D01*
G54D15*X275576Y197020D02*Y201724D01*
G54D17*X226772Y205118D02*X228150Y206496D01*
X225393Y206692D02*X226181Y207480D01*
Y212007D01*
X227756Y213582D01*
X234055Y218700D02*X236024Y220669D01*
X234055Y218700D02*Y211613D01*
X232087Y209645D01*
X241732Y210826D02*X239961Y209055D01*
X241929Y212401D02*X240157Y214173D01*
G54D13*X373425Y223228D02*X366535Y216338D01*
Y230118D02*X373425Y223228D01*
X309843Y230118D02*X366535D01*
X330512Y223228D02*Y229921D01*
Y223228D02*Y226574D01*
X327165Y229921D01*
X330315Y223228D02*Y226377D01*
X333858Y229921D01*
X358876Y215248D02*X351002Y223122D01*
X331102Y193700D02*Y222637D01*
X330315Y223425D01*
X307480D02*Y227755D01*
X309843Y230118D01*
X298031Y211614D02*Y222637D01*
X298228Y200393D02*X301181D01*
X303740Y197834D01*
X298031Y207283D02*Y200984D01*
Y222637D02*X297047Y223622D01*
G54D15*X292126Y218503D02*X287402Y223228D01*
X292126Y218503D02*Y204527D01*
X289764Y202165D01*
X287992Y199015D02*Y194685D01*
G54D13*X303740Y197834D02*Y169685D01*
X306299Y167126D01*
X318504D01*
X293701Y162007D02*X298819D01*
X304921Y168110D01*
X343392Y168796D02*X320264D01*
X318500Y167032D01*
X351624Y168796D02*X343196D01*
G54D16*X342412Y153508D02*X348292D01*
X342412Y151156D02*X348292D01*
X343588Y152332D02*X347116D01*
G54D13*X350448Y147628D02*X351428D01*
X353584Y149784D01*
Y166836D01*
X351624Y168796D01*
G54D15*X340648Y148804D02*X338884D01*
X338296Y149392D01*
Y159976D01*
X339080Y160760D01*
X341824D01*
G54D17*X338189Y156692D02*X337402Y155905D01*
X338189Y155118D02*X337402Y155905D01*
X169094Y97440D02*X158267D01*
X149016Y88189D01*
X170081Y106690D02*X171458Y105313D01*
X168112Y107479D02*Y106298D01*
X169884Y104526D01*
Y98227D01*
X169096Y97439D01*
X170081Y107282D02*Y106690D01*
X144884Y81888D02*X144293Y81297D01*
X133268Y65551D02*Y104330D01*
X144884Y84447D02*Y81888D01*
X160238Y84447D02*Y81888D01*
X160829Y81297D01*
X155118Y102952D02*X156299Y104133D01*
X152165Y102558D02*X154331Y104724D01*
Y107480D01*
X152165Y95669D02*Y102558D01*
X156299Y104133D02*Y107480D01*
X155118Y98622D02*Y102952D01*
X131693Y63976D02*Y102755D01*
X130905Y103543D02*X131693Y102755D01*
X114371Y73620D02*Y70667D01*
X108072Y74408D02*X113583D01*
X114371Y73620D01*
X109056Y88187D02*X114371Y93502D01*
X108269Y88187D02*X109056D01*
X107088Y96062D02*Y99605D01*
X108269Y94093D02*X111419D01*
X112206Y94880D01*
X108269Y78345D02*X114371D01*
X114568Y99999D02*X113387D01*
X121851Y100196D02*X120670Y99015D01*
Y82874D01*
X119882Y82086D01*
X171458Y105313D02*Y82872D01*
X193899Y105511D02*X191931Y107479D01*
X232087Y98031D02*Y99606D01*
X250000D02*Y59251D01*
X238780Y90748D02*Y94685D01*
X245472Y94488D02*Y81889D01*
X244685Y81102D01*
X234055D01*
X223425Y94290D02*X220276Y91141D01*
X234055Y81102D02*X231496Y83661D01*
X223425Y94291D02*Y94290D01*
X171458Y82872D02*X170081Y81495D01*
X176378Y61613D02*X177165Y62400D01*
X175591Y64173D02*X175590D01*
X180315Y105511D02*Y59251D01*
X182087Y24606D02*Y57480D01*
X180315Y59251D01*
X173622Y60039D02*X176378Y57283D01*
X192521Y90747D02*X195081D01*
X192915Y96652D02*X195474D01*
X200591Y98425D02*Y88977D01*
Y88976D02*X199606Y87991D01*
X199607D02*X198033D01*
X189962Y88188D02*X192521Y90747D01*
X202953Y74803D02*X197835D01*
X203740Y109842D02*Y75590D01*
X202953Y74803D01*
X197638Y81496D02*X201378D01*
X202165Y82283D01*
Y108268D01*
X205512Y67126D02*X201969Y70669D01*
X250000Y59251D02*X241339Y50590D01*
X243898Y30511D02*X210827D01*
X210039Y31299D01*
Y41141D01*
X218307Y20472D02*X206299D01*
X205512Y21259D01*
Y67126D01*
X189962Y88187D02*Y88188D01*
X189764Y78346D02*Y78345D01*
X191732Y76377D01*
X174017Y107479D02*X174016Y65748D01*
X175592Y106298D02*X175591Y64173D01*
X177166Y105314D02*X177165Y62401D01*
X175590Y64173D02*X174606Y63189D01*
X173032Y64763D02*X174015Y65747D01*
X181890Y61811D02*Y107480D01*
X183465Y104134D02*Y68110D01*
X183268Y60433D02*X181890Y61811D01*
X195079Y66338D02*X191732Y69685D01*
Y76377D01*
X193504Y65551D02*X187795Y71259D01*
X190157Y61417D02*X183465Y68110D01*
X132480Y63189D02*X174606D01*
X173031Y64763D02*X134056D01*
X176378Y61614D02*X122044Y61615D01*
X105906Y64763D02*X119883D01*
X123819D02*X119882D01*
X134055Y64764D02*X133267Y65552D01*
X131693Y63976D02*X132480Y63189D01*
X128740Y63976D02*X127953Y63189D01*
X109055Y61614D02*X122047D01*
X110630Y60039D02*X173622D01*
X112205Y58464D02*X168110D01*
G54D16*X114961Y30709D02*X110236Y25984D01*
G54D17*X104133Y5905D02*X112598Y14370D01*
X103740Y5905D02*X104133D01*
X106299Y16338D02*X119094Y29133D01*
G54D16*X114961Y41141D02*Y30709D01*
G54D17*X110630Y31496D02*X111417Y32283D01*
Y43897D01*
X108268Y60826D02*Y35433D01*
X109843Y45472D02*Y59251D01*
X110630Y60039D01*
X111417Y43897D02*Y57677D01*
X112205Y58464D01*
X173425Y41141D02*Y24409D01*
X168110Y58464D02*X172244Y54330D01*
X152362Y9645D02*X194291D01*
X195079Y10433D01*
Y66338D01*
X193504Y12007D02*Y65551D01*
X190157Y16535D02*Y61417D01*
X153150Y12007D02*X153937Y11220D01*
X192717D01*
X193504Y12007D01*
X177756Y21259D02*Y16535D01*
X178543Y15748D01*
X189370D01*
X190157Y16535D01*
X150787Y37992D02*X119882D01*
X152362Y39566D02*X118307D01*
X114961Y41141D02*X173425D01*
X151575Y21456D02*Y37205D01*
X150788Y37992D01*
X153150Y23031D02*Y38779D01*
Y38780D02*X152363Y39567D01*
X151575Y21653D02*Y10433D01*
X152362Y9645D01*
X153150Y23228D02*Y12007D01*
G54D13*X124803Y32283D02*Y19094D01*
X126181Y17716D01*
X132283D01*
X133661Y16338D01*
Y7874D01*
X135827Y5708D02*X325787D01*
X328543Y8464D01*
Y13976D01*
X331890Y17322D01*
X356916Y17288D01*
X358885Y19257D01*
G54D16*X170669Y153543D02*X176181D01*
X170472Y152362D02*X177362D01*
X173031Y155905D02*X174016D01*
X171850Y154724D02*X175000D01*
X191339Y138779D02*X189764Y140354D01*
X168701Y153346D02*X162008D01*
X167913Y154133D02*X162795D01*
X167126Y154921D02*X163583D01*
X166339Y155708D02*X164370D01*
X162008Y153346D02*Y159055D01*
X162795Y154133D02*Y158267D01*
X163583Y154921D02*Y157480D01*
X164370Y155708D02*Y156692D01*
X162008Y159055D02*X167913D01*
X162795Y158267D02*X167126D01*
X163583Y157480D02*X166339D01*
X164370Y156692D02*X165551D01*
X167913Y159055D02*Y154133D01*
X167126Y158267D02*Y154921D01*
X166339Y157480D02*Y155708D01*
G54D17*X172047Y196456D02*Y178149D01*
X177953Y193307D02*Y177952D01*
X174016Y194881D02*Y178149D01*
X181890Y177952D02*Y190157D01*
X179921Y191732D02*Y177952D01*
X181890Y190158D02*X182677Y190945D01*
X180709Y192520D02*X179921Y191732D01*
X172834Y197244D02*X172047Y196457D01*
X178741Y194095D02*X177953Y193307D01*
X174803Y195669D02*X174016Y194882D01*
X168898Y195669D02*X172047Y198818D01*
X168111Y197244D02*X171260Y200393D01*
X169685Y203543D02*X166535Y200393D01*
X170473Y201968D02*X167323Y198818D01*
X189765Y172637D02*X189764Y138779D01*
G54D16*X179921Y151574D02*X179725D01*
X179134Y152165D01*
X177362Y152362D02*Y163385D01*
X176181Y153543D02*Y162204D01*
G54D17*X175984Y172637D02*Y169095D01*
X176772Y168307D01*
G54D16*X174016Y155905D02*Y160236D01*
X177362Y163385D02*X170669D01*
X173031Y161023D02*Y155905D01*
X175000Y161023D02*X173031D01*
X171850Y162204D02*Y154724D01*
G54D17*X168898Y166732D02*X181299D01*
G54D16*X168701Y159055D02*Y153346D01*
G54D17*X162206Y172637D02*Y169881D01*
X161222Y168897D01*
X162207Y177951D02*Y181692D01*
X166142Y177952D02*Y178937D01*
X168701Y181496D01*
X189764Y177755D02*Y179133D01*
X188189Y180708D01*
X193898Y174212D02*X191733D01*
X182087Y165944D02*Y160629D01*
X176772Y168307D02*X184448D01*
X185236Y167519D01*
X168110Y172637D02*Y167520D01*
G54D16*X150984Y139960D02*X161811D01*
X151181Y138779D02*X162598D01*
X152953Y138189D02*Y136811D01*
X154331Y138582D02*Y133661D01*
X160433Y136417D02*X159055D01*
Y133070D01*
X155709Y138385D02*Y131102D01*
X156890Y138189D02*Y131299D01*
X157874Y137598D02*Y132283D01*
X156890Y131299D02*X161417D01*
X157874Y132283D02*X160433D01*
X161417Y131299D02*Y137598D01*
X160433Y132283D02*Y136417D01*
X160039Y141141D02*X161220D01*
X161811Y141732D01*
X161417Y137598D02*X157874D01*
G54D17*X252165Y195669D02*X174803D01*
X182677Y190945D02*X247441Y190944D01*
X249016Y192519D02*X180709Y192520D01*
X250591Y194094D02*X178741Y194095D01*
X247638Y200393D02*X251772Y204527D01*
X251378Y207677D02*X245669Y201968D01*
X250197Y198818D02*X251772Y200393D01*
X249803Y191731D02*X249015Y192519D01*
X252953Y194881D02*X252165Y195669D01*
X251378Y193306D02*X250590Y194094D01*
X172834Y197244D02*X253740D01*
X179331Y206496D02*X173819D01*
X179331D02*X180709Y205118D01*
X226772D01*
X185827Y207479D02*X186614Y206692D01*
X225393D01*
X249803Y191731D02*Y127755D01*
X248228Y122637D02*X248229Y190157D01*
X247441Y190945D01*
X251378Y193306D02*Y132874D01*
X256102Y156496D02*Y206890D01*
X257677Y158661D02*Y208464D01*
G54D16*X166929Y233858D02*X277953D01*
G54D17*X240945Y188582D02*X232480D01*
G54D16*X231890D02*X240551D01*
G54D17*X172047Y198818D02*X250197D01*
X171260Y200393D02*X247638D01*
X245669Y201968D02*X170473D01*
X244882Y203543D02*X169685D01*
X217717Y188385D02*X210039D01*
X217913Y186023D02*X214763D01*
X217717Y178346D02*X215748D01*
G54D16*X250984Y233858D02*X249409Y232283D01*
Y232284D01*
Y233858D02*Y223621D01*
X247047Y221259D01*
G54D17*X185827Y219291D02*X184252Y220866D01*
X185827Y219291D02*Y207479D01*
X229527Y143700D02*X226575Y140748D01*
X229331Y126180D02*Y124015D01*
X227559Y133661D02*X226378Y132480D01*
X219291Y127952D02*X209449D01*
X223622Y130708D02*X210039D01*
X238780Y162401D02*Y171654D01*
X232087Y162401D02*Y167520D01*
X240157Y175590D01*
X240748D01*
X225591Y163583D02*X240157Y178149D01*
X238780Y171654D02*X240157Y173031D01*
X240945D01*
X225591Y162598D02*Y163583D01*
X224803Y173228D02*X222638D01*
X238386Y180905D02*X233071Y175590D01*
X223819Y148425D02*Y150787D01*
X230315Y148228D02*Y150590D01*
X212660Y152528D02*X218540Y146648D01*
X203346Y150590D02*X204724D01*
X212402Y142913D01*
X240157Y178149D02*X240945D01*
Y186023D02*X235236D01*
X233071Y183858D01*
X240945Y183464D02*X236811D01*
X233071Y179724D01*
X240945Y180905D02*X238386D01*
X232480Y188582D02*X231890Y187992D01*
X256102Y206890D02*X255315Y207677D01*
X251378D01*
X257677Y208464D02*X256890Y209251D01*
X250590D01*
X244882Y203543D01*
G54D16*X244291Y233858D02*Y233857D01*
X249409Y232284D02*X247835Y233858D01*
X161417Y124606D02*Y127165D01*
G54D17*X209449Y127952D02*X204528Y132874D01*
X140947Y158464D02*X141931Y159448D01*
X123622Y171850D02*X122835Y171063D01*
X132876Y158463D02*X128938D01*
X139369Y164370D02*X140354Y163385D01*
X138189Y164370D02*X139369D01*
X110236Y170275D02*Y175589D01*
X111024Y176377D01*
X133465D01*
X112599Y174803D02*X111811Y174015D01*
X112598Y174803D02*X135039D01*
X136614Y171850D02*X123622D01*
X134252Y194291D02*Y177165D01*
X140551Y170866D02*Y187401D01*
X137402Y172638D02*X136614Y171850D01*
X138976Y166535D02*Y188189D01*
X135827Y175590D02*Y193503D01*
G54D16*X130536Y181928D02*X132300Y183692D01*
G54D17*X158268Y172637D02*Y164567D01*
X160236Y177952D02*Y179331D01*
X158465Y181102D01*
X168111Y197244D02*X148031D01*
G54D16*X163976Y203149D02*X133464D01*
X132283Y201968D01*
G54D17*X166535Y200393D02*X140354D01*
X167323Y198818D02*X141142D01*
X137402Y190944D02*X141339Y194881D01*
X140551Y187401D02*X148819Y195669D01*
X148031Y197244D02*X138976Y188189D01*
X135827Y193503D02*X141142Y198818D01*
X140354Y200393D02*X134252Y194291D01*
G54D16*X132300Y183692D02*X132283Y201968D01*
G54D17*X148819Y195669D02*X168898D01*
X133464Y176377D02*X134251Y177164D01*
X137402Y172638D02*Y190944D01*
X135040Y174803D02*X135827Y175590D01*
X142717Y168700D02*X140551Y170866D01*
X146457Y177755D02*Y183267D01*
X144488Y177559D02*Y179724D01*
X152362Y177952D02*Y188779D01*
X150394Y177952D02*Y190748D01*
X154331Y177755D02*Y185039D01*
X148425Y177755D02*Y186614D01*
G54D16*X165551Y204724D02*Y232480D01*
X163976Y203149D02*X165551Y204724D01*
G54D17*X168898Y206496D02*Y210629D01*
X169685Y211416D01*
G54D16*X165551Y232480D02*X166929Y233858D01*
G54D17*X172835Y222244D02*X169291D01*
X172047Y226968D02*Y216929D01*
X184055Y226968D02*Y223622D01*
X178150Y219095D02*X179921Y220866D01*
X169685Y211417D02*X177363D01*
X178150Y212204D01*
Y219095D01*
X180118Y213582D02*Y207283D01*
X179331Y206496D01*
G54D16*X218307Y227165D02*Y212992D01*
X221063Y227165D02*Y212992D01*
X219685Y227165D02*Y212795D01*
X148960Y220344D02*X134260D01*
X133280Y221520D02*X143472D01*
X145236Y223284D01*
X133280Y219168D02*X147000D01*
X134260Y220344D02*X129164Y225440D01*
X134456Y220344D02*X129360Y215248D01*
X132888Y221520D02*Y218972D01*
X132496Y218188D02*X143276D01*
X145432Y216032D01*
X144452Y221912D02*Y218384D01*
X144648Y218188D01*
G54D17*X211220Y182480D02*X204527D01*
X202756Y184251D01*
X214763Y186023D02*X211220Y182480D01*
X209843Y180314D02*X212401D01*
X215551Y183464D01*
X217717D01*
X217913Y180708D02*X215748D01*
X212008Y176968D01*
X215748Y178346D02*X213583Y176181D01*
X217717Y175787D02*X216141D01*
X215354Y175000D01*
Y164763D01*
X212008Y176968D02*Y175394D01*
X211220Y174606D01*
X206890D01*
X205118Y172834D01*
X213583Y176181D02*Y173228D01*
X213189Y172834D01*
X203448Y152528D02*X212660D01*
X203150Y148622D02*X203740D01*
X208071Y144291D01*
Y142913D01*
X203150Y156496D02*X206693D01*
X203346Y160433D02*X212402D01*
X214567Y158267D01*
X204528Y132874D02*X203346D01*
X210039Y130708D02*X203937Y136811D01*
X203346D01*
X228740Y108070D02*X228741D01*
X230315Y106496D01*
X245472Y113582D02*X243504D01*
X230315Y106496D02*X227165D01*
X228543Y107874D01*
X238780Y108070D02*Y106102D01*
X245472Y108070D02*Y106299D01*
X221654Y96456D02*X223622D01*
X231495Y118503D02*X229724Y116732D01*
X246850Y118503D02*X231495D01*
X223622Y120866D02*X239764D01*
X223425Y116338D02*X226575D01*
X237008D02*X239764D01*
X168110Y167520D02*X168898Y166732D01*
G54D16*X170669Y163385D02*Y153543D01*
X169488Y163778D02*X170276Y164566D01*
G54D17*X171063Y169685D02*X172835D01*
G54D16*X170276Y164566D02*X177756D01*
G54D17*X165551Y163976D02*X164173Y165354D01*
X185236Y167519D02*Y143306D01*
G54D16*X189764Y170472D02*Y138779D01*
Y140354D02*X188189Y138779D01*
X191929Y134842D02*Y168110D01*
X190945Y168700D02*Y139960D01*
G54D17*X181299Y166732D02*X182087Y165944D01*
G54D16*X191929Y168110D02*X189764Y170275D01*
X177756Y164566D02*X178543Y163779D01*
X176181Y162204D02*X171850D01*
X175000Y154724D02*Y161023D01*
X178543Y163779D02*Y153937D01*
G54D17*X198425Y138779D02*X163189D01*
X203348Y138778D02*X207285D01*
X185236Y143306D02*X186220Y142322D01*
X187797Y107479D02*Y96455D01*
X191734Y104723D02*Y97833D01*
X192915Y96652D01*
X199607Y99409D02*X200591Y98425D01*
X175985Y107479D02*Y106691D01*
X175592Y106298D01*
X177954Y107479D02*X177953Y106102D01*
Y106101D02*X177166Y105314D01*
X179921Y107480D02*Y105905D01*
X183465Y104134D02*X185827Y106496D01*
Y107480D01*
X189766Y107479D02*Y106691D01*
X191734Y104723D01*
X193899Y103345D02*Y105511D01*
X194291Y109843D02*X195079Y109055D01*
X198033Y99408D02*X199607Y99409D01*
X198031Y128937D02*X196654D01*
X195866Y128149D01*
Y111417D01*
X196654Y110629D01*
X210236Y117913D02*X212992Y120669D01*
X210236Y116535D02*Y117913D01*
X198425Y118897D02*Y116535D01*
G54D16*X190748Y121259D02*X191929Y122440D01*
G54D17*X194291Y130118D02*Y109843D01*
X202165Y108268D02*X201378Y109055D01*
X195079D01*
X196654Y110629D02*X202953D01*
X203740Y109842D01*
X198228Y130905D02*X195078D01*
G54D16*X189567Y136417D02*X163583D01*
X188386Y135236D02*X164764D01*
X187205Y134055D02*X165945D01*
X186024Y132874D02*X167126D01*
X184843Y131889D02*X168307D01*
G54D17*X195078Y130905D02*X194291Y130118D01*
G54D16*X191929Y122440D02*Y135039D01*
X195669Y138779D01*
X192323Y136614D02*Y136811D01*
X193504Y137992D01*
X190748Y122440D02*Y137598D01*
X189567Y123622D02*Y136417D01*
X188386Y124803D02*Y135236D01*
X187205Y125984D02*Y134055D01*
X186024Y127165D02*Y132874D01*
X184843Y128346D02*Y131889D01*
X183661Y129527D02*Y130708D01*
X195669Y138779D02*X163386D01*
G54D17*X183858Y112599D02*Y117520D01*
G54D16*X167913Y121259D02*X190748D01*
X164370Y122440D02*X190748D01*
X162402Y137598D02*Y123622D01*
X163583Y136417D02*Y124803D01*
X164764Y135236D02*Y125984D01*
X165945Y134055D02*Y127165D01*
X167126Y132874D02*Y128346D01*
X168307Y131889D02*Y129527D01*
X165945Y127165D02*X186024D01*
X167126Y128346D02*X184843D01*
X168307Y129527D02*X183661D01*
Y130708D02*X169291D01*
X190748Y137598D02*X162402D01*
X181299Y151181D02*X182480Y150000D01*
Y140748D02*X184449Y138779D01*
X182480Y150000D02*Y138779D01*
X181299Y139763D02*Y150000D01*
X161220Y152755D02*X161221D01*
X162795Y151181D01*
X161220D02*X163189D01*
X168898Y150787D02*Y151575D01*
X162402Y150984D02*Y139763D01*
X181299Y150000D02*X163583D01*
Y140944D01*
X162402Y139763D02*X181299D01*
X163583Y140944D02*X180118D01*
Y148818D02*X164764D01*
Y142126D01*
X178937D01*
X161220Y148818D02*X162598Y147440D01*
X180118Y140944D02*Y148818D01*
X178937Y142126D02*Y147637D01*
X165945D01*
Y143307D02*X177756D01*
Y146456D01*
X165945Y147637D02*Y143307D01*
X177756Y146456D02*X167126D01*
Y144488D01*
X176575D01*
Y145472D01*
X168110D01*
X162795Y151181D02*X181299D01*
X168898Y151575D02*X169488Y152165D01*
X178543Y153937D02*X182480Y150000D01*
X167717Y151181D02*X169488Y152952D01*
X161220Y152755D02*Y148818D01*
X178543Y154724D02*Y151377D01*
X169488Y152165D02*Y163778D01*
G54D17*X170079Y172834D02*Y170669D01*
X171063Y169685D01*
G54D16*X163189Y160236D02*X167520D01*
X169488Y162204D01*
X161220Y152559D02*Y167519D01*
Y162204D02*X163189Y160236D01*
X161614Y159842D02*X168898D01*
G54D17*X161220Y168897D02*Y151181D01*
G54D16*X162008Y152559D02*X168701D01*
G54D17*X140946Y126968D02*X141931Y125983D01*
X138191Y126968D02*X140946D01*
X132876Y126967D02*X128742D01*
X138191Y128936D02*X143112D01*
X111220Y128937D02*X111221D01*
X115355Y118504D02*X116142Y119291D01*
X105708Y120865D02*X128937D01*
X122637Y119291D02*X123425Y118503D01*
X116142Y119291D02*X122637D01*
X115355Y110039D02*Y118504D01*
X114567Y111810D02*X114568D01*
X114567D02*X115355Y112598D01*
X114568Y111810D02*X115355Y111023D01*
X114567Y110039D02*X114566D01*
Y110040D01*
X131103Y123031D02*X132874D01*
X128150Y122440D02*X130709Y124999D01*
X128937Y120865D02*X131103Y123031D01*
X130709Y124999D02*X132874D01*
X131890Y121063D02*X132874D01*
X124409Y105118D02*X132480D01*
X123425Y106102D02*X124409Y105118D01*
X123425Y118503D02*Y106102D01*
X121260Y104330D02*X122047Y103543D01*
X121260Y113582D02*Y104330D01*
X122047Y103543D02*X130905D01*
X127559Y113779D02*X132874Y119094D01*
X128740Y117913D02*X131890Y121063D01*
X127559Y109645D02*X144488D01*
X127559Y117913D02*X128740D01*
X132480Y105118D02*X133268Y104330D01*
X138189Y121063D02*X141340D01*
X142717Y122440D01*
X137992Y119094D02*X141930D01*
X142717Y118307D01*
X141931Y125983D02*X161222D01*
G54D16*X159646Y125984D02*Y125983D01*
X161220Y124409D01*
Y127559D02*Y127558D01*
X159646Y125984D01*
X161220D02*X144291D01*
X147047Y124606D02*X160827D01*
X147638Y126968D02*X160039D01*
X147638Y127952D02*X162598Y128149D01*
X146654Y127756D02*X144882Y125984D01*
X146654Y128149D02*Y126377D01*
X145079Y125984D02*X146654Y124409D01*
G54D17*X166144Y107282D02*Y103738D01*
X179921Y105905D02*X180315Y105511D01*
X161024Y104527D02*X161023D01*
X160236Y107480D02*Y105315D01*
X161024Y104527D01*
X158071Y101574D02*Y105905D01*
X158268Y107480D02*Y106102D01*
X158071Y105905D01*
X146457Y112598D02*Y117519D01*
G54D16*X166142Y119488D02*X161024Y124606D01*
X159842Y121259D02*X160827Y122244D01*
X163189D01*
X166142Y119488D02*X167913Y121259D01*
X164567D02*X167717D01*
X166142D02*Y120472D01*
G54D17*X148425Y114763D02*X151181Y117519D01*
X148425Y112795D02*Y114763D01*
X164173Y112795D02*Y115551D01*
X162795Y116929D01*
X162205Y112598D02*Y113778D01*
X160039Y115944D01*
G54D16*X146654Y124409D02*Y122046D01*
X147441Y121259D01*
X159842D01*
X147244Y123228D02*X161220D01*
X147244Y122244D02*X160433D01*
G54D17*X191732Y112795D02*Y116732D01*
X172049Y112794D02*Y117716D01*
X166143Y115550D02*Y112991D01*
G54D16*X166142Y115551D02*Y119488D01*
X162402Y123622D02*X189567D01*
X163583Y124803D02*X188386D01*
X164764Y125984D02*X187205D01*
G54D17*X138191Y146653D02*X143112D01*
X140947Y144684D02*X141931Y143700D01*
X138191Y144684D02*X140947D01*
X138191Y158464D02*X140947D01*
X138191Y156495D02*X143112D01*
X138189Y166535D02*X137992Y166338D01*
X132876Y144684D02*X128938D01*
X129331Y136220D02*X131890Y138779D01*
X130906Y142716D02*X132874D01*
X128938Y140748D02*X130906Y142716D01*
X140354Y154527D02*X138189D01*
X141535Y153346D02*X140354Y154527D01*
X131299Y140748D02*X133071D01*
X131890Y138779D02*X133071D01*
X114173Y131889D02*X122835D01*
X111221Y128937D02*X114173Y131889D01*
X111024Y152559D02*X111811Y153346D01*
X133071Y150590D02*X106102D01*
X133071Y152559D02*X123622D01*
X122835Y153346D01*
Y171063D01*
X110236Y170275D02*Y154921D01*
X109448Y154133D02*X110236Y154921D01*
X111811Y174015D02*Y153346D01*
X122835Y131889D02*X124803Y129921D01*
X112205Y140748D02*X128938D01*
X128346Y137795D02*X131299Y140748D01*
X146063Y153346D02*X141535D01*
G54D16*X150000Y143700D02*Y162401D01*
G54D17*X146850Y159448D02*Y154133D01*
X146063Y153346D01*
X141929Y143700D02*X145079D01*
G54D16*X148425D01*
G54D17*X142717Y163385D02*Y168700D01*
X145866Y163385D02*X147441D01*
X141929Y159448D02*X145866Y163385D01*
X156299Y147637D02*X153740Y145078D01*
X156299Y172637D02*Y147637D01*
X158268Y164566D02*Y145078D01*
G54D16*X150000Y162401D02*X149016Y163385D01*
X145866D01*
X145079Y162598D01*
G54D18*X164175Y172637D02*X164173Y165354D01*
G54D16*X148426Y143700D02*X150000Y145274D01*
X145276Y143700D02*Y143701D01*
X145079Y143700D02*X145080D01*
X146654Y142126D01*
Y141732D02*Y143307D01*
Y142126D02*Y127756D01*
X147638Y142322D02*Y127952D01*
X148622Y143503D02*Y129133D01*
X149606Y143110D02*Y130314D01*
X150787Y141732D02*Y131496D01*
X150000Y143700D02*Y143110D01*
X148622Y129133D02*X162598Y129330D01*
X149606Y130314D02*X162008D01*
X150787Y131496D02*X155512D01*
X151969Y137598D01*
X151968Y137795D02*Y132677D01*
X154331D01*
X153150Y136614D01*
Y133661D01*
G54D17*X145079Y143700D02*X166142Y122637D01*
G54D16*X151772Y141338D02*X160039D01*
X162795Y144094D01*
X150000Y143110D02*X151772Y141338D01*
G54D17*X47245Y178346D02*X46457Y177558D01*
X62992Y173425D02*Y171455D01*
X52953Y178346D02*X47245D01*
X20078Y173228D02*X19291Y174015D01*
X43307Y172441D02*X42520Y173228D01*
X20078D01*
X44882Y187597D02*Y152165D01*
X43307Y150787D02*Y156693D01*
Y156692D02*Y172441D01*
X44882Y187597D02*X45670Y188385D01*
X50788D01*
X62993Y183464D02*X62796Y183661D01*
G54D16*X62916Y183300D02*X64092D01*
G54D17*X46457Y153345D02*X60433Y139369D01*
X44882Y152165D02*X59449Y137598D01*
X43307Y150787D02*X55315Y138779D01*
X59449Y135826D02*X60236Y135039D01*
X46457Y177558D02*Y153345D01*
X39370Y128937D02*X15354D01*
X40945Y130511D02*X16929D01*
X42520Y132086D02*X18504D01*
X17323D02*X18504D01*
X12598Y130511D02*X16929D01*
G54D12*X48031Y135433D02*X43110Y140354D01*
G54D17*X16142Y210236D02*Y133267D01*
X11417Y210629D02*Y131692D01*
X12598Y130511D01*
X6693Y210433D02*Y130118D01*
X7874Y128937D01*
X15354D01*
X16142Y133267D02*X17323Y132086D01*
X19291Y174015D02*Y207086D01*
X55315Y221850D02*X28346D01*
X20079Y207855D02*X19292Y207068D01*
X21850Y207856D02*X20078D01*
X22638Y208644D02*X21850Y207856D01*
X22638Y217698D02*Y208643D01*
X21850Y218486D02*X22638Y217698D01*
X20079Y218486D02*X21850D01*
X6693D02*X16142D01*
X89764Y107283D02*X87796Y109251D01*
G54D16*X80709Y118700D02*X76575Y114566D01*
G54D17*X77953Y131298D02*X76181Y133070D01*
X77953Y124803D02*Y131298D01*
Y124802D02*X77166Y124015D01*
G54D16*X80709Y125787D02*Y118700D01*
G54D17*X77166Y124015D02*X71850D01*
X71063Y123228D01*
X67127Y88187D02*X71261D01*
X69489Y94881D02*X70276Y94094D01*
X67915Y90944D02*X68703Y90156D01*
X58663Y99801D02*Y109250D01*
X54724Y125984D02*Y94684D01*
X52756Y92716D01*
X66339Y123228D02*X66340Y88975D01*
X59449Y124803D02*X60237Y124015D01*
X57283Y132874D02*X57284Y130117D01*
X55315Y138779D02*Y135629D01*
X60236Y135038D02*X59449Y134251D01*
X60236Y135039D02*Y135038D01*
X60237Y124015D02*X65552D01*
X72048Y127952D02*X69489D01*
X65158D02*X67914D01*
X67126D02*X67127D01*
X67914Y127165D01*
X70276Y127952D02*X69489Y127165D01*
X65552Y124015D02*X66339Y123228D01*
X60433Y139369D02*X67127D01*
X67914Y138582D02*X67915Y90944D01*
X69488Y150787D02*X69489Y94881D01*
X67127Y139369D02*X67914Y138582D01*
X67127Y127952D02*X67914Y128739D01*
X74016Y136417D02*Y152361D01*
G54D16*X80709Y125196D02*Y162008D01*
Y162007D02*Y164764D01*
X83071Y167126D01*
G54D17*X88780Y153346D02*Y137007D01*
X89567Y136220D01*
X70276Y127952D02*X69489Y128739D01*
X59449Y137598D02*Y124803D01*
Y135039D02*X61221D01*
G54D16*X83858Y94094D02*X82283Y95669D01*
G54D17*X74016Y152361D02*X62992Y163385D01*
X89567Y154133D02*X88780Y153346D01*
G54D16*X64092Y183300D02*X72520Y174872D01*
X82908D01*
X84476Y173304D01*
Y170364D01*
Y179772D01*
X82908Y174872D02*X84476Y176440D01*
Y179772D02*X86632Y181928D01*
G54D17*X109646Y116535D02*X103938Y116534D01*
X98623Y111219D01*
X105708Y120865D02*X100197Y115354D01*
X105315Y111810D02*X104528Y111023D01*
X115355Y111810D02*X105315D01*
X96260Y122440D02*X128150D01*
X96260D02*X95276Y121456D01*
X89567Y136220D02*X129331D01*
X128346Y137795D02*X91141D01*
X90354Y138582D01*
X86024Y117126D02*Y116142D01*
X86023Y116141D02*X86810Y115354D01*
X86811D02*X100197D01*
X104529Y99409D02*X104528Y111023D01*
X102757Y97637D02*X104529Y99409D01*
X90749Y99999D02*Y97637D01*
X104528Y96063D02*X100001D01*
X113387Y99999D02*X112600Y99212D01*
Y95275D01*
X98623Y111219D02*Y103542D01*
X107088Y103149D02*Y106495D01*
X93898Y107282D02*X94686Y106494D01*
X96655Y103738D02*Y106887D01*
X94489Y109053D01*
X94686Y103738D02*Y106494D01*
X89765Y107282D02*X93898D01*
X104332Y94093D02*X102954D01*
X112600Y95275D02*X112206Y94881D01*
X102954Y94093D02*X100985Y92124D01*
X109843Y82283D02*X111024Y83464D01*
X113584Y82085D02*X111812Y80313D01*
X108269D01*
X119882Y82086D02*X113583D01*
X107481Y63189D02*X127953D01*
X128740Y83464D02*Y63976D01*
X124606Y76574D02*Y65550D01*
X123819Y64763D01*
X107874Y82283D02*X109843D01*
X108071Y86220D02*X109449D01*
X110236Y87007D01*
X114764D01*
X93111Y93700D02*X97048Y97637D01*
X88781Y95274D02*X90355Y93700D01*
X93111D01*
X88781Y99802D02*Y95274D01*
X90749Y97637D02*X91733Y96653D01*
G54D16*X91732Y88189D02*X92126D01*
X99409Y95472D01*
X92717Y86614D02*X91142Y88189D01*
G54D17*X97048Y97637D02*X102757D01*
X100001Y96063D02*X99016Y95078D01*
G54D16*X91733Y74015D02*X92717Y73031D01*
G54D17*X106102Y150590D02*X105315Y149803D01*
Y144291D01*
X98622Y174803D02*Y170275D01*
X105315Y174803D02*Y170275D01*
X91929Y174802D02*Y170275D01*
G54D16*X86632Y181928D02*X130536D01*
X127792Y183692D02*Y179772D01*
G54D17*X90354Y138582D02*Y151771D01*
X91142Y152559D01*
X111024D01*
X109448Y154133D02*X89567D01*
G54D16*X87402Y88189D02*Y79527D01*
X88780Y87992D02*Y79921D01*
X84843Y90354D02*Y81496D01*
X85039Y80314D02*X86024Y81299D01*
Y89173D01*
X83661Y78346D02*X92126D01*
X84252Y76968D02*X91929D01*
X84449Y75590D02*X91929D01*
X84449Y74803D02*X92126D01*
G54D17*X75198Y84250D02*X77167D01*
X78348Y83069D01*
X75198Y86219D02*X78545D01*
G54D16*X84843Y81496D02*X83661Y80314D01*
G54D17*X75394Y59842D02*X80906Y65354D01*
X77166Y57676D02*Y51968D01*
X76378Y51180D01*
X75394D01*
X78937Y70275D02*X75000D01*
X71261Y76376D02*X63781D01*
X79922D02*X75198D01*
X65354Y82283D02*X62992Y84645D01*
X71457Y82283D02*X65354D01*
X71261Y80313D02*X63781D01*
X62992Y84645D02*Y90551D01*
X68702Y90156D02*X71064D01*
X71261Y86219D02*X65552D01*
X62205Y91338D02*X60433D01*
X62992Y90551D02*X62205Y91338D01*
X64764Y97047D02*Y87007D01*
X63977Y97834D02*X64764Y97047D01*
X60829Y97833D02*X63978D01*
G54D12*X49606Y111220D02*X48031Y112795D01*
Y135433D01*
G54D17*X52561Y76179D02*Y67518D01*
Y89368D02*Y83660D01*
X56498Y79723D01*
X63782Y76376D02*X60829Y73423D01*
X63584Y73620D02*Y66140D01*
X64372Y74408D02*X63584Y73620D01*
X63782Y80313D02*X60632Y83463D01*
X71261Y78345D02*X60828D01*
X75198D02*X77757D01*
X71261Y74408D02*X64371D01*
X66340Y88975D02*X67128Y88187D01*
X65553Y86219D02*X64766Y87006D01*
X63585Y66140D02*X62797Y65352D01*
X60632D01*
X63189Y57677D02*X44094D01*
X63189Y51181D02*X42519D01*
X41732Y51968D01*
X44094Y57677D02*X43307Y58464D01*
X26181Y45866D02*X37795D01*
X43307Y58464D02*Y131299D01*
X42520Y132086D01*
X41732Y51968D02*Y129724D01*
X40945Y130511D01*
X39369Y128937D02*X40157Y128149D01*
Y45473D01*
X75001Y92124D02*X76380D01*
X78348Y90156D01*
G54D16*X93504Y90354D02*X84843D01*
X87008Y88189D02*X76575Y98622D01*
X86024Y89173D02*X92323D01*
X86024Y96456D02*Y94094D01*
X88583Y91535D01*
X80315Y96259D02*X83858Y92716D01*
X86417D01*
X85039Y96653D02*Y93503D01*
G54D17*X70277Y94093D02*X71261D01*
X71064Y96061D02*X71063Y123228D01*
G54D16*X76575Y114566D02*Y98425D01*
X78150Y97244D02*X85236D01*
X86024Y96456D01*
X81693Y96259D02*X83858D01*
Y93700D01*
Y94094D01*
X91339Y87401D02*Y80511D01*
X90157Y87795D02*Y80314D01*
G54D17*X91930Y79526D02*X91931D01*
X91930D02*X92718Y78738D01*
X91931Y79526D02*X92718Y80313D01*
Y79527D02*Y88385D01*
X96654Y70472D02*Y87991D01*
X104332Y74408D02*X100985D01*
X92718Y70667D02*Y80116D01*
G54D16*X91142Y79527D02*X92717Y77952D01*
Y81102D02*X91142Y79527D01*
X92717Y88189D02*Y73031D01*
G54D17*X98623Y70471D02*X106300D01*
X109055Y61613D02*X108268Y60826D01*
X105119Y63976D02*X105906Y64763D01*
X107481Y63189D02*X106693Y62401D01*
X109055Y61614D02*Y61613D01*
X91929Y88385D02*X91930D01*
G54D16*X95472Y91535D02*X83661D01*
G54D17*X91930Y88385D02*X92717Y87598D01*
G54D16*X83661Y91535D02*Y81495D01*
G54D17*X82874Y66732D02*Y63384D01*
X77757Y78345D02*X78938Y79526D01*
X78545Y86219D02*X78938Y86612D01*
X80906Y65354D02*Y66732D01*
X92718Y79526D02*X78938D01*
G54D16*X92717Y79527D02*X81693D01*
X83661Y81495D02*X81693Y79527D01*
X81890D02*X83858Y77559D01*
X85827Y79527D02*X87402Y81102D01*
X92717Y88189D02*X87008D01*
X83858Y77559D02*Y74803D01*
X84646Y74015D01*
X91733D01*
G54D17*X21260Y40748D02*X16142Y45866D01*
X36220Y40748D02*X21260D01*
X37008Y39960D02*X36220Y40748D01*
G54D16*X26181Y25787D02*Y35826D01*
G54D17*X37795Y31496D02*X37008Y32283D01*
X38583Y33857D02*X39370Y33070D01*
X37008Y32283D02*Y39960D01*
X40945Y44685D02*X63189D01*
X40157Y45473D02*X40945Y44685D01*
X37795Y45866D02*X38583Y45078D01*
Y33858D01*
X109055Y33070D02*X39370D01*
X37795Y31496D02*X110630D01*
X119094Y37204D02*Y29133D01*
X117520Y38779D02*Y30118D01*
X119882Y37992D02*X119094Y37204D01*
X118307Y39566D02*X117520Y38779D01*
G54D13*X133661Y7874D02*X135827Y5708D01*
G54D16*X5512Y5905D02*Y13779D01*
X7087Y15354D01*
X24409D01*
X26181Y17126D01*
Y25590D01*
G54D17*X88583Y37007D02*X89370Y36220D01*
X105906D01*
X82874Y63384D02*X77166Y57676D01*
X84843Y62795D02*X78937Y56889D01*
Y45471D01*
X78150Y44684D01*
X75394D01*
X84843Y66732D02*Y62795D01*
X88583Y63189D02*X90748Y65354D01*
Y66732D01*
X87008Y64172D02*X88780Y65944D01*
Y66732D02*Y65945D01*
X87008Y35432D02*X87795Y34645D01*
X92717Y44488D02*Y41929D01*
X87008Y64173D02*Y35432D01*
X88583Y63189D02*Y37007D01*
X92718Y60431D02*Y46849D01*
X92717Y49408D02*X104331D01*
X105119Y50196D01*
X105906Y36220D02*X106693Y37007D01*
Y62401D02*Y37007D01*
X108268Y35433D02*X107480Y34645D01*
X109843Y45472D02*Y33858D01*
X105119Y50196D02*Y63976D01*
X96655Y66730D02*Y56494D01*
X99017Y54132D01*
X92718Y66730D02*Y62793D01*
X100592Y66730D02*Y62990D01*
X107480Y34645D02*X87795D01*
X109843Y33858D02*X109055Y33070D01*
X76379Y19488D02*X75591Y18700D01*
Y9055D01*
X85630Y16338D02*X106299D01*
X76379Y19488D02*X106890D01*
G54D16*X110236Y25984D02*X105118D01*
G54D17*X106890Y19488D02*X117520Y30118D01*
G54D19*X279763Y55236D03*
X433700Y86732D03*
X339684Y7835D03*
G54D11*G36*
X130162Y9405D02*Y2405D01*
X137162D01*
Y9405D01*
X130162D01*
G37*
G36*
X260280Y221216D02*Y214216D01*
X267280D01*
Y221216D01*
X260280D01*
G37*
G54D20*X263780Y207716D03*
Y197716D03*
X287425Y223229D03*
X263780Y187716D03*
Y177716D03*
Y167716D03*
G54D11*G36*
X234992Y136661D02*Y130661D01*
X240992D01*
Y136661D01*
X234992D01*
G37*
G54D14*X237992Y143661D03*
X284686Y146065D03*
G54D19*X368346Y134763D03*
G54D11*G36*
X327601Y197201D02*Y190201D01*
X334601D01*
Y197201D01*
X327601D01*
G37*
G54D20*X351101Y193701D03*
G54D11*G36*
X315004Y170627D02*Y163627D01*
X322004D01*
Y170627D01*
X315004D01*
G37*
G54D20*X318504Y147127D03*
X297425Y223229D03*
G54D11*G36*
X291686Y149065D02*Y143065D01*
X297686D01*
Y149065D01*
X291686D01*
G37*
G54D20*X307425Y223229D03*
X330425D03*
X340425D03*
X350425D03*
X373425D03*
X383425D03*
X393425D03*
G54D21*X426574Y217806D03*
G54D22*X394385Y184946D03*
X374385D03*
G54D21*X426574Y158642D03*
Y178042D03*
G54D22*X394385Y204946D03*
X374385D03*
G54D21*X426574Y198406D03*
G54D11*G36*
X144516Y224185D02*Y215185D01*
X153516D01*
Y224185D01*
X144516D01*
G37*
G54D22*X139016Y209685D03*
Y229685D03*
X159016Y209685D03*
Y229685D03*
G54D11*G36*
X216185Y216492D02*Y209492D01*
X223185D01*
Y216492D01*
X216185D01*
G37*
G54D20*X209685Y212992D03*
X199685D03*
G54D11*G36*
X216185Y230665D02*Y223665D01*
X223185D01*
Y230665D01*
X216185D01*
G37*
G54D20*X209685Y227165D03*
X199685D03*
G54D11*G36*
X22681Y29287D02*Y22287D01*
X29681D01*
Y29287D01*
X22681D01*
G37*
G54D20*X16181Y25787D03*
X26181Y35787D03*
X16181D03*
X26181Y45787D03*
X16181D03*
X26181Y55787D03*
X16181D03*
X26181Y65787D03*
X16181D03*
X85570Y5874D03*
X75531D03*
X65492D03*
X5452D03*
X15492D03*
G54D11*G36*
X121303Y35783D02*Y28783D01*
X128303D01*
Y35783D01*
X121303D01*
G37*
G54D20*X124803Y52283D03*
X123662Y5905D03*
X113662D03*
X103662D03*
X26181Y75787D03*
Y85787D03*
Y95787D03*
X16181Y75787D03*
Y85787D03*
Y95787D03*
Y105787D03*
Y115787D03*
X26181Y105787D03*
Y115787D03*
G54D11*G36*
X56647Y114219D02*Y108219D01*
X62647D01*
Y114219D01*
X56647D01*
G37*
G54D14*X49647Y111219D03*
G54D19*X39952Y140384D03*
G54D14*X105315Y142322D03*
X95315D03*
G54D19*X39952Y201384D03*
G54D23*X27952Y193384D03*
Y148384D03*
G54D20*X62952Y153384D03*
Y183384D03*
Y173384D03*
Y163384D03*
X52952Y178384D03*
Y168384D03*
Y188384D03*
Y158384D03*
G54D11*G36*
X52815Y137539D02*Y132539D01*
X57815D01*
Y137539D01*
X52815D01*
G37*
G36*
X60815D02*Y132539D01*
X65815D01*
Y137539D01*
X60815D01*
G37*
G36*
X52815Y130452D02*Y125452D01*
X57815D01*
Y130452D01*
X52815D01*
G37*
G36*
X60815D02*Y125452D01*
X65815D01*
Y130452D01*
X60815D01*
G37*
G36*
X54193Y225531D02*Y220531D01*
X59193D01*
Y225531D01*
X54193D01*
G37*
G36*
X62193D02*Y220531D01*
X67193D01*
Y225531D01*
X62193D01*
G37*
G36*
X71516Y130452D02*Y125452D01*
X76516D01*
Y130452D01*
X71516D01*
G37*
G36*
X79516D02*Y125452D01*
X84516D01*
Y130452D01*
X79516D01*
G37*
G36*
X71516Y137539D02*Y132539D01*
X76516D01*
Y137539D01*
X71516D01*
G37*
G36*
X79516D02*Y132539D01*
X84516D01*
Y137539D01*
X79516D01*
G37*
G36*
X73878Y171594D02*Y166594D01*
X78878D01*
Y171594D01*
X73878D01*
G37*
G36*
X74866Y196087D02*Y193331D01*
X78606D01*
Y196087D01*
X74866D01*
G37*
G36*
Y190970D02*Y188214D01*
X78606D01*
Y190970D01*
X74866D01*
G37*
G36*
Y185852D02*Y183096D01*
X78606D01*
Y185852D01*
X74866D01*
G37*
G36*
Y180733D02*Y177977D01*
X78606D01*
Y180733D01*
X74866D01*
G37*
G36*
X106949Y129665D02*Y124665D01*
X111949D01*
Y129665D01*
X106949D01*
G37*
G36*
X116202Y130451D02*Y125451D01*
X121202D01*
Y130451D01*
X116202D01*
G37*
G36*
X124202D02*Y125451D01*
X129202D01*
Y130451D01*
X124202D01*
G37*
G36*
X98949Y129665D02*Y124665D01*
X103949D01*
Y129665D01*
X98949D01*
G37*
G36*
X116202Y159979D02*Y154979D01*
X121202D01*
Y159979D01*
X116202D01*
G37*
G36*
X124202D02*Y154979D01*
X129202D01*
Y159979D01*
X124202D01*
G37*
G36*
X116202Y148168D02*Y143168D01*
X121202D01*
Y148168D01*
X116202D01*
G37*
G36*
X124202D02*Y143168D01*
X129202D01*
Y148168D01*
X124202D01*
G37*
G36*
X126047Y226796D02*Y224040D01*
X129787D01*
Y226796D01*
X126047D01*
G37*
G36*
Y221677D02*Y218921D01*
X129787D01*
Y221677D01*
X126047D01*
G37*
G36*
Y216560D02*Y213804D01*
X129787D01*
Y216560D01*
X126047D01*
G37*
G36*
Y211442D02*Y208686D01*
X129787D01*
Y211442D01*
X126047D01*
G37*
G36*
Y206324D02*Y203568D01*
X129787D01*
Y206324D01*
X126047D01*
G37*
G36*
Y201206D02*Y198450D01*
X129787D01*
Y201206D01*
X126047D01*
G37*
G36*
Y196087D02*Y193331D01*
X129787D01*
Y196087D01*
X126047D01*
G37*
G36*
Y190970D02*Y188214D01*
X129787D01*
Y190970D01*
X126047D01*
G37*
G36*
Y185852D02*Y183096D01*
X129787D01*
Y185852D01*
X126047D01*
G37*
G36*
Y231914D02*Y229158D01*
X129787D01*
Y231914D01*
X126047D01*
G37*
G36*
Y180733D02*Y177977D01*
X129787D01*
Y180733D01*
X126047D01*
G37*
G36*
X81878Y171594D02*Y166594D01*
X86878D01*
Y171594D01*
X81878D01*
G37*
G36*
X89429Y171397D02*Y166397D01*
X94429D01*
Y171397D01*
X89429D01*
G37*
G36*
X96122D02*Y166397D01*
X101122D01*
Y171397D01*
X96122D01*
G37*
G36*
X102815D02*Y166397D01*
X107815D01*
Y171397D01*
X102815D01*
G37*
G36*
X89429Y163397D02*Y158397D01*
X94429D01*
Y163397D01*
X89429D01*
G37*
G36*
X96122D02*Y158397D01*
X101122D01*
Y163397D01*
X96122D01*
G37*
G36*
X102815D02*Y158397D01*
X107815D01*
Y163397D01*
X102815D01*
G37*
G36*
X74866Y226796D02*Y224040D01*
X78606D01*
Y226796D01*
X74866D01*
G37*
G36*
Y221677D02*Y218921D01*
X78606D01*
Y221677D01*
X74866D01*
G37*
G36*
Y216560D02*Y213804D01*
X78606D01*
Y216560D01*
X74866D01*
G37*
G36*
Y211442D02*Y208686D01*
X78606D01*
Y211442D01*
X74866D01*
G37*
G36*
Y206324D02*Y203568D01*
X78606D01*
Y206324D01*
X74866D01*
G37*
G36*
Y201206D02*Y198450D01*
X78606D01*
Y201206D01*
X74866D01*
G37*
G36*
Y231914D02*Y229158D01*
X78606D01*
Y231914D01*
X74866D01*
G37*
G36*
X24469Y214686D02*Y209686D01*
X29469D01*
Y214686D01*
X24469D01*
G37*
G36*
Y222686D02*Y217686D01*
X29469D01*
Y222686D01*
X24469D01*
G37*
G36*
X8916Y214686D02*Y209686D01*
X13916D01*
Y214686D01*
X8916D01*
G37*
G36*
Y222686D02*Y217686D01*
X13916D01*
Y222686D01*
X8916D01*
G37*
G36*
X15412Y214686D02*Y209686D01*
X20412D01*
Y214686D01*
X15412D01*
G37*
G36*
Y222686D02*Y217686D01*
X20412D01*
Y222686D01*
X15412D01*
G37*
G36*
X2420Y214686D02*Y209686D01*
X7420D01*
Y214686D01*
X2420D01*
G37*
G36*
Y222686D02*Y217686D01*
X7420D01*
Y222686D01*
X2420D01*
G37*
G36*
X101142Y104013D02*X100040D01*
Y99513D01*
X101142D01*
Y104013D01*
G37*
G36*
X99174D02*X98072D01*
Y99513D01*
X99174D01*
Y104013D01*
G37*
G36*
X97205D02*X96103D01*
Y99513D01*
X97205D01*
Y104013D01*
G37*
G36*
X95237D02*X94135D01*
Y99513D01*
X95237D01*
Y104013D01*
G37*
G36*
X90612Y121789D02*Y116789D01*
X95612D01*
Y121789D01*
X90612D01*
G37*
G36*
Y113789D02*Y108789D01*
X95612D01*
Y113789D01*
X90612D01*
G37*
G36*
X83524Y121791D02*Y116791D01*
X88524D01*
Y121791D01*
X83524D01*
G37*
G36*
Y113791D02*Y108791D01*
X88524D01*
Y113791D01*
X83524D01*
G37*
G36*
X93268Y104013D02*X92166D01*
Y99513D01*
X93268D01*
Y104013D01*
G37*
G36*
X91300D02*X90198D01*
Y99513D01*
X91300D01*
Y104013D01*
G37*
G36*
X89331D02*X88229D01*
Y99513D01*
X89331D01*
Y104013D01*
G37*
G36*
X106162Y104074D02*Y99074D01*
X111162D01*
Y104074D01*
X106162D01*
G37*
G36*
X114162D02*Y99074D01*
X119162D01*
Y104074D01*
X114162D01*
G37*
G36*
X106163Y110570D02*Y105570D01*
X111163D01*
Y110570D01*
X106163D01*
G37*
G36*
X114163D02*Y105570D01*
X119163D01*
Y110570D01*
X114163D01*
G37*
G36*
X108721Y118050D02*Y113050D01*
X113721D01*
Y118050D01*
X108721D01*
G37*
G36*
X116721D02*Y113050D01*
X121721D01*
Y118050D01*
X116721D01*
G37*
G36*
X104044Y74959D02*Y73857D01*
X108544D01*
Y74959D01*
X104044D01*
G37*
G36*
Y76927D02*Y75825D01*
X108544D01*
Y76927D01*
X104044D01*
G37*
G36*
Y78896D02*Y77794D01*
X108544D01*
Y78896D01*
X104044D01*
G37*
G36*
Y80864D02*Y79762D01*
X108544D01*
Y80864D01*
X104044D01*
G37*
G36*
Y82833D02*Y81731D01*
X108544D01*
Y82833D01*
X104044D01*
G37*
G36*
Y84801D02*Y83699D01*
X108544D01*
Y84801D01*
X104044D01*
G37*
G36*
Y86770D02*Y85668D01*
X108544D01*
Y86770D01*
X104044D01*
G37*
G36*
Y88738D02*Y87636D01*
X108544D01*
Y88738D01*
X104044D01*
G37*
G36*
Y90707D02*Y89605D01*
X108544D01*
Y90707D01*
X104044D01*
G37*
G36*
Y92675D02*Y91573D01*
X108544D01*
Y92675D01*
X104044D01*
G37*
G36*
Y94644D02*Y93542D01*
X108544D01*
Y94644D01*
X104044D01*
G37*
G36*
Y96612D02*Y95510D01*
X108544D01*
Y96612D01*
X104044D01*
G37*
G36*
X114107Y97577D02*Y92577D01*
X119107D01*
Y97577D01*
X114107D01*
G37*
G36*
X114106Y90492D02*Y85492D01*
X119106D01*
Y90492D01*
X114106D01*
G37*
G36*
X105572Y71396D02*Y66396D01*
X110572D01*
Y71396D01*
X105572D01*
G37*
G36*
X90020Y42460D02*Y37460D01*
X95020D01*
Y42460D01*
X90020D01*
G37*
G36*
X82020D02*Y37460D01*
X87020D01*
Y42460D01*
X82020D01*
G37*
G36*
X100256Y28484D02*Y23484D01*
X105256D01*
Y28484D01*
X100256D01*
G37*
G36*
X92256D02*Y23484D01*
X97256D01*
Y28484D01*
X92256D01*
G37*
G36*
X113572Y71396D02*Y66396D01*
X118572D01*
Y71396D01*
X113572D01*
G37*
G36*
X114107Y80845D02*Y75845D01*
X119107D01*
Y80845D01*
X114107D01*
G37*
G36*
X120138Y18838D02*Y13838D01*
X125138D01*
Y18838D01*
X120138D01*
G37*
G36*
X112138D02*Y13838D01*
X117138D01*
Y18838D01*
X112138D01*
G37*
G36*
X87363Y104013D02*X86261D01*
Y99513D01*
X87363D01*
Y104013D01*
G37*
G36*
X85394D02*X84292D01*
Y99513D01*
X85394D01*
Y104013D01*
G37*
G36*
X83426D02*X82324D01*
Y99513D01*
X83426D01*
Y104013D01*
G37*
G36*
X81457D02*X80355D01*
Y99513D01*
X81457D01*
Y104013D01*
G37*
G36*
X79489D02*X78387D01*
Y99513D01*
X79489D01*
Y104013D01*
G37*
G36*
X70986Y96611D02*Y95509D01*
X75486D01*
Y96611D01*
X70986D01*
G37*
G36*
Y94643D02*Y93541D01*
X75486D01*
Y94643D01*
X70986D01*
G37*
G36*
X56163Y100334D02*Y95334D01*
X61163D01*
Y100334D01*
X56163D01*
G37*
G36*
X48163D02*Y95334D01*
X53163D01*
Y100334D01*
X48163D01*
G37*
G36*
X56163Y93838D02*Y88838D01*
X61163D01*
Y93838D01*
X56163D01*
G37*
G36*
X48163D02*Y88838D01*
X53163D01*
Y93838D01*
X48163D01*
G37*
G36*
X70986Y92674D02*Y91572D01*
X75486D01*
Y92674D01*
X70986D01*
G37*
G36*
Y90706D02*Y89604D01*
X75486D01*
Y90706D01*
X70986D01*
G37*
G36*
Y88737D02*Y87635D01*
X75486D01*
Y88737D01*
X70986D01*
G37*
G36*
Y86769D02*Y85667D01*
X75486D01*
Y86769D01*
X70986D01*
G37*
G36*
Y84800D02*Y83698D01*
X75486D01*
Y84800D01*
X70986D01*
G37*
G36*
Y82832D02*Y81730D01*
X75486D01*
Y82832D01*
X70986D01*
G37*
G36*
Y80863D02*Y79761D01*
X75486D01*
Y80863D01*
X70986D01*
G37*
G36*
Y78895D02*Y77793D01*
X75486D01*
Y78895D01*
X70986D01*
G37*
G36*
Y76926D02*Y75824D01*
X75486D01*
Y76926D01*
X70986D01*
G37*
G36*
Y74958D02*Y73856D01*
X75486D01*
Y74958D01*
X70986D01*
G37*
G36*
X79490Y70955D02*X78388D01*
Y66455D01*
X79490D01*
Y70955D01*
G37*
G36*
X81458D02*X80356D01*
Y66455D01*
X81458D01*
Y70955D01*
G37*
G36*
X83427D02*X82325D01*
Y66455D01*
X83427D01*
Y70955D01*
G37*
G36*
X70728Y60767D02*Y55767D01*
X75728D01*
Y60767D01*
X70728D01*
G37*
G36*
X70729Y53680D02*Y48680D01*
X75729D01*
Y53680D01*
X70729D01*
G37*
G36*
X70728Y46594D02*Y41594D01*
X75728D01*
Y46594D01*
X70728D01*
G37*
G36*
X85395Y70955D02*X84293D01*
Y66455D01*
X85395D01*
Y70955D01*
G37*
G36*
X87364D02*X86262D01*
Y66455D01*
X87364D01*
Y70955D01*
G37*
G36*
X89332D02*X88230D01*
Y66455D01*
X89332D01*
Y70955D01*
G37*
G36*
X91301D02*X90199D01*
Y66455D01*
X91301D01*
Y70955D01*
G37*
G36*
X93269D02*X92167D01*
Y66455D01*
X93269D01*
Y70955D01*
G37*
G36*
X90218Y62931D02*Y57931D01*
X95218D01*
Y62931D01*
X90218D01*
G37*
G36*
X95238Y70955D02*X94136D01*
Y66455D01*
X95238D01*
Y70955D01*
G37*
G36*
X97206D02*X96104D01*
Y66455D01*
X97206D01*
Y70955D01*
G37*
G36*
X99175D02*X98073D01*
Y66455D01*
X99175D01*
Y70955D01*
G37*
G36*
X101143D02*X100041D01*
Y66455D01*
X101143D01*
Y70955D01*
G37*
G36*
X98218Y62931D02*Y57931D01*
X103218D01*
Y62931D01*
X98218D01*
G37*
G36*
X89786Y54700D02*Y51200D01*
X94861D01*
Y54700D01*
X89786D01*
G37*
G36*
X98448D02*Y51200D01*
X103523D01*
Y54700D01*
X98448D01*
G37*
G36*
X89786Y47614D02*Y44114D01*
X94861D01*
Y47614D01*
X89786D01*
G37*
G36*
X98448D02*Y44114D01*
X103523D01*
Y47614D01*
X98448D01*
G37*
G36*
X56163Y87341D02*Y82341D01*
X61163D01*
Y87341D01*
X56163D01*
G37*
G36*
Y80845D02*Y75845D01*
X61163D01*
Y80845D01*
X56163D01*
G37*
G36*
Y74349D02*Y69349D01*
X61163D01*
Y74349D01*
X56163D01*
G37*
G36*
X48163Y87341D02*Y82341D01*
X53163D01*
Y87341D01*
X48163D01*
G37*
G36*
Y80845D02*Y75845D01*
X53163D01*
Y80845D01*
X48163D01*
G37*
G36*
Y74349D02*Y69349D01*
X53163D01*
Y74349D01*
X48163D01*
G37*
G36*
Y67853D02*Y62853D01*
X53163D01*
Y67853D01*
X48163D01*
G37*
G36*
X56163D02*Y62853D01*
X61163D01*
Y67853D01*
X56163D01*
G37*
G36*
X62728Y60767D02*Y55767D01*
X67728D01*
Y60767D01*
X62728D01*
G37*
G36*
X62729Y53680D02*Y48680D01*
X67729D01*
Y53680D01*
X62729D01*
G37*
G36*
X62728Y46594D02*Y41594D01*
X67728D01*
Y46594D01*
X62728D01*
G37*
G36*
X318542Y118818D02*X317362D01*
Y111733D01*
X318542D01*
Y118818D01*
G37*
G36*
X316574D02*X315394D01*
Y111733D01*
X316574D01*
Y118818D01*
G37*
G36*
X314605D02*X313425D01*
Y111733D01*
X314605D01*
Y118818D01*
G37*
G36*
X312637D02*X311457D01*
Y111733D01*
X312637D01*
Y118818D01*
G37*
G36*
X310668D02*X309488D01*
Y111733D01*
X310668D01*
Y118818D01*
G37*
G36*
X308700D02*X307520D01*
Y111733D01*
X308700D01*
Y118818D01*
G37*
G36*
X306731D02*X305551D01*
Y111733D01*
X306731D01*
Y118818D01*
G37*
G36*
X304763D02*X303583D01*
Y111733D01*
X304763D01*
Y118818D01*
G37*
G36*
X302794D02*X301614D01*
Y111733D01*
X302794D01*
Y118818D01*
G37*
G36*
X300826D02*X299646D01*
Y111733D01*
X300826D01*
Y118818D01*
G37*
G36*
X298857D02*X297677D01*
Y111733D01*
X298857D01*
Y118818D01*
G37*
G36*
X316574Y131810D02*X315394D01*
Y124725D01*
X316574D01*
Y131810D01*
G37*
G36*
X314605D02*X313425D01*
Y124725D01*
X314605D01*
Y131810D01*
G37*
G36*
X312637D02*X311457D01*
Y124725D01*
X312637D01*
Y131810D01*
G37*
G36*
X310668D02*X309488D01*
Y124725D01*
X310668D01*
Y131810D01*
G37*
G36*
X308700D02*X307520D01*
Y124725D01*
X308700D01*
Y131810D01*
G37*
G36*
X306731D02*X305551D01*
Y124725D01*
X306731D01*
Y131810D01*
G37*
G36*
X304763D02*X303583D01*
Y124725D01*
X304763D01*
Y131810D01*
G37*
G36*
X302794D02*X301614D01*
Y124725D01*
X302794D01*
Y131810D01*
G37*
G36*
X300826D02*X299646D01*
Y124725D01*
X300826D01*
Y131810D01*
G37*
G36*
X298857D02*X297677D01*
Y124725D01*
X298857D01*
Y131810D01*
G37*
G36*
X296889D02*X295709D01*
Y124725D01*
X296889D01*
Y131810D01*
G37*
G36*
X294920D02*X293740D01*
Y124725D01*
X294920D01*
Y131810D01*
G37*
G36*
X292952D02*X291772D01*
Y124725D01*
X292952D01*
Y131810D01*
G37*
G36*
X290983D02*X289803D01*
Y124725D01*
X290983D01*
Y131810D01*
G37*
G36*
X289015D02*X287835D01*
Y124725D01*
X289015D01*
Y131810D01*
G37*
G36*
X287046D02*X285866D01*
Y124725D01*
X287046D01*
Y131810D01*
G37*
G36*
X285078D02*X283898D01*
Y124725D01*
X285078D01*
Y131810D01*
G37*
G36*
X283109D02*X281929D01*
Y124725D01*
X283109D01*
Y131810D01*
G37*
G36*
X296889Y118818D02*X295709D01*
Y111733D01*
X296889D01*
Y118818D01*
G37*
G36*
X294920D02*X293740D01*
Y111733D01*
X294920D01*
Y118818D01*
G37*
G36*
X292952D02*X291772D01*
Y111733D01*
X292952D01*
Y118818D01*
G37*
G36*
X290983D02*X289803D01*
Y111733D01*
X290983D01*
Y118818D01*
G37*
G36*
X289015D02*X287835D01*
Y111733D01*
X289015D01*
Y118818D01*
G37*
G36*
X287046D02*X285866D01*
Y111733D01*
X287046D01*
Y118818D01*
G37*
G36*
X285078D02*X283898D01*
Y111733D01*
X285078D01*
Y118818D01*
G37*
G36*
X283109D02*X281929D01*
Y111733D01*
X283109D01*
Y118818D01*
G37*
G36*
X265343Y114311D02*Y109311D01*
X270343D01*
Y114311D01*
X265343D01*
G37*
G36*
X269941Y106633D02*Y101633D01*
X274941D01*
Y106633D01*
X269941D01*
G37*
G36*
Y98633D02*Y93633D01*
X274941D01*
Y98633D01*
X269941D01*
G37*
G36*
X265343Y121003D02*Y116003D01*
X270343D01*
Y121003D01*
X265343D01*
G37*
G36*
Y127696D02*Y122696D01*
X270343D01*
Y127696D01*
X265343D01*
G37*
G36*
X241750Y50976D02*X237750D01*
Y42646D01*
X241750D01*
Y50976D01*
G37*
G36*
X222065Y50977D02*X218065D01*
Y42647D01*
X222065D01*
Y50977D01*
G37*
G36*
X231908Y50976D02*X227908D01*
Y42646D01*
X231908D01*
Y50976D01*
G37*
G36*
X270137Y46003D02*Y41003D01*
X275137D01*
Y46003D01*
X270137D01*
G37*
G36*
X241750Y91527D02*X237750D01*
Y83197D01*
X241750D01*
Y91527D01*
G37*
G36*
X269941Y85570D02*Y80570D01*
X274941D01*
Y85570D01*
X269941D01*
G37*
G36*
Y77570D02*Y72570D01*
X274941D01*
Y77570D01*
X269941D01*
G37*
G36*
X231908Y91527D02*X227908D01*
Y83197D01*
X231908D01*
Y91527D01*
G37*
G36*
X225846Y125137D02*Y120137D01*
X230846D01*
Y125137D01*
X225846D01*
G37*
G36*
Y117137D02*Y112137D01*
X230846D01*
Y117137D01*
X225846D01*
G37*
G36*
X232539Y125137D02*Y120137D01*
X237539D01*
Y125137D01*
X232539D01*
G37*
G36*
Y117137D02*Y112137D01*
X237539D01*
Y117137D01*
X232539D01*
G37*
G36*
X229586Y106830D02*Y101830D01*
X234586D01*
Y106830D01*
X229586D01*
G37*
G36*
Y98830D02*Y93830D01*
X234586D01*
Y98830D01*
X229586D01*
G37*
G36*
X236279Y106830D02*Y101830D01*
X241279D01*
Y106830D01*
X236279D01*
G37*
G36*
Y98830D02*Y93830D01*
X241279D01*
Y98830D01*
X236279D01*
G37*
G36*
X242972D02*Y93830D01*
X247972D01*
Y98830D01*
X242972D01*
G37*
G36*
Y106830D02*Y101830D01*
X247972D01*
Y106830D01*
X242972D01*
G37*
G36*
X257343Y114311D02*Y109311D01*
X262343D01*
Y114311D01*
X257343D01*
G37*
G36*
X239232Y117137D02*Y112137D01*
X244232D01*
Y117137D01*
X239232D01*
G37*
G36*
X257343Y121003D02*Y116003D01*
X262343D01*
Y121003D01*
X257343D01*
G37*
G36*
Y127696D02*Y122696D01*
X262343D01*
Y127696D01*
X257343D01*
G37*
G36*
X239232Y125137D02*Y120137D01*
X244232D01*
Y125137D01*
X239232D01*
G37*
G36*
X270137Y25531D02*Y20531D01*
X275137D01*
Y25531D01*
X270137D01*
G37*
G36*
Y17531D02*Y12531D01*
X275137D01*
Y17531D01*
X270137D01*
G37*
G36*
X219547Y31042D02*Y26042D01*
X224547D01*
Y31042D01*
X219547D01*
G37*
G36*
Y23042D02*Y18042D01*
X224547D01*
Y23042D01*
X219547D01*
G37*
G36*
X226831Y31042D02*Y26042D01*
X231831D01*
Y31042D01*
X226831D01*
G37*
G36*
Y23042D02*Y18042D01*
X231831D01*
Y23042D01*
X226831D01*
G37*
G36*
X234114Y31042D02*Y26042D01*
X239114D01*
Y31042D01*
X234114D01*
G37*
G36*
Y23042D02*Y18042D01*
X239114D01*
Y23042D01*
X234114D01*
G37*
G36*
X241398Y31042D02*Y26042D01*
X246398D01*
Y31042D01*
X241398D01*
G37*
G36*
Y23042D02*Y18042D01*
X246398D01*
Y23042D01*
X241398D01*
G37*
G36*
X270137Y38003D02*Y33003D01*
X275137D01*
Y38003D01*
X270137D01*
G37*
G36*
X222065Y91528D02*X218065D01*
Y83198D01*
X222065D01*
Y91528D01*
G37*
G36*
X222108Y141278D02*Y136278D01*
X227108D01*
Y141278D01*
X222108D01*
G37*
G36*
X214951Y140294D02*Y135294D01*
X219951D01*
Y140294D01*
X214951D01*
G37*
G36*
X222108Y133278D02*Y128278D01*
X227108D01*
Y133278D01*
X222108D01*
G37*
G36*
X222893Y106830D02*Y101830D01*
X227893D01*
Y106830D01*
X222893D01*
G37*
G36*
Y98830D02*Y93830D01*
X227893D01*
Y98830D01*
X222893D01*
G37*
G36*
X219153Y125137D02*Y120137D01*
X224153D01*
Y125137D01*
X219153D01*
G37*
G36*
Y117137D02*Y112137D01*
X224153D01*
Y117137D01*
X219153D01*
G37*
G36*
X212461Y125137D02*Y120137D01*
X217461D01*
Y125137D01*
X212461D01*
G37*
G36*
Y117137D02*Y112137D01*
X217461D01*
Y117137D01*
X212461D01*
G37*
G36*
X197697Y117066D02*Y112066D01*
X202697D01*
Y117066D01*
X197697D01*
G37*
G36*
X205697D02*Y112066D01*
X210697D01*
Y117066D01*
X205697D01*
G37*
G36*
X197672Y119645D02*Y118543D01*
X203672D01*
Y119645D01*
X197672D01*
G37*
G36*
Y121613D02*Y120511D01*
X203672D01*
Y121613D01*
X197672D01*
G37*
G36*
Y123582D02*Y122480D01*
X203672D01*
Y123582D01*
X197672D01*
G37*
G36*
Y125550D02*Y124448D01*
X203672D01*
Y125550D01*
X197672D01*
G37*
G36*
Y127519D02*Y126417D01*
X203672D01*
Y127519D01*
X197672D01*
G37*
G36*
Y129487D02*Y128385D01*
X203672D01*
Y129487D01*
X197672D01*
G37*
G36*
X206951Y140294D02*Y135294D01*
X211951D01*
Y140294D01*
X206951D01*
G37*
G36*
X185295Y75531D02*Y70531D01*
X190295D01*
Y75531D01*
X185295D01*
G37*
G36*
X193295D02*Y70531D01*
X198295D01*
Y75531D01*
X193295D01*
G37*
G36*
X185297Y103877D02*Y98877D01*
X190297D01*
Y103877D01*
X185297D01*
G37*
G36*
X193297D02*Y98877D01*
X198297D01*
Y103877D01*
X193297D01*
G37*
G36*
X195074Y97250D02*Y96450D01*
X199023D01*
Y97250D01*
X195074D01*
G37*
G36*
X199023D02*X198223D01*
Y90150D01*
X199023D01*
Y97250D01*
G37*
G36*
X198630Y96856D02*X197830D01*
Y90544D01*
X198630D01*
Y96856D01*
G37*
G36*
X198236Y96462D02*X197436D01*
Y90938D01*
X198236D01*
Y96462D01*
G37*
G36*
X197842Y96068D02*X197042D01*
Y91331D01*
X197842D01*
Y96068D01*
G37*
G36*
X195074Y90950D02*Y90150D01*
X199023D01*
Y90950D01*
X195074D01*
G37*
G36*
X195874Y97250D02*X195074D01*
Y90150D01*
X195874D01*
Y97250D01*
G37*
G36*
X195468Y91344D02*Y90544D01*
X198630D01*
Y91344D01*
X195468D01*
G37*
G36*
X196268Y96462D02*X195468D01*
Y90544D01*
X196268D01*
Y96462D01*
G37*
G36*
X197449Y95675D02*X196649D01*
Y91331D01*
X197449D01*
Y95675D01*
G37*
G36*
X195468Y96856D02*Y96056D01*
X198630D01*
Y96856D01*
X195468D01*
G37*
G36*
Y96462D02*Y95662D01*
X198236D01*
Y96462D01*
X195468D01*
G37*
G36*
X196661Y96068D02*X195861D01*
Y90938D01*
X196661D01*
Y96068D01*
G37*
G36*
X195861Y91738D02*Y90938D01*
X198236D01*
Y91738D01*
X195861D01*
G37*
G36*
X196255Y92131D02*Y91331D01*
X197842D01*
Y92131D01*
X196255D01*
G37*
G36*
X193297Y88522D02*Y83522D01*
X198297D01*
Y88522D01*
X193297D01*
G37*
G36*
X193295Y82027D02*Y77027D01*
X198295D01*
Y82027D01*
X193295D01*
G37*
G36*
X195861Y96068D02*Y95268D01*
X197842D01*
Y96068D01*
X195861D01*
G37*
G36*
X197055Y95675D02*X196255D01*
Y91331D01*
X197055D01*
Y95675D01*
G37*
G36*
X196255D02*Y94875D01*
X197449D01*
Y95675D01*
X196255D01*
G37*
G36*
X185231Y97250D02*Y96450D01*
X189180D01*
Y97250D01*
X185231D01*
G37*
G36*
X185625Y96856D02*Y96056D01*
X188787D01*
Y96856D01*
X185625D01*
G37*
G36*
Y96462D02*Y95662D01*
X188393D01*
Y96462D01*
X185625D01*
G37*
G36*
X189180Y97250D02*X188380D01*
Y90150D01*
X189180D01*
Y97250D01*
G37*
G36*
X188787Y96856D02*X187987D01*
Y90544D01*
X188787D01*
Y96856D01*
G37*
G36*
X187999Y96068D02*X187199D01*
Y91331D01*
X187999D01*
Y96068D01*
G37*
G36*
X186412Y92131D02*Y91331D01*
X187999D01*
Y92131D01*
X186412D01*
G37*
G36*
X187606Y95675D02*X186806D01*
Y91331D01*
X187606D01*
Y95675D01*
G37*
G36*
X186031Y97250D02*X185231D01*
Y90150D01*
X186031D01*
Y97250D01*
G37*
G36*
X186425Y96462D02*X185625D01*
Y90544D01*
X186425D01*
Y96462D01*
G37*
G36*
X188393D02*X187593D01*
Y90938D01*
X188393D01*
Y96462D01*
G37*
G36*
X186018Y91738D02*Y90938D01*
X188393D01*
Y91738D01*
X186018D01*
G37*
G36*
X185231Y90950D02*Y90150D01*
X189180D01*
Y90950D01*
X185231D01*
G37*
G36*
X185625Y91344D02*Y90544D01*
X188787D01*
Y91344D01*
X185625D01*
G37*
G36*
X186818Y96068D02*X186018D01*
Y90938D01*
X186818D01*
Y96068D01*
G37*
G36*
X186018D02*Y95268D01*
X187999D01*
Y96068D01*
X186018D01*
G37*
G36*
X187212Y95675D02*X186412D01*
Y91331D01*
X187212D01*
Y95675D01*
G37*
G36*
X186412D02*Y94875D01*
X187606D01*
Y95675D01*
X186412D01*
G37*
G36*
X185297Y88522D02*Y83522D01*
X190297D01*
Y88522D01*
X185297D01*
G37*
G36*
X185295Y82027D02*Y77027D01*
X190295D01*
Y82027D01*
X185295D01*
G37*
G36*
X172601Y113157D02*X171499D01*
Y107157D01*
X172601D01*
Y113157D01*
G37*
G36*
X174569D02*X173467D01*
Y107157D01*
X174569D01*
Y113157D01*
G37*
G36*
X176538D02*X175436D01*
Y107157D01*
X176538D01*
Y113157D01*
G37*
G36*
X178506D02*X177404D01*
Y107157D01*
X178506D01*
Y113157D01*
G37*
G36*
X180475D02*X179373D01*
Y107157D01*
X180475D01*
Y113157D01*
G37*
G36*
X182443D02*X181341D01*
Y107157D01*
X182443D01*
Y113157D01*
G37*
G36*
X184412D02*X183310D01*
Y107157D01*
X184412D01*
Y113157D01*
G37*
G36*
X171516Y217854D02*Y212854D01*
X176516D01*
Y217854D01*
X171516D01*
G37*
G36*
Y224940D02*Y219940D01*
X176516D01*
Y224940D01*
X171516D01*
G37*
G36*
Y232027D02*Y227027D01*
X176516D01*
Y232027D01*
X171516D01*
G37*
G36*
X179516Y217854D02*Y212854D01*
X184516D01*
Y217854D01*
X179516D01*
G37*
G36*
Y224940D02*Y219940D01*
X184516D01*
Y224940D01*
X179516D01*
G37*
G36*
Y232027D02*Y227027D01*
X184516D01*
Y232027D01*
X179516D01*
G37*
G36*
X186380Y113157D02*X185278D01*
Y107157D01*
X186380D01*
Y113157D01*
G37*
G36*
X188349D02*X187247D01*
Y107157D01*
X188349D01*
Y113157D01*
G37*
G36*
X190317D02*X189215D01*
Y107157D01*
X190317D01*
Y113157D01*
G37*
G36*
X192286D02*X191184D01*
Y107157D01*
X192286D01*
Y113157D01*
G37*
G36*
X187957Y25318D02*X184957D01*
Y20743D01*
X187957D01*
Y25318D01*
G37*
G36*
X203131Y16869D02*X198131D01*
Y9507D01*
X203131D01*
Y16869D01*
G37*
G36*
X203130Y49939D02*X198130D01*
Y42577D01*
X203130D01*
Y49939D01*
G37*
G36*
X183626Y25318D02*X180626D01*
Y20743D01*
X183626D01*
Y25318D01*
G37*
G36*
X179296D02*X176296D01*
Y20743D01*
X179296D01*
Y25318D01*
G37*
G36*
X174965D02*X171965D01*
Y20743D01*
X174965D01*
Y25318D01*
G37*
G36*
X221122Y162933D02*Y157933D01*
X226122D01*
Y162933D01*
X221122D01*
G37*
G36*
Y154933D02*Y149933D01*
X226122D01*
Y154933D01*
X221122D01*
G37*
G36*
X227815Y162933D02*Y157933D01*
X232815D01*
Y162933D01*
X227815D01*
G37*
G36*
Y154933D02*Y149933D01*
X232815D01*
Y154933D01*
X227815D01*
G37*
G36*
X234508Y162933D02*Y157933D01*
X239508D01*
Y162933D01*
X234508D01*
G37*
G36*
Y154933D02*Y149933D01*
X239508D01*
Y154933D01*
X234508D01*
G37*
G36*
X240552Y171220D02*Y169920D01*
X246457D01*
Y171220D01*
X240552D01*
G37*
G36*
Y173778D02*Y172480D01*
X246457D01*
Y173778D01*
X240552D01*
G37*
G36*
Y176338D02*Y175038D01*
X246457D01*
Y176338D01*
X240552D01*
G37*
G36*
Y178896D02*Y177598D01*
X246457D01*
Y178896D01*
X240552D01*
G37*
G36*
Y181454D02*Y180156D01*
X246457D01*
Y181454D01*
X240552D01*
G37*
G36*
Y184014D02*Y182714D01*
X246457D01*
Y184014D01*
X240552D01*
G37*
G36*
Y186572D02*Y185274D01*
X246457D01*
Y186572D01*
X240552D01*
G37*
G36*
Y189132D02*Y187832D01*
X246457D01*
Y189132D01*
X240552D01*
G37*
G36*
X190318Y178275D02*X189216D01*
Y172275D01*
X190318D01*
Y178275D01*
G37*
G36*
X188349D02*X187247D01*
Y172275D01*
X188349D01*
Y178275D01*
G37*
G36*
X186381D02*X185279D01*
Y172275D01*
X186381D01*
Y178275D01*
G37*
G36*
X184412D02*X183310D01*
Y172275D01*
X184412D01*
Y178275D01*
G37*
G36*
X182444D02*X181342D01*
Y172275D01*
X182444D01*
Y178275D01*
G37*
G36*
X180475D02*X179373D01*
Y172275D01*
X180475D01*
Y178275D01*
G37*
G36*
X178507D02*X177405D01*
Y172275D01*
X178507D01*
Y178275D01*
G37*
G36*
X176538D02*X175436D01*
Y172275D01*
X176538D01*
Y178275D01*
G37*
G36*
X174570D02*X173468D01*
Y172275D01*
X174570D01*
Y178275D01*
G37*
G36*
X172601D02*X171499D01*
Y172275D01*
X172601D01*
Y178275D01*
G37*
G36*
X183988Y184980D02*Y179980D01*
X188988D01*
Y184980D01*
X183988D01*
G37*
G36*
X197672Y131456D02*Y130354D01*
X203672D01*
Y131456D01*
X197672D01*
G37*
G36*
Y133424D02*Y132322D01*
X203672D01*
Y133424D01*
X197672D01*
G37*
G36*
Y135393D02*Y134291D01*
X203672D01*
Y135393D01*
X197672D01*
G37*
G36*
Y137361D02*Y136259D01*
X203672D01*
Y137361D01*
X197672D01*
G37*
G36*
Y139330D02*Y138228D01*
X203672D01*
Y139330D01*
X197672D01*
G37*
G36*
Y141298D02*Y140196D01*
X203672D01*
Y141298D01*
X197672D01*
G37*
G36*
Y143267D02*Y142165D01*
X203672D01*
Y143267D01*
X197672D01*
G37*
G36*
Y145235D02*Y144133D01*
X203672D01*
Y145235D01*
X197672D01*
G37*
G36*
Y147204D02*Y146102D01*
X203672D01*
Y147204D01*
X197672D01*
G37*
G36*
Y149172D02*Y148070D01*
X203672D01*
Y149172D01*
X197672D01*
G37*
G36*
Y151141D02*Y150039D01*
X203672D01*
Y151141D01*
X197672D01*
G37*
G36*
Y153109D02*Y152007D01*
X203672D01*
Y153109D01*
X197672D01*
G37*
G36*
Y155078D02*Y153976D01*
X203672D01*
Y155078D01*
X197672D01*
G37*
G36*
Y157046D02*Y155944D01*
X203672D01*
Y157046D01*
X197672D01*
G37*
G36*
Y159015D02*Y157913D01*
X203672D01*
Y159015D01*
X197672D01*
G37*
G36*
Y160983D02*Y159881D01*
X203672D01*
Y160983D01*
X197672D01*
G37*
G36*
Y162952D02*Y161850D01*
X203672D01*
Y162952D01*
X197672D01*
G37*
G36*
Y164920D02*Y163818D01*
X203672D01*
Y164920D01*
X197672D01*
G37*
G36*
Y166889D02*Y165787D01*
X203672D01*
Y166889D01*
X197672D01*
G37*
G36*
X205839Y166672D02*Y161672D01*
X210839D01*
Y166672D01*
X205839D01*
G37*
G36*
Y158798D02*Y153798D01*
X210839D01*
Y158798D01*
X205839D01*
G37*
G36*
X192286Y178275D02*X191184D01*
Y172275D01*
X192286D01*
Y178275D01*
G37*
G36*
X217324Y189132D02*Y187832D01*
X223230D01*
Y189132D01*
X217324D01*
G37*
G36*
Y186572D02*Y185274D01*
X223230D01*
Y186572D01*
X217324D01*
G37*
G36*
Y184014D02*Y182714D01*
X223230D01*
Y184014D01*
X217324D01*
G37*
G36*
Y181454D02*Y180156D01*
X223230D01*
Y181454D01*
X217324D01*
G37*
G36*
Y178896D02*Y177598D01*
X223230D01*
Y178896D01*
X217324D01*
G37*
G36*
Y176338D02*Y175038D01*
X223230D01*
Y176338D01*
X217324D01*
G37*
G36*
Y173778D02*Y172480D01*
X223230D01*
Y173778D01*
X217324D01*
G37*
G36*
X208720Y173366D02*Y168366D01*
X213720D01*
Y173366D01*
X208720D01*
G37*
G36*
X200720D02*Y168366D01*
X205720D01*
Y173366D01*
X200720D01*
G37*
G36*
X217324Y171220D02*Y169920D01*
X223230D01*
Y171220D01*
X217324D01*
G37*
G36*
X213839Y166672D02*Y161672D01*
X218839D01*
Y166672D01*
X213839D01*
G37*
G36*
Y158798D02*Y153798D01*
X218839D01*
Y158798D01*
X213839D01*
G37*
G36*
X191988Y184980D02*Y179980D01*
X196988D01*
Y184980D01*
X191988D01*
G37*
G36*
X198878Y188917D02*Y183917D01*
X203878D01*
Y188917D01*
X198878D01*
G37*
G36*
Y180917D02*Y175917D01*
X203878D01*
Y180917D01*
X198878D01*
G37*
G36*
X205571Y188917D02*Y183917D01*
X210571D01*
Y188917D01*
X205571D01*
G37*
G36*
Y180917D02*Y175917D01*
X210571D01*
Y180917D01*
X205571D01*
G37*
G36*
X257342Y141869D02*Y136869D01*
X262342D01*
Y141869D01*
X257342D01*
G37*
G36*
Y135176D02*Y130176D01*
X262342D01*
Y135176D01*
X257342D01*
G37*
G36*
X265342Y141869D02*Y136869D01*
X270342D01*
Y141869D01*
X265342D01*
G37*
G36*
Y148562D02*Y143562D01*
X270342D01*
Y148562D01*
X265342D01*
G37*
G36*
Y135176D02*Y130176D01*
X270342D01*
Y135176D01*
X265342D01*
G37*
G36*
X257342Y148562D02*Y143562D01*
X262342D01*
Y148562D01*
X257342D01*
G37*
G36*
X282134Y165705D02*X276134D01*
Y158705D01*
X282134D01*
Y165705D01*
G37*
G36*
X257342Y155255D02*Y150255D01*
X262342D01*
Y155255D01*
X257342D01*
G37*
G36*
X265342D02*Y150255D01*
X270342D01*
Y155255D01*
X265342D01*
G37*
G36*
X241201Y162933D02*Y157933D01*
X246201D01*
Y162933D01*
X241201D01*
G37*
G36*
Y154933D02*Y149933D01*
X246201D01*
Y154933D01*
X241201D01*
G37*
G36*
X134839Y81697D02*Y80897D01*
X144694D01*
Y81697D01*
X134839D01*
G37*
G36*
X122107Y97577D02*Y92577D01*
X127107D01*
Y97577D01*
X122107D01*
G37*
G36*
X122106Y90492D02*Y85492D01*
X127106D01*
Y90492D01*
X122106D01*
G37*
G36*
X122107Y80845D02*Y75845D01*
X127107D01*
Y80845D01*
X122107D01*
G37*
G36*
X135232Y81304D02*Y80504D01*
X144300D01*
Y81304D01*
X135232D01*
G37*
G36*
Y80910D02*Y80110D01*
X143906D01*
Y80910D01*
X135232D01*
G37*
G36*
X137201Y78941D02*Y78141D01*
X141938D01*
Y78941D01*
X137201D01*
G37*
G36*
X136020Y80123D02*Y79323D01*
X143119D01*
Y80123D01*
X136020D01*
G37*
G36*
X136414Y79729D02*Y78929D01*
X142725D01*
Y79729D01*
X136414D01*
G37*
G36*
X137988Y78154D02*Y77354D01*
X141151D01*
Y78154D01*
X137988D01*
G37*
G36*
X136281Y89112D02*Y84112D01*
X141281D01*
Y89112D01*
X136281D01*
G37*
G36*
X144281D02*Y84112D01*
X149281D01*
Y89112D01*
X144281D01*
G37*
G36*
X155769D02*Y84112D01*
X160769D01*
Y89112D01*
X155769D01*
G37*
G36*
X144694Y81697D02*X143894D01*
Y69874D01*
X144694D01*
Y81697D01*
G37*
G36*
X144300Y81304D02*X143500D01*
Y70267D01*
X144300D01*
Y81304D01*
G37*
G36*
X143906Y80910D02*X143106D01*
Y70661D01*
X143906D01*
Y80910D01*
G37*
G36*
X145042Y113157D02*X143940D01*
Y107157D01*
X145042D01*
Y113157D01*
G37*
G36*
X147010D02*X145908D01*
Y107157D01*
X147010D01*
Y113157D01*
G37*
G36*
X148979D02*X147877D01*
Y107157D01*
X148979D01*
Y113157D01*
G37*
G36*
X150947D02*X149845D01*
Y107157D01*
X150947D01*
Y113157D01*
G37*
G36*
X152916D02*X151814D01*
Y107157D01*
X152916D01*
Y113157D01*
G37*
G36*
X154884D02*X153782D01*
Y107157D01*
X154884D01*
Y113157D01*
G37*
G36*
X156853D02*X155751D01*
Y107157D01*
X156853D01*
Y113157D01*
G37*
G36*
X158821D02*X157719D01*
Y107157D01*
X158821D01*
Y113157D01*
G37*
G36*
X160790D02*X159688D01*
Y107157D01*
X160790D01*
Y113157D01*
G37*
G36*
X134839Y70674D02*Y69874D01*
X144694D01*
Y70674D01*
X134839D01*
G37*
G36*
X135232Y71067D02*Y70267D01*
X144300D01*
Y71067D01*
X135232D01*
G37*
G36*
X135626Y71461D02*Y70661D01*
X143906D01*
Y71461D01*
X135626D01*
G37*
G36*
X136807Y72642D02*Y71842D01*
X142725D01*
Y72642D01*
X136807D01*
G37*
G36*
X135639Y81697D02*X134839D01*
Y69874D01*
X135639D01*
Y81697D01*
G37*
G36*
X136032Y80910D02*X135232D01*
Y70267D01*
X136032D01*
Y80910D01*
G37*
G36*
X136820Y80123D02*X136020D01*
Y71055D01*
X136820D01*
Y80123D01*
G37*
G36*
X137214Y79729D02*X136414D01*
Y71449D01*
X137214D01*
Y79729D01*
G37*
G36*
X136020Y71855D02*Y71055D01*
X143513D01*
Y71855D01*
X136020D01*
G37*
G36*
X136414Y72249D02*Y71449D01*
X143119D01*
Y72249D01*
X136414D01*
G37*
G36*
X137595Y73430D02*Y72630D01*
X141938D01*
Y73430D01*
X137595D01*
G37*
G36*
X149586Y16869D02*X144586D01*
Y9507D01*
X149586D01*
Y16869D01*
G37*
G36*
Y49939D02*X144586D01*
Y42577D01*
X149586D01*
Y49939D01*
G37*
G36*
X157642Y25318D02*X154642D01*
Y20743D01*
X157642D01*
Y25318D01*
G37*
G36*
X136426Y80516D02*X135626D01*
Y70661D01*
X136426D01*
Y80516D01*
G37*
G36*
X137607Y79335D02*X136807D01*
Y71842D01*
X137607D01*
Y79335D01*
G37*
G36*
X143513Y80516D02*X142713D01*
Y71055D01*
X143513D01*
Y80516D01*
G37*
G36*
X142332Y79335D02*X141532D01*
Y72236D01*
X142332D01*
Y79335D01*
G37*
G36*
X143119Y80123D02*X142319D01*
Y71449D01*
X143119D01*
Y80123D01*
G37*
G36*
X141938Y78941D02*X141138D01*
Y72630D01*
X141938D01*
Y78941D01*
G37*
G36*
X138395Y78548D02*X137595D01*
Y72630D01*
X138395D01*
Y78548D01*
G37*
G36*
X137595D02*Y77748D01*
X141544D01*
Y78548D01*
X137595D01*
G37*
G36*
X139169Y75004D02*Y74204D01*
X140363D01*
Y75004D01*
X139169D01*
G37*
G36*
X139969Y77367D02*X139169D01*
Y74204D01*
X139969D01*
Y77367D01*
G37*
G36*
X142725Y79729D02*X141925D01*
Y71842D01*
X142725D01*
Y79729D01*
G37*
G36*
X141544Y78548D02*X140744D01*
Y73023D01*
X141544D01*
Y78548D01*
G37*
G36*
X137988Y73823D02*Y73023D01*
X141544D01*
Y73823D01*
X137988D01*
G37*
G36*
X138788Y78154D02*X137988D01*
Y73023D01*
X138788D01*
Y78154D01*
G37*
G36*
X135626Y80516D02*Y79716D01*
X143513D01*
Y80516D01*
X135626D01*
G37*
G36*
X136807Y79335D02*Y78535D01*
X142332D01*
Y79335D01*
X136807D01*
G37*
G36*
X141151Y78154D02*X140351D01*
Y73417D01*
X141151D01*
Y78154D01*
G37*
G36*
X138382Y74217D02*Y73417D01*
X141151D01*
Y74217D01*
X138382D01*
G37*
G36*
X139182Y77760D02*X138382D01*
Y73417D01*
X139182D01*
Y77760D01*
G37*
G36*
X138382D02*Y76960D01*
X140757D01*
Y77760D01*
X138382D01*
G37*
G36*
X140757D02*X139957D01*
Y73811D01*
X140757D01*
Y77760D01*
G37*
G36*
X138776Y74611D02*Y73811D01*
X140757D01*
Y74611D01*
X138776D01*
G37*
G36*
X137201Y73036D02*Y72236D01*
X142332D01*
Y73036D01*
X137201D01*
G37*
G36*
X138001Y78941D02*X137201D01*
Y72236D01*
X138001D01*
Y78941D01*
G37*
G36*
X139576Y77367D02*X138776D01*
Y73811D01*
X139576D01*
Y77367D01*
G37*
G36*
X138776D02*Y76567D01*
X140363D01*
Y77367D01*
X138776D01*
G37*
G36*
X140363D02*X139563D01*
Y74204D01*
X140363D01*
Y77367D01*
G37*
G36*
X160430Y81697D02*Y80897D01*
X170285D01*
Y81697D01*
X160430D01*
G37*
G36*
X160823Y81304D02*Y80504D01*
X169891D01*
Y81304D01*
X160823D01*
G37*
G36*
Y80910D02*Y80110D01*
X169497D01*
Y80910D01*
X160823D01*
G37*
G36*
X161217Y80516D02*Y79716D01*
X169104D01*
Y80516D01*
X161217D01*
G37*
G36*
X161611Y80123D02*Y79323D01*
X168710D01*
Y80123D01*
X161611D01*
G37*
G36*
X162005Y79729D02*Y78929D01*
X168316D01*
Y79729D01*
X162005D01*
G37*
G36*
X162398Y79335D02*Y78535D01*
X167923D01*
Y79335D01*
X162398D01*
G37*
G36*
X170285Y81697D02*X169485D01*
Y69874D01*
X170285D01*
Y81697D01*
G37*
G36*
X169891Y81304D02*X169091D01*
Y70267D01*
X169891D01*
Y81304D01*
G37*
G36*
X169497Y80910D02*X168697D01*
Y70661D01*
X169497D01*
Y80910D01*
G37*
G36*
X170634Y25318D02*X167634D01*
Y20743D01*
X170634D01*
Y25318D01*
G37*
G36*
X169104Y80516D02*X168304D01*
Y71055D01*
X169104D01*
Y80516D01*
G37*
G36*
X168710Y80123D02*X167910D01*
Y71449D01*
X168710D01*
Y80123D01*
G37*
G36*
X168316Y79729D02*X167516D01*
Y71842D01*
X168316D01*
Y79729D01*
G37*
G36*
X167923Y79335D02*X167123D01*
Y72236D01*
X167923D01*
Y79335D01*
G37*
G36*
X170633Y178275D02*X169531D01*
Y172275D01*
X170633D01*
Y178275D01*
G37*
G36*
X168664D02*X167562D01*
Y172275D01*
X168664D01*
Y178275D01*
G37*
G36*
Y113157D02*X167562D01*
Y107157D01*
X168664D01*
Y113157D01*
G37*
G36*
X170632D02*X169530D01*
Y107157D01*
X170632D01*
Y113157D01*
G37*
G36*
X160430Y70674D02*Y69874D01*
X170285D01*
Y70674D01*
X160430D01*
G37*
G36*
X160823Y71067D02*Y70267D01*
X169891D01*
Y71067D01*
X160823D01*
G37*
G36*
X161217Y71461D02*Y70661D01*
X169497D01*
Y71461D01*
X161217D01*
G37*
G36*
X161611Y71855D02*Y71055D01*
X169104D01*
Y71855D01*
X161611D01*
G37*
G36*
X162005Y72249D02*Y71449D01*
X168710D01*
Y72249D01*
X162005D01*
G37*
G36*
X162398Y72642D02*Y71842D01*
X168316D01*
Y72642D01*
X162398D01*
G37*
G36*
X162792Y73036D02*Y72236D01*
X167923D01*
Y73036D01*
X162792D01*
G37*
G36*
X161230Y81697D02*X160430D01*
Y69874D01*
X161230D01*
Y81697D01*
G37*
G36*
X161623Y80910D02*X160823D01*
Y70267D01*
X161623D01*
Y80910D01*
G37*
G36*
X162017Y80516D02*X161217D01*
Y70661D01*
X162017D01*
Y80516D01*
G37*
G36*
X162411Y80123D02*X161611D01*
Y71055D01*
X162411D01*
Y80123D01*
G37*
G36*
X162805Y79729D02*X162005D01*
Y71449D01*
X162805D01*
Y79729D01*
G37*
G36*
X163198Y79335D02*X162398D01*
Y71842D01*
X163198D01*
Y79335D01*
G37*
G36*
X162758Y113157D02*X161656D01*
Y107157D01*
X162758D01*
Y113157D01*
G37*
G36*
X161973Y25318D02*X158973D01*
Y20743D01*
X161973D01*
Y25318D01*
G37*
G36*
X166304D02*X163304D01*
Y20743D01*
X166304D01*
Y25318D01*
G37*
G36*
X163592Y78941D02*X162792D01*
Y72236D01*
X163592D01*
Y78941D01*
G37*
G36*
X163986Y78548D02*X163186D01*
Y72630D01*
X163986D01*
Y78548D01*
G37*
G36*
X164379Y78154D02*X163579D01*
Y73023D01*
X164379D01*
Y78154D01*
G37*
G36*
X162792Y78941D02*Y78141D01*
X167529D01*
Y78941D01*
X162792D01*
G37*
G36*
X163186Y78548D02*Y77748D01*
X167135D01*
Y78548D01*
X163186D01*
G37*
G36*
X163973Y77760D02*Y76960D01*
X166348D01*
Y77760D01*
X163973D01*
G37*
G36*
X163769Y89112D02*Y84112D01*
X168769D01*
Y89112D01*
X163769D01*
G37*
G36*
X163186Y73430D02*Y72630D01*
X167529D01*
Y73430D01*
X163186D01*
G37*
G36*
X163579Y73823D02*Y73023D01*
X167135D01*
Y73823D01*
X163579D01*
G37*
G36*
X164367Y74611D02*Y73811D01*
X166348D01*
Y74611D01*
X164367D01*
G37*
G36*
X167529Y78941D02*X166729D01*
Y72630D01*
X167529D01*
Y78941D01*
G37*
G36*
X167135Y78548D02*X166335D01*
Y73023D01*
X167135D01*
Y78548D01*
G37*
G36*
X164367Y77367D02*Y76567D01*
X165954D01*
Y77367D01*
X164367D01*
G37*
G36*
X165560D02*X164760D01*
Y74204D01*
X165560D01*
Y77367D01*
G37*
G36*
X163579Y78154D02*Y77354D01*
X166742D01*
Y78154D01*
X163579D01*
G37*
G36*
X166742D02*X165942D01*
Y73417D01*
X166742D01*
Y78154D01*
G37*
G36*
X166348Y77760D02*X165548D01*
Y73811D01*
X166348D01*
Y77760D01*
G37*
G36*
X165167Y77367D02*X164367D01*
Y73811D01*
X165167D01*
Y77367D01*
G37*
G36*
X163973Y74217D02*Y73417D01*
X166742D01*
Y74217D01*
X163973D01*
G37*
G36*
X164773Y77760D02*X163973D01*
Y73417D01*
X164773D01*
Y77760D01*
G37*
G36*
X165954Y77367D02*X165154D01*
Y74204D01*
X165954D01*
Y77367D01*
G37*
G36*
X164760Y75004D02*Y74204D01*
X165954D01*
Y75004D01*
X164760D01*
G37*
G36*
X163644Y103876D02*Y98876D01*
X168644D01*
Y103876D01*
X163644D01*
G37*
G36*
Y95876D02*Y90876D01*
X168644D01*
Y95876D01*
X163644D01*
G37*
G36*
X164727Y113157D02*X163625D01*
Y107157D01*
X164727D01*
Y113157D01*
G37*
G36*
X166695D02*X165593D01*
Y107157D01*
X166695D01*
Y113157D01*
G37*
G36*
X160691Y194428D02*Y189428D01*
X165691D01*
Y194428D01*
X160691D01*
G37*
G36*
Y186428D02*Y181428D01*
X165691D01*
Y186428D01*
X160691D01*
G37*
G36*
X166696Y178275D02*X165594D01*
Y172275D01*
X166696D01*
Y178275D01*
G37*
G36*
X164727D02*X163625D01*
Y172275D01*
X164727D01*
Y178275D01*
G37*
G36*
X162759D02*X161657D01*
Y172275D01*
X162759D01*
Y178275D01*
G37*
G36*
X160790D02*X159688D01*
Y172275D01*
X160790D01*
Y178275D01*
G37*
G36*
X158822D02*X157720D01*
Y172275D01*
X158822D01*
Y178275D01*
G37*
G36*
X156853D02*X155751D01*
Y172275D01*
X156853D01*
Y178275D01*
G37*
G36*
X154885D02*X153783D01*
Y172275D01*
X154885D01*
Y178275D01*
G37*
G36*
X152916D02*X151814D01*
Y172275D01*
X152916D01*
Y178275D01*
G37*
G36*
X150948D02*X149846D01*
Y172275D01*
X150948D01*
Y178275D01*
G37*
G36*
X148979D02*X147877D01*
Y172275D01*
X148979D01*
Y178275D01*
G37*
G36*
X147011D02*X145909D01*
Y172275D01*
X147011D01*
Y178275D01*
G37*
G36*
X145042D02*X143940D01*
Y172275D01*
X145042D01*
Y178275D01*
G37*
G36*
X132554Y166889D02*Y165787D01*
X138554D01*
Y166889D01*
X132554D01*
G37*
G36*
Y164921D02*Y163819D01*
X138554D01*
Y164921D01*
X132554D01*
G37*
G36*
Y162952D02*Y161850D01*
X138554D01*
Y162952D01*
X132554D01*
G37*
G36*
Y160984D02*Y159882D01*
X138554D01*
Y160984D01*
X132554D01*
G37*
G36*
Y159015D02*Y157913D01*
X138554D01*
Y159015D01*
X132554D01*
G37*
G36*
Y157047D02*Y155945D01*
X138554D01*
Y157047D01*
X132554D01*
G37*
G36*
Y155078D02*Y153976D01*
X138554D01*
Y155078D01*
X132554D01*
G37*
G36*
Y153110D02*Y152008D01*
X138554D01*
Y153110D01*
X132554D01*
G37*
G36*
Y151141D02*Y150039D01*
X138554D01*
Y151141D01*
X132554D01*
G37*
G36*
Y149173D02*Y148071D01*
X138554D01*
Y149173D01*
X132554D01*
G37*
G36*
Y147204D02*Y146102D01*
X138554D01*
Y147204D01*
X132554D01*
G37*
G36*
Y145236D02*Y144134D01*
X138554D01*
Y145236D01*
X132554D01*
G37*
G36*
Y143267D02*Y142165D01*
X138554D01*
Y143267D01*
X132554D01*
G37*
G36*
Y141299D02*Y140197D01*
X138554D01*
Y141299D01*
X132554D01*
G37*
G36*
Y139330D02*Y138228D01*
X138554D01*
Y139330D01*
X132554D01*
G37*
G36*
Y137362D02*Y136260D01*
X138554D01*
Y137362D01*
X132554D01*
G37*
G36*
Y135393D02*Y134291D01*
X138554D01*
Y135393D01*
X132554D01*
G37*
G36*
Y133425D02*Y132323D01*
X138554D01*
Y133425D01*
X132554D01*
G37*
G36*
Y131456D02*Y130354D01*
X138554D01*
Y131456D01*
X132554D01*
G37*
G36*
Y129488D02*Y128386D01*
X138554D01*
Y129488D01*
X132554D01*
G37*
G36*
Y127519D02*Y126417D01*
X138554D01*
Y127519D01*
X132554D01*
G37*
G36*
Y125551D02*Y124449D01*
X138554D01*
Y125551D01*
X132554D01*
G37*
G36*
Y123582D02*Y122480D01*
X138554D01*
Y123582D01*
X132554D01*
G37*
G36*
Y121614D02*Y120512D01*
X138554D01*
Y121614D01*
X132554D01*
G37*
G36*
Y119645D02*Y118543D01*
X138554D01*
Y119645D01*
X132554D01*
G37*
G36*
X422428Y147188D02*Y142188D01*
X427428D01*
Y147188D01*
X422428D01*
G37*
G36*
Y140916D02*Y135916D01*
X427428D01*
Y140916D01*
X422428D01*
G37*
G36*
X430428Y147188D02*Y142188D01*
X435428D01*
Y147188D01*
X430428D01*
G37*
G36*
Y140916D02*Y135916D01*
X435428D01*
Y140916D01*
X430428D01*
G37*
G36*
X404396Y144248D02*Y139248D01*
X409396D01*
Y144248D01*
X404396D01*
G37*
G36*
X412396D02*Y139248D01*
X417396D01*
Y144248D01*
X412396D01*
G37*
G36*
X400742Y160406D02*X386242D01*
Y141906D01*
X400742D01*
Y160406D01*
G37*
G36*
X403668Y171904D02*X397668D01*
Y164904D01*
X403668D01*
Y171904D01*
G37*
G36*
X378942Y160406D02*X364442D01*
Y141906D01*
X378942D01*
Y160406D01*
G37*
G36*
X391668Y171904D02*X385668D01*
Y164904D01*
X391668D01*
Y171904D01*
G37*
G36*
X370108D02*X364108D01*
Y164904D01*
X370108D01*
Y171904D01*
G37*
G36*
X382108D02*X376108D01*
Y164904D01*
X382108D01*
Y171904D01*
G37*
G36*
X301023Y213342D02*X295023D01*
Y206342D01*
X301023D01*
Y213342D01*
G37*
G36*
X294134Y165705D02*X288134D01*
Y158705D01*
X294134D01*
Y165705D01*
G37*
G36*
X293492Y195806D02*Y190806D01*
X298492D01*
Y195806D01*
X293492D01*
G37*
G36*
Y202893D02*Y197893D01*
X298492D01*
Y202893D01*
X293492D01*
G37*
G36*
X289023Y213342D02*X283023D01*
Y206342D01*
X289023D01*
Y213342D01*
G37*
G36*
X273076Y213240D02*Y208240D01*
X278076D01*
Y213240D01*
X273076D01*
G37*
G36*
Y198736D02*Y193736D01*
X278076D01*
Y198736D01*
X273076D01*
G37*
G36*
Y205240D02*Y200240D01*
X278076D01*
Y205240D01*
X273076D01*
G37*
G36*
Y190736D02*Y185736D01*
X278076D01*
Y190736D01*
X273076D01*
G37*
G36*
X285492Y195806D02*Y190806D01*
X290492D01*
Y195806D01*
X285492D01*
G37*
G36*
Y202893D02*Y197893D01*
X290492D01*
Y202893D01*
X285492D01*
G37*
G36*
X242579Y229862D02*Y224862D01*
X247579D01*
Y229862D01*
X242579D01*
G37*
G36*
Y221862D02*Y216862D01*
X247579D01*
Y221862D01*
X242579D01*
G37*
G36*
X227421Y217460D02*Y212460D01*
X232421D01*
Y217460D01*
X227421D01*
G37*
G36*
X235421D02*Y212460D01*
X240421D01*
Y217460D01*
X235421D01*
G37*
G36*
X227421Y224547D02*Y219547D01*
X232421D01*
Y224547D01*
X227421D01*
G37*
G36*
X235421D02*Y219547D01*
X240421D01*
Y224547D01*
X235421D01*
G37*
G36*
X227421Y210374D02*Y205374D01*
X232421D01*
Y210374D01*
X227421D01*
G37*
G36*
X235421D02*Y205374D01*
X240421D01*
Y210374D01*
X235421D01*
G37*
G36*
X340196Y118818D02*X339016D01*
Y111733D01*
X340196D01*
Y118818D01*
G37*
G36*
X338227D02*X337047D01*
Y111733D01*
X338227D01*
Y118818D01*
G37*
G36*
X336259D02*X335079D01*
Y111733D01*
X336259D01*
Y118818D01*
G37*
G36*
X334290D02*X333110D01*
Y111733D01*
X334290D01*
Y118818D01*
G37*
G36*
X332322D02*X331142D01*
Y111733D01*
X332322D01*
Y118818D01*
G37*
G36*
X330353D02*X329173D01*
Y111733D01*
X330353D01*
Y118818D01*
G37*
G36*
X328385D02*X327205D01*
Y111733D01*
X328385D01*
Y118818D01*
G37*
G36*
X326416D02*X325236D01*
Y111733D01*
X326416D01*
Y118818D01*
G37*
G36*
X324448D02*X323268D01*
Y111733D01*
X324448D01*
Y118818D01*
G37*
G36*
X322479D02*X321299D01*
Y111733D01*
X322479D01*
Y118818D01*
G37*
G36*
X320511D02*X319331D01*
Y111733D01*
X320511D01*
Y118818D01*
G37*
G36*
X340196Y131810D02*X339016D01*
Y124725D01*
X340196D01*
Y131810D01*
G37*
G36*
X338227D02*X337047D01*
Y124725D01*
X338227D01*
Y131810D01*
G37*
G36*
X336259D02*X335079D01*
Y124725D01*
X336259D01*
Y131810D01*
G37*
G36*
X334290D02*X333110D01*
Y124725D01*
X334290D01*
Y131810D01*
G37*
G36*
X332322D02*X331142D01*
Y124725D01*
X332322D01*
Y131810D01*
G37*
G36*
X330353D02*X329173D01*
Y124725D01*
X330353D01*
Y131810D01*
G37*
G36*
X328385D02*X327205D01*
Y124725D01*
X328385D01*
Y131810D01*
G37*
G36*
X326416D02*X325236D01*
Y124725D01*
X326416D01*
Y131810D01*
G37*
G36*
X324448D02*X323268D01*
Y124725D01*
X324448D01*
Y131810D01*
G37*
G36*
X322479D02*X321299D01*
Y124725D01*
X322479D01*
Y131810D01*
G37*
G36*
X320511D02*X319331D01*
Y124725D01*
X320511D01*
Y131810D01*
G37*
G36*
X318542D02*X317362D01*
Y124725D01*
X318542D01*
Y131810D01*
G37*
G36*
X334705Y141476D02*Y136476D01*
X339705D01*
Y141476D01*
X334705D01*
G37*
G36*
X342705D02*Y136476D01*
X347705D01*
Y141476D01*
X342705D01*
G37*
G36*
X340892Y171296D02*Y166296D01*
X345892D01*
Y171296D01*
X340892D01*
G37*
G36*
Y163296D02*Y158296D01*
X345892D01*
Y163296D01*
X340892D01*
G37*
G36*
X348026Y149670D02*Y147898D01*
X350586D01*
Y149670D01*
X348026D01*
G37*
G36*
Y152032D02*Y150260D01*
X350586D01*
Y152032D01*
X348026D01*
G37*
G36*
Y154394D02*Y152622D01*
X350586D01*
Y154394D01*
X348026D01*
G37*
G36*
X340152Y149670D02*Y147898D01*
X342712D01*
Y149670D01*
X340152D01*
G37*
G36*
Y152032D02*Y150260D01*
X342712D01*
Y152032D01*
X340152D01*
G37*
G36*
Y154394D02*Y152622D01*
X342712D01*
Y154394D01*
X340152D01*
G37*
G54D24*X143112Y156495D03*
X165157Y164173D03*
X143112Y146653D03*
G54D25*X158268Y145078D03*
X153740D03*
X146850Y159448D03*
X157480Y181496D03*
X155315Y185039D03*
X153346Y188779D03*
X147441Y187204D03*
X149409Y190944D03*
G54D24*X168898Y222244D03*
G54D25*X141536Y163385D03*
X139567Y167322D03*
X143504Y180118D03*
X145472Y183661D03*
X141339Y194881D03*
G54D24*X172049Y117716D03*
X166732Y191929D03*
G54D25*X168701Y181496D03*
X173819Y206496D03*
X168898D03*
X172835Y169684D03*
G54D24*X190945Y117716D03*
G54D25*X186220Y142322D03*
X183858Y117716D03*
G54D24*X197835Y179527D03*
G54D25*X193898Y174212D03*
X188189Y157480D03*
X182087Y160629D03*
X191535Y157480D03*
G54D24*X115356Y145669D03*
Y157480D03*
G54D25*X112205Y140748D03*
X105315Y157283D03*
X98622Y175983D03*
X105315Y175984D03*
X91929Y157283D03*
X98819D03*
X69488Y150787D03*
G54D24*X72638Y169094D03*
G54D25*X68307Y223031D03*
X91929Y175984D03*
X79973Y184412D03*
G54D24*X79904Y179385D03*
G54D25*X79973Y215184D03*
G54D24*X124788Y230541D03*
Y220153D03*
X119692Y225445D03*
G54D25*X79973Y209892D03*
G54D24*X79904Y204865D03*
X86372Y199769D03*
X26971Y208643D03*
X124788Y204865D03*
G54D25*X124755Y199707D03*
G54D24*X119692Y212509D03*
Y191929D03*
X86372Y194673D03*
Y189577D03*
X329726Y133858D03*
X329530Y121063D03*
X328742Y109645D03*
G54D25*X318701Y121850D03*
X314764Y134645D03*
G54D24*X329726Y139566D03*
G54D25*X245472Y108070D03*
G54D24*Y113582D03*
G54D25*X246850Y118503D03*
X243701Y148818D03*
X238780Y108070D03*
X228740D03*
X221654Y96456D03*
G54D24*X220079Y52165D03*
Y41535D03*
G54D25*X229331Y126377D03*
X210039Y41141D03*
X201968Y70668D03*
X218307Y20472D03*
X218485Y144097D03*
X229330Y16731D03*
X236614D03*
X243898Y16732D03*
X275984Y225590D03*
Y230511D03*
G54D24*X275576Y214268D03*
G54D25*X271457Y151771D03*
X275197Y163779D03*
Y160433D03*
X279134Y155905D03*
X275576Y184868D03*
G54D26*X293020Y180556D03*
G54D24*X299213Y190157D03*
X221065Y138779D03*
G54D25*X212402Y142913D03*
X223622Y148229D03*
X230315Y148228D03*
X235433Y148818D03*
X219291Y127952D03*
X208071Y142913D03*
G54D24*X211417Y164173D03*
G54D25*X221654Y168700D03*
X224803Y173228D03*
X231890Y187992D03*
Y175590D03*
Y179724D03*
G54D24*Y183858D03*
X241535Y227559D03*
G54D25*X252953Y200393D03*
Y204527D03*
X245276Y215748D03*
G54D24*X229921Y225590D03*
G54D25*X322835Y121850D03*
G54D24*X438452Y113524D03*
G54D25*X318898Y134645D03*
G54D24*X436100Y141552D03*
X371224Y168404D03*
G54D25*X400315Y173122D03*
X406783Y145290D03*
G54D27*X379921Y157677D03*
Y153543D03*
Y149212D03*
Y144881D03*
G54D25*X301181Y105118D03*
X297047D03*
X292913D03*
X288780D03*
X289567Y121653D03*
X285236D03*
G54D24*X272441Y11417D03*
G54D25*X271457Y146063D03*
Y139370D03*
Y132677D03*
G54D24*X272638Y31889D03*
X94685Y22440D03*
G54D25*X85630Y16338D03*
G54D24*X100986Y92124D03*
X101772Y43110D03*
X103151Y70471D03*
G54D25*X92717Y49409D03*
X114961Y41141D03*
X100592Y74408D03*
G54D24*X47050Y71849D03*
G54D25*X176378Y57283D03*
X172244Y54330D03*
X183268Y60433D03*
X80316Y86612D03*
X80119Y76376D03*
G54D24*X78348Y83069D03*
G54D28*X72638Y68306D03*
G54D25*X156102Y19488D03*
X173425Y41141D03*
G54D24*X166144Y89960D03*
G54D25*X161024Y104527D03*
X158071Y101574D03*
G54D24*X143112Y128936D03*
X115356Y127952D03*
G54D25*X126772Y117913D03*
X142717Y118307D03*
X97835Y127165D03*
G54D24*X137008Y90157D03*
G54D25*X128150Y95078D03*
Y89173D03*
X121851Y100196D03*
X126772Y113779D03*
Y109645D03*
X142520Y122637D03*
X146850Y117519D03*
X151181D03*
X162795Y118110D03*
X158858Y115944D03*
G54D24*X78349Y90156D03*
G54D25*X111024Y83464D03*
X96654Y87991D03*
X128740Y82874D03*
G54D24*X91733Y96653D03*
X50594Y101376D03*
G54D25*X155118Y98622D03*
X152165Y95669D03*
G54D24*X164764Y19488D03*
G54D25*X160433Y26574D03*
X169094D03*
X186417D03*
X182087Y19488D03*
G54D29*G54D30*G54D29*G54D30*G54D29*G54D30*G54D29*G54D30*G54D29*G54D30*G54D29*G54D30*G54D29*G54D30*G54D29*G54D30*G54D29*G54D30*G54D29*G54D30*G54D29*G54D30*G54D29*G54D30*G54D29*G54D30*G54D29*G54D30*G54D29*G54D30*G54D31*G54D29*G54D30*G54D29*G54D30*G54D29*G54D30*G54D29*G54D30*G54D29*G54D30*G54D29*G54D30*G54D32*G54D30*G54D29*G54D30*G54D29*G54D30*G54D29*G54D30*G54D29*G54D30*G54D29*G54D27*G54D30*G54D29*G54D30*G54D29*G54D30*G54D29*G54D30*G54D29*G54D30*G54D29*G54D30*G54D29*G54D30*G54D33*G54D27*G54D34*G54D33*G54D27*G54D34*G54D27*G54D35*G54D27*G54D34*G54D33*G54D34*G54D33*G54D36*G54D27*M02*
