G04 start of page 5 for group -4063 idx -4063 *
G04 Title: (unknown), componentmask *
G04 Creator: pcb 4.0.2 *
G04 CreationDate: Wed Oct 16 23:20:42 2019 UTC *
G04 For: walter *
G04 Format: Gerber/RS-274X *
G04 PCB-Dimensions (mil): 4429.13 2362.20 *
G04 PCB-Coordinate-Origin: lower left *
%MOIN*%
%FSLAX25Y25*%
%LNTOPMASK*%
%ADD78C,0.1380*%
%ADD77C,0.0860*%
%ADD76C,0.0960*%
%ADD75C,0.1400*%
%ADD74C,0.0660*%
%ADD73C,0.0900*%
%ADD72C,0.0001*%
%ADD71C,0.1260*%
G54D71*X279763Y55236D03*
X433700Y86732D03*
X339684Y7835D03*
G54D72*G36*
X129162Y10405D02*Y1405D01*
X138162D01*
Y10405D01*
X129162D01*
G37*
G36*
X259280Y222216D02*Y213216D01*
X268280D01*
Y222216D01*
X259280D01*
G37*
G54D73*X263780Y207716D03*
Y197716D03*
X287425Y223229D03*
X263780Y187716D03*
Y177716D03*
Y167716D03*
G54D72*G36*
X234692Y136961D02*Y130361D01*
X241292D01*
Y136961D01*
X234692D01*
G37*
G54D74*X237992Y143661D03*
X284686Y146065D03*
G54D71*X368346Y134763D03*
G54D72*G36*
X326601Y198201D02*Y189201D01*
X335601D01*
Y198201D01*
X326601D01*
G37*
G54D73*X351101Y193701D03*
G54D72*G36*
X314004Y171627D02*Y162627D01*
X323004D01*
Y171627D01*
X314004D01*
G37*
G54D73*X318504Y147127D03*
X297425Y223229D03*
G54D72*G36*
X291386Y149365D02*Y142765D01*
X297986D01*
Y149365D01*
X291386D01*
G37*
G54D73*X307425Y223229D03*
X330425D03*
X340425D03*
X350425D03*
X373425D03*
X383425D03*
X393425D03*
G54D75*X426574Y217806D03*
G54D76*X394385Y184946D03*
X374385D03*
G54D75*X426574Y158642D03*
Y178042D03*
G54D76*X394385Y204946D03*
X374385D03*
G54D75*X426574Y198406D03*
G54D72*G36*
X144716Y223985D02*Y215385D01*
X153316D01*
Y223985D01*
X144716D01*
G37*
G54D77*X139016Y209685D03*
Y229685D03*
X159016Y209685D03*
Y229685D03*
G54D72*G36*
X215185Y217492D02*Y208492D01*
X224185D01*
Y217492D01*
X215185D01*
G37*
G54D73*X209685Y212992D03*
X199685D03*
G54D72*G36*
X215185Y231665D02*Y222665D01*
X224185D01*
Y231665D01*
X215185D01*
G37*
G54D73*X209685Y227165D03*
X199685D03*
G54D72*G36*
X21681Y30287D02*Y21287D01*
X30681D01*
Y30287D01*
X21681D01*
G37*
G54D73*X16181Y25787D03*
X26181Y35787D03*
X16181D03*
X26181Y45787D03*
X16181D03*
X26181Y55787D03*
X16181D03*
X26181Y65787D03*
X16181D03*
X85570Y5874D03*
X75531D03*
X65492D03*
X5452D03*
X15492D03*
G54D72*G36*
X120303Y36783D02*Y27783D01*
X129303D01*
Y36783D01*
X120303D01*
G37*
G54D73*X124803Y52283D03*
X123662Y5905D03*
X113662D03*
X103662D03*
X26181Y75787D03*
Y85787D03*
Y95787D03*
X16181Y75787D03*
Y85787D03*
Y95787D03*
Y105787D03*
Y115787D03*
X26181Y105787D03*
Y115787D03*
G54D72*G36*
X56347Y114519D02*Y107919D01*
X62947D01*
Y114519D01*
X56347D01*
G37*
G54D74*X49647Y111219D03*
G54D71*X39952Y140384D03*
G54D74*X105315Y142322D03*
X95315D03*
G54D71*X39952Y201384D03*
G54D78*X27952Y193384D03*
Y148384D03*
G54D73*X62952Y153384D03*
Y183384D03*
Y173384D03*
Y163384D03*
X52952Y178384D03*
Y168384D03*
Y188384D03*
Y158384D03*
G54D72*G36*
X52515Y137839D02*Y132239D01*
X58115D01*
Y137839D01*
X52515D01*
G37*
G36*
X60515D02*Y132239D01*
X66115D01*
Y137839D01*
X60515D01*
G37*
G36*
X52515Y130752D02*Y125152D01*
X58115D01*
Y130752D01*
X52515D01*
G37*
G36*
X60515D02*Y125152D01*
X66115D01*
Y130752D01*
X60515D01*
G37*
G36*
X53893Y225831D02*Y220231D01*
X59493D01*
Y225831D01*
X53893D01*
G37*
G36*
X61893D02*Y220231D01*
X67493D01*
Y225831D01*
X61893D01*
G37*
G36*
X71216Y130752D02*Y125152D01*
X76816D01*
Y130752D01*
X71216D01*
G37*
G36*
X79216D02*Y125152D01*
X84816D01*
Y130752D01*
X79216D01*
G37*
G36*
X71216Y137839D02*Y132239D01*
X76816D01*
Y137839D01*
X71216D01*
G37*
G36*
X79216D02*Y132239D01*
X84816D01*
Y137839D01*
X79216D01*
G37*
G36*
X73578Y171894D02*Y166294D01*
X79178D01*
Y171894D01*
X73578D01*
G37*
G36*
X73366Y197587D02*Y191831D01*
X80106D01*
Y197587D01*
X73366D01*
G37*
G36*
Y192470D02*Y186714D01*
X80106D01*
Y192470D01*
X73366D01*
G37*
G36*
Y187352D02*Y181596D01*
X80106D01*
Y187352D01*
X73366D01*
G37*
G36*
Y182233D02*Y176477D01*
X80106D01*
Y182233D01*
X73366D01*
G37*
G36*
X106649Y129965D02*Y124365D01*
X112249D01*
Y129965D01*
X106649D01*
G37*
G36*
X115902Y130751D02*Y125151D01*
X121502D01*
Y130751D01*
X115902D01*
G37*
G36*
X123902D02*Y125151D01*
X129502D01*
Y130751D01*
X123902D01*
G37*
G36*
X98649Y129965D02*Y124365D01*
X104249D01*
Y129965D01*
X98649D01*
G37*
G36*
X115902Y160279D02*Y154679D01*
X121502D01*
Y160279D01*
X115902D01*
G37*
G36*
X123902D02*Y154679D01*
X129502D01*
Y160279D01*
X123902D01*
G37*
G36*
X115902Y148468D02*Y142868D01*
X121502D01*
Y148468D01*
X115902D01*
G37*
G36*
X123902D02*Y142868D01*
X129502D01*
Y148468D01*
X123902D01*
G37*
G36*
X124547Y228296D02*Y222540D01*
X131287D01*
Y228296D01*
X124547D01*
G37*
G36*
Y223177D02*Y217421D01*
X131287D01*
Y223177D01*
X124547D01*
G37*
G36*
Y218060D02*Y212304D01*
X131287D01*
Y218060D01*
X124547D01*
G37*
G36*
Y212942D02*Y207186D01*
X131287D01*
Y212942D01*
X124547D01*
G37*
G36*
Y207824D02*Y202068D01*
X131287D01*
Y207824D01*
X124547D01*
G37*
G36*
Y202706D02*Y196950D01*
X131287D01*
Y202706D01*
X124547D01*
G37*
G36*
Y197587D02*Y191831D01*
X131287D01*
Y197587D01*
X124547D01*
G37*
G36*
Y192470D02*Y186714D01*
X131287D01*
Y192470D01*
X124547D01*
G37*
G36*
Y187352D02*Y181596D01*
X131287D01*
Y187352D01*
X124547D01*
G37*
G36*
Y233414D02*Y227658D01*
X131287D01*
Y233414D01*
X124547D01*
G37*
G36*
Y182233D02*Y176477D01*
X131287D01*
Y182233D01*
X124547D01*
G37*
G36*
X81578Y171894D02*Y166294D01*
X87178D01*
Y171894D01*
X81578D01*
G37*
G36*
X89129Y171697D02*Y166097D01*
X94729D01*
Y171697D01*
X89129D01*
G37*
G36*
X95822D02*Y166097D01*
X101422D01*
Y171697D01*
X95822D01*
G37*
G36*
X102515D02*Y166097D01*
X108115D01*
Y171697D01*
X102515D01*
G37*
G36*
X89129Y163697D02*Y158097D01*
X94729D01*
Y163697D01*
X89129D01*
G37*
G36*
X95822D02*Y158097D01*
X101422D01*
Y163697D01*
X95822D01*
G37*
G36*
X102515D02*Y158097D01*
X108115D01*
Y163697D01*
X102515D01*
G37*
G36*
X73366Y228296D02*Y222540D01*
X80106D01*
Y228296D01*
X73366D01*
G37*
G36*
Y223177D02*Y217421D01*
X80106D01*
Y223177D01*
X73366D01*
G37*
G36*
Y218060D02*Y212304D01*
X80106D01*
Y218060D01*
X73366D01*
G37*
G36*
Y212942D02*Y207186D01*
X80106D01*
Y212942D01*
X73366D01*
G37*
G36*
Y207824D02*Y202068D01*
X80106D01*
Y207824D01*
X73366D01*
G37*
G36*
Y202706D02*Y196950D01*
X80106D01*
Y202706D01*
X73366D01*
G37*
G36*
Y233414D02*Y227658D01*
X80106D01*
Y233414D01*
X73366D01*
G37*
G36*
X24169Y214986D02*Y209386D01*
X29769D01*
Y214986D01*
X24169D01*
G37*
G36*
Y222986D02*Y217386D01*
X29769D01*
Y222986D01*
X24169D01*
G37*
G36*
X8616Y214986D02*Y209386D01*
X14216D01*
Y214986D01*
X8616D01*
G37*
G36*
Y222986D02*Y217386D01*
X14216D01*
Y222986D01*
X8616D01*
G37*
G36*
X15112Y214986D02*Y209386D01*
X20712D01*
Y214986D01*
X15112D01*
G37*
G36*
Y222986D02*Y217386D01*
X20712D01*
Y222986D01*
X15112D01*
G37*
G36*
X2120Y214986D02*Y209386D01*
X7720D01*
Y214986D01*
X2120D01*
G37*
G36*
Y222986D02*Y217386D01*
X7720D01*
Y222986D01*
X2120D01*
G37*
G36*
X101292Y104163D02*X99890D01*
Y99363D01*
X101292D01*
Y104163D01*
G37*
G36*
X99324D02*X97922D01*
Y99363D01*
X99324D01*
Y104163D01*
G37*
G36*
X97355D02*X95953D01*
Y99363D01*
X97355D01*
Y104163D01*
G37*
G36*
X95387D02*X93985D01*
Y99363D01*
X95387D01*
Y104163D01*
G37*
G36*
X90312Y122089D02*Y116489D01*
X95912D01*
Y122089D01*
X90312D01*
G37*
G36*
Y114089D02*Y108489D01*
X95912D01*
Y114089D01*
X90312D01*
G37*
G36*
X83224Y122091D02*Y116491D01*
X88824D01*
Y122091D01*
X83224D01*
G37*
G36*
Y114091D02*Y108491D01*
X88824D01*
Y114091D01*
X83224D01*
G37*
G36*
X93418Y104163D02*X92016D01*
Y99363D01*
X93418D01*
Y104163D01*
G37*
G36*
X91450D02*X90048D01*
Y99363D01*
X91450D01*
Y104163D01*
G37*
G36*
X89481D02*X88079D01*
Y99363D01*
X89481D01*
Y104163D01*
G37*
G36*
X105862Y104374D02*Y98774D01*
X111462D01*
Y104374D01*
X105862D01*
G37*
G36*
X113862D02*Y98774D01*
X119462D01*
Y104374D01*
X113862D01*
G37*
G36*
X105863Y110870D02*Y105270D01*
X111463D01*
Y110870D01*
X105863D01*
G37*
G36*
X113863D02*Y105270D01*
X119463D01*
Y110870D01*
X113863D01*
G37*
G36*
X108421Y118350D02*Y112750D01*
X114021D01*
Y118350D01*
X108421D01*
G37*
G36*
X116421D02*Y112750D01*
X122021D01*
Y118350D01*
X116421D01*
G37*
G36*
X103894Y75109D02*Y73707D01*
X108694D01*
Y75109D01*
X103894D01*
G37*
G36*
Y77077D02*Y75675D01*
X108694D01*
Y77077D01*
X103894D01*
G37*
G36*
Y79046D02*Y77644D01*
X108694D01*
Y79046D01*
X103894D01*
G37*
G36*
Y81014D02*Y79612D01*
X108694D01*
Y81014D01*
X103894D01*
G37*
G36*
Y82983D02*Y81581D01*
X108694D01*
Y82983D01*
X103894D01*
G37*
G36*
Y84951D02*Y83549D01*
X108694D01*
Y84951D01*
X103894D01*
G37*
G36*
Y86920D02*Y85518D01*
X108694D01*
Y86920D01*
X103894D01*
G37*
G36*
Y88888D02*Y87486D01*
X108694D01*
Y88888D01*
X103894D01*
G37*
G36*
Y90857D02*Y89455D01*
X108694D01*
Y90857D01*
X103894D01*
G37*
G36*
Y92825D02*Y91423D01*
X108694D01*
Y92825D01*
X103894D01*
G37*
G36*
Y94794D02*Y93392D01*
X108694D01*
Y94794D01*
X103894D01*
G37*
G36*
Y96762D02*Y95360D01*
X108694D01*
Y96762D01*
X103894D01*
G37*
G36*
X113807Y97877D02*Y92277D01*
X119407D01*
Y97877D01*
X113807D01*
G37*
G36*
X113806Y90792D02*Y85192D01*
X119406D01*
Y90792D01*
X113806D01*
G37*
G36*
X105272Y71696D02*Y66096D01*
X110872D01*
Y71696D01*
X105272D01*
G37*
G36*
X89720Y42760D02*Y37160D01*
X95320D01*
Y42760D01*
X89720D01*
G37*
G36*
X81720D02*Y37160D01*
X87320D01*
Y42760D01*
X81720D01*
G37*
G36*
X99956Y28784D02*Y23184D01*
X105556D01*
Y28784D01*
X99956D01*
G37*
G36*
X91956D02*Y23184D01*
X97556D01*
Y28784D01*
X91956D01*
G37*
G36*
X113272Y71696D02*Y66096D01*
X118872D01*
Y71696D01*
X113272D01*
G37*
G36*
X113807Y81145D02*Y75545D01*
X119407D01*
Y81145D01*
X113807D01*
G37*
G36*
X119838Y19138D02*Y13538D01*
X125438D01*
Y19138D01*
X119838D01*
G37*
G36*
X111838D02*Y13538D01*
X117438D01*
Y19138D01*
X111838D01*
G37*
G36*
X87513Y104163D02*X86111D01*
Y99363D01*
X87513D01*
Y104163D01*
G37*
G36*
X85544D02*X84142D01*
Y99363D01*
X85544D01*
Y104163D01*
G37*
G36*
X83576D02*X82174D01*
Y99363D01*
X83576D01*
Y104163D01*
G37*
G36*
X81607D02*X80205D01*
Y99363D01*
X81607D01*
Y104163D01*
G37*
G36*
X79639D02*X78237D01*
Y99363D01*
X79639D01*
Y104163D01*
G37*
G36*
X70836Y96761D02*Y95359D01*
X75636D01*
Y96761D01*
X70836D01*
G37*
G36*
Y94793D02*Y93391D01*
X75636D01*
Y94793D01*
X70836D01*
G37*
G36*
X55863Y100634D02*Y95034D01*
X61463D01*
Y100634D01*
X55863D01*
G37*
G36*
X47863D02*Y95034D01*
X53463D01*
Y100634D01*
X47863D01*
G37*
G36*
X55863Y94138D02*Y88538D01*
X61463D01*
Y94138D01*
X55863D01*
G37*
G36*
X47863D02*Y88538D01*
X53463D01*
Y94138D01*
X47863D01*
G37*
G36*
X70836Y92824D02*Y91422D01*
X75636D01*
Y92824D01*
X70836D01*
G37*
G36*
Y90856D02*Y89454D01*
X75636D01*
Y90856D01*
X70836D01*
G37*
G36*
Y88887D02*Y87485D01*
X75636D01*
Y88887D01*
X70836D01*
G37*
G36*
Y86919D02*Y85517D01*
X75636D01*
Y86919D01*
X70836D01*
G37*
G36*
Y84950D02*Y83548D01*
X75636D01*
Y84950D01*
X70836D01*
G37*
G36*
Y82982D02*Y81580D01*
X75636D01*
Y82982D01*
X70836D01*
G37*
G36*
Y81013D02*Y79611D01*
X75636D01*
Y81013D01*
X70836D01*
G37*
G36*
Y79045D02*Y77643D01*
X75636D01*
Y79045D01*
X70836D01*
G37*
G36*
Y77076D02*Y75674D01*
X75636D01*
Y77076D01*
X70836D01*
G37*
G36*
Y75108D02*Y73706D01*
X75636D01*
Y75108D01*
X70836D01*
G37*
G36*
X79640Y71105D02*X78238D01*
Y66305D01*
X79640D01*
Y71105D01*
G37*
G36*
X81608D02*X80206D01*
Y66305D01*
X81608D01*
Y71105D01*
G37*
G36*
X83577D02*X82175D01*
Y66305D01*
X83577D01*
Y71105D01*
G37*
G36*
X70428Y61067D02*Y55467D01*
X76028D01*
Y61067D01*
X70428D01*
G37*
G36*
X70429Y53980D02*Y48380D01*
X76029D01*
Y53980D01*
X70429D01*
G37*
G36*
X70428Y46894D02*Y41294D01*
X76028D01*
Y46894D01*
X70428D01*
G37*
G36*
X85545Y71105D02*X84143D01*
Y66305D01*
X85545D01*
Y71105D01*
G37*
G36*
X87514D02*X86112D01*
Y66305D01*
X87514D01*
Y71105D01*
G37*
G36*
X89482D02*X88080D01*
Y66305D01*
X89482D01*
Y71105D01*
G37*
G36*
X91451D02*X90049D01*
Y66305D01*
X91451D01*
Y71105D01*
G37*
G36*
X93419D02*X92017D01*
Y66305D01*
X93419D01*
Y71105D01*
G37*
G36*
X89918Y63231D02*Y57631D01*
X95518D01*
Y63231D01*
X89918D01*
G37*
G36*
X95388Y71105D02*X93986D01*
Y66305D01*
X95388D01*
Y71105D01*
G37*
G36*
X97356D02*X95954D01*
Y66305D01*
X97356D01*
Y71105D01*
G37*
G36*
X99325D02*X97923D01*
Y66305D01*
X99325D01*
Y71105D01*
G37*
G36*
X101293D02*X99891D01*
Y66305D01*
X101293D01*
Y71105D01*
G37*
G36*
X97918Y63231D02*Y57631D01*
X103518D01*
Y63231D01*
X97918D01*
G37*
G36*
X88286Y56200D02*Y49700D01*
X96361D01*
Y56200D01*
X88286D01*
G37*
G36*
X96948D02*Y49700D01*
X105023D01*
Y56200D01*
X96948D01*
G37*
G36*
X88286Y49114D02*Y42614D01*
X96361D01*
Y49114D01*
X88286D01*
G37*
G36*
X96948D02*Y42614D01*
X105023D01*
Y49114D01*
X96948D01*
G37*
G36*
X55863Y87641D02*Y82041D01*
X61463D01*
Y87641D01*
X55863D01*
G37*
G36*
Y81145D02*Y75545D01*
X61463D01*
Y81145D01*
X55863D01*
G37*
G36*
Y74649D02*Y69049D01*
X61463D01*
Y74649D01*
X55863D01*
G37*
G36*
X47863Y87641D02*Y82041D01*
X53463D01*
Y87641D01*
X47863D01*
G37*
G36*
Y81145D02*Y75545D01*
X53463D01*
Y81145D01*
X47863D01*
G37*
G36*
Y74649D02*Y69049D01*
X53463D01*
Y74649D01*
X47863D01*
G37*
G36*
Y68153D02*Y62553D01*
X53463D01*
Y68153D01*
X47863D01*
G37*
G36*
X55863D02*Y62553D01*
X61463D01*
Y68153D01*
X55863D01*
G37*
G36*
X62428Y61067D02*Y55467D01*
X68028D01*
Y61067D01*
X62428D01*
G37*
G36*
X62429Y53980D02*Y48380D01*
X68029D01*
Y53980D01*
X62429D01*
G37*
G36*
X62428Y46894D02*Y41294D01*
X68028D01*
Y46894D01*
X62428D01*
G37*
G36*
X320042Y120318D02*X315862D01*
Y110233D01*
X320042D01*
Y120318D01*
G37*
G36*
X318074D02*X313894D01*
Y110233D01*
X318074D01*
Y120318D01*
G37*
G36*
X316105D02*X311925D01*
Y110233D01*
X316105D01*
Y120318D01*
G37*
G36*
X314137D02*X309957D01*
Y110233D01*
X314137D01*
Y120318D01*
G37*
G36*
X312168D02*X307988D01*
Y110233D01*
X312168D01*
Y120318D01*
G37*
G36*
X310200D02*X306020D01*
Y110233D01*
X310200D01*
Y120318D01*
G37*
G36*
X308231D02*X304051D01*
Y110233D01*
X308231D01*
Y120318D01*
G37*
G36*
X306263D02*X302083D01*
Y110233D01*
X306263D01*
Y120318D01*
G37*
G36*
X304294D02*X300114D01*
Y110233D01*
X304294D01*
Y120318D01*
G37*
G36*
X302326D02*X298146D01*
Y110233D01*
X302326D01*
Y120318D01*
G37*
G36*
X300357D02*X296177D01*
Y110233D01*
X300357D01*
Y120318D01*
G37*
G36*
X318074Y133310D02*X313894D01*
Y123225D01*
X318074D01*
Y133310D01*
G37*
G36*
X316105D02*X311925D01*
Y123225D01*
X316105D01*
Y133310D01*
G37*
G36*
X314137D02*X309957D01*
Y123225D01*
X314137D01*
Y133310D01*
G37*
G36*
X312168D02*X307988D01*
Y123225D01*
X312168D01*
Y133310D01*
G37*
G36*
X310200D02*X306020D01*
Y123225D01*
X310200D01*
Y133310D01*
G37*
G36*
X308231D02*X304051D01*
Y123225D01*
X308231D01*
Y133310D01*
G37*
G36*
X306263D02*X302083D01*
Y123225D01*
X306263D01*
Y133310D01*
G37*
G36*
X304294D02*X300114D01*
Y123225D01*
X304294D01*
Y133310D01*
G37*
G36*
X302326D02*X298146D01*
Y123225D01*
X302326D01*
Y133310D01*
G37*
G36*
X300357D02*X296177D01*
Y123225D01*
X300357D01*
Y133310D01*
G37*
G36*
X298389D02*X294209D01*
Y123225D01*
X298389D01*
Y133310D01*
G37*
G36*
X296420D02*X292240D01*
Y123225D01*
X296420D01*
Y133310D01*
G37*
G36*
X294452D02*X290272D01*
Y123225D01*
X294452D01*
Y133310D01*
G37*
G36*
X292483D02*X288303D01*
Y123225D01*
X292483D01*
Y133310D01*
G37*
G36*
X290515D02*X286335D01*
Y123225D01*
X290515D01*
Y133310D01*
G37*
G36*
X288546D02*X284366D01*
Y123225D01*
X288546D01*
Y133310D01*
G37*
G36*
X286578D02*X282398D01*
Y123225D01*
X286578D01*
Y133310D01*
G37*
G36*
X284609D02*X280429D01*
Y123225D01*
X284609D01*
Y133310D01*
G37*
G36*
X298389Y120318D02*X294209D01*
Y110233D01*
X298389D01*
Y120318D01*
G37*
G36*
X296420D02*X292240D01*
Y110233D01*
X296420D01*
Y120318D01*
G37*
G36*
X294452D02*X290272D01*
Y110233D01*
X294452D01*
Y120318D01*
G37*
G36*
X292483D02*X288303D01*
Y110233D01*
X292483D01*
Y120318D01*
G37*
G36*
X290515D02*X286335D01*
Y110233D01*
X290515D01*
Y120318D01*
G37*
G36*
X288546D02*X284366D01*
Y110233D01*
X288546D01*
Y120318D01*
G37*
G36*
X286578D02*X282398D01*
Y110233D01*
X286578D01*
Y120318D01*
G37*
G36*
X284609D02*X280429D01*
Y110233D01*
X284609D01*
Y120318D01*
G37*
G36*
X265043Y114611D02*Y109011D01*
X270643D01*
Y114611D01*
X265043D01*
G37*
G36*
X269641Y106933D02*Y101333D01*
X275241D01*
Y106933D01*
X269641D01*
G37*
G36*
Y98933D02*Y93333D01*
X275241D01*
Y98933D01*
X269641D01*
G37*
G36*
X265043Y121303D02*Y115703D01*
X270643D01*
Y121303D01*
X265043D01*
G37*
G36*
Y127996D02*Y122396D01*
X270643D01*
Y127996D01*
X265043D01*
G37*
G36*
X243250Y52476D02*X236250D01*
Y41146D01*
X243250D01*
Y52476D01*
G37*
G36*
X223565Y52477D02*X216565D01*
Y41147D01*
X223565D01*
Y52477D01*
G37*
G36*
X233408Y52476D02*X226408D01*
Y41146D01*
X233408D01*
Y52476D01*
G37*
G36*
X269837Y46303D02*Y40703D01*
X275437D01*
Y46303D01*
X269837D01*
G37*
G36*
X243250Y93027D02*X236250D01*
Y81697D01*
X243250D01*
Y93027D01*
G37*
G36*
X269641Y85870D02*Y80270D01*
X275241D01*
Y85870D01*
X269641D01*
G37*
G36*
Y77870D02*Y72270D01*
X275241D01*
Y77870D01*
X269641D01*
G37*
G36*
X233408Y93027D02*X226408D01*
Y81697D01*
X233408D01*
Y93027D01*
G37*
G36*
X225546Y125437D02*Y119837D01*
X231146D01*
Y125437D01*
X225546D01*
G37*
G36*
Y117437D02*Y111837D01*
X231146D01*
Y117437D01*
X225546D01*
G37*
G36*
X232239Y125437D02*Y119837D01*
X237839D01*
Y125437D01*
X232239D01*
G37*
G36*
Y117437D02*Y111837D01*
X237839D01*
Y117437D01*
X232239D01*
G37*
G36*
X229286Y107130D02*Y101530D01*
X234886D01*
Y107130D01*
X229286D01*
G37*
G36*
Y99130D02*Y93530D01*
X234886D01*
Y99130D01*
X229286D01*
G37*
G36*
X235979Y107130D02*Y101530D01*
X241579D01*
Y107130D01*
X235979D01*
G37*
G36*
Y99130D02*Y93530D01*
X241579D01*
Y99130D01*
X235979D01*
G37*
G36*
X242672D02*Y93530D01*
X248272D01*
Y99130D01*
X242672D01*
G37*
G36*
Y107130D02*Y101530D01*
X248272D01*
Y107130D01*
X242672D01*
G37*
G36*
X257043Y114611D02*Y109011D01*
X262643D01*
Y114611D01*
X257043D01*
G37*
G36*
X238932Y117437D02*Y111837D01*
X244532D01*
Y117437D01*
X238932D01*
G37*
G36*
X257043Y121303D02*Y115703D01*
X262643D01*
Y121303D01*
X257043D01*
G37*
G36*
Y127996D02*Y122396D01*
X262643D01*
Y127996D01*
X257043D01*
G37*
G36*
X238932Y125437D02*Y119837D01*
X244532D01*
Y125437D01*
X238932D01*
G37*
G36*
X269837Y25831D02*Y20231D01*
X275437D01*
Y25831D01*
X269837D01*
G37*
G36*
Y17831D02*Y12231D01*
X275437D01*
Y17831D01*
X269837D01*
G37*
G36*
X219247Y31342D02*Y25742D01*
X224847D01*
Y31342D01*
X219247D01*
G37*
G36*
Y23342D02*Y17742D01*
X224847D01*
Y23342D01*
X219247D01*
G37*
G36*
X226531Y31342D02*Y25742D01*
X232131D01*
Y31342D01*
X226531D01*
G37*
G36*
Y23342D02*Y17742D01*
X232131D01*
Y23342D01*
X226531D01*
G37*
G36*
X233814Y31342D02*Y25742D01*
X239414D01*
Y31342D01*
X233814D01*
G37*
G36*
Y23342D02*Y17742D01*
X239414D01*
Y23342D01*
X233814D01*
G37*
G36*
X241098Y31342D02*Y25742D01*
X246698D01*
Y31342D01*
X241098D01*
G37*
G36*
Y23342D02*Y17742D01*
X246698D01*
Y23342D01*
X241098D01*
G37*
G36*
X269837Y38303D02*Y32703D01*
X275437D01*
Y38303D01*
X269837D01*
G37*
G36*
X223565Y93028D02*X216565D01*
Y81698D01*
X223565D01*
Y93028D01*
G37*
G36*
X221808Y141578D02*Y135978D01*
X227408D01*
Y141578D01*
X221808D01*
G37*
G36*
X214651Y140594D02*Y134994D01*
X220251D01*
Y140594D01*
X214651D01*
G37*
G36*
X221808Y133578D02*Y127978D01*
X227408D01*
Y133578D01*
X221808D01*
G37*
G36*
X222593Y107130D02*Y101530D01*
X228193D01*
Y107130D01*
X222593D01*
G37*
G36*
Y99130D02*Y93530D01*
X228193D01*
Y99130D01*
X222593D01*
G37*
G36*
X218853Y125437D02*Y119837D01*
X224453D01*
Y125437D01*
X218853D01*
G37*
G36*
Y117437D02*Y111837D01*
X224453D01*
Y117437D01*
X218853D01*
G37*
G36*
X212161Y125437D02*Y119837D01*
X217761D01*
Y125437D01*
X212161D01*
G37*
G36*
Y117437D02*Y111837D01*
X217761D01*
Y117437D01*
X212161D01*
G37*
G36*
X197397Y117366D02*Y111766D01*
X202997D01*
Y117366D01*
X197397D01*
G37*
G36*
X205397D02*Y111766D01*
X210997D01*
Y117366D01*
X205397D01*
G37*
G36*
X197522Y119795D02*Y118393D01*
X203822D01*
Y119795D01*
X197522D01*
G37*
G36*
Y121763D02*Y120361D01*
X203822D01*
Y121763D01*
X197522D01*
G37*
G36*
Y123732D02*Y122330D01*
X203822D01*
Y123732D01*
X197522D01*
G37*
G36*
Y125700D02*Y124298D01*
X203822D01*
Y125700D01*
X197522D01*
G37*
G36*
Y127669D02*Y126267D01*
X203822D01*
Y127669D01*
X197522D01*
G37*
G36*
Y129637D02*Y128235D01*
X203822D01*
Y129637D01*
X197522D01*
G37*
G36*
X206651Y140594D02*Y134994D01*
X212251D01*
Y140594D01*
X206651D01*
G37*
G36*
X184995Y75831D02*Y70231D01*
X190595D01*
Y75831D01*
X184995D01*
G37*
G36*
X192995D02*Y70231D01*
X198595D01*
Y75831D01*
X192995D01*
G37*
G36*
X184997Y104177D02*Y98577D01*
X190597D01*
Y104177D01*
X184997D01*
G37*
G36*
X192997D02*Y98577D01*
X198597D01*
Y104177D01*
X192997D01*
G37*
G36*
X194374Y97950D02*Y95750D01*
X199723D01*
Y97950D01*
X194374D01*
G37*
G36*
X199723D02*X197523D01*
Y89450D01*
X199723D01*
Y97950D01*
G37*
G36*
X199330Y97556D02*X197130D01*
Y89844D01*
X199330D01*
Y97556D01*
G37*
G36*
X198936Y97162D02*X196736D01*
Y90238D01*
X198936D01*
Y97162D01*
G37*
G36*
X198542Y96768D02*X196342D01*
Y90631D01*
X198542D01*
Y96768D01*
G37*
G36*
X194374Y91650D02*Y89450D01*
X199723D01*
Y91650D01*
X194374D01*
G37*
G36*
X196574Y97950D02*X194374D01*
Y89450D01*
X196574D01*
Y97950D01*
G37*
G36*
X194768Y92044D02*Y89844D01*
X199330D01*
Y92044D01*
X194768D01*
G37*
G36*
X196968Y97162D02*X194768D01*
Y89844D01*
X196968D01*
Y97162D01*
G37*
G36*
X198149Y96375D02*X195949D01*
Y90631D01*
X198149D01*
Y96375D01*
G37*
G36*
X194768Y97556D02*Y95356D01*
X199330D01*
Y97556D01*
X194768D01*
G37*
G36*
Y97162D02*Y94962D01*
X198936D01*
Y97162D01*
X194768D01*
G37*
G36*
X197361Y96768D02*X195161D01*
Y90238D01*
X197361D01*
Y96768D01*
G37*
G36*
X195161Y92438D02*Y90238D01*
X198936D01*
Y92438D01*
X195161D01*
G37*
G36*
X195555Y92831D02*Y90631D01*
X198542D01*
Y92831D01*
X195555D01*
G37*
G36*
X192997Y88822D02*Y83222D01*
X198597D01*
Y88822D01*
X192997D01*
G37*
G36*
X192995Y82327D02*Y76727D01*
X198595D01*
Y82327D01*
X192995D01*
G37*
G36*
X195161Y96768D02*Y94568D01*
X198542D01*
Y96768D01*
X195161D01*
G37*
G36*
X197755Y96375D02*X195555D01*
Y90631D01*
X197755D01*
Y96375D01*
G37*
G36*
X195555D02*Y94175D01*
X198149D01*
Y96375D01*
X195555D01*
G37*
G36*
X184531Y97950D02*Y95750D01*
X189880D01*
Y97950D01*
X184531D01*
G37*
G36*
X184925Y97556D02*Y95356D01*
X189487D01*
Y97556D01*
X184925D01*
G37*
G36*
Y97162D02*Y94962D01*
X189093D01*
Y97162D01*
X184925D01*
G37*
G36*
X189880Y97950D02*X187680D01*
Y89450D01*
X189880D01*
Y97950D01*
G37*
G36*
X189487Y97556D02*X187287D01*
Y89844D01*
X189487D01*
Y97556D01*
G37*
G36*
X188699Y96768D02*X186499D01*
Y90631D01*
X188699D01*
Y96768D01*
G37*
G36*
X185712Y92831D02*Y90631D01*
X188699D01*
Y92831D01*
X185712D01*
G37*
G36*
X188306Y96375D02*X186106D01*
Y90631D01*
X188306D01*
Y96375D01*
G37*
G36*
X186731Y97950D02*X184531D01*
Y89450D01*
X186731D01*
Y97950D01*
G37*
G36*
X187125Y97162D02*X184925D01*
Y89844D01*
X187125D01*
Y97162D01*
G37*
G36*
X189093D02*X186893D01*
Y90238D01*
X189093D01*
Y97162D01*
G37*
G36*
X185318Y92438D02*Y90238D01*
X189093D01*
Y92438D01*
X185318D01*
G37*
G36*
X184531Y91650D02*Y89450D01*
X189880D01*
Y91650D01*
X184531D01*
G37*
G36*
X184925Y92044D02*Y89844D01*
X189487D01*
Y92044D01*
X184925D01*
G37*
G36*
X187518Y96768D02*X185318D01*
Y90238D01*
X187518D01*
Y96768D01*
G37*
G36*
X185318D02*Y94568D01*
X188699D01*
Y96768D01*
X185318D01*
G37*
G36*
X187912Y96375D02*X185712D01*
Y90631D01*
X187912D01*
Y96375D01*
G37*
G36*
X185712D02*Y94175D01*
X188306D01*
Y96375D01*
X185712D01*
G37*
G36*
X184997Y88822D02*Y83222D01*
X190597D01*
Y88822D01*
X184997D01*
G37*
G36*
X184995Y82327D02*Y76727D01*
X190595D01*
Y82327D01*
X184995D01*
G37*
G36*
X172751Y113307D02*X171349D01*
Y107007D01*
X172751D01*
Y113307D01*
G37*
G36*
X174719D02*X173317D01*
Y107007D01*
X174719D01*
Y113307D01*
G37*
G36*
X176688D02*X175286D01*
Y107007D01*
X176688D01*
Y113307D01*
G37*
G36*
X178656D02*X177254D01*
Y107007D01*
X178656D01*
Y113307D01*
G37*
G36*
X180625D02*X179223D01*
Y107007D01*
X180625D01*
Y113307D01*
G37*
G36*
X182593D02*X181191D01*
Y107007D01*
X182593D01*
Y113307D01*
G37*
G36*
X184562D02*X183160D01*
Y107007D01*
X184562D01*
Y113307D01*
G37*
G36*
X171216Y218154D02*Y212554D01*
X176816D01*
Y218154D01*
X171216D01*
G37*
G36*
Y225240D02*Y219640D01*
X176816D01*
Y225240D01*
X171216D01*
G37*
G36*
Y232327D02*Y226727D01*
X176816D01*
Y232327D01*
X171216D01*
G37*
G36*
X179216Y218154D02*Y212554D01*
X184816D01*
Y218154D01*
X179216D01*
G37*
G36*
Y225240D02*Y219640D01*
X184816D01*
Y225240D01*
X179216D01*
G37*
G36*
Y232327D02*Y226727D01*
X184816D01*
Y232327D01*
X179216D01*
G37*
G36*
X186530Y113307D02*X185128D01*
Y107007D01*
X186530D01*
Y113307D01*
G37*
G36*
X188499D02*X187097D01*
Y107007D01*
X188499D01*
Y113307D01*
G37*
G36*
X190467D02*X189065D01*
Y107007D01*
X190467D01*
Y113307D01*
G37*
G36*
X192436D02*X191034D01*
Y107007D01*
X192436D01*
Y113307D01*
G37*
G36*
X188257Y25618D02*X184657D01*
Y20443D01*
X188257D01*
Y25618D01*
G37*
G36*
X203431Y17169D02*X197831D01*
Y9207D01*
X203431D01*
Y17169D01*
G37*
G36*
X203430Y50239D02*X197830D01*
Y42277D01*
X203430D01*
Y50239D01*
G37*
G36*
X183926Y25618D02*X180326D01*
Y20443D01*
X183926D01*
Y25618D01*
G37*
G36*
X179596D02*X175996D01*
Y20443D01*
X179596D01*
Y25618D01*
G37*
G36*
X175265D02*X171665D01*
Y20443D01*
X175265D01*
Y25618D01*
G37*
G36*
X220822Y163233D02*Y157633D01*
X226422D01*
Y163233D01*
X220822D01*
G37*
G36*
Y155233D02*Y149633D01*
X226422D01*
Y155233D01*
X220822D01*
G37*
G36*
X227515Y163233D02*Y157633D01*
X233115D01*
Y163233D01*
X227515D01*
G37*
G36*
Y155233D02*Y149633D01*
X233115D01*
Y155233D01*
X227515D01*
G37*
G36*
X234208Y163233D02*Y157633D01*
X239808D01*
Y163233D01*
X234208D01*
G37*
G36*
Y155233D02*Y149633D01*
X239808D01*
Y155233D01*
X234208D01*
G37*
G36*
X240052Y171720D02*Y169420D01*
X246957D01*
Y171720D01*
X240052D01*
G37*
G36*
Y174278D02*Y171980D01*
X246957D01*
Y174278D01*
X240052D01*
G37*
G36*
Y176838D02*Y174538D01*
X246957D01*
Y176838D01*
X240052D01*
G37*
G36*
Y179396D02*Y177098D01*
X246957D01*
Y179396D01*
X240052D01*
G37*
G36*
Y181954D02*Y179656D01*
X246957D01*
Y181954D01*
X240052D01*
G37*
G36*
Y184514D02*Y182214D01*
X246957D01*
Y184514D01*
X240052D01*
G37*
G36*
Y187072D02*Y184774D01*
X246957D01*
Y187072D01*
X240052D01*
G37*
G36*
Y189632D02*Y187332D01*
X246957D01*
Y189632D01*
X240052D01*
G37*
G36*
X190468Y178425D02*X189066D01*
Y172125D01*
X190468D01*
Y178425D01*
G37*
G36*
X188499D02*X187097D01*
Y172125D01*
X188499D01*
Y178425D01*
G37*
G36*
X186531D02*X185129D01*
Y172125D01*
X186531D01*
Y178425D01*
G37*
G36*
X184562D02*X183160D01*
Y172125D01*
X184562D01*
Y178425D01*
G37*
G36*
X182594D02*X181192D01*
Y172125D01*
X182594D01*
Y178425D01*
G37*
G36*
X180625D02*X179223D01*
Y172125D01*
X180625D01*
Y178425D01*
G37*
G36*
X178657D02*X177255D01*
Y172125D01*
X178657D01*
Y178425D01*
G37*
G36*
X176688D02*X175286D01*
Y172125D01*
X176688D01*
Y178425D01*
G37*
G36*
X174720D02*X173318D01*
Y172125D01*
X174720D01*
Y178425D01*
G37*
G36*
X172751D02*X171349D01*
Y172125D01*
X172751D01*
Y178425D01*
G37*
G36*
X183688Y185280D02*Y179680D01*
X189288D01*
Y185280D01*
X183688D01*
G37*
G36*
X197522Y131606D02*Y130204D01*
X203822D01*
Y131606D01*
X197522D01*
G37*
G36*
Y133574D02*Y132172D01*
X203822D01*
Y133574D01*
X197522D01*
G37*
G36*
Y135543D02*Y134141D01*
X203822D01*
Y135543D01*
X197522D01*
G37*
G36*
Y137511D02*Y136109D01*
X203822D01*
Y137511D01*
X197522D01*
G37*
G36*
Y139480D02*Y138078D01*
X203822D01*
Y139480D01*
X197522D01*
G37*
G36*
Y141448D02*Y140046D01*
X203822D01*
Y141448D01*
X197522D01*
G37*
G36*
Y143417D02*Y142015D01*
X203822D01*
Y143417D01*
X197522D01*
G37*
G36*
Y145385D02*Y143983D01*
X203822D01*
Y145385D01*
X197522D01*
G37*
G36*
Y147354D02*Y145952D01*
X203822D01*
Y147354D01*
X197522D01*
G37*
G36*
Y149322D02*Y147920D01*
X203822D01*
Y149322D01*
X197522D01*
G37*
G36*
Y151291D02*Y149889D01*
X203822D01*
Y151291D01*
X197522D01*
G37*
G36*
Y153259D02*Y151857D01*
X203822D01*
Y153259D01*
X197522D01*
G37*
G36*
Y155228D02*Y153826D01*
X203822D01*
Y155228D01*
X197522D01*
G37*
G36*
Y157196D02*Y155794D01*
X203822D01*
Y157196D01*
X197522D01*
G37*
G36*
Y159165D02*Y157763D01*
X203822D01*
Y159165D01*
X197522D01*
G37*
G36*
Y161133D02*Y159731D01*
X203822D01*
Y161133D01*
X197522D01*
G37*
G36*
Y163102D02*Y161700D01*
X203822D01*
Y163102D01*
X197522D01*
G37*
G36*
Y165070D02*Y163668D01*
X203822D01*
Y165070D01*
X197522D01*
G37*
G36*
Y167039D02*Y165637D01*
X203822D01*
Y167039D01*
X197522D01*
G37*
G36*
X205539Y166972D02*Y161372D01*
X211139D01*
Y166972D01*
X205539D01*
G37*
G36*
Y159098D02*Y153498D01*
X211139D01*
Y159098D01*
X205539D01*
G37*
G36*
X192436Y178425D02*X191034D01*
Y172125D01*
X192436D01*
Y178425D01*
G37*
G36*
X216824Y189632D02*Y187332D01*
X223730D01*
Y189632D01*
X216824D01*
G37*
G36*
Y187072D02*Y184774D01*
X223730D01*
Y187072D01*
X216824D01*
G37*
G36*
Y184514D02*Y182214D01*
X223730D01*
Y184514D01*
X216824D01*
G37*
G36*
Y181954D02*Y179656D01*
X223730D01*
Y181954D01*
X216824D01*
G37*
G36*
Y179396D02*Y177098D01*
X223730D01*
Y179396D01*
X216824D01*
G37*
G36*
Y176838D02*Y174538D01*
X223730D01*
Y176838D01*
X216824D01*
G37*
G36*
Y174278D02*Y171980D01*
X223730D01*
Y174278D01*
X216824D01*
G37*
G36*
X208420Y173666D02*Y168066D01*
X214020D01*
Y173666D01*
X208420D01*
G37*
G36*
X200420D02*Y168066D01*
X206020D01*
Y173666D01*
X200420D01*
G37*
G36*
X216824Y171720D02*Y169420D01*
X223730D01*
Y171720D01*
X216824D01*
G37*
G36*
X213539Y166972D02*Y161372D01*
X219139D01*
Y166972D01*
X213539D01*
G37*
G36*
Y159098D02*Y153498D01*
X219139D01*
Y159098D01*
X213539D01*
G37*
G36*
X191688Y185280D02*Y179680D01*
X197288D01*
Y185280D01*
X191688D01*
G37*
G36*
X198578Y189217D02*Y183617D01*
X204178D01*
Y189217D01*
X198578D01*
G37*
G36*
Y181217D02*Y175617D01*
X204178D01*
Y181217D01*
X198578D01*
G37*
G36*
X205271Y189217D02*Y183617D01*
X210871D01*
Y189217D01*
X205271D01*
G37*
G36*
Y181217D02*Y175617D01*
X210871D01*
Y181217D01*
X205271D01*
G37*
G36*
X257042Y142169D02*Y136569D01*
X262642D01*
Y142169D01*
X257042D01*
G37*
G36*
Y135476D02*Y129876D01*
X262642D01*
Y135476D01*
X257042D01*
G37*
G36*
X265042Y142169D02*Y136569D01*
X270642D01*
Y142169D01*
X265042D01*
G37*
G36*
Y148862D02*Y143262D01*
X270642D01*
Y148862D01*
X265042D01*
G37*
G36*
Y135476D02*Y129876D01*
X270642D01*
Y135476D01*
X265042D01*
G37*
G36*
X257042Y148862D02*Y143262D01*
X262642D01*
Y148862D01*
X257042D01*
G37*
G36*
X282434Y166005D02*X275834D01*
Y158405D01*
X282434D01*
Y166005D01*
G37*
G36*
X257042Y155555D02*Y149955D01*
X262642D01*
Y155555D01*
X257042D01*
G37*
G36*
X265042D02*Y149955D01*
X270642D01*
Y155555D01*
X265042D01*
G37*
G36*
X240901Y163233D02*Y157633D01*
X246501D01*
Y163233D01*
X240901D01*
G37*
G36*
Y155233D02*Y149633D01*
X246501D01*
Y155233D01*
X240901D01*
G37*
G36*
X134139Y82397D02*Y80197D01*
X145394D01*
Y82397D01*
X134139D01*
G37*
G36*
X121807Y97877D02*Y92277D01*
X127407D01*
Y97877D01*
X121807D01*
G37*
G36*
X121806Y90792D02*Y85192D01*
X127406D01*
Y90792D01*
X121806D01*
G37*
G36*
X121807Y81145D02*Y75545D01*
X127407D01*
Y81145D01*
X121807D01*
G37*
G36*
X134532Y82004D02*Y79804D01*
X145000D01*
Y82004D01*
X134532D01*
G37*
G36*
Y81610D02*Y79410D01*
X144606D01*
Y81610D01*
X134532D01*
G37*
G36*
X136501Y79641D02*Y77441D01*
X142638D01*
Y79641D01*
X136501D01*
G37*
G36*
X135320Y80823D02*Y78623D01*
X143819D01*
Y80823D01*
X135320D01*
G37*
G36*
X135714Y80429D02*Y78229D01*
X143425D01*
Y80429D01*
X135714D01*
G37*
G36*
X137288Y78854D02*Y76654D01*
X141851D01*
Y78854D01*
X137288D01*
G37*
G36*
X135981Y89412D02*Y83812D01*
X141581D01*
Y89412D01*
X135981D01*
G37*
G36*
X143981D02*Y83812D01*
X149581D01*
Y89412D01*
X143981D01*
G37*
G36*
X155469D02*Y83812D01*
X161069D01*
Y89412D01*
X155469D01*
G37*
G36*
X145394Y82397D02*X143194D01*
Y69174D01*
X145394D01*
Y82397D01*
G37*
G36*
X145000Y82004D02*X142800D01*
Y69567D01*
X145000D01*
Y82004D01*
G37*
G36*
X144606Y81610D02*X142406D01*
Y69961D01*
X144606D01*
Y81610D01*
G37*
G36*
X145192Y113307D02*X143790D01*
Y107007D01*
X145192D01*
Y113307D01*
G37*
G36*
X147160D02*X145758D01*
Y107007D01*
X147160D01*
Y113307D01*
G37*
G36*
X149129D02*X147727D01*
Y107007D01*
X149129D01*
Y113307D01*
G37*
G36*
X151097D02*X149695D01*
Y107007D01*
X151097D01*
Y113307D01*
G37*
G36*
X153066D02*X151664D01*
Y107007D01*
X153066D01*
Y113307D01*
G37*
G36*
X155034D02*X153632D01*
Y107007D01*
X155034D01*
Y113307D01*
G37*
G36*
X157003D02*X155601D01*
Y107007D01*
X157003D01*
Y113307D01*
G37*
G36*
X158971D02*X157569D01*
Y107007D01*
X158971D01*
Y113307D01*
G37*
G36*
X160940D02*X159538D01*
Y107007D01*
X160940D01*
Y113307D01*
G37*
G36*
X134139Y71374D02*Y69174D01*
X145394D01*
Y71374D01*
X134139D01*
G37*
G36*
X134532Y71767D02*Y69567D01*
X145000D01*
Y71767D01*
X134532D01*
G37*
G36*
X134926Y72161D02*Y69961D01*
X144606D01*
Y72161D01*
X134926D01*
G37*
G36*
X136107Y73342D02*Y71142D01*
X143425D01*
Y73342D01*
X136107D01*
G37*
G36*
X136339Y82397D02*X134139D01*
Y69174D01*
X136339D01*
Y82397D01*
G37*
G36*
X136732Y81610D02*X134532D01*
Y69567D01*
X136732D01*
Y81610D01*
G37*
G36*
X137520Y80823D02*X135320D01*
Y70355D01*
X137520D01*
Y80823D01*
G37*
G36*
X137914Y80429D02*X135714D01*
Y70749D01*
X137914D01*
Y80429D01*
G37*
G36*
X135320Y72555D02*Y70355D01*
X144213D01*
Y72555D01*
X135320D01*
G37*
G36*
X135714Y72949D02*Y70749D01*
X143819D01*
Y72949D01*
X135714D01*
G37*
G36*
X136895Y74130D02*Y71930D01*
X142638D01*
Y74130D01*
X136895D01*
G37*
G36*
X149886Y17169D02*X144286D01*
Y9207D01*
X149886D01*
Y17169D01*
G37*
G36*
Y50239D02*X144286D01*
Y42277D01*
X149886D01*
Y50239D01*
G37*
G36*
X157942Y25618D02*X154342D01*
Y20443D01*
X157942D01*
Y25618D01*
G37*
G36*
X137126Y81216D02*X134926D01*
Y69961D01*
X137126D01*
Y81216D01*
G37*
G36*
X138307Y80035D02*X136107D01*
Y71142D01*
X138307D01*
Y80035D01*
G37*
G36*
X144213Y81216D02*X142013D01*
Y70355D01*
X144213D01*
Y81216D01*
G37*
G36*
X143032Y80035D02*X140832D01*
Y71536D01*
X143032D01*
Y80035D01*
G37*
G36*
X143819Y80823D02*X141619D01*
Y70749D01*
X143819D01*
Y80823D01*
G37*
G36*
X142638Y79641D02*X140438D01*
Y71930D01*
X142638D01*
Y79641D01*
G37*
G36*
X139095Y79248D02*X136895D01*
Y71930D01*
X139095D01*
Y79248D01*
G37*
G36*
X136895D02*Y77048D01*
X142244D01*
Y79248D01*
X136895D01*
G37*
G36*
X138469Y75704D02*Y73504D01*
X141063D01*
Y75704D01*
X138469D01*
G37*
G36*
X140669Y78067D02*X138469D01*
Y73504D01*
X140669D01*
Y78067D01*
G37*
G36*
X143425Y80429D02*X141225D01*
Y71142D01*
X143425D01*
Y80429D01*
G37*
G36*
X142244Y79248D02*X140044D01*
Y72323D01*
X142244D01*
Y79248D01*
G37*
G36*
X137288Y74523D02*Y72323D01*
X142244D01*
Y74523D01*
X137288D01*
G37*
G36*
X139488Y78854D02*X137288D01*
Y72323D01*
X139488D01*
Y78854D01*
G37*
G36*
X134926Y81216D02*Y79016D01*
X144213D01*
Y81216D01*
X134926D01*
G37*
G36*
X136107Y80035D02*Y77835D01*
X143032D01*
Y80035D01*
X136107D01*
G37*
G36*
X141851Y78854D02*X139651D01*
Y72717D01*
X141851D01*
Y78854D01*
G37*
G36*
X137682Y74917D02*Y72717D01*
X141851D01*
Y74917D01*
X137682D01*
G37*
G36*
X139882Y78460D02*X137682D01*
Y72717D01*
X139882D01*
Y78460D01*
G37*
G36*
X137682D02*Y76260D01*
X141457D01*
Y78460D01*
X137682D01*
G37*
G36*
X141457D02*X139257D01*
Y73111D01*
X141457D01*
Y78460D01*
G37*
G36*
X138076Y75311D02*Y73111D01*
X141457D01*
Y75311D01*
X138076D01*
G37*
G36*
X136501Y73736D02*Y71536D01*
X143032D01*
Y73736D01*
X136501D01*
G37*
G36*
X138701Y79641D02*X136501D01*
Y71536D01*
X138701D01*
Y79641D01*
G37*
G36*
X140276Y78067D02*X138076D01*
Y73111D01*
X140276D01*
Y78067D01*
G37*
G36*
X138076D02*Y75867D01*
X141063D01*
Y78067D01*
X138076D01*
G37*
G36*
X141063D02*X138863D01*
Y73504D01*
X141063D01*
Y78067D01*
G37*
G36*
X159730Y82397D02*Y80197D01*
X170985D01*
Y82397D01*
X159730D01*
G37*
G36*
X160123Y82004D02*Y79804D01*
X170591D01*
Y82004D01*
X160123D01*
G37*
G36*
Y81610D02*Y79410D01*
X170197D01*
Y81610D01*
X160123D01*
G37*
G36*
X160517Y81216D02*Y79016D01*
X169804D01*
Y81216D01*
X160517D01*
G37*
G36*
X160911Y80823D02*Y78623D01*
X169410D01*
Y80823D01*
X160911D01*
G37*
G36*
X161305Y80429D02*Y78229D01*
X169016D01*
Y80429D01*
X161305D01*
G37*
G36*
X161698Y80035D02*Y77835D01*
X168623D01*
Y80035D01*
X161698D01*
G37*
G36*
X170985Y82397D02*X168785D01*
Y69174D01*
X170985D01*
Y82397D01*
G37*
G36*
X170591Y82004D02*X168391D01*
Y69567D01*
X170591D01*
Y82004D01*
G37*
G36*
X170197Y81610D02*X167997D01*
Y69961D01*
X170197D01*
Y81610D01*
G37*
G36*
X170934Y25618D02*X167334D01*
Y20443D01*
X170934D01*
Y25618D01*
G37*
G36*
X169804Y81216D02*X167604D01*
Y70355D01*
X169804D01*
Y81216D01*
G37*
G36*
X169410Y80823D02*X167210D01*
Y70749D01*
X169410D01*
Y80823D01*
G37*
G36*
X169016Y80429D02*X166816D01*
Y71142D01*
X169016D01*
Y80429D01*
G37*
G36*
X168623Y80035D02*X166423D01*
Y71536D01*
X168623D01*
Y80035D01*
G37*
G36*
X170783Y178425D02*X169381D01*
Y172125D01*
X170783D01*
Y178425D01*
G37*
G36*
X168814D02*X167412D01*
Y172125D01*
X168814D01*
Y178425D01*
G37*
G36*
Y113307D02*X167412D01*
Y107007D01*
X168814D01*
Y113307D01*
G37*
G36*
X170782D02*X169380D01*
Y107007D01*
X170782D01*
Y113307D01*
G37*
G36*
X159730Y71374D02*Y69174D01*
X170985D01*
Y71374D01*
X159730D01*
G37*
G36*
X160123Y71767D02*Y69567D01*
X170591D01*
Y71767D01*
X160123D01*
G37*
G36*
X160517Y72161D02*Y69961D01*
X170197D01*
Y72161D01*
X160517D01*
G37*
G36*
X160911Y72555D02*Y70355D01*
X169804D01*
Y72555D01*
X160911D01*
G37*
G36*
X161305Y72949D02*Y70749D01*
X169410D01*
Y72949D01*
X161305D01*
G37*
G36*
X161698Y73342D02*Y71142D01*
X169016D01*
Y73342D01*
X161698D01*
G37*
G36*
X162092Y73736D02*Y71536D01*
X168623D01*
Y73736D01*
X162092D01*
G37*
G36*
X161930Y82397D02*X159730D01*
Y69174D01*
X161930D01*
Y82397D01*
G37*
G36*
X162323Y81610D02*X160123D01*
Y69567D01*
X162323D01*
Y81610D01*
G37*
G36*
X162717Y81216D02*X160517D01*
Y69961D01*
X162717D01*
Y81216D01*
G37*
G36*
X163111Y80823D02*X160911D01*
Y70355D01*
X163111D01*
Y80823D01*
G37*
G36*
X163505Y80429D02*X161305D01*
Y70749D01*
X163505D01*
Y80429D01*
G37*
G36*
X163898Y80035D02*X161698D01*
Y71142D01*
X163898D01*
Y80035D01*
G37*
G36*
X162908Y113307D02*X161506D01*
Y107007D01*
X162908D01*
Y113307D01*
G37*
G36*
X162273Y25618D02*X158673D01*
Y20443D01*
X162273D01*
Y25618D01*
G37*
G36*
X166604D02*X163004D01*
Y20443D01*
X166604D01*
Y25618D01*
G37*
G36*
X164292Y79641D02*X162092D01*
Y71536D01*
X164292D01*
Y79641D01*
G37*
G36*
X164686Y79248D02*X162486D01*
Y71930D01*
X164686D01*
Y79248D01*
G37*
G36*
X165079Y78854D02*X162879D01*
Y72323D01*
X165079D01*
Y78854D01*
G37*
G36*
X162092Y79641D02*Y77441D01*
X168229D01*
Y79641D01*
X162092D01*
G37*
G36*
X162486Y79248D02*Y77048D01*
X167835D01*
Y79248D01*
X162486D01*
G37*
G36*
X163273Y78460D02*Y76260D01*
X167048D01*
Y78460D01*
X163273D01*
G37*
G36*
X163469Y89412D02*Y83812D01*
X169069D01*
Y89412D01*
X163469D01*
G37*
G36*
X162486Y74130D02*Y71930D01*
X168229D01*
Y74130D01*
X162486D01*
G37*
G36*
X162879Y74523D02*Y72323D01*
X167835D01*
Y74523D01*
X162879D01*
G37*
G36*
X163667Y75311D02*Y73111D01*
X167048D01*
Y75311D01*
X163667D01*
G37*
G36*
X168229Y79641D02*X166029D01*
Y71930D01*
X168229D01*
Y79641D01*
G37*
G36*
X167835Y79248D02*X165635D01*
Y72323D01*
X167835D01*
Y79248D01*
G37*
G36*
X163667Y78067D02*Y75867D01*
X166654D01*
Y78067D01*
X163667D01*
G37*
G36*
X166260D02*X164060D01*
Y73504D01*
X166260D01*
Y78067D01*
G37*
G36*
X162879Y78854D02*Y76654D01*
X167442D01*
Y78854D01*
X162879D01*
G37*
G36*
X167442D02*X165242D01*
Y72717D01*
X167442D01*
Y78854D01*
G37*
G36*
X167048Y78460D02*X164848D01*
Y73111D01*
X167048D01*
Y78460D01*
G37*
G36*
X165867Y78067D02*X163667D01*
Y73111D01*
X165867D01*
Y78067D01*
G37*
G36*
X163273Y74917D02*Y72717D01*
X167442D01*
Y74917D01*
X163273D01*
G37*
G36*
X165473Y78460D02*X163273D01*
Y72717D01*
X165473D01*
Y78460D01*
G37*
G36*
X166654Y78067D02*X164454D01*
Y73504D01*
X166654D01*
Y78067D01*
G37*
G36*
X164060Y75704D02*Y73504D01*
X166654D01*
Y75704D01*
X164060D01*
G37*
G36*
X163344Y104176D02*Y98576D01*
X168944D01*
Y104176D01*
X163344D01*
G37*
G36*
Y96176D02*Y90576D01*
X168944D01*
Y96176D01*
X163344D01*
G37*
G36*
X164877Y113307D02*X163475D01*
Y107007D01*
X164877D01*
Y113307D01*
G37*
G36*
X166845D02*X165443D01*
Y107007D01*
X166845D01*
Y113307D01*
G37*
G36*
X160391Y194728D02*Y189128D01*
X165991D01*
Y194728D01*
X160391D01*
G37*
G36*
Y186728D02*Y181128D01*
X165991D01*
Y186728D01*
X160391D01*
G37*
G36*
X166846Y178425D02*X165444D01*
Y172125D01*
X166846D01*
Y178425D01*
G37*
G36*
X164877D02*X163475D01*
Y172125D01*
X164877D01*
Y178425D01*
G37*
G36*
X162909D02*X161507D01*
Y172125D01*
X162909D01*
Y178425D01*
G37*
G36*
X160940D02*X159538D01*
Y172125D01*
X160940D01*
Y178425D01*
G37*
G36*
X158972D02*X157570D01*
Y172125D01*
X158972D01*
Y178425D01*
G37*
G36*
X157003D02*X155601D01*
Y172125D01*
X157003D01*
Y178425D01*
G37*
G36*
X155035D02*X153633D01*
Y172125D01*
X155035D01*
Y178425D01*
G37*
G36*
X153066D02*X151664D01*
Y172125D01*
X153066D01*
Y178425D01*
G37*
G36*
X151098D02*X149696D01*
Y172125D01*
X151098D01*
Y178425D01*
G37*
G36*
X149129D02*X147727D01*
Y172125D01*
X149129D01*
Y178425D01*
G37*
G36*
X147161D02*X145759D01*
Y172125D01*
X147161D01*
Y178425D01*
G37*
G36*
X145192D02*X143790D01*
Y172125D01*
X145192D01*
Y178425D01*
G37*
G36*
X132404Y167039D02*Y165637D01*
X138704D01*
Y167039D01*
X132404D01*
G37*
G36*
Y165071D02*Y163669D01*
X138704D01*
Y165071D01*
X132404D01*
G37*
G36*
Y163102D02*Y161700D01*
X138704D01*
Y163102D01*
X132404D01*
G37*
G36*
Y161134D02*Y159732D01*
X138704D01*
Y161134D01*
X132404D01*
G37*
G36*
Y159165D02*Y157763D01*
X138704D01*
Y159165D01*
X132404D01*
G37*
G36*
Y157197D02*Y155795D01*
X138704D01*
Y157197D01*
X132404D01*
G37*
G36*
Y155228D02*Y153826D01*
X138704D01*
Y155228D01*
X132404D01*
G37*
G36*
Y153260D02*Y151858D01*
X138704D01*
Y153260D01*
X132404D01*
G37*
G36*
Y151291D02*Y149889D01*
X138704D01*
Y151291D01*
X132404D01*
G37*
G36*
Y149323D02*Y147921D01*
X138704D01*
Y149323D01*
X132404D01*
G37*
G36*
Y147354D02*Y145952D01*
X138704D01*
Y147354D01*
X132404D01*
G37*
G36*
Y145386D02*Y143984D01*
X138704D01*
Y145386D01*
X132404D01*
G37*
G36*
Y143417D02*Y142015D01*
X138704D01*
Y143417D01*
X132404D01*
G37*
G36*
Y141449D02*Y140047D01*
X138704D01*
Y141449D01*
X132404D01*
G37*
G36*
Y139480D02*Y138078D01*
X138704D01*
Y139480D01*
X132404D01*
G37*
G36*
Y137512D02*Y136110D01*
X138704D01*
Y137512D01*
X132404D01*
G37*
G36*
Y135543D02*Y134141D01*
X138704D01*
Y135543D01*
X132404D01*
G37*
G36*
Y133575D02*Y132173D01*
X138704D01*
Y133575D01*
X132404D01*
G37*
G36*
Y131606D02*Y130204D01*
X138704D01*
Y131606D01*
X132404D01*
G37*
G36*
Y129638D02*Y128236D01*
X138704D01*
Y129638D01*
X132404D01*
G37*
G36*
Y127669D02*Y126267D01*
X138704D01*
Y127669D01*
X132404D01*
G37*
G36*
Y125701D02*Y124299D01*
X138704D01*
Y125701D01*
X132404D01*
G37*
G36*
Y123732D02*Y122330D01*
X138704D01*
Y123732D01*
X132404D01*
G37*
G36*
Y121764D02*Y120362D01*
X138704D01*
Y121764D01*
X132404D01*
G37*
G36*
Y119795D02*Y118393D01*
X138704D01*
Y119795D01*
X132404D01*
G37*
G36*
X422128Y147488D02*Y141888D01*
X427728D01*
Y147488D01*
X422128D01*
G37*
G36*
Y141216D02*Y135616D01*
X427728D01*
Y141216D01*
X422128D01*
G37*
G36*
X430128Y147488D02*Y141888D01*
X435728D01*
Y147488D01*
X430128D01*
G37*
G36*
Y141216D02*Y135616D01*
X435728D01*
Y141216D01*
X430128D01*
G37*
G36*
X404096Y144548D02*Y138948D01*
X409696D01*
Y144548D01*
X404096D01*
G37*
G36*
X412096D02*Y138948D01*
X417696D01*
Y144548D01*
X412096D01*
G37*
G36*
X401042Y160706D02*X385942D01*
Y141606D01*
X401042D01*
Y160706D01*
G37*
G36*
X403968Y172204D02*X397368D01*
Y164604D01*
X403968D01*
Y172204D01*
G37*
G36*
X379242Y160706D02*X364142D01*
Y141606D01*
X379242D01*
Y160706D01*
G37*
G36*
X391968Y172204D02*X385368D01*
Y164604D01*
X391968D01*
Y172204D01*
G37*
G36*
X370408D02*X363808D01*
Y164604D01*
X370408D01*
Y172204D01*
G37*
G36*
X382408D02*X375808D01*
Y164604D01*
X382408D01*
Y172204D01*
G37*
G36*
X301323Y213642D02*X294723D01*
Y206042D01*
X301323D01*
Y213642D01*
G37*
G36*
X294434Y166005D02*X287834D01*
Y158405D01*
X294434D01*
Y166005D01*
G37*
G36*
X293192Y196106D02*Y190506D01*
X298792D01*
Y196106D01*
X293192D01*
G37*
G36*
Y203193D02*Y197593D01*
X298792D01*
Y203193D01*
X293192D01*
G37*
G36*
X289323Y213642D02*X282723D01*
Y206042D01*
X289323D01*
Y213642D01*
G37*
G36*
X272776Y213540D02*Y207940D01*
X278376D01*
Y213540D01*
X272776D01*
G37*
G36*
Y199036D02*Y193436D01*
X278376D01*
Y199036D01*
X272776D01*
G37*
G36*
Y205540D02*Y199940D01*
X278376D01*
Y205540D01*
X272776D01*
G37*
G36*
Y191036D02*Y185436D01*
X278376D01*
Y191036D01*
X272776D01*
G37*
G36*
X285192Y196106D02*Y190506D01*
X290792D01*
Y196106D01*
X285192D01*
G37*
G36*
Y203193D02*Y197593D01*
X290792D01*
Y203193D01*
X285192D01*
G37*
G36*
X242279Y230162D02*Y224562D01*
X247879D01*
Y230162D01*
X242279D01*
G37*
G36*
Y222162D02*Y216562D01*
X247879D01*
Y222162D01*
X242279D01*
G37*
G36*
X227121Y217760D02*Y212160D01*
X232721D01*
Y217760D01*
X227121D01*
G37*
G36*
X235121D02*Y212160D01*
X240721D01*
Y217760D01*
X235121D01*
G37*
G36*
X227121Y224847D02*Y219247D01*
X232721D01*
Y224847D01*
X227121D01*
G37*
G36*
X235121D02*Y219247D01*
X240721D01*
Y224847D01*
X235121D01*
G37*
G36*
X227121Y210674D02*Y205074D01*
X232721D01*
Y210674D01*
X227121D01*
G37*
G36*
X235121D02*Y205074D01*
X240721D01*
Y210674D01*
X235121D01*
G37*
G36*
X341696Y120318D02*X337516D01*
Y110233D01*
X341696D01*
Y120318D01*
G37*
G36*
X339727D02*X335547D01*
Y110233D01*
X339727D01*
Y120318D01*
G37*
G36*
X337759D02*X333579D01*
Y110233D01*
X337759D01*
Y120318D01*
G37*
G36*
X335790D02*X331610D01*
Y110233D01*
X335790D01*
Y120318D01*
G37*
G36*
X333822D02*X329642D01*
Y110233D01*
X333822D01*
Y120318D01*
G37*
G36*
X331853D02*X327673D01*
Y110233D01*
X331853D01*
Y120318D01*
G37*
G36*
X329885D02*X325705D01*
Y110233D01*
X329885D01*
Y120318D01*
G37*
G36*
X327916D02*X323736D01*
Y110233D01*
X327916D01*
Y120318D01*
G37*
G36*
X325948D02*X321768D01*
Y110233D01*
X325948D01*
Y120318D01*
G37*
G36*
X323979D02*X319799D01*
Y110233D01*
X323979D01*
Y120318D01*
G37*
G36*
X322011D02*X317831D01*
Y110233D01*
X322011D01*
Y120318D01*
G37*
G36*
X341696Y133310D02*X337516D01*
Y123225D01*
X341696D01*
Y133310D01*
G37*
G36*
X339727D02*X335547D01*
Y123225D01*
X339727D01*
Y133310D01*
G37*
G36*
X337759D02*X333579D01*
Y123225D01*
X337759D01*
Y133310D01*
G37*
G36*
X335790D02*X331610D01*
Y123225D01*
X335790D01*
Y133310D01*
G37*
G36*
X333822D02*X329642D01*
Y123225D01*
X333822D01*
Y133310D01*
G37*
G36*
X331853D02*X327673D01*
Y123225D01*
X331853D01*
Y133310D01*
G37*
G36*
X329885D02*X325705D01*
Y123225D01*
X329885D01*
Y133310D01*
G37*
G36*
X327916D02*X323736D01*
Y123225D01*
X327916D01*
Y133310D01*
G37*
G36*
X325948D02*X321768D01*
Y123225D01*
X325948D01*
Y133310D01*
G37*
G36*
X323979D02*X319799D01*
Y123225D01*
X323979D01*
Y133310D01*
G37*
G36*
X322011D02*X317831D01*
Y123225D01*
X322011D01*
Y133310D01*
G37*
G36*
X320042D02*X315862D01*
Y123225D01*
X320042D01*
Y133310D01*
G37*
G36*
X334405Y141776D02*Y136176D01*
X340005D01*
Y141776D01*
X334405D01*
G37*
G36*
X342405D02*Y136176D01*
X348005D01*
Y141776D01*
X342405D01*
G37*
G36*
X340592Y171596D02*Y165996D01*
X346192D01*
Y171596D01*
X340592D01*
G37*
G36*
Y163596D02*Y157996D01*
X346192D01*
Y163596D01*
X340592D01*
G37*
G36*
X347426Y150270D02*Y147298D01*
X351186D01*
Y150270D01*
X347426D01*
G37*
G36*
Y152632D02*Y149660D01*
X351186D01*
Y152632D01*
X347426D01*
G37*
G36*
Y154994D02*Y152022D01*
X351186D01*
Y154994D01*
X347426D01*
G37*
G36*
X339552Y150270D02*Y147298D01*
X343312D01*
Y150270D01*
X339552D01*
G37*
G36*
Y152632D02*Y149660D01*
X343312D01*
Y152632D01*
X339552D01*
G37*
G36*
Y154994D02*Y152022D01*
X343312D01*
Y154994D01*
X339552D01*
G37*
M02*
