M48
INCH
T70C0.020
T69C0.118
T68C0.016
T67C0.016
T66C0.128
T65C0.049
T64C0.030
T63C0.040
T62C0.079
%
T68
X006831Y022303
X006949Y015079
X007997Y021518
X007997Y020989
X007997Y018441
X008012Y007638
X008032Y008661
X008563Y001634
X009193Y017598
X009193Y015728
X009272Y004941
X009665Y008799
X009784Y012716
X009862Y017598
X009882Y015728
X010059Y007441
X010532Y017598
X010532Y015728
X011102Y008346
X011220Y014075
X011496Y004114
X012185Y010020
X012476Y019971
X012677Y011791
X012677Y011378
X012677Y010964
X012815Y009508
X012815Y008917
X012874Y008287
X013957Y016732
X014134Y019488
X014154Y016338
X014252Y012264
X014272Y011831
X014350Y018012
X014547Y018366
X014685Y015945
X014685Y011752
X014744Y018720
X014941Y019094
X015118Y011752
X015216Y009567
X015335Y018878
X015374Y014508
X015512Y009862
X015532Y018504
X015610Y001949
X015748Y018150
X015807Y010157
X015827Y014508
X015886Y011594
X016043Y002657
X016102Y010453
X016280Y011811
X016870Y018150
X016890Y020650
X016909Y002657
X017224Y005433
X017284Y016968
X017342Y004114
X017382Y020650
X017638Y005728
X018209Y016063
X018209Y001949
X018327Y006043
X018386Y011772
X018622Y014232
X018642Y002657
X018819Y015748
X019154Y015748
X019390Y017421
X020197Y007067
X020807Y014291
X021004Y004114
X021240Y014291
X021831Y002047
X021848Y014410
X021929Y012795
X022165Y016870
X022165Y009646
X022362Y014823
X022480Y017323
X022874Y010807
X022933Y001673
X022933Y012638
X023032Y014823
X023189Y018799
X023189Y017972
X023189Y017559
X023543Y014882
X023661Y001673
X023878Y010807
X024370Y014882
X024390Y001673
X024528Y021575
X024547Y010807
X024685Y011850
X025295Y020453
X025295Y020039
X027146Y015177
X027146Y014606
X027146Y013937
X027146Y013268
X027520Y016378
X027520Y016043
X027558Y018487
X027598Y023051
X027598Y022559
X027913Y015590
X028524Y012165
X028878Y010512
X028957Y012165
X029291Y010512
X029705Y010512
X030118Y010512
X031476Y013464
X031870Y012185
X031890Y013464
X032284Y012185
X040032Y017312
X040678Y014529
T67
X002697Y020864
X004705Y007185
X005059Y010138
X007264Y016909
X007835Y008307
X007835Y009016
X007990Y020486
X007990Y017938
X008637Y019977
X008637Y019467
X008637Y018958
X009173Y009665
X009468Y002244
X010099Y009212
X010177Y004311
X010315Y007047
X011536Y015748
X011536Y014567
X011536Y012795
X011969Y022544
X011969Y021251
X011969Y019193
X012479Y023054
X012479Y022015
X012479Y020486
X013701Y009016
X014311Y015650
X014311Y014665
X014311Y012894
X016476Y001949
X016516Y016417
X016614Y008996
X016673Y019193
X016890Y022224
X017205Y011772
X019094Y011772
X019784Y017953
X021142Y016417
X022008Y005216
X022008Y004154
X022106Y013878
X022992Y022559
X023189Y018386
X024154Y022756
X024547Y011358
X027244Y001142
X027264Y003189
X027558Y021427
X029921Y019016
X032874Y010964
X032953Y012106
X032973Y013957
X032973Y013386
X037122Y016840
X043610Y014155
X043845Y011352
T70
X037992Y015768
X037992Y015354
X037992Y014921
X037992Y014488
T64
X004965Y011122
X005965Y011122
X009532Y014232
X010532Y014232
X023799Y014366
X023799Y013366
X028469Y014606
X029469Y014606
T63
X000545Y000587
X001549Y000587
X001618Y011579
X001618Y010579
X001618Y009579
X001618Y008579
X001618Y007579
X001618Y006579
X001618Y005579
X001618Y004579
X001618Y003579
X001618Y002579
X002618Y011579
X002618Y010579
X002618Y009579
X002618Y008579
X002618Y007579
X002618Y006579
X002618Y005579
X002618Y004579
X002618Y003579
X002618Y002579
X005295Y018838
X005295Y017838
X005295Y016838
X005295Y015838
X006295Y018338
X006295Y017338
X006295Y016338
X006295Y015338
X006549Y000587
X007264Y006831
X007553Y000587
X008557Y000587
X010366Y000590
X011366Y000590
X012366Y000590
X012480Y005228
X012480Y003228
X013366Y000590
X014902Y021968
X019968Y022716
X019968Y021299
X020968Y022716
X020968Y021299
X021968Y022716
X021968Y021299
X026378Y021772
X026378Y020772
X026378Y019772
X026378Y018772
X026378Y017772
X026378Y016772
X028742Y022323
X029742Y022323
X030742Y022323
X031850Y016713
X031850Y014713
X033042Y022323
X033110Y019370
X034042Y022323
X035042Y022323
X035110Y019370
X037342Y022323
X037438Y020495
X037438Y018495
X038342Y022323
X039342Y022323
X039438Y020495
X039438Y018495
X042657Y021781
X042657Y019841
X042657Y017804
X042657Y015864
T65
X013902Y022968
X013902Y020968
X015902Y022968
X015902Y020968
T62
X003995Y020138
X003995Y014038
X027976Y005524
X033968Y000784
X036835Y013476
X043370Y008673
T69
X029302Y018056
T66
X002795Y019338
X002795Y014838
M30
