G04 start of page 9 for group -3984 idx -3984 *
G04 Title: (unknown), fab *
G04 Creator: pcb 4.0.2 *
G04 CreationDate: Wed Oct 16 23:20:42 2019 UTC *
G04 For: walter *
G04 Format: Gerber/RS-274X *
G04 PCB-Dimensions (mil): 4429.13 2362.20 *
G04 PCB-Coordinate-Origin: lower left *
%MOIN*%
%FSLAX25Y25*%
%LNFAB*%
%ADD97C,0.0100*%
%ADD96C,0.0060*%
%ADD95R,0.0080X0.0080*%
G54D95*X27152Y148384D02*G75*G03X28752Y148384I800J0D01*G01*
G75*G03X27152Y148384I-800J0D01*G01*
X25552D02*G75*G03X30352Y148384I2400J0D01*G01*
G75*G03X25552Y148384I-2400J0D01*G01*
X27152Y193384D02*G75*G03X28752Y193384I800J0D01*G01*
G75*G03X27152Y193384I-800J0D01*G01*
X25552D02*G75*G03X30352Y193384I2400J0D01*G01*
G75*G03X25552Y193384I-2400J0D01*G01*
X14200Y247470D02*G75*G03X15800Y247470I800J0D01*G01*
G75*G03X14200Y247470I-800J0D01*G01*
X12600D02*G75*G03X17400Y247470I2400J0D01*G01*
G75*G03X12600Y247470I-2400J0D01*G01*
G54D96*X135000Y249720D02*Y248970D01*
X136500Y247470D01*
X138000Y248970D01*
Y249720D02*Y248970D01*
X136500Y247470D02*Y243720D01*
X139800Y246720D02*X142050D01*
X139800Y243720D02*X142800D01*
X139800Y249720D02*Y243720D01*
Y249720D02*X142800D01*
X147600D02*X148350Y248970D01*
X145350Y249720D02*X147600D01*
X144600Y248970D02*X145350Y249720D01*
X144600Y248970D02*Y247470D01*
X145350Y246720D01*
X147600D01*
X148350Y245970D01*
Y244470D01*
X147600Y243720D02*X148350Y244470D01*
X145350Y243720D02*X147600D01*
X144600Y244470D02*X145350Y243720D01*
X98000Y248970D02*X98750Y249720D01*
X101000D01*
X101750Y248970D01*
Y247470D01*
X98000Y243720D02*X101750Y247470D01*
X98000Y243720D02*X101750D01*
X45000Y244470D02*X45750Y243720D01*
X45000Y248970D02*Y244470D01*
Y248970D02*X45750Y249720D01*
X47250D01*
X48000Y248970D01*
Y244470D01*
X47250Y243720D02*X48000Y244470D01*
X45750Y243720D02*X47250D01*
X45000Y245220D02*X48000Y248220D01*
X49800Y243720D02*X50550D01*
X53100D02*X54600D01*
X53850Y249720D02*Y243720D01*
X52350Y248220D02*X53850Y249720D01*
X56400Y248970D02*X57150Y249720D01*
X59400D01*
X60150Y248970D01*
Y247470D01*
X56400Y243720D02*X60150Y247470D01*
X56400Y243720D02*X60150D01*
X61950Y244470D02*X62700Y243720D01*
X61950Y245970D02*Y244470D01*
Y245970D02*X62700Y246720D01*
X64200D01*
X64950Y245970D01*
Y244470D01*
X64200Y243720D02*X64950Y244470D01*
X62700Y243720D02*X64200D01*
X61950Y247470D02*X62700Y246720D01*
X61950Y248970D02*Y247470D01*
Y248970D02*X62700Y249720D01*
X64200D01*
X64950Y248970D01*
Y247470D01*
X64200Y246720D02*X64950Y247470D01*
X290620Y182956D02*X295420Y178156D01*
X290620D02*X295420Y182956D01*
X291420Y182156D02*X294620D01*
X291420D02*Y178956D01*
X294620D01*
Y182156D02*Y178956D01*
X12600Y264870D02*X17400Y260070D01*
X12600D02*X17400Y264870D01*
X13400Y264070D02*X16600D01*
X13400D02*Y260870D01*
X16600D01*
Y264070D02*Y260870D01*
X135000Y264720D02*Y263970D01*
X136500Y262470D01*
X138000Y263970D01*
Y264720D02*Y263970D01*
X136500Y262470D02*Y258720D01*
X139800Y261720D02*X142050D01*
X139800Y258720D02*X142800D01*
X139800Y264720D02*Y258720D01*
Y264720D02*X142800D01*
X147600D02*X148350Y263970D01*
X145350Y264720D02*X147600D01*
X144600Y263970D02*X145350Y264720D01*
X144600Y263970D02*Y262470D01*
X145350Y261720D01*
X147600D01*
X148350Y260970D01*
Y259470D01*
X147600Y258720D02*X148350Y259470D01*
X145350Y258720D02*X147600D01*
X144600Y259470D02*X145350Y258720D01*
X98750D02*X100250D01*
X99500Y264720D02*Y258720D01*
X98000Y263220D02*X99500Y264720D01*
X45000Y259470D02*X45750Y258720D01*
X45000Y263970D02*Y259470D01*
Y263970D02*X45750Y264720D01*
X47250D01*
X48000Y263970D01*
Y259470D01*
X47250Y258720D02*X48000Y259470D01*
X45750Y258720D02*X47250D01*
X45000Y260220D02*X48000Y263220D01*
X49800Y258720D02*X50550D01*
X53100D02*X54600D01*
X53850Y264720D02*Y258720D01*
X52350Y263220D02*X53850Y264720D01*
X57150Y258720D02*X58650D01*
X57900Y264720D02*Y258720D01*
X56400Y263220D02*X57900Y264720D01*
X60450Y259470D02*X61200Y258720D01*
X60450Y260970D02*Y259470D01*
Y260970D02*X61200Y261720D01*
X62700D01*
X63450Y260970D01*
Y259470D01*
X62700Y258720D02*X63450Y259470D01*
X61200Y258720D02*X62700D01*
X60450Y262470D02*X61200Y261720D01*
X60450Y263970D02*Y262470D01*
Y263970D02*X61200Y264720D01*
X62700D01*
X63450Y263970D01*
Y262470D01*
X62700Y261720D02*X63450Y262470D01*
X279763Y58436D02*Y52036D01*
X276563Y55236D02*X282963D01*
X278163Y56836D02*X281363D01*
X278163D02*Y53636D01*
X281363D01*
Y56836D02*Y53636D01*
X368346Y137963D02*Y131563D01*
X365146Y134763D02*X371546D01*
X366746Y136363D02*X369946D01*
X366746D02*Y133163D01*
X369946D01*
Y136363D02*Y133163D01*
X433700Y89932D02*Y83532D01*
X430500Y86732D02*X436900D01*
X432100Y88332D02*X435300D01*
X432100D02*Y85132D01*
X435300D01*
Y88332D02*Y85132D01*
X339684Y11035D02*Y4635D01*
X336484Y7835D02*X342884D01*
X338084Y9435D02*X341284D01*
X338084D02*Y6235D01*
X341284D01*
Y9435D02*Y6235D01*
X39952Y143584D02*Y137184D01*
X36752Y140384D02*X43152D01*
X38352Y141984D02*X41552D01*
X38352D02*Y138784D01*
X41552D01*
Y141984D02*Y138784D01*
X39952Y204584D02*Y198184D01*
X36752Y201384D02*X43152D01*
X38352Y202984D02*X41552D01*
X38352D02*Y199784D01*
X41552D01*
Y202984D02*Y199784D01*
X15000Y280670D02*Y274270D01*
X11800Y277470D02*X18200D01*
X13400Y279070D02*X16600D01*
X13400D02*Y275870D01*
X16600D01*
Y279070D02*Y275870D01*
X135000Y279720D02*Y278970D01*
X136500Y277470D01*
X138000Y278970D01*
Y279720D02*Y278970D01*
X136500Y277470D02*Y273720D01*
X139800Y276720D02*X142050D01*
X139800Y273720D02*X142800D01*
X139800Y279720D02*Y273720D01*
Y279720D02*X142800D01*
X147600D02*X148350Y278970D01*
X145350Y279720D02*X147600D01*
X144600Y278970D02*X145350Y279720D01*
X144600Y278970D02*Y277470D01*
X145350Y276720D01*
X147600D01*
X148350Y275970D01*
Y274470D01*
X147600Y273720D02*X148350Y274470D01*
X145350Y273720D02*X147600D01*
X144600Y274470D02*X145350Y273720D01*
X100250Y279720D02*X101000Y278970D01*
X98750Y279720D02*X100250D01*
X98000Y278970D02*X98750Y279720D01*
X98000Y278970D02*Y274470D01*
X98750Y273720D01*
X100250Y276720D02*X101000Y275970D01*
X98000Y276720D02*X100250D01*
X98750Y273720D02*X100250D01*
X101000Y274470D01*
Y275970D02*Y274470D01*
X45000D02*X45750Y273720D01*
X45000Y278970D02*Y274470D01*
Y278970D02*X45750Y279720D01*
X47250D01*
X48000Y278970D01*
Y274470D01*
X47250Y273720D02*X48000Y274470D01*
X45750Y273720D02*X47250D01*
X45000Y275220D02*X48000Y278220D01*
X49800Y273720D02*X50550D01*
X52350Y274470D02*X53100Y273720D01*
X52350Y278970D02*Y274470D01*
Y278970D02*X53100Y279720D01*
X54600D01*
X55350Y278970D01*
Y274470D01*
X54600Y273720D02*X55350Y274470D01*
X53100Y273720D02*X54600D01*
X52350Y275220D02*X55350Y278220D01*
X57150Y273720D02*X60900Y277470D01*
Y279720D02*Y277470D01*
X57150Y279720D02*X60900D01*
X62700Y273720D02*X65700Y276720D01*
Y278970D02*Y276720D01*
X64950Y279720D02*X65700Y278970D01*
X63450Y279720D02*X64950D01*
X62700Y278970D02*X63450Y279720D01*
X62700Y278970D02*Y277470D01*
X63450Y276720D01*
X65700D01*
X139016Y209685D02*Y206485D01*
Y209685D02*X141789Y211285D01*
X139016Y209685D02*X136243Y211285D01*
X137416Y209685D02*G75*G03X140616Y209685I1600J0D01*G01*
G75*G03X137416Y209685I-1600J0D01*G01*
X139016Y229685D02*Y226485D01*
Y229685D02*X141789Y231285D01*
X139016Y229685D02*X136243Y231285D01*
X137416Y229685D02*G75*G03X140616Y229685I1600J0D01*G01*
G75*G03X137416Y229685I-1600J0D01*G01*
X159016Y209685D02*Y206485D01*
Y209685D02*X161789Y211285D01*
X159016Y209685D02*X156243Y211285D01*
X157416Y209685D02*G75*G03X160616Y209685I1600J0D01*G01*
G75*G03X157416Y209685I-1600J0D01*G01*
X159016Y229685D02*Y226485D01*
Y229685D02*X161789Y231285D01*
X159016Y229685D02*X156243Y231285D01*
X157416Y229685D02*G75*G03X160616Y229685I1600J0D01*G01*
G75*G03X157416Y229685I-1600J0D01*G01*
X15000Y292470D02*Y289270D01*
Y292470D02*X17773Y294070D01*
X15000Y292470D02*X12227Y294070D01*
X13400Y292470D02*G75*G03X16600Y292470I1600J0D01*G01*
G75*G03X13400Y292470I-1600J0D01*G01*
X135000Y294720D02*Y293970D01*
X136500Y292470D01*
X138000Y293970D01*
Y294720D02*Y293970D01*
X136500Y292470D02*Y288720D01*
X139800Y291720D02*X142050D01*
X139800Y288720D02*X142800D01*
X139800Y294720D02*Y288720D01*
Y294720D02*X142800D01*
X147600D02*X148350Y293970D01*
X145350Y294720D02*X147600D01*
X144600Y293970D02*X145350Y294720D01*
X144600Y293970D02*Y292470D01*
X145350Y291720D01*
X147600D01*
X148350Y290970D01*
Y289470D01*
X147600Y288720D02*X148350Y289470D01*
X145350Y288720D02*X147600D01*
X144600Y289470D02*X145350Y288720D01*
X98000Y291720D02*X101000Y294720D01*
X98000Y291720D02*X101750D01*
X101000Y294720D02*Y288720D01*
X45000Y289470D02*X45750Y288720D01*
X45000Y293970D02*Y289470D01*
Y293970D02*X45750Y294720D01*
X47250D01*
X48000Y293970D01*
Y289470D01*
X47250Y288720D02*X48000Y289470D01*
X45750Y288720D02*X47250D01*
X45000Y290220D02*X48000Y293220D01*
X49800Y288720D02*X50550D01*
X52350Y289470D02*X53100Y288720D01*
X52350Y293970D02*Y289470D01*
Y293970D02*X53100Y294720D01*
X54600D01*
X55350Y293970D01*
Y289470D01*
X54600Y288720D02*X55350Y289470D01*
X53100Y288720D02*X54600D01*
X52350Y290220D02*X55350Y293220D01*
X57150Y291720D02*X60150Y294720D01*
X57150Y291720D02*X60900D01*
X60150Y294720D02*Y288720D01*
X62700D02*X65700Y291720D01*
Y293970D02*Y291720D01*
X64950Y294720D02*X65700Y293970D01*
X63450Y294720D02*X64950D01*
X62700Y293970D02*X63450Y294720D01*
X62700Y293970D02*Y292470D01*
X63450Y291720D01*
X65700D01*
X262180Y219316D02*X265380D01*
X262180D02*Y216116D01*
X265380D01*
Y219316D02*Y216116D01*
X262180Y209316D02*X265380D01*
X262180D02*Y206116D01*
X265380D01*
Y209316D02*Y206116D01*
X262180Y199316D02*X265380D01*
X262180D02*Y196116D01*
X265380D01*
Y199316D02*Y196116D01*
X262180Y189316D02*X265380D01*
X262180D02*Y186116D01*
X265380D01*
Y189316D02*Y186116D01*
X262180Y179316D02*X265380D01*
X262180D02*Y176116D01*
X265380D01*
Y179316D02*Y176116D01*
X262180Y169316D02*X265380D01*
X262180D02*Y166116D01*
X265380D01*
Y169316D02*Y166116D01*
X24581Y27387D02*X27781D01*
X24581D02*Y24187D01*
X27781D01*
Y27387D02*Y24187D01*
X14581Y27387D02*X17781D01*
X14581D02*Y24187D01*
X17781D01*
Y27387D02*Y24187D01*
X24581Y37387D02*X27781D01*
X24581D02*Y34187D01*
X27781D01*
Y37387D02*Y34187D01*
X14581Y37387D02*X17781D01*
X14581D02*Y34187D01*
X17781D01*
Y37387D02*Y34187D01*
X24581Y47387D02*X27781D01*
X24581D02*Y44187D01*
X27781D01*
Y47387D02*Y44187D01*
X14581Y47387D02*X17781D01*
X14581D02*Y44187D01*
X17781D01*
Y47387D02*Y44187D01*
X24581Y57387D02*X27781D01*
X24581D02*Y54187D01*
X27781D01*
Y57387D02*Y54187D01*
X14581Y57387D02*X17781D01*
X14581D02*Y54187D01*
X17781D01*
Y57387D02*Y54187D01*
X24581Y67387D02*X27781D01*
X24581D02*Y64187D01*
X27781D01*
Y67387D02*Y64187D01*
X14581Y67387D02*X17781D01*
X14581D02*Y64187D01*
X17781D01*
Y67387D02*Y64187D01*
X24581Y77387D02*X27781D01*
X24581D02*Y74187D01*
X27781D01*
Y77387D02*Y74187D01*
X14581Y77387D02*X17781D01*
X14581D02*Y74187D01*
X17781D01*
Y77387D02*Y74187D01*
X24581Y87387D02*X27781D01*
X24581D02*Y84187D01*
X27781D01*
Y87387D02*Y84187D01*
X14581Y87387D02*X17781D01*
X14581D02*Y84187D01*
X17781D01*
Y87387D02*Y84187D01*
X24581Y97387D02*X27781D01*
X24581D02*Y94187D01*
X27781D01*
Y97387D02*Y94187D01*
X14581Y97387D02*X17781D01*
X14581D02*Y94187D01*
X17781D01*
Y97387D02*Y94187D01*
X24581Y107387D02*X27781D01*
X24581D02*Y104187D01*
X27781D01*
Y107387D02*Y104187D01*
X14581Y107387D02*X17781D01*
X14581D02*Y104187D01*
X17781D01*
Y107387D02*Y104187D01*
X24581Y117387D02*X27781D01*
X24581D02*Y114187D01*
X27781D01*
Y117387D02*Y114187D01*
X14581Y117387D02*X17781D01*
X14581D02*Y114187D01*
X17781D01*
Y117387D02*Y114187D01*
X83970Y7474D02*X87170D01*
X83970D02*Y4274D01*
X87170D01*
Y7474D02*Y4274D01*
X73931Y7474D02*X77131D01*
X73931D02*Y4274D01*
X77131D01*
Y7474D02*Y4274D01*
X63892Y7474D02*X67092D01*
X63892D02*Y4274D01*
X67092D01*
Y7474D02*Y4274D01*
X3852Y7474D02*X7052D01*
X3852D02*Y4274D01*
X7052D01*
Y7474D02*Y4274D01*
X13892Y7474D02*X17092D01*
X13892D02*Y4274D01*
X17092D01*
Y7474D02*Y4274D01*
X147416Y221285D02*X150616D01*
X147416D02*Y218085D01*
X150616D01*
Y221285D02*Y218085D01*
X329501Y195301D02*X332701D01*
X329501D02*Y192101D01*
X332701D01*
Y195301D02*Y192101D01*
X349501Y195301D02*X352701D01*
X349501D02*Y192101D01*
X352701D01*
Y195301D02*Y192101D01*
X285825Y224829D02*X289025D01*
X285825D02*Y221629D01*
X289025D01*
Y224829D02*Y221629D01*
X295825Y224829D02*X299025D01*
X295825D02*Y221629D01*
X299025D01*
Y224829D02*Y221629D01*
X305825Y224829D02*X309025D01*
X305825D02*Y221629D01*
X309025D01*
Y224829D02*Y221629D01*
X316904Y168727D02*X320104D01*
X316904D02*Y165527D01*
X320104D01*
Y168727D02*Y165527D01*
X316904Y148727D02*X320104D01*
X316904D02*Y145527D01*
X320104D01*
Y148727D02*Y145527D01*
X371825Y224829D02*X375025D01*
X371825D02*Y221629D01*
X375025D01*
Y224829D02*Y221629D01*
X381825Y224829D02*X385025D01*
X381825D02*Y221629D01*
X385025D01*
Y224829D02*Y221629D01*
X391825Y224829D02*X395025D01*
X391825D02*Y221629D01*
X395025D01*
Y224829D02*Y221629D01*
X123203Y33883D02*X126403D01*
X123203D02*Y30683D01*
X126403D01*
Y33883D02*Y30683D01*
X123203Y53883D02*X126403D01*
X123203D02*Y50683D01*
X126403D01*
Y53883D02*Y50683D01*
X328825Y224829D02*X332025D01*
X328825D02*Y221629D01*
X332025D01*
Y224829D02*Y221629D01*
X338825Y224829D02*X342025D01*
X338825D02*Y221629D01*
X342025D01*
Y224829D02*Y221629D01*
X348825Y224829D02*X352025D01*
X348825D02*Y221629D01*
X352025D01*
Y224829D02*Y221629D01*
X392785Y186546D02*X395985D01*
X392785D02*Y183346D01*
X395985D01*
Y186546D02*Y183346D01*
X392785Y206546D02*X395985D01*
X392785D02*Y203346D01*
X395985D01*
Y206546D02*Y203346D01*
X372785Y206546D02*X375985D01*
X372785D02*Y203346D01*
X375985D01*
Y206546D02*Y203346D01*
X372785Y186546D02*X375985D01*
X372785D02*Y183346D01*
X375985D01*
Y186546D02*Y183346D01*
X424974Y200006D02*X428174D01*
X424974D02*Y196806D01*
X428174D01*
Y200006D02*Y196806D01*
X424974Y219406D02*X428174D01*
X424974D02*Y216206D01*
X428174D01*
Y219406D02*Y216206D01*
X424974Y160242D02*X428174D01*
X424974D02*Y157042D01*
X428174D01*
Y160242D02*Y157042D01*
X424974Y179642D02*X428174D01*
X424974D02*Y176442D01*
X428174D01*
Y179642D02*Y176442D01*
X218085Y214592D02*X221285D01*
X218085D02*Y211392D01*
X221285D01*
Y214592D02*Y211392D01*
X208085Y214592D02*X211285D01*
X208085D02*Y211392D01*
X211285D01*
Y214592D02*Y211392D01*
X198085Y214592D02*X201285D01*
X198085D02*Y211392D01*
X201285D01*
Y214592D02*Y211392D01*
X61352Y154984D02*X64552D01*
X61352D02*Y151784D01*
X64552D01*
Y154984D02*Y151784D01*
X61352Y184984D02*X64552D01*
X61352D02*Y181784D01*
X64552D01*
Y184984D02*Y181784D01*
X61352Y174984D02*X64552D01*
X61352D02*Y171784D01*
X64552D01*
Y174984D02*Y171784D01*
X61352Y164984D02*X64552D01*
X61352D02*Y161784D01*
X64552D01*
Y164984D02*Y161784D01*
X51352Y179984D02*X54552D01*
X51352D02*Y176784D01*
X54552D01*
Y179984D02*Y176784D01*
X51352Y169984D02*X54552D01*
X51352D02*Y166784D01*
X54552D01*
Y169984D02*Y166784D01*
X51352Y189984D02*X54552D01*
X51352D02*Y186784D01*
X54552D01*
Y189984D02*Y186784D01*
X51352Y159984D02*X54552D01*
X51352D02*Y156784D01*
X54552D01*
Y159984D02*Y156784D01*
X132062Y7505D02*X135262D01*
X132062D02*Y4305D01*
X135262D01*
Y7505D02*Y4305D01*
X122062Y7505D02*X125262D01*
X122062D02*Y4305D01*
X125262D01*
Y7505D02*Y4305D01*
X112062Y7505D02*X115262D01*
X112062D02*Y4305D01*
X115262D01*
Y7505D02*Y4305D01*
X102062Y7505D02*X105262D01*
X102062D02*Y4305D01*
X105262D01*
Y7505D02*Y4305D01*
X218085Y228765D02*X221285D01*
X218085D02*Y225565D01*
X221285D01*
Y228765D02*Y225565D01*
X208085Y228765D02*X211285D01*
X208085D02*Y225565D01*
X211285D01*
Y228765D02*Y225565D01*
X198085Y228765D02*X201285D01*
X198085D02*Y225565D01*
X201285D01*
Y228765D02*Y225565D01*
X71038Y69906D02*X74238D01*
X71038D02*Y66706D01*
X74238D01*
Y69906D02*Y66706D01*
X13400Y309070D02*X16600D01*
X13400D02*Y305870D01*
X16600D01*
Y309070D02*Y305870D01*
X135000Y309720D02*Y308970D01*
X136500Y307470D01*
X138000Y308970D01*
Y309720D02*Y308970D01*
X136500Y307470D02*Y303720D01*
X139800Y306720D02*X142050D01*
X139800Y303720D02*X142800D01*
X139800Y309720D02*Y303720D01*
Y309720D02*X142800D01*
X147600D02*X148350Y308970D01*
X145350Y309720D02*X147600D01*
X144600Y308970D02*X145350Y309720D01*
X144600Y308970D02*Y307470D01*
X145350Y306720D01*
X147600D01*
X148350Y305970D01*
Y304470D01*
X147600Y303720D02*X148350Y304470D01*
X145350Y303720D02*X147600D01*
X144600Y304470D02*X145350Y303720D01*
X98000D02*X101750Y307470D01*
Y309720D02*Y307470D01*
X98000Y309720D02*X101750D01*
X103550Y306720D02*X106550Y309720D01*
X103550Y306720D02*X107300D01*
X106550Y309720D02*Y303720D01*
X45000Y304470D02*X45750Y303720D01*
X45000Y308970D02*Y304470D01*
Y308970D02*X45750Y309720D01*
X47250D01*
X48000Y308970D01*
Y304470D01*
X47250Y303720D02*X48000Y304470D01*
X45750Y303720D02*X47250D01*
X45000Y305220D02*X48000Y308220D01*
X49800Y303720D02*X50550D01*
X52350Y304470D02*X53100Y303720D01*
X52350Y308970D02*Y304470D01*
Y308970D02*X53100Y309720D01*
X54600D01*
X55350Y308970D01*
Y304470D01*
X54600Y303720D02*X55350Y304470D01*
X53100Y303720D02*X54600D01*
X52350Y305220D02*X55350Y308220D01*
X57150Y306720D02*X60150Y309720D01*
X57150Y306720D02*X60900D01*
X60150Y309720D02*Y303720D01*
X62700Y304470D02*X63450Y303720D01*
X62700Y308970D02*Y304470D01*
Y308970D02*X63450Y309720D01*
X64950D01*
X65700Y308970D01*
Y304470D01*
X64950Y303720D02*X65700Y304470D01*
X63450Y303720D02*X64950D01*
X62700Y305220D02*X65700Y308220D01*
X237192Y133661D02*G75*G03X238792Y133661I800J0D01*G01*
G75*G03X237192Y133661I-800J0D01*G01*
Y143661D02*G75*G03X238792Y143661I800J0D01*G01*
G75*G03X237192Y143661I-800J0D01*G01*
X58847Y111219D02*G75*G03X60447Y111219I800J0D01*G01*
G75*G03X58847Y111219I-800J0D01*G01*
X48847D02*G75*G03X50447Y111219I800J0D01*G01*
G75*G03X48847Y111219I-800J0D01*G01*
X293886Y146065D02*G75*G03X295486Y146065I800J0D01*G01*
G75*G03X293886Y146065I-800J0D01*G01*
X283886D02*G75*G03X285486Y146065I800J0D01*G01*
G75*G03X283886Y146065I-800J0D01*G01*
X104515Y142322D02*G75*G03X106115Y142322I800J0D01*G01*
G75*G03X104515Y142322I-800J0D01*G01*
X94515D02*G75*G03X96115Y142322I800J0D01*G01*
G75*G03X94515Y142322I-800J0D01*G01*
X14200Y322470D02*G75*G03X15800Y322470I800J0D01*G01*
G75*G03X14200Y322470I-800J0D01*G01*
X135000Y324720D02*Y323970D01*
X136500Y322470D01*
X138000Y323970D01*
Y324720D02*Y323970D01*
X136500Y322470D02*Y318720D01*
X139800Y321720D02*X142050D01*
X139800Y318720D02*X142800D01*
X139800Y324720D02*Y318720D01*
Y324720D02*X142800D01*
X147600D02*X148350Y323970D01*
X145350Y324720D02*X147600D01*
X144600Y323970D02*X145350Y324720D01*
X144600Y323970D02*Y322470D01*
X145350Y321720D01*
X147600D01*
X148350Y320970D01*
Y319470D01*
X147600Y318720D02*X148350Y319470D01*
X145350Y318720D02*X147600D01*
X144600Y319470D02*X145350Y318720D01*
X98000Y319470D02*X98750Y318720D01*
X98000Y320970D02*Y319470D01*
Y320970D02*X98750Y321720D01*
X100250D01*
X101000Y320970D01*
Y319470D01*
X100250Y318720D02*X101000Y319470D01*
X98750Y318720D02*X100250D01*
X98000Y322470D02*X98750Y321720D01*
X98000Y323970D02*Y322470D01*
Y323970D02*X98750Y324720D01*
X100250D01*
X101000Y323970D01*
Y322470D01*
X100250Y321720D02*X101000Y322470D01*
X45000Y319470D02*X45750Y318720D01*
X45000Y323970D02*Y319470D01*
Y323970D02*X45750Y324720D01*
X47250D01*
X48000Y323970D01*
Y319470D01*
X47250Y318720D02*X48000Y319470D01*
X45750Y318720D02*X47250D01*
X45000Y320220D02*X48000Y323220D01*
X49800Y318720D02*X50550D01*
X52350Y319470D02*X53100Y318720D01*
X52350Y323970D02*Y319470D01*
Y323970D02*X53100Y324720D01*
X54600D01*
X55350Y323970D01*
Y319470D01*
X54600Y318720D02*X55350Y319470D01*
X53100Y318720D02*X54600D01*
X52350Y320220D02*X55350Y323220D01*
X57150Y323970D02*X57900Y324720D01*
X59400D01*
X60150Y323970D01*
Y319470D01*
X59400Y318720D02*X60150Y319470D01*
X57900Y318720D02*X59400D01*
X57150Y319470D02*X57900Y318720D01*
Y321720D02*X60150D01*
X61950Y319470D02*X62700Y318720D01*
X61950Y323970D02*Y319470D01*
Y323970D02*X62700Y324720D01*
X64200D01*
X64950Y323970D01*
Y319470D01*
X64200Y318720D02*X64950Y319470D01*
X62700Y318720D02*X64200D01*
X61950Y320220D02*X64950Y323220D01*
X378721Y158877D02*X381121Y156477D01*
X378721D02*X381121Y158877D01*
X378721Y154743D02*X381121Y152343D01*
X378721D02*X381121Y154743D01*
X378721Y150412D02*X381121Y148012D01*
X378721D02*X381121Y150412D01*
X378721Y146081D02*X381121Y143681D01*
X378721D02*X381121Y146081D01*
X13800Y338670D02*X16200Y336270D01*
X13800D02*X16200Y338670D01*
X135000Y339720D02*Y338970D01*
X136500Y337470D01*
X138000Y338970D01*
Y339720D02*Y338970D01*
X136500Y337470D02*Y333720D01*
X139800Y336720D02*X142050D01*
X139800Y333720D02*X142800D01*
X139800Y339720D02*Y333720D01*
Y339720D02*X142800D01*
X147600D02*X148350Y338970D01*
X145350Y339720D02*X147600D01*
X144600Y338970D02*X145350Y339720D01*
X144600Y338970D02*Y337470D01*
X145350Y336720D01*
X147600D01*
X148350Y335970D01*
Y334470D01*
X147600Y333720D02*X148350Y334470D01*
X145350Y333720D02*X147600D01*
X144600Y334470D02*X145350Y333720D01*
X98000Y336720D02*X101000Y339720D01*
X98000Y336720D02*X101750D01*
X101000Y339720D02*Y333720D01*
X45000Y334470D02*X45750Y333720D01*
X45000Y338970D02*Y334470D01*
Y338970D02*X45750Y339720D01*
X47250D01*
X48000Y338970D01*
Y334470D01*
X47250Y333720D02*X48000Y334470D01*
X45750Y333720D02*X47250D01*
X45000Y335220D02*X48000Y338220D01*
X49800Y333720D02*X50550D01*
X52350Y334470D02*X53100Y333720D01*
X52350Y338970D02*Y334470D01*
Y338970D02*X53100Y339720D01*
X54600D01*
X55350Y338970D01*
Y334470D01*
X54600Y333720D02*X55350Y334470D01*
X53100Y333720D02*X54600D01*
X52350Y335220D02*X55350Y338220D01*
X57150Y338970D02*X57900Y339720D01*
X60150D01*
X60900Y338970D01*
Y337470D01*
X57150Y333720D02*X60900Y337470D01*
X57150Y333720D02*X60900D01*
X62700Y334470D02*X63450Y333720D01*
X62700Y338970D02*Y334470D01*
Y338970D02*X63450Y339720D01*
X64950D01*
X65700Y338970D01*
Y334470D01*
X64950Y333720D02*X65700Y334470D01*
X63450Y333720D02*X64950D01*
X62700Y335220D02*X65700Y338220D01*
X329726Y135458D02*Y132258D01*
X328126Y133858D02*X331326D01*
X94685Y24040D02*Y20840D01*
X93085Y22440D02*X96285D01*
X329530Y122663D02*Y119463D01*
X327930Y121063D02*X331130D01*
X328742Y111245D02*Y108045D01*
X327142Y109645D02*X330342D01*
X221065Y140379D02*Y137179D01*
X219465Y138779D02*X222665D01*
X115356Y147269D02*Y144069D01*
X113756Y145669D02*X116956D01*
X197835Y181127D02*Y177927D01*
X196235Y179527D02*X199435D01*
X166144Y91560D02*Y88360D01*
X164544Y89960D02*X167744D01*
X143112Y158095D02*Y154895D01*
X141512Y156495D02*X144712D01*
X165157Y165773D02*Y162573D01*
X163557Y164173D02*X166757D01*
X143112Y148253D02*Y145053D01*
X141512Y146653D02*X144712D01*
X143112Y130536D02*Y127336D01*
X141512Y128936D02*X144712D01*
X172049Y119316D02*Y116116D01*
X170449Y117716D02*X173649D01*
X190945Y119316D02*Y116116D01*
X189345Y117716D02*X192545D01*
X137008Y91757D02*Y88557D01*
X135408Y90157D02*X138608D01*
X115356Y159080D02*Y155880D01*
X113756Y157480D02*X116956D01*
X166732Y193529D02*Y190329D01*
X165132Y191929D02*X168332D01*
X115356Y129552D02*Y126352D01*
X113756Y127952D02*X116956D01*
X78349Y91756D02*Y88556D01*
X76749Y90156D02*X79949D01*
X91733Y98253D02*Y95053D01*
X90133Y96653D02*X93333D01*
X100986Y93724D02*Y90524D01*
X99386Y92124D02*X102586D01*
X50594Y102976D02*Y99776D01*
X48994Y101376D02*X52194D01*
X47050Y73449D02*Y70249D01*
X45450Y71849D02*X48650D01*
X101772Y44710D02*Y41510D01*
X100172Y43110D02*X103372D01*
X103151Y72071D02*Y68871D01*
X101551Y70471D02*X104751D01*
X78348Y84669D02*Y81469D01*
X76748Y83069D02*X79948D01*
X164764Y21088D02*Y17888D01*
X163164Y19488D02*X166364D01*
X220079Y53765D02*Y50565D01*
X218479Y52165D02*X221679D01*
X220079Y43135D02*Y39935D01*
X218479Y41535D02*X221679D01*
X245472Y115182D02*Y111982D01*
X243872Y113582D02*X247072D01*
X72638Y170694D02*Y167494D01*
X71038Y169094D02*X74238D01*
X272441Y13017D02*Y9817D01*
X270841Y11417D02*X274041D01*
X211417Y165773D02*Y162573D01*
X209817Y164173D02*X213017D01*
X231890Y185458D02*Y182258D01*
X230290Y183858D02*X233490D01*
X241535Y229159D02*Y225959D01*
X239935Y227559D02*X243135D01*
X168898Y223844D02*Y220644D01*
X167298Y222244D02*X170498D01*
X229921Y227190D02*Y223990D01*
X228321Y225590D02*X231521D01*
X329726Y141166D02*Y137966D01*
X328126Y139566D02*X331326D01*
X124788Y232141D02*Y228941D01*
X123188Y230541D02*X126388D01*
X124788Y221753D02*Y218553D01*
X123188Y220153D02*X126388D01*
X124788Y206465D02*Y203265D01*
X123188Y204865D02*X126388D01*
X79904Y206465D02*Y203265D01*
X78304Y204865D02*X81504D01*
X79904Y180985D02*Y177785D01*
X78304Y179385D02*X81504D01*
X119692Y227045D02*Y223845D01*
X118092Y225445D02*X121292D01*
X119692Y214109D02*Y210909D01*
X118092Y212509D02*X121292D01*
X119692Y193529D02*Y190329D01*
X118092Y191929D02*X121292D01*
X86372Y201369D02*Y198169D01*
X84772Y199769D02*X87972D01*
X86372Y196273D02*Y193073D01*
X84772Y194673D02*X87972D01*
X86372Y191177D02*Y187977D01*
X84772Y189577D02*X87972D01*
X26971Y210243D02*Y207043D01*
X25371Y208643D02*X28571D01*
X438452Y115124D02*Y111924D01*
X436852Y113524D02*X440052D01*
X371224Y170004D02*Y166804D01*
X369624Y168404D02*X372824D01*
X436100Y143152D02*Y139952D01*
X434500Y141552D02*X437700D01*
X275576Y215868D02*Y212668D01*
X273976Y214268D02*X277176D01*
X299213Y191757D02*Y188557D01*
X297613Y190157D02*X300813D01*
X272638Y33489D02*Y30289D01*
X271038Y31889D02*X274238D01*
X15000Y354070D02*Y350870D01*
X13400Y352470D02*X16600D01*
X135000Y354720D02*Y353970D01*
X136500Y352470D01*
X138000Y353970D01*
Y354720D02*Y353970D01*
X136500Y352470D02*Y348720D01*
X139800Y351720D02*X142050D01*
X139800Y348720D02*X142800D01*
X139800Y354720D02*Y348720D01*
Y354720D02*X142800D01*
X147600D02*X148350Y353970D01*
X145350Y354720D02*X147600D01*
X144600Y353970D02*X145350Y354720D01*
X144600Y353970D02*Y352470D01*
X145350Y351720D01*
X147600D01*
X148350Y350970D01*
Y349470D01*
X147600Y348720D02*X148350Y349470D01*
X145350Y348720D02*X147600D01*
X144600Y349470D02*X145350Y348720D01*
X98000Y354720D02*X101000D01*
X98000D02*Y351720D01*
X98750Y352470D01*
X100250D01*
X101000Y351720D01*
Y349470D01*
X100250Y348720D02*X101000Y349470D01*
X98750Y348720D02*X100250D01*
X98000Y349470D02*X98750Y348720D01*
X105050Y354720D02*X105800Y353970D01*
X103550Y354720D02*X105050D01*
X102800Y353970D02*X103550Y354720D01*
X102800Y353970D02*Y349470D01*
X103550Y348720D01*
X105050Y351720D02*X105800Y350970D01*
X102800Y351720D02*X105050D01*
X103550Y348720D02*X105050D01*
X105800Y349470D01*
Y350970D02*Y349470D01*
X45000D02*X45750Y348720D01*
X45000Y353970D02*Y349470D01*
Y353970D02*X45750Y354720D01*
X47250D01*
X48000Y353970D01*
Y349470D01*
X47250Y348720D02*X48000Y349470D01*
X45750Y348720D02*X47250D01*
X45000Y350220D02*X48000Y353220D01*
X49800Y348720D02*X50550D01*
X52350Y349470D02*X53100Y348720D01*
X52350Y353970D02*Y349470D01*
Y353970D02*X53100Y354720D01*
X54600D01*
X55350Y353970D01*
Y349470D01*
X54600Y348720D02*X55350Y349470D01*
X53100Y348720D02*X54600D01*
X52350Y350220D02*X55350Y353220D01*
X57900Y348720D02*X59400D01*
X58650Y354720D02*Y348720D01*
X57150Y353220D02*X58650Y354720D01*
X63450D02*X64200Y353970D01*
X61950Y354720D02*X63450D01*
X61200Y353970D02*X61950Y354720D01*
X61200Y353970D02*Y349470D01*
X61950Y348720D01*
X63450Y351720D02*X64200Y350970D01*
X61200Y351720D02*X63450D01*
X61950Y348720D02*X63450D01*
X64200Y349470D01*
Y350970D02*Y349470D01*
X100592Y74408D02*Y72808D01*
Y74408D02*X101979Y75208D01*
X100592Y74408D02*X99205Y75208D01*
X80316Y86612D02*Y85012D01*
Y86612D02*X81703Y87412D01*
X80316Y86612D02*X78929Y87412D01*
X80119Y76376D02*Y74776D01*
Y76376D02*X81506Y77176D01*
X80119Y76376D02*X78732Y77176D01*
X128150Y95078D02*Y93478D01*
Y95078D02*X129537Y95878D01*
X128150Y95078D02*X126763Y95878D01*
X128150Y89173D02*Y87573D01*
Y89173D02*X129537Y89973D01*
X128150Y89173D02*X126763Y89973D01*
X121851Y100196D02*Y98596D01*
Y100196D02*X123238Y100996D01*
X121851Y100196D02*X120464Y100996D01*
X111024Y83464D02*Y81864D01*
Y83464D02*X112411Y84264D01*
X111024Y83464D02*X109637Y84264D01*
X275984Y225590D02*Y223990D01*
Y225590D02*X277371Y226390D01*
X275984Y225590D02*X274597Y226390D01*
X158268Y145078D02*Y143478D01*
Y145078D02*X159655Y145878D01*
X158268Y145078D02*X156881Y145878D01*
X186220Y142322D02*Y140722D01*
Y142322D02*X187607Y143122D01*
X186220Y142322D02*X184833Y143122D01*
X212402Y142913D02*Y141313D01*
Y142913D02*X213789Y143713D01*
X212402Y142913D02*X211015Y143713D01*
X96654Y87991D02*Y86391D01*
Y87991D02*X98041Y88791D01*
X96654Y87991D02*X95267Y88791D01*
X193898Y174212D02*Y172612D01*
Y174212D02*X195285Y175012D01*
X193898Y174212D02*X192511Y175012D01*
X112205Y140748D02*Y139148D01*
Y140748D02*X113592Y141548D01*
X112205Y140748D02*X110818Y141548D01*
X183858Y117716D02*Y116116D01*
Y117716D02*X185245Y118516D01*
X183858Y117716D02*X182471Y118516D01*
X69488Y150787D02*Y149187D01*
Y150787D02*X70875Y151587D01*
X69488Y150787D02*X68101Y151587D01*
X160433Y26574D02*Y24974D01*
Y26574D02*X161820Y27374D01*
X160433Y26574D02*X159046Y27374D01*
X153740Y145078D02*Y143478D01*
Y145078D02*X155127Y145878D01*
X153740Y145078D02*X152353Y145878D01*
X322835Y121850D02*Y120250D01*
Y121850D02*X324222Y122650D01*
X322835Y121850D02*X321448Y122650D01*
X318701Y121850D02*Y120250D01*
Y121850D02*X320088Y122650D01*
X318701Y121850D02*X317314Y122650D01*
X318898Y134645D02*Y133045D01*
Y134645D02*X320285Y135445D01*
X318898Y134645D02*X317511Y135445D01*
X314764Y134645D02*Y133045D01*
Y134645D02*X316151Y135445D01*
X314764Y134645D02*X313377Y135445D01*
X301181Y105118D02*Y103518D01*
Y105118D02*X302568Y105918D01*
X301181Y105118D02*X299794Y105918D01*
X297047Y105118D02*Y103518D01*
Y105118D02*X298434Y105918D01*
X297047Y105118D02*X295660Y105918D01*
X292913Y105118D02*Y103518D01*
Y105118D02*X294300Y105918D01*
X292913Y105118D02*X291526Y105918D01*
X288780Y105118D02*Y103518D01*
Y105118D02*X290167Y105918D01*
X288780Y105118D02*X287393Y105918D01*
X105315Y157283D02*Y155683D01*
Y157283D02*X106702Y158083D01*
X105315Y157283D02*X103928Y158083D01*
X245472Y108070D02*Y106470D01*
Y108070D02*X246859Y108870D01*
X245472Y108070D02*X244085Y108870D01*
X238780Y108070D02*Y106470D01*
Y108070D02*X240167Y108870D01*
X238780Y108070D02*X237393Y108870D01*
X228740Y108070D02*Y106470D01*
Y108070D02*X230127Y108870D01*
X228740Y108070D02*X227353Y108870D01*
X221654Y96456D02*Y94856D01*
Y96456D02*X223041Y97256D01*
X221654Y96456D02*X220267Y97256D01*
X289567Y121653D02*Y120053D01*
Y121653D02*X290954Y122453D01*
X289567Y121653D02*X288180Y122453D01*
X285236Y121653D02*Y120053D01*
Y121653D02*X286623Y122453D01*
X285236Y121653D02*X283849Y122453D01*
X246850Y118503D02*Y116903D01*
Y118503D02*X248237Y119303D01*
X246850Y118503D02*X245463Y119303D01*
X229331Y126377D02*Y124777D01*
Y126377D02*X230718Y127177D01*
X229331Y126377D02*X227944Y127177D01*
X91929Y175984D02*Y174384D01*
Y175984D02*X93316Y176784D01*
X91929Y175984D02*X90542Y176784D01*
X98622Y175983D02*Y174383D01*
Y175983D02*X100009Y176783D01*
X98622Y175983D02*X97235Y176783D01*
X105315Y175984D02*Y174384D01*
Y175984D02*X106702Y176784D01*
X105315Y175984D02*X103928Y176784D01*
X68307Y223031D02*Y221431D01*
Y223031D02*X69694Y223831D01*
X68307Y223031D02*X66920Y223831D01*
X126772Y117913D02*Y116313D01*
Y117913D02*X128159Y118713D01*
X126772Y117913D02*X125385Y118713D01*
X126772Y113779D02*Y112179D01*
Y113779D02*X128159Y114579D01*
X126772Y113779D02*X125385Y114579D01*
X126772Y109645D02*Y108045D01*
Y109645D02*X128159Y110445D01*
X126772Y109645D02*X125385Y110445D01*
X91929Y157283D02*Y155683D01*
Y157283D02*X93316Y158083D01*
X91929Y157283D02*X90542Y158083D01*
X98819Y157283D02*Y155683D01*
Y157283D02*X100206Y158083D01*
X98819Y157283D02*X97432Y158083D01*
X271457Y151771D02*Y150171D01*
Y151771D02*X272844Y152571D01*
X271457Y151771D02*X270070Y152571D01*
X271457Y146063D02*Y144463D01*
Y146063D02*X272844Y146863D01*
X271457Y146063D02*X270070Y146863D01*
X271457Y139370D02*Y137770D01*
Y139370D02*X272844Y140170D01*
X271457Y139370D02*X270070Y140170D01*
X271457Y132677D02*Y131077D01*
Y132677D02*X272844Y133477D01*
X271457Y132677D02*X270070Y133477D01*
X142520Y122637D02*Y121037D01*
Y122637D02*X143907Y123437D01*
X142520Y122637D02*X141133Y123437D01*
X142717Y118307D02*Y116707D01*
Y118307D02*X144104Y119107D01*
X142717Y118307D02*X141330Y119107D01*
X146850Y117519D02*Y115919D01*
Y117519D02*X148237Y118319D01*
X146850Y117519D02*X145463Y118319D01*
X151181Y117519D02*Y115919D01*
Y117519D02*X152568Y118319D01*
X151181Y117519D02*X149794Y118319D01*
X223622Y148229D02*Y146629D01*
Y148229D02*X225009Y149029D01*
X223622Y148229D02*X222235Y149029D01*
X243701Y148818D02*Y147218D01*
Y148818D02*X245088Y149618D01*
X243701Y148818D02*X242314Y149618D01*
X230315Y148228D02*Y146628D01*
Y148228D02*X231702Y149028D01*
X230315Y148228D02*X228928Y149028D01*
X235433Y148818D02*Y147218D01*
Y148818D02*X236820Y149618D01*
X235433Y148818D02*X234046Y149618D01*
X275197Y163779D02*Y162179D01*
Y163779D02*X276584Y164579D01*
X275197Y163779D02*X273810Y164579D01*
X188189Y157480D02*Y155880D01*
Y157480D02*X189576Y158280D01*
X188189Y157480D02*X186802Y158280D01*
X219291Y127952D02*Y126352D01*
Y127952D02*X220678Y128752D01*
X219291Y127952D02*X217904Y128752D01*
X208071Y142913D02*Y141313D01*
Y142913D02*X209458Y143713D01*
X208071Y142913D02*X206684Y143713D01*
X168701Y181496D02*Y179896D01*
Y181496D02*X170088Y182296D01*
X168701Y181496D02*X167314Y182296D01*
X191535Y157480D02*Y155880D01*
Y157480D02*X192922Y158280D01*
X191535Y157480D02*X190148Y158280D01*
X221654Y168700D02*Y167100D01*
Y168700D02*X223041Y169500D01*
X221654Y168700D02*X220267Y169500D01*
X224803Y173228D02*Y171628D01*
Y173228D02*X226190Y174028D01*
X224803Y173228D02*X223416Y174028D01*
X231890Y187992D02*Y186392D01*
Y187992D02*X233277Y188792D01*
X231890Y187992D02*X230503Y188792D01*
X231890Y175590D02*Y173990D01*
Y175590D02*X233277Y176390D01*
X231890Y175590D02*X230503Y176390D01*
X231890Y179724D02*Y178124D01*
Y179724D02*X233277Y180524D01*
X231890Y179724D02*X230503Y180524D01*
X173819Y206496D02*Y204896D01*
Y206496D02*X175206Y207296D01*
X173819Y206496D02*X172432Y207296D01*
X176378Y57283D02*Y55683D01*
Y57283D02*X177765Y58083D01*
X176378Y57283D02*X174991Y58083D01*
X252953Y200393D02*Y198793D01*
Y200393D02*X254340Y201193D01*
X252953Y200393D02*X251566Y201193D01*
X252953Y204527D02*Y202927D01*
Y204527D02*X254340Y205327D01*
X252953Y204527D02*X251566Y205327D01*
X162795Y118110D02*Y116510D01*
Y118110D02*X164182Y118910D01*
X162795Y118110D02*X161408Y118910D01*
X158858Y115944D02*Y114344D01*
Y115944D02*X160245Y116744D01*
X158858Y115944D02*X157471Y116744D01*
X161024Y104527D02*Y102927D01*
Y104527D02*X162411Y105327D01*
X161024Y104527D02*X159637Y105327D01*
X158071Y101574D02*Y99974D01*
Y101574D02*X159458Y102374D01*
X158071Y101574D02*X156684Y102374D01*
X155118Y98622D02*Y97022D01*
Y98622D02*X156505Y99422D01*
X155118Y98622D02*X153731Y99422D01*
X152165Y95669D02*Y94069D01*
Y95669D02*X153552Y96469D01*
X152165Y95669D02*X150778Y96469D01*
X275576Y184868D02*Y183268D01*
Y184868D02*X276963Y185668D01*
X275576Y184868D02*X274189Y185668D01*
X85630Y16338D02*Y14738D01*
Y16338D02*X87017Y17138D01*
X85630Y16338D02*X84243Y17138D01*
X157480Y181496D02*Y179896D01*
Y181496D02*X158867Y182296D01*
X157480Y181496D02*X156093Y182296D01*
X141536Y163385D02*Y161785D01*
Y163385D02*X142923Y164185D01*
X141536Y163385D02*X140149Y164185D01*
X139567Y167322D02*Y165722D01*
Y167322D02*X140954Y168122D01*
X139567Y167322D02*X138180Y168122D01*
X155315Y185039D02*Y183439D01*
Y185039D02*X156702Y185839D01*
X155315Y185039D02*X153928Y185839D01*
X153346Y188779D02*Y187179D01*
Y188779D02*X154733Y189579D01*
X153346Y188779D02*X151959Y189579D01*
X143504Y180118D02*Y178518D01*
Y180118D02*X144891Y180918D01*
X143504Y180118D02*X142117Y180918D01*
X145472Y183661D02*Y182061D01*
Y183661D02*X146859Y184461D01*
X145472Y183661D02*X144085Y184461D01*
X147441Y187204D02*Y185604D01*
Y187204D02*X148828Y188004D01*
X147441Y187204D02*X146054Y188004D01*
X149409Y190944D02*Y189344D01*
Y190944D02*X150796Y191744D01*
X149409Y190944D02*X148022Y191744D01*
X128740Y82874D02*Y81274D01*
Y82874D02*X130127Y83674D01*
X128740Y82874D02*X127353Y83674D01*
X172244Y54330D02*Y52730D01*
Y54330D02*X173631Y55130D01*
X172244Y54330D02*X170857Y55130D01*
X182087Y160629D02*Y159029D01*
Y160629D02*X183474Y161429D01*
X182087Y160629D02*X180700Y161429D01*
X97835Y127165D02*Y125565D01*
Y127165D02*X99222Y127965D01*
X97835Y127165D02*X96448Y127965D01*
X146850Y159448D02*Y157848D01*
Y159448D02*X148237Y160248D01*
X146850Y159448D02*X145463Y160248D01*
X141339Y194881D02*Y193281D01*
Y194881D02*X142726Y195681D01*
X141339Y194881D02*X139952Y195681D01*
X168898Y206496D02*Y204896D01*
Y206496D02*X170285Y207296D01*
X168898Y206496D02*X167511Y207296D01*
X245276Y215748D02*Y214148D01*
Y215748D02*X246663Y216548D01*
X245276Y215748D02*X243889Y216548D01*
X275984Y230511D02*Y228911D01*
Y230511D02*X277371Y231311D01*
X275984Y230511D02*X274597Y231311D01*
X92717Y49409D02*Y47809D01*
Y49409D02*X94104Y50209D01*
X92717Y49409D02*X91330Y50209D01*
X114961Y41141D02*Y39541D01*
Y41141D02*X116348Y41941D01*
X114961Y41141D02*X113574Y41941D01*
X79973Y184412D02*Y182812D01*
Y184412D02*X81360Y185212D01*
X79973Y184412D02*X78586Y185212D01*
X79973Y215184D02*Y213584D01*
Y215184D02*X81360Y215984D01*
X79973Y215184D02*X78586Y215984D01*
X79973Y209892D02*Y208292D01*
Y209892D02*X81360Y210692D01*
X79973Y209892D02*X78586Y210692D01*
X124755Y199707D02*Y198107D01*
Y199707D02*X126142Y200507D01*
X124755Y199707D02*X123368Y200507D01*
X172835Y169684D02*Y168084D01*
Y169684D02*X174222Y170484D01*
X172835Y169684D02*X171448Y170484D01*
X169094Y26574D02*Y24974D01*
Y26574D02*X170481Y27374D01*
X169094Y26574D02*X167707Y27374D01*
X183268Y60433D02*Y58833D01*
Y60433D02*X184655Y61233D01*
X183268Y60433D02*X181881Y61233D01*
X186417Y26574D02*Y24974D01*
Y26574D02*X187804Y27374D01*
X186417Y26574D02*X185030Y27374D01*
X182087Y19488D02*Y17888D01*
Y19488D02*X183474Y20288D01*
X182087Y19488D02*X180700Y20288D01*
X156102Y19488D02*Y17888D01*
Y19488D02*X157489Y20288D01*
X156102Y19488D02*X154715Y20288D01*
X173425Y41141D02*Y39541D01*
Y41141D02*X174812Y41941D01*
X173425Y41141D02*X172038Y41941D01*
X210039Y41141D02*Y39541D01*
Y41141D02*X211426Y41941D01*
X210039Y41141D02*X208652Y41941D01*
X218307Y20472D02*Y18872D01*
Y20472D02*X219694Y21272D01*
X218307Y20472D02*X216920Y21272D01*
X229330Y16731D02*Y15131D01*
Y16731D02*X230717Y17531D01*
X229330Y16731D02*X227943Y17531D01*
X236614Y16731D02*Y15131D01*
Y16731D02*X238001Y17531D01*
X236614Y16731D02*X235227Y17531D01*
X243898Y16732D02*Y15132D01*
Y16732D02*X245285Y17532D01*
X243898Y16732D02*X242511Y17532D01*
X201968Y70668D02*Y69068D01*
Y70668D02*X203355Y71468D01*
X201968Y70668D02*X200581Y71468D01*
X400315Y173122D02*Y171522D01*
Y173122D02*X401702Y173922D01*
X400315Y173122D02*X398928Y173922D01*
X406783Y145290D02*Y143690D01*
Y145290D02*X408170Y146090D01*
X406783Y145290D02*X405396Y146090D01*
X218485Y144097D02*Y142497D01*
Y144097D02*X219872Y144897D01*
X218485Y144097D02*X217098Y144897D01*
X275197Y160433D02*Y158833D01*
Y160433D02*X276584Y161233D01*
X275197Y160433D02*X273810Y161233D01*
X279134Y155905D02*Y154305D01*
Y155905D02*X280521Y156705D01*
X279134Y155905D02*X277747Y156705D01*
X15000Y367470D02*Y365870D01*
Y367470D02*X16387Y368270D01*
X15000Y367470D02*X13613Y368270D01*
X135000Y369720D02*Y368970D01*
X136500Y367470D01*
X138000Y368970D01*
Y369720D02*Y368970D01*
X136500Y367470D02*Y363720D01*
X139800Y366720D02*X142050D01*
X139800Y363720D02*X142800D01*
X139800Y369720D02*Y363720D01*
Y369720D02*X142800D01*
X147600D02*X148350Y368970D01*
X145350Y369720D02*X147600D01*
X144600Y368970D02*X145350Y369720D01*
X144600Y368970D02*Y367470D01*
X145350Y366720D01*
X147600D01*
X148350Y365970D01*
Y364470D01*
X147600Y363720D02*X148350Y364470D01*
X145350Y363720D02*X147600D01*
X144600Y364470D02*X145350Y363720D01*
X98750D02*X100250D01*
X99500Y369720D02*Y363720D01*
X98000Y368220D02*X99500Y369720D01*
X102050Y368970D02*X102800Y369720D01*
X105050D01*
X105800Y368970D01*
Y367470D01*
X102050Y363720D02*X105800Y367470D01*
X102050Y363720D02*X105800D01*
X108350D02*X109850D01*
X109100Y369720D02*Y363720D01*
X107600Y368220D02*X109100Y369720D01*
X45000Y364470D02*X45750Y363720D01*
X45000Y368970D02*Y364470D01*
Y368970D02*X45750Y369720D01*
X47250D01*
X48000Y368970D01*
Y364470D01*
X47250Y363720D02*X48000Y364470D01*
X45750Y363720D02*X47250D01*
X45000Y365220D02*X48000Y368220D01*
X49800Y363720D02*X50550D01*
X52350Y364470D02*X53100Y363720D01*
X52350Y368970D02*Y364470D01*
Y368970D02*X53100Y369720D01*
X54600D01*
X55350Y368970D01*
Y364470D01*
X54600Y363720D02*X55350Y364470D01*
X53100Y363720D02*X54600D01*
X52350Y365220D02*X55350Y368220D01*
X57900Y363720D02*X59400D01*
X58650Y369720D02*Y363720D01*
X57150Y368220D02*X58650Y369720D01*
X63450D02*X64200Y368970D01*
X61950Y369720D02*X63450D01*
X61200Y368970D02*X61950Y369720D01*
X61200Y368970D02*Y364470D01*
X61950Y363720D01*
X63450Y366720D02*X64200Y365970D01*
X61200Y366720D02*X63450D01*
X61950Y363720D02*X63450D01*
X64200Y364470D01*
Y365970D02*Y364470D01*
X3000Y384720D02*X3750Y383970D01*
X750Y384720D02*X3000D01*
X0Y383970D02*X750Y384720D01*
X0Y383970D02*Y382470D01*
X750Y381720D01*
X3000D01*
X3750Y380970D01*
Y379470D01*
X3000Y378720D02*X3750Y379470D01*
X750Y378720D02*X3000D01*
X0Y379470D02*X750Y378720D01*
X5550Y381720D02*Y379470D01*
X6300Y378720D01*
X8550Y381720D02*Y377220D01*
X7800Y376470D02*X8550Y377220D01*
X6300Y376470D02*X7800D01*
X5550Y377220D02*X6300Y376470D01*
Y378720D02*X7800D01*
X8550Y379470D01*
X11100Y380970D02*Y378720D01*
Y380970D02*X11850Y381720D01*
X12600D01*
X13350Y380970D01*
Y378720D01*
Y380970D02*X14100Y381720D01*
X14850D01*
X15600Y380970D01*
Y378720D01*
X10350Y381720D02*X11100Y380970D01*
X17400Y384720D02*Y378720D01*
Y379470D02*X18150Y378720D01*
X19650D01*
X20400Y379470D01*
Y380970D02*Y379470D01*
X19650Y381720D02*X20400Y380970D01*
X18150Y381720D02*X19650D01*
X17400Y380970D02*X18150Y381720D01*
X22200Y380970D02*Y379470D01*
Y380970D02*X22950Y381720D01*
X24450D01*
X25200Y380970D01*
Y379470D01*
X24450Y378720D02*X25200Y379470D01*
X22950Y378720D02*X24450D01*
X22200Y379470D02*X22950Y378720D01*
X27000Y384720D02*Y379470D01*
X27750Y378720D01*
X0Y375470D02*X29250D01*
X41750Y384720D02*Y378720D01*
X44000Y384720D02*X44750Y383970D01*
Y379470D01*
X44000Y378720D02*X44750Y379470D01*
X41000Y378720D02*X44000D01*
X41000Y384720D02*X44000D01*
X46550Y383220D02*Y382470D01*
Y380970D02*Y378720D01*
X50300Y381720D02*X51050Y380970D01*
X48800Y381720D02*X50300D01*
X48050Y380970D02*X48800Y381720D01*
X48050Y380970D02*Y379470D01*
X48800Y378720D01*
X51050Y381720D02*Y379470D01*
X51800Y378720D01*
X48800D02*X50300D01*
X51050Y379470D01*
X54350Y380970D02*Y378720D01*
Y380970D02*X55100Y381720D01*
X55850D01*
X56600Y380970D01*
Y378720D01*
Y380970D02*X57350Y381720D01*
X58100D01*
X58850Y380970D01*
Y378720D01*
X53600Y381720D02*X54350Y380970D01*
X60650Y378720D02*X61400D01*
X65900Y379470D02*X66650Y378720D01*
X65900Y383970D02*X66650Y384720D01*
X65900Y383970D02*Y379470D01*
X68450Y384720D02*X69950D01*
X69200D02*Y378720D01*
X68450D02*X69950D01*
X72500Y380970D02*Y378720D01*
Y380970D02*X73250Y381720D01*
X74000D01*
X74750Y380970D01*
Y378720D01*
X71750Y381720D02*X72500Y380970D01*
X77300Y381720D02*X79550D01*
X76550Y380970D02*X77300Y381720D01*
X76550Y380970D02*Y379470D01*
X77300Y378720D01*
X79550D01*
X81350Y384720D02*Y378720D01*
Y380970D02*X82100Y381720D01*
X83600D01*
X84350Y380970D01*
Y378720D01*
X86150Y384720D02*X86900Y383970D01*
Y379470D01*
X86150Y378720D02*X86900Y379470D01*
X41000Y375470D02*X88700D01*
X95750Y378720D02*X98000D01*
X95000Y379470D02*X95750Y378720D01*
X95000Y383970D02*Y379470D01*
Y383970D02*X95750Y384720D01*
X98000D01*
X99800Y380970D02*Y379470D01*
Y380970D02*X100550Y381720D01*
X102050D01*
X102800Y380970D01*
Y379470D01*
X102050Y378720D02*X102800Y379470D01*
X100550Y378720D02*X102050D01*
X99800Y379470D02*X100550Y378720D01*
X104600Y381720D02*Y379470D01*
X105350Y378720D01*
X106850D01*
X107600Y379470D01*
Y381720D02*Y379470D01*
X110150Y380970D02*Y378720D01*
Y380970D02*X110900Y381720D01*
X111650D01*
X112400Y380970D01*
Y378720D01*
X109400Y381720D02*X110150Y380970D01*
X114950Y384720D02*Y379470D01*
X115700Y378720D01*
X114200Y382470D02*X115700D01*
X95000Y375470D02*X117200D01*
X130750Y384720D02*Y378720D01*
X130000Y384720D02*X133000D01*
X133750Y383970D01*
Y382470D01*
X133000Y381720D02*X133750Y382470D01*
X130750Y381720D02*X133000D01*
X135550Y384720D02*Y379470D01*
X136300Y378720D01*
X140050Y381720D02*X140800Y380970D01*
X138550Y381720D02*X140050D01*
X137800Y380970D02*X138550Y381720D01*
X137800Y380970D02*Y379470D01*
X138550Y378720D01*
X140800Y381720D02*Y379470D01*
X141550Y378720D01*
X138550D02*X140050D01*
X140800Y379470D01*
X144100Y384720D02*Y379470D01*
X144850Y378720D01*
X143350Y382470D02*X144850D01*
X147100Y378720D02*X149350D01*
X146350Y379470D02*X147100Y378720D01*
X146350Y380970D02*Y379470D01*
Y380970D02*X147100Y381720D01*
X148600D01*
X149350Y380970D01*
X146350Y380220D02*X149350D01*
Y380970D02*Y380220D01*
X154150Y384720D02*Y378720D01*
X153400D02*X154150Y379470D01*
X151900Y378720D02*X153400D01*
X151150Y379470D02*X151900Y378720D01*
X151150Y380970D02*Y379470D01*
Y380970D02*X151900Y381720D01*
X153400D01*
X154150Y380970D01*
X157450Y381720D02*Y380970D01*
Y379470D02*Y378720D01*
X155950Y383970D02*Y383220D01*
Y383970D02*X156700Y384720D01*
X158200D01*
X158950Y383970D01*
Y383220D01*
X157450Y381720D02*X158950Y383220D01*
X130000Y375470D02*X160750D01*
X0Y399720D02*X3000D01*
X1500D02*Y393720D01*
X4800Y399720D02*Y393720D01*
Y395970D02*X5550Y396720D01*
X7050D01*
X7800Y395970D01*
Y393720D01*
X10350D02*X12600D01*
X9600Y394470D02*X10350Y393720D01*
X9600Y395970D02*Y394470D01*
Y395970D02*X10350Y396720D01*
X11850D01*
X12600Y395970D01*
X9600Y395220D02*X12600D01*
Y395970D02*Y395220D01*
X15150Y395970D02*Y393720D01*
Y395970D02*X15900Y396720D01*
X17400D01*
X14400D02*X15150Y395970D01*
X19950Y393720D02*X22200D01*
X19200Y394470D02*X19950Y393720D01*
X19200Y395970D02*Y394470D01*
Y395970D02*X19950Y396720D01*
X21450D01*
X22200Y395970D01*
X19200Y395220D02*X22200D01*
Y395970D02*Y395220D01*
X28950Y396720D02*X29700Y395970D01*
X27450Y396720D02*X28950D01*
X26700Y395970D02*X27450Y396720D01*
X26700Y395970D02*Y394470D01*
X27450Y393720D01*
X29700Y396720D02*Y394470D01*
X30450Y393720D01*
X27450D02*X28950D01*
X29700Y394470D01*
X33000Y395970D02*Y393720D01*
Y395970D02*X33750Y396720D01*
X35250D01*
X32250D02*X33000Y395970D01*
X37800Y393720D02*X40050D01*
X37050Y394470D02*X37800Y393720D01*
X37050Y395970D02*Y394470D01*
Y395970D02*X37800Y396720D01*
X39300D01*
X40050Y395970D01*
X37050Y395220D02*X40050D01*
Y395970D02*Y395220D01*
X44550Y393720D02*X47550Y396720D01*
Y398970D02*Y396720D01*
X46800Y399720D02*X47550Y398970D01*
X45300Y399720D02*X46800D01*
X44550Y398970D02*X45300Y399720D01*
X44550Y398970D02*Y397470D01*
X45300Y396720D01*
X47550D01*
X55050Y399720D02*Y393720D01*
X54300D02*X55050Y394470D01*
X52800Y393720D02*X54300D01*
X52050Y394470D02*X52800Y393720D01*
X52050Y395970D02*Y394470D01*
Y395970D02*X52800Y396720D01*
X54300D01*
X55050Y395970D01*
X56850Y398220D02*Y397470D01*
Y395970D02*Y393720D01*
X59100Y398970D02*Y393720D01*
Y398970D02*X59850Y399720D01*
X60600D01*
X58350Y396720D02*X59850D01*
X62850Y398970D02*Y393720D01*
Y398970D02*X63600Y399720D01*
X64350D01*
X62100Y396720D02*X63600D01*
X66600Y393720D02*X68850D01*
X65850Y394470D02*X66600Y393720D01*
X65850Y395970D02*Y394470D01*
Y395970D02*X66600Y396720D01*
X68100D01*
X68850Y395970D01*
X65850Y395220D02*X68850D01*
Y395970D02*Y395220D01*
X71400Y395970D02*Y393720D01*
Y395970D02*X72150Y396720D01*
X73650D01*
X70650D02*X71400Y395970D01*
X76200Y393720D02*X78450D01*
X75450Y394470D02*X76200Y393720D01*
X75450Y395970D02*Y394470D01*
Y395970D02*X76200Y396720D01*
X77700D01*
X78450Y395970D01*
X75450Y395220D02*X78450D01*
Y395970D02*Y395220D01*
X81000Y395970D02*Y393720D01*
Y395970D02*X81750Y396720D01*
X82500D01*
X83250Y395970D01*
Y393720D01*
X80250Y396720D02*X81000Y395970D01*
X85800Y399720D02*Y394470D01*
X86550Y393720D01*
X85050Y397470D02*X86550D01*
X93750Y399720D02*Y393720D01*
X93000D02*X93750Y394470D01*
X91500Y393720D02*X93000D01*
X90750Y394470D02*X91500Y393720D01*
X90750Y395970D02*Y394470D01*
Y395970D02*X91500Y396720D01*
X93000D01*
X93750Y395970D01*
X96300D02*Y393720D01*
Y395970D02*X97050Y396720D01*
X98550D01*
X95550D02*X96300Y395970D01*
X100350Y398220D02*Y397470D01*
Y395970D02*Y393720D01*
X101850Y399720D02*Y394470D01*
X102600Y393720D01*
X104100Y399720D02*Y394470D01*
X104850Y393720D01*
X109800D02*X112050D01*
X112800Y394470D01*
X112050Y395220D02*X112800Y394470D01*
X109800Y395220D02*X112050D01*
X109050Y395970D02*X109800Y395220D01*
X109050Y395970D02*X109800Y396720D01*
X112050D01*
X112800Y395970D01*
X109050Y394470D02*X109800Y393720D01*
X114600Y398220D02*Y397470D01*
Y395970D02*Y393720D01*
X116100Y396720D02*X119100D01*
X116100Y393720D02*X119100Y396720D01*
X116100Y393720D02*X119100D01*
X121650D02*X123900D01*
X120900Y394470D02*X121650Y393720D01*
X120900Y395970D02*Y394470D01*
Y395970D02*X121650Y396720D01*
X123150D01*
X123900Y395970D01*
X120900Y395220D02*X123900D01*
Y395970D02*Y395220D01*
X126450Y393720D02*X128700D01*
X129450Y394470D01*
X128700Y395220D02*X129450Y394470D01*
X126450Y395220D02*X128700D01*
X125700Y395970D02*X126450Y395220D01*
X125700Y395970D02*X126450Y396720D01*
X128700D01*
X129450Y395970D01*
X125700Y394470D02*X126450Y393720D01*
X133950Y396720D02*Y394470D01*
X134700Y393720D01*
X136200D01*
X136950Y394470D01*
Y396720D02*Y394470D01*
X139500Y393720D02*X141750D01*
X142500Y394470D01*
X141750Y395220D02*X142500Y394470D01*
X139500Y395220D02*X141750D01*
X138750Y395970D02*X139500Y395220D01*
X138750Y395970D02*X139500Y396720D01*
X141750D01*
X142500Y395970D01*
X138750Y394470D02*X139500Y393720D01*
X145050D02*X147300D01*
X144300Y394470D02*X145050Y393720D01*
X144300Y395970D02*Y394470D01*
Y395970D02*X145050Y396720D01*
X146550D01*
X147300Y395970D01*
X144300Y395220D02*X147300D01*
Y395970D02*Y395220D01*
X152100Y399720D02*Y393720D01*
X151350D02*X152100Y394470D01*
X149850Y393720D02*X151350D01*
X149100Y394470D02*X149850Y393720D01*
X149100Y395970D02*Y394470D01*
Y395970D02*X149850Y396720D01*
X151350D01*
X152100Y395970D01*
X156600Y398220D02*Y397470D01*
Y395970D02*Y393720D01*
X158850Y395970D02*Y393720D01*
Y395970D02*X159600Y396720D01*
X160350D01*
X161100Y395970D01*
Y393720D01*
X158100Y396720D02*X158850Y395970D01*
X166350Y399720D02*Y394470D01*
X167100Y393720D01*
X165600Y397470D02*X167100D01*
X168600Y399720D02*Y393720D01*
Y395970D02*X169350Y396720D01*
X170850D01*
X171600Y395970D01*
Y393720D01*
X173400Y398220D02*Y397470D01*
Y395970D02*Y393720D01*
X175650D02*X177900D01*
X178650Y394470D01*
X177900Y395220D02*X178650Y394470D01*
X175650Y395220D02*X177900D01*
X174900Y395970D02*X175650Y395220D01*
X174900Y395970D02*X175650Y396720D01*
X177900D01*
X178650Y395970D01*
X174900Y394470D02*X175650Y393720D01*
X183150Y399720D02*Y394470D01*
X183900Y393720D01*
X187650Y396720D02*X188400Y395970D01*
X186150Y396720D02*X187650D01*
X185400Y395970D02*X186150Y396720D01*
X185400Y395970D02*Y394470D01*
X186150Y393720D01*
X188400Y396720D02*Y394470D01*
X189150Y393720D01*
X186150D02*X187650D01*
X188400Y394470D01*
X190950Y396720D02*Y394470D01*
X191700Y393720D01*
X193950Y396720D02*Y392220D01*
X193200Y391470D02*X193950Y392220D01*
X191700Y391470D02*X193200D01*
X190950Y392220D02*X191700Y391470D01*
Y393720D02*X193200D01*
X193950Y394470D01*
X195750Y395970D02*Y394470D01*
Y395970D02*X196500Y396720D01*
X198000D01*
X198750Y395970D01*
Y394470D01*
X198000Y393720D02*X198750Y394470D01*
X196500Y393720D02*X198000D01*
X195750Y394470D02*X196500Y393720D01*
X200550Y396720D02*Y394470D01*
X201300Y393720D01*
X202800D01*
X203550Y394470D01*
Y396720D02*Y394470D01*
X206100Y399720D02*Y394470D01*
X206850Y393720D01*
X205350Y397470D02*X206850D01*
X208350Y392220D02*X209850Y393720D01*
X214350Y398970D02*X215100Y399720D01*
X217350D01*
X218100Y398970D01*
Y397470D01*
X214350Y393720D02*X218100Y397470D01*
X214350Y393720D02*X218100D01*
X219900D02*X223650Y397470D01*
Y399720D02*Y397470D01*
X219900Y399720D02*X223650D01*
X227700D02*X228450Y398970D01*
X226200Y399720D02*X227700D01*
X225450Y398970D02*X226200Y399720D01*
X225450Y398970D02*Y394470D01*
X226200Y393720D01*
X227700Y396720D02*X228450Y395970D01*
X225450Y396720D02*X227700D01*
X226200Y393720D02*X227700D01*
X228450Y394470D01*
Y395970D02*Y394470D01*
X232950Y399720D02*Y393720D01*
Y395970D02*X233700Y396720D01*
X235200D01*
X235950Y395970D01*
Y393720D01*
X237750Y395970D02*Y394470D01*
Y395970D02*X238500Y396720D01*
X240000D01*
X240750Y395970D01*
Y394470D01*
X240000Y393720D02*X240750Y394470D01*
X238500Y393720D02*X240000D01*
X237750Y394470D02*X238500Y393720D01*
X242550Y399720D02*Y394470D01*
X243300Y393720D01*
X245550D02*X247800D01*
X244800Y394470D02*X245550Y393720D01*
X244800Y395970D02*Y394470D01*
Y395970D02*X245550Y396720D01*
X247050D01*
X247800Y395970D01*
X244800Y395220D02*X247800D01*
Y395970D02*Y395220D01*
X250350Y393720D02*X252600D01*
X253350Y394470D01*
X252600Y395220D02*X253350Y394470D01*
X250350Y395220D02*X252600D01*
X249600Y395970D02*X250350Y395220D01*
X249600Y395970D02*X250350Y396720D01*
X252600D01*
X253350Y395970D01*
X249600Y394470D02*X250350Y393720D01*
X258600Y399720D02*Y394470D01*
X259350Y393720D01*
X257850Y397470D02*X259350D01*
X260850Y395970D02*Y394470D01*
Y395970D02*X261600Y396720D01*
X263100D01*
X263850Y395970D01*
Y394470D01*
X263100Y393720D02*X263850Y394470D01*
X261600Y393720D02*X263100D01*
X260850Y394470D02*X261600Y393720D01*
X266400Y399720D02*Y394470D01*
X267150Y393720D01*
X265650Y397470D02*X267150D01*
X270900Y396720D02*X271650Y395970D01*
X269400Y396720D02*X270900D01*
X268650Y395970D02*X269400Y396720D01*
X268650Y395970D02*Y394470D01*
X269400Y393720D01*
X271650Y396720D02*Y394470D01*
X272400Y393720D01*
X269400D02*X270900D01*
X271650Y394470D01*
X274200Y399720D02*Y394470D01*
X274950Y393720D01*
G54D97*X0Y236220D02*X442913D01*
X0D02*Y0D01*
X442913Y236220D02*Y0D01*
X0D02*X442913D01*
G54D96*X200000Y249720D02*Y243720D01*
Y249720D02*X202250Y247470D01*
X204500Y249720D01*
Y243720D01*
X208550Y246720D02*X209300Y245970D01*
X207050Y246720D02*X208550D01*
X206300Y245970D02*X207050Y246720D01*
X206300Y245970D02*Y244470D01*
X207050Y243720D01*
X209300Y246720D02*Y244470D01*
X210050Y243720D01*
X207050D02*X208550D01*
X209300Y244470D01*
X211850Y246720D02*X214850Y243720D01*
X211850D02*X214850Y246720D01*
X216650Y248220D02*Y247470D01*
Y245970D02*Y243720D01*
X218900Y245970D02*Y243720D01*
Y245970D02*X219650Y246720D01*
X220400D01*
X221150Y245970D01*
Y243720D01*
Y245970D02*X221900Y246720D01*
X222650D01*
X223400Y245970D01*
Y243720D01*
X218150Y246720D02*X218900Y245970D01*
X225200Y246720D02*Y244470D01*
X225950Y243720D01*
X227450D01*
X228200Y244470D01*
Y246720D02*Y244470D01*
X230750Y245970D02*Y243720D01*
Y245970D02*X231500Y246720D01*
X232250D01*
X233000Y245970D01*
Y243720D01*
Y245970D02*X233750Y246720D01*
X234500D01*
X235250Y245970D01*
Y243720D01*
X230000Y246720D02*X230750Y245970D01*
X240500Y249720D02*Y243720D01*
X242750Y249720D02*X243500Y248970D01*
Y244470D01*
X242750Y243720D02*X243500Y244470D01*
X239750Y243720D02*X242750D01*
X239750Y249720D02*X242750D01*
X245300Y248220D02*Y247470D01*
Y245970D02*Y243720D01*
X247550Y245970D02*Y243720D01*
Y245970D02*X248300Y246720D01*
X249050D01*
X249800Y245970D01*
Y243720D01*
Y245970D02*X250550Y246720D01*
X251300D01*
X252050Y245970D01*
Y243720D01*
X246800Y246720D02*X247550Y245970D01*
X254600Y243720D02*X256850D01*
X253850Y244470D02*X254600Y243720D01*
X253850Y245970D02*Y244470D01*
Y245970D02*X254600Y246720D01*
X256100D01*
X256850Y245970D01*
X253850Y245220D02*X256850D01*
Y245970D02*Y245220D01*
X259400Y245970D02*Y243720D01*
Y245970D02*X260150Y246720D01*
X260900D01*
X261650Y245970D01*
Y243720D01*
X258650Y246720D02*X259400Y245970D01*
X264200Y243720D02*X266450D01*
X267200Y244470D01*
X266450Y245220D02*X267200Y244470D01*
X264200Y245220D02*X266450D01*
X263450Y245970D02*X264200Y245220D01*
X263450Y245970D02*X264200Y246720D01*
X266450D01*
X267200Y245970D01*
X263450Y244470D02*X264200Y243720D01*
X269000Y248220D02*Y247470D01*
Y245970D02*Y243720D01*
X270500Y245970D02*Y244470D01*
Y245970D02*X271250Y246720D01*
X272750D01*
X273500Y245970D01*
Y244470D01*
X272750Y243720D02*X273500Y244470D01*
X271250Y243720D02*X272750D01*
X270500Y244470D02*X271250Y243720D01*
X276050Y245970D02*Y243720D01*
Y245970D02*X276800Y246720D01*
X277550D01*
X278300Y245970D01*
Y243720D01*
X275300Y246720D02*X276050Y245970D01*
X280850Y243720D02*X283100D01*
X283850Y244470D01*
X283100Y245220D02*X283850Y244470D01*
X280850Y245220D02*X283100D01*
X280100Y245970D02*X280850Y245220D01*
X280100Y245970D02*X280850Y246720D01*
X283100D01*
X283850Y245970D01*
X280100Y244470D02*X280850Y243720D01*
X285650Y247470D02*X286400D01*
X285650Y245970D02*X286400D01*
X290900Y246720D02*X293900Y249720D01*
X290900Y246720D02*X294650D01*
X293900Y249720D02*Y243720D01*
X296450Y246720D02*X299450Y249720D01*
X296450Y246720D02*X300200D01*
X299450Y249720D02*Y243720D01*
X302000Y248970D02*X302750Y249720D01*
X305000D01*
X305750Y248970D01*
Y247470D01*
X302000Y243720D02*X305750Y247470D01*
X302000Y243720D02*X305750D01*
X307550D02*X310550Y246720D01*
Y248970D02*Y246720D01*
X309800Y249720D02*X310550Y248970D01*
X308300Y249720D02*X309800D01*
X307550Y248970D02*X308300Y249720D01*
X307550Y248970D02*Y247470D01*
X308300Y246720D01*
X310550D01*
X312350Y243720D02*X313100D01*
X315650D02*X317150D01*
X316400Y249720D02*Y243720D01*
X314900Y248220D02*X316400Y249720D01*
X318950Y248970D02*X319700Y249720D01*
X321200D01*
X321950Y248970D01*
Y244470D01*
X321200Y243720D02*X321950Y244470D01*
X319700Y243720D02*X321200D01*
X318950Y244470D02*X319700Y243720D01*
Y246720D02*X321950D01*
X323750Y244470D02*X324500Y243720D01*
X323750Y248970D02*Y244470D01*
Y248970D02*X324500Y249720D01*
X326000D01*
X326750Y248970D01*
Y244470D01*
X326000Y243720D02*X326750Y244470D01*
X324500Y243720D02*X326000D01*
X323750Y245220D02*X326750Y248220D01*
X328550Y244470D02*X329300Y243720D01*
X328550Y248970D02*Y244470D01*
Y248970D02*X329300Y249720D01*
X330800D01*
X331550Y248970D01*
Y244470D01*
X330800Y243720D02*X331550Y244470D01*
X329300Y243720D02*X330800D01*
X328550Y245220D02*X331550Y248220D01*
X333350Y244470D02*X334100Y243720D01*
X333350Y248970D02*Y244470D01*
Y248970D02*X334100Y249720D01*
X335600D01*
X336350Y248970D01*
Y244470D01*
X335600Y243720D02*X336350Y244470D01*
X334100Y243720D02*X335600D01*
X333350Y245220D02*X336350Y248220D01*
X338150Y244470D02*X338900Y243720D01*
X338150Y248970D02*Y244470D01*
Y248970D02*X338900Y249720D01*
X340400D01*
X341150Y248970D01*
Y244470D01*
X340400Y243720D02*X341150Y244470D01*
X338900Y243720D02*X340400D01*
X338150Y245220D02*X341150Y248220D01*
X346400Y245970D02*Y243720D01*
Y245970D02*X347150Y246720D01*
X347900D01*
X348650Y245970D01*
Y243720D01*
Y245970D02*X349400Y246720D01*
X350150D01*
X350900Y245970D01*
Y243720D01*
X345650Y246720D02*X346400Y245970D01*
X352700Y248220D02*Y247470D01*
Y245970D02*Y243720D01*
X354200Y249720D02*Y244470D01*
X354950Y243720D01*
X357200D02*X359450D01*
X360200Y244470D01*
X359450Y245220D02*X360200Y244470D01*
X357200Y245220D02*X359450D01*
X356450Y245970D02*X357200Y245220D01*
X356450Y245970D02*X357200Y246720D01*
X359450D01*
X360200Y245970D01*
X356450Y244470D02*X357200Y243720D01*
X364700Y246720D02*Y244470D01*
X365450Y243720D01*
X366200D01*
X366950Y244470D01*
Y246720D02*Y244470D01*
X367700Y243720D01*
X368450D01*
X369200Y244470D01*
Y246720D02*Y244470D01*
X371000Y248220D02*Y247470D01*
Y245970D02*Y243720D01*
X375500Y249720D02*Y243720D01*
X374750D02*X375500Y244470D01*
X373250Y243720D02*X374750D01*
X372500Y244470D02*X373250Y243720D01*
X372500Y245970D02*Y244470D01*
Y245970D02*X373250Y246720D01*
X374750D01*
X375500Y245970D01*
X378050Y243720D02*X380300D01*
X377300Y244470D02*X378050Y243720D01*
X377300Y245970D02*Y244470D01*
Y245970D02*X378050Y246720D01*
X379550D01*
X380300Y245970D01*
X377300Y245220D02*X380300D01*
Y245970D02*Y245220D01*
X382100Y242220D02*X383600Y243720D01*
X388100Y248970D02*X388850Y249720D01*
X391100D01*
X391850Y248970D01*
Y247470D01*
X388100Y243720D02*X391850Y247470D01*
X388100Y243720D02*X391850D01*
X393650Y248970D02*X394400Y249720D01*
X395900D01*
X396650Y248970D01*
Y244470D01*
X395900Y243720D02*X396650Y244470D01*
X394400Y243720D02*X395900D01*
X393650Y244470D02*X394400Y243720D01*
Y246720D02*X396650D01*
X400700Y249720D02*X401450Y248970D01*
X399200Y249720D02*X400700D01*
X398450Y248970D02*X399200Y249720D01*
X398450Y248970D02*Y244470D01*
X399200Y243720D01*
X400700Y246720D02*X401450Y245970D01*
X398450Y246720D02*X400700D01*
X399200Y243720D02*X400700D01*
X401450Y244470D01*
Y245970D02*Y244470D01*
X403250Y248970D02*X404000Y249720D01*
X406250D01*
X407000Y248970D01*
Y247470D01*
X403250Y243720D02*X407000Y247470D01*
X403250Y243720D02*X407000D01*
X408800D02*X409550D01*
X411350Y248970D02*X412100Y249720D01*
X414350D01*
X415100Y248970D01*
Y247470D01*
X411350Y243720D02*X415100Y247470D01*
X411350Y243720D02*X415100D01*
X416900Y244470D02*X417650Y243720D01*
X416900Y248970D02*Y244470D01*
Y248970D02*X417650Y249720D01*
X419150D01*
X419900Y248970D01*
Y244470D01*
X419150Y243720D02*X419900Y244470D01*
X417650Y243720D02*X419150D01*
X416900Y245220D02*X419900Y248220D01*
X421700Y244470D02*X422450Y243720D01*
X421700Y248970D02*Y244470D01*
Y248970D02*X422450Y249720D01*
X423950D01*
X424700Y248970D01*
Y244470D01*
X423950Y243720D02*X424700Y244470D01*
X422450Y243720D02*X423950D01*
X421700Y245220D02*X424700Y248220D01*
X426500Y244470D02*X427250Y243720D01*
X426500Y248970D02*Y244470D01*
Y248970D02*X427250Y249720D01*
X428750D01*
X429500Y248970D01*
Y244470D01*
X428750Y243720D02*X429500Y244470D01*
X427250Y243720D02*X428750D01*
X426500Y245220D02*X429500Y248220D01*
X431300Y244470D02*X432050Y243720D01*
X431300Y248970D02*Y244470D01*
Y248970D02*X432050Y249720D01*
X433550D01*
X434300Y248970D01*
Y244470D01*
X433550Y243720D02*X434300Y244470D01*
X432050Y243720D02*X433550D01*
X431300Y245220D02*X434300Y248220D01*
X436100Y244470D02*X436850Y243720D01*
X436100Y248970D02*Y244470D01*
Y248970D02*X436850Y249720D01*
X438350D01*
X439100Y248970D01*
Y244470D01*
X438350Y243720D02*X439100Y244470D01*
X436850Y243720D02*X438350D01*
X436100Y245220D02*X439100Y248220D01*
X444350Y245970D02*Y243720D01*
Y245970D02*X445100Y246720D01*
X445850D01*
X446600Y245970D01*
Y243720D01*
Y245970D02*X447350Y246720D01*
X448100D01*
X448850Y245970D01*
Y243720D01*
X443600Y246720D02*X444350Y245970D01*
X450650Y248220D02*Y247470D01*
Y245970D02*Y243720D01*
X452150Y249720D02*Y244470D01*
X452900Y243720D01*
X455150D02*X457400D01*
X458150Y244470D01*
X457400Y245220D02*X458150Y244470D01*
X455150Y245220D02*X457400D01*
X454400Y245970D02*X455150Y245220D01*
X454400Y245970D02*X455150Y246720D01*
X457400D01*
X458150Y245970D01*
X454400Y244470D02*X455150Y243720D01*
X462650Y249720D02*Y243720D01*
Y245970D02*X463400Y246720D01*
X464900D01*
X465650Y245970D01*
Y243720D01*
X467450Y248220D02*Y247470D01*
Y245970D02*Y243720D01*
X471200Y246720D02*X471950Y245970D01*
X469700Y246720D02*X471200D01*
X468950Y245970D02*X469700Y246720D01*
X468950Y245970D02*Y244470D01*
X469700Y243720D01*
X471200D01*
X471950Y244470D01*
X468950Y242220D02*X469700Y241470D01*
X471200D01*
X471950Y242220D01*
Y246720D02*Y242220D01*
X473750Y249720D02*Y243720D01*
Y245970D02*X474500Y246720D01*
X476000D01*
X476750Y245970D01*
Y243720D01*
X16856Y-9500D02*X19856D01*
X20606Y-8750D01*
Y-7250D02*Y-8750D01*
X19856Y-6500D02*X20606Y-7250D01*
X17606Y-6500D02*X19856D01*
X17606Y-3500D02*Y-9500D01*
X16856Y-3500D02*X19856D01*
X20606Y-4250D01*
Y-5750D01*
X19856Y-6500D02*X20606Y-5750D01*
X22406Y-7250D02*Y-8750D01*
Y-7250D02*X23156Y-6500D01*
X24656D01*
X25406Y-7250D01*
Y-8750D01*
X24656Y-9500D02*X25406Y-8750D01*
X23156Y-9500D02*X24656D01*
X22406Y-8750D02*X23156Y-9500D01*
X29456Y-6500D02*X30206Y-7250D01*
X27956Y-6500D02*X29456D01*
X27206Y-7250D02*X27956Y-6500D01*
X27206Y-7250D02*Y-8750D01*
X27956Y-9500D01*
X30206Y-6500D02*Y-8750D01*
X30956Y-9500D01*
X27956D02*X29456D01*
X30206Y-8750D01*
X33506Y-7250D02*Y-9500D01*
Y-7250D02*X34256Y-6500D01*
X35756D01*
X32756D02*X33506Y-7250D01*
X40556Y-3500D02*Y-9500D01*
X39806D02*X40556Y-8750D01*
X38306Y-9500D02*X39806D01*
X37556Y-8750D02*X38306Y-9500D01*
X37556Y-7250D02*Y-8750D01*
Y-7250D02*X38306Y-6500D01*
X39806D01*
X40556Y-7250D01*
X45056D02*Y-8750D01*
Y-7250D02*X45806Y-6500D01*
X47306D01*
X48056Y-7250D01*
Y-8750D01*
X47306Y-9500D02*X48056Y-8750D01*
X45806Y-9500D02*X47306D01*
X45056Y-8750D02*X45806Y-9500D01*
X49856Y-6500D02*Y-8750D01*
X50606Y-9500D01*
X52106D01*
X52856Y-8750D01*
Y-6500D02*Y-8750D01*
X55406Y-3500D02*Y-8750D01*
X56156Y-9500D01*
X54656Y-5750D02*X56156D01*
X57656Y-3500D02*Y-8750D01*
X58406Y-9500D01*
X59906Y-5000D02*Y-5750D01*
Y-7250D02*Y-9500D01*
X62156Y-7250D02*Y-9500D01*
Y-7250D02*X62906Y-6500D01*
X63656D01*
X64406Y-7250D01*
Y-9500D01*
X61406Y-6500D02*X62156Y-7250D01*
X66956Y-9500D02*X69206D01*
X66206Y-8750D02*X66956Y-9500D01*
X66206Y-7250D02*Y-8750D01*
Y-7250D02*X66956Y-6500D01*
X68456D01*
X69206Y-7250D01*
X66206Y-8000D02*X69206D01*
Y-7250D02*Y-8000D01*
X73706Y-5000D02*Y-5750D01*
Y-7250D02*Y-9500D01*
X75956D02*X78206D01*
X78956Y-8750D01*
X78206Y-8000D02*X78956Y-8750D01*
X75956Y-8000D02*X78206D01*
X75206Y-7250D02*X75956Y-8000D01*
X75206Y-7250D02*X75956Y-6500D01*
X78206D01*
X78956Y-7250D01*
X75206Y-8750D02*X75956Y-9500D01*
X84206Y-3500D02*Y-8750D01*
X84956Y-9500D01*
X83456Y-5750D02*X84956D01*
X86456Y-3500D02*Y-9500D01*
Y-7250D02*X87206Y-6500D01*
X88706D01*
X89456Y-7250D01*
Y-9500D01*
X92006D02*X94256D01*
X91256Y-8750D02*X92006Y-9500D01*
X91256Y-7250D02*Y-8750D01*
Y-7250D02*X92006Y-6500D01*
X93506D01*
X94256Y-7250D01*
X91256Y-8000D02*X94256D01*
Y-7250D02*Y-8000D01*
X99506Y-6500D02*X101756D01*
X98756Y-7250D02*X99506Y-6500D01*
X98756Y-7250D02*Y-8750D01*
X99506Y-9500D01*
X101756D01*
X104306D02*X106556D01*
X103556Y-8750D02*X104306Y-9500D01*
X103556Y-7250D02*Y-8750D01*
Y-7250D02*X104306Y-6500D01*
X105806D01*
X106556Y-7250D01*
X103556Y-8000D02*X106556D01*
Y-7250D02*Y-8000D01*
X109106Y-7250D02*Y-9500D01*
Y-7250D02*X109856Y-6500D01*
X110606D01*
X111356Y-7250D01*
Y-9500D01*
X108356Y-6500D02*X109106Y-7250D01*
X113906Y-3500D02*Y-8750D01*
X114656Y-9500D01*
X113156Y-5750D02*X114656D01*
X116906Y-9500D02*X119156D01*
X116156Y-8750D02*X116906Y-9500D01*
X116156Y-7250D02*Y-8750D01*
Y-7250D02*X116906Y-6500D01*
X118406D01*
X119156Y-7250D01*
X116156Y-8000D02*X119156D01*
Y-7250D02*Y-8000D01*
X121706Y-7250D02*Y-9500D01*
Y-7250D02*X122456Y-6500D01*
X123956D01*
X120956D02*X121706Y-7250D01*
X125756Y-3500D02*Y-8750D01*
X126506Y-9500D01*
X128006Y-5000D02*Y-5750D01*
Y-7250D02*Y-9500D01*
X130256Y-7250D02*Y-9500D01*
Y-7250D02*X131006Y-6500D01*
X131756D01*
X132506Y-7250D01*
Y-9500D01*
X129506Y-6500D02*X130256Y-7250D01*
X135056Y-9500D02*X137306D01*
X134306Y-8750D02*X135056Y-9500D01*
X134306Y-7250D02*Y-8750D01*
Y-7250D02*X135056Y-6500D01*
X136556D01*
X137306Y-7250D01*
X134306Y-8000D02*X137306D01*
Y-7250D02*Y-8000D01*
X141806Y-7250D02*Y-8750D01*
Y-7250D02*X142556Y-6500D01*
X144056D01*
X144806Y-7250D01*
Y-8750D01*
X144056Y-9500D02*X144806Y-8750D01*
X142556Y-9500D02*X144056D01*
X141806Y-8750D02*X142556Y-9500D01*
X147356Y-4250D02*Y-9500D01*
Y-4250D02*X148106Y-3500D01*
X148856D01*
X146606Y-6500D02*X148106D01*
X153806Y-3500D02*Y-8750D01*
X154556Y-9500D01*
X153056Y-5750D02*X154556D01*
X156056Y-3500D02*Y-9500D01*
Y-7250D02*X156806Y-6500D01*
X158306D01*
X159056Y-7250D01*
Y-9500D01*
X160856Y-5000D02*Y-5750D01*
Y-7250D02*Y-9500D01*
X163106D02*X165356D01*
X166106Y-8750D01*
X165356Y-8000D02*X166106Y-8750D01*
X163106Y-8000D02*X165356D01*
X162356Y-7250D02*X163106Y-8000D01*
X162356Y-7250D02*X163106Y-6500D01*
X165356D01*
X166106Y-7250D01*
X162356Y-8750D02*X163106Y-9500D01*
X170606Y-8750D02*X171356Y-9500D01*
X170606Y-7250D02*Y-8750D01*
Y-7250D02*X171356Y-6500D01*
X172856D01*
X173606Y-7250D01*
Y-8750D01*
X172856Y-9500D02*X173606Y-8750D01*
X171356Y-9500D02*X172856D01*
X170606Y-5750D02*X171356Y-6500D01*
X170606Y-4250D02*Y-5750D01*
Y-4250D02*X171356Y-3500D01*
X172856D01*
X173606Y-4250D01*
Y-5750D01*
X172856Y-6500D02*X173606Y-5750D01*
X175406Y-9500D02*X176156D01*
X177956Y-8750D02*X178706Y-9500D01*
X177956Y-4250D02*Y-8750D01*
Y-4250D02*X178706Y-3500D01*
X180206D01*
X180956Y-4250D01*
Y-8750D01*
X180206Y-9500D02*X180956Y-8750D01*
X178706Y-9500D02*X180206D01*
X177956Y-8000D02*X180956Y-5000D01*
X182756Y-8750D02*X183506Y-9500D01*
X182756Y-4250D02*Y-8750D01*
Y-4250D02*X183506Y-3500D01*
X185006D01*
X185756Y-4250D01*
Y-8750D01*
X185006Y-9500D02*X185756Y-8750D01*
X183506Y-9500D02*X185006D01*
X182756Y-8000D02*X185756Y-5000D01*
X187556Y-8750D02*X188306Y-9500D01*
X187556Y-4250D02*Y-8750D01*
Y-4250D02*X188306Y-3500D01*
X189806D01*
X190556Y-4250D01*
Y-8750D01*
X189806Y-9500D02*X190556Y-8750D01*
X188306Y-9500D02*X189806D01*
X187556Y-8000D02*X190556Y-5000D01*
X192356Y-8750D02*X193106Y-9500D01*
X192356Y-4250D02*Y-8750D01*
Y-4250D02*X193106Y-3500D01*
X194606D01*
X195356Y-4250D01*
Y-8750D01*
X194606Y-9500D02*X195356Y-8750D01*
X193106Y-9500D02*X194606D01*
X192356Y-8000D02*X195356Y-5000D01*
X197156Y-8750D02*X197906Y-9500D01*
X197156Y-4250D02*Y-8750D01*
Y-4250D02*X197906Y-3500D01*
X199406D01*
X200156Y-4250D01*
Y-8750D01*
X199406Y-9500D02*X200156Y-8750D01*
X197906Y-9500D02*X199406D01*
X197156Y-8000D02*X200156Y-5000D01*
X201956Y-8750D02*X202706Y-9500D01*
X201956Y-4250D02*Y-8750D01*
Y-4250D02*X202706Y-3500D01*
X204206D01*
X204956Y-4250D01*
Y-8750D01*
X204206Y-9500D02*X204956Y-8750D01*
X202706Y-9500D02*X204206D01*
X201956Y-8000D02*X204956Y-5000D01*
X210206Y-7250D02*Y-9500D01*
Y-7250D02*X210956Y-6500D01*
X211706D01*
X212456Y-7250D01*
Y-9500D01*
Y-7250D02*X213206Y-6500D01*
X213956D01*
X214706Y-7250D01*
Y-9500D01*
X209456Y-6500D02*X210206Y-7250D01*
X216506Y-5000D02*Y-5750D01*
Y-7250D02*Y-9500D01*
X218006Y-3500D02*Y-8750D01*
X218756Y-9500D01*
X223707Y-7250D02*Y-9500D01*
Y-7250D02*X224457Y-6500D01*
X225957D01*
X222957D02*X223707Y-7250D01*
X228507Y-9500D02*X230757D01*
X227757Y-8750D02*X228507Y-9500D01*
X227757Y-7250D02*Y-8750D01*
Y-7250D02*X228507Y-6500D01*
X230007D01*
X230757Y-7250D01*
X227757Y-8000D02*X230757D01*
Y-7250D02*Y-8000D01*
X233307Y-6500D02*X235557D01*
X232557Y-7250D02*X233307Y-6500D01*
X232557Y-7250D02*Y-8750D01*
X233307Y-9500D01*
X235557D01*
X238107Y-3500D02*Y-8750D01*
X238857Y-9500D01*
X237357Y-5750D02*X238857D01*
X242607Y-6500D02*X243357Y-7250D01*
X241107Y-6500D02*X242607D01*
X240357Y-7250D02*X241107Y-6500D01*
X240357Y-7250D02*Y-8750D01*
X241107Y-9500D01*
X243357Y-6500D02*Y-8750D01*
X244107Y-9500D01*
X241107D02*X242607D01*
X243357Y-8750D01*
X246657Y-7250D02*Y-9500D01*
Y-7250D02*X247407Y-6500D01*
X248157D01*
X248907Y-7250D01*
Y-9500D01*
X245907Y-6500D02*X246657Y-7250D01*
X252957Y-6500D02*X253707Y-7250D01*
X251457Y-6500D02*X252957D01*
X250707Y-7250D02*X251457Y-6500D01*
X250707Y-7250D02*Y-8750D01*
X251457Y-9500D01*
X252957D01*
X253707Y-8750D01*
X250707Y-11000D02*X251457Y-11750D01*
X252957D01*
X253707Y-11000D01*
Y-6500D02*Y-11000D01*
X255507Y-3500D02*Y-8750D01*
X256257Y-9500D01*
X258507D02*X260757D01*
X257757Y-8750D02*X258507Y-9500D01*
X257757Y-7250D02*Y-8750D01*
Y-7250D02*X258507Y-6500D01*
X260007D01*
X260757Y-7250D01*
X257757Y-8000D02*X260757D01*
Y-7250D02*Y-8000D01*
X265257Y-6500D02*X268257D01*
X272757Y-8750D02*X273507Y-9500D01*
X272757Y-4250D02*Y-8750D01*
Y-4250D02*X273507Y-3500D01*
X275007D01*
X275757Y-4250D01*
Y-8750D01*
X275007Y-9500D02*X275757Y-8750D01*
X273507Y-9500D02*X275007D01*
X272757Y-8000D02*X275757Y-5000D01*
X277557Y-11000D02*X279057Y-9500D01*
X280857Y-8750D02*X281607Y-9500D01*
X280857Y-4250D02*Y-8750D01*
Y-4250D02*X281607Y-3500D01*
X283107D01*
X283857Y-4250D01*
Y-8750D01*
X283107Y-9500D02*X283857Y-8750D01*
X281607Y-9500D02*X283107D01*
X280857Y-8000D02*X283857Y-5000D01*
X289107Y-3500D02*Y-8750D01*
X289857Y-9500D01*
X288357Y-5750D02*X289857D01*
X291357Y-7250D02*Y-8750D01*
Y-7250D02*X292107Y-6500D01*
X293607D01*
X294357Y-7250D01*
Y-8750D01*
X293607Y-9500D02*X294357Y-8750D01*
X292107Y-9500D02*X293607D01*
X291357Y-8750D02*X292107Y-9500D01*
X298857Y-6500D02*X301857Y-3500D01*
X298857Y-6500D02*X302607D01*
X301857Y-3500D02*Y-9500D01*
X304407Y-6500D02*X307407Y-3500D01*
X304407Y-6500D02*X308157D01*
X307407Y-3500D02*Y-9500D01*
X309957Y-4250D02*X310707Y-3500D01*
X312957D01*
X313707Y-4250D01*
Y-5750D01*
X309957Y-9500D02*X313707Y-5750D01*
X309957Y-9500D02*X313707D01*
X315507D02*X318507Y-6500D01*
Y-4250D02*Y-6500D01*
X317757Y-3500D02*X318507Y-4250D01*
X316257Y-3500D02*X317757D01*
X315507Y-4250D02*X316257Y-3500D01*
X315507Y-4250D02*Y-5750D01*
X316257Y-6500D01*
X318507D01*
X320307Y-9500D02*X321057D01*
X323607D02*X325107D01*
X324357Y-3500D02*Y-9500D01*
X322857Y-5000D02*X324357Y-3500D01*
X326907Y-4250D02*X327657Y-3500D01*
X329157D01*
X329907Y-4250D01*
Y-8750D01*
X329157Y-9500D02*X329907Y-8750D01*
X327657Y-9500D02*X329157D01*
X326907Y-8750D02*X327657Y-9500D01*
Y-6500D02*X329907D01*
X331707Y-8750D02*X332457Y-9500D01*
X331707Y-4250D02*Y-8750D01*
Y-4250D02*X332457Y-3500D01*
X333957D01*
X334707Y-4250D01*
Y-8750D01*
X333957Y-9500D02*X334707Y-8750D01*
X332457Y-9500D02*X333957D01*
X331707Y-8000D02*X334707Y-5000D01*
X336507Y-8750D02*X337257Y-9500D01*
X336507Y-4250D02*Y-8750D01*
Y-4250D02*X337257Y-3500D01*
X338757D01*
X339507Y-4250D01*
Y-8750D01*
X338757Y-9500D02*X339507Y-8750D01*
X337257Y-9500D02*X338757D01*
X336507Y-8000D02*X339507Y-5000D01*
X341307Y-8750D02*X342057Y-9500D01*
X341307Y-4250D02*Y-8750D01*
Y-4250D02*X342057Y-3500D01*
X343557D01*
X344307Y-4250D01*
Y-8750D01*
X343557Y-9500D02*X344307Y-8750D01*
X342057Y-9500D02*X343557D01*
X341307Y-8000D02*X344307Y-5000D01*
X346107Y-8750D02*X346857Y-9500D01*
X346107Y-4250D02*Y-8750D01*
Y-4250D02*X346857Y-3500D01*
X348357D01*
X349107Y-4250D01*
Y-8750D01*
X348357Y-9500D02*X349107Y-8750D01*
X346857Y-9500D02*X348357D01*
X346107Y-8000D02*X349107Y-5000D01*
X350907Y-11000D02*X352407Y-9500D01*
X354207Y-4250D02*X354957Y-3500D01*
X357207D01*
X357957Y-4250D01*
Y-5750D01*
X354207Y-9500D02*X357957Y-5750D01*
X354207Y-9500D02*X357957D01*
X359757Y-4250D02*X360507Y-3500D01*
X362007D01*
X362757Y-4250D01*
Y-8750D01*
X362007Y-9500D02*X362757Y-8750D01*
X360507Y-9500D02*X362007D01*
X359757Y-8750D02*X360507Y-9500D01*
Y-6500D02*X362757D01*
X366807Y-3500D02*X367557Y-4250D01*
X365307Y-3500D02*X366807D01*
X364557Y-4250D02*X365307Y-3500D01*
X364557Y-4250D02*Y-8750D01*
X365307Y-9500D01*
X366807Y-6500D02*X367557Y-7250D01*
X364557Y-6500D02*X366807D01*
X365307Y-9500D02*X366807D01*
X367557Y-8750D01*
Y-7250D02*Y-8750D01*
X369357Y-4250D02*X370107Y-3500D01*
X372357D01*
X373107Y-4250D01*
Y-5750D01*
X369357Y-9500D02*X373107Y-5750D01*
X369357Y-9500D02*X373107D01*
X374907D02*X375657D01*
X377457Y-4250D02*X378207Y-3500D01*
X380457D01*
X381207Y-4250D01*
Y-5750D01*
X377457Y-9500D02*X381207Y-5750D01*
X377457Y-9500D02*X381207D01*
X383007Y-8750D02*X383757Y-9500D01*
X383007Y-4250D02*Y-8750D01*
Y-4250D02*X383757Y-3500D01*
X385257D01*
X386007Y-4250D01*
Y-8750D01*
X385257Y-9500D02*X386007Y-8750D01*
X383757Y-9500D02*X385257D01*
X383007Y-8000D02*X386007Y-5000D01*
X387807Y-8750D02*X388557Y-9500D01*
X387807Y-4250D02*Y-8750D01*
Y-4250D02*X388557Y-3500D01*
X390057D01*
X390807Y-4250D01*
Y-8750D01*
X390057Y-9500D02*X390807Y-8750D01*
X388557Y-9500D02*X390057D01*
X387807Y-8000D02*X390807Y-5000D01*
X392607Y-8750D02*X393357Y-9500D01*
X392607Y-4250D02*Y-8750D01*
Y-4250D02*X393357Y-3500D01*
X394857D01*
X395607Y-4250D01*
Y-8750D01*
X394857Y-9500D02*X395607Y-8750D01*
X393357Y-9500D02*X394857D01*
X392607Y-8000D02*X395607Y-5000D01*
X397407Y-8750D02*X398157Y-9500D01*
X397407Y-4250D02*Y-8750D01*
Y-4250D02*X398157Y-3500D01*
X399657D01*
X400407Y-4250D01*
Y-8750D01*
X399657Y-9500D02*X400407Y-8750D01*
X398157Y-9500D02*X399657D01*
X397407Y-8000D02*X400407Y-5000D01*
X402207Y-8750D02*X402957Y-9500D01*
X402207Y-4250D02*Y-8750D01*
Y-4250D02*X402957Y-3500D01*
X404457D01*
X405207Y-4250D01*
Y-8750D01*
X404457Y-9500D02*X405207Y-8750D01*
X402957Y-9500D02*X404457D01*
X402207Y-8000D02*X405207Y-5000D01*
X410457Y-7250D02*Y-9500D01*
Y-7250D02*X411207Y-6500D01*
X411957D01*
X412707Y-7250D01*
Y-9500D01*
Y-7250D02*X413457Y-6500D01*
X414207D01*
X414957Y-7250D01*
Y-9500D01*
X409707Y-6500D02*X410457Y-7250D01*
X416757Y-5000D02*Y-5750D01*
Y-7250D02*Y-9500D01*
X418257Y-3500D02*Y-8750D01*
X419007Y-9500D01*
X421257D02*X423507D01*
X424257Y-8750D01*
X423507Y-8000D02*X424257Y-8750D01*
X421257Y-8000D02*X423507D01*
X420507Y-7250D02*X421257Y-8000D01*
X420507Y-7250D02*X421257Y-6500D01*
X423507D01*
X424257Y-7250D01*
X420507Y-8750D02*X421257Y-9500D01*
X200750Y264720D02*Y258720D01*
X203000Y264720D02*X203750Y263970D01*
Y259470D01*
X203000Y258720D02*X203750Y259470D01*
X200000Y258720D02*X203000D01*
X200000Y264720D02*X203000D01*
X207800Y261720D02*X208550Y260970D01*
X206300Y261720D02*X207800D01*
X205550Y260970D02*X206300Y261720D01*
X205550Y260970D02*Y259470D01*
X206300Y258720D01*
X208550Y261720D02*Y259470D01*
X209300Y258720D01*
X206300D02*X207800D01*
X208550Y259470D01*
X211850Y264720D02*Y259470D01*
X212600Y258720D01*
X211100Y262470D02*X212600D01*
X214850Y258720D02*X217100D01*
X214100Y259470D02*X214850Y258720D01*
X214100Y260970D02*Y259470D01*
Y260970D02*X214850Y261720D01*
X216350D01*
X217100Y260970D01*
X214100Y260220D02*X217100D01*
Y260970D02*Y260220D01*
X218900Y262470D02*X219650D01*
X218900Y260970D02*X219650D01*
X224150Y264720D02*Y258720D01*
X226400Y260970D01*
X228650Y258720D01*
Y264720D02*Y258720D01*
X231200D02*X233450D01*
X230450Y259470D02*X231200Y258720D01*
X230450Y260970D02*Y259470D01*
Y260970D02*X231200Y261720D01*
X232700D01*
X233450Y260970D01*
X230450Y260220D02*X233450D01*
Y260970D02*Y260220D01*
X238250Y264720D02*Y258720D01*
X237500D02*X238250Y259470D01*
X236000Y258720D02*X237500D01*
X235250Y259470D02*X236000Y258720D01*
X235250Y260970D02*Y259470D01*
Y260970D02*X236000Y261720D01*
X237500D01*
X238250Y260970D01*
X242750Y263970D02*Y259470D01*
Y263970D02*X243500Y264720D01*
X245000D01*
X245750Y263970D01*
Y259470D01*
X245000Y258720D02*X245750Y259470D01*
X243500Y258720D02*X245000D01*
X242750Y259470D02*X243500Y258720D01*
X248300Y261720D02*X250550D01*
X247550Y260970D02*X248300Y261720D01*
X247550Y260970D02*Y259470D01*
X248300Y258720D01*
X250550D01*
X253100Y264720D02*Y259470D01*
X253850Y258720D01*
X252350Y262470D02*X253850D01*
X258800Y258720D02*X260300D01*
X259550Y264720D02*Y258720D01*
X258050Y263220D02*X259550Y264720D01*
X264350D02*X265100Y263970D01*
X262850Y264720D02*X264350D01*
X262100Y263970D02*X262850Y264720D01*
X262100Y263970D02*Y259470D01*
X262850Y258720D01*
X264350Y261720D02*X265100Y260970D01*
X262100Y261720D02*X264350D01*
X262850Y258720D02*X264350D01*
X265100Y259470D01*
Y260970D02*Y259470D01*
X269600Y263970D02*X270350Y264720D01*
X272600D01*
X273350Y263970D01*
Y262470D01*
X269600Y258720D02*X273350Y262470D01*
X269600Y258720D02*X273350D01*
X275150Y263970D02*X275900Y264720D01*
X277400D01*
X278150Y263970D01*
Y259470D01*
X277400Y258720D02*X278150Y259470D01*
X275900Y258720D02*X277400D01*
X275150Y259470D02*X275900Y258720D01*
Y261720D02*X278150D01*
X279950Y262470D02*X280700D01*
X279950Y260970D02*X280700D01*
X282500Y263970D02*X283250Y264720D01*
X285500D01*
X286250Y263970D01*
Y262470D01*
X282500Y258720D02*X286250Y262470D01*
X282500Y258720D02*X286250D01*
X288050Y259470D02*X288800Y258720D01*
X288050Y263970D02*Y259470D01*
Y263970D02*X288800Y264720D01*
X290300D01*
X291050Y263970D01*
Y259470D01*
X290300Y258720D02*X291050Y259470D01*
X288800Y258720D02*X290300D01*
X288050Y260220D02*X291050Y263220D01*
X292850Y262470D02*X293600D01*
X292850Y260970D02*X293600D01*
X295400Y261720D02*X298400Y264720D01*
X295400Y261720D02*X299150D01*
X298400Y264720D02*Y258720D01*
X300950Y263970D02*X301700Y264720D01*
X303950D01*
X304700Y263970D01*
Y262470D01*
X300950Y258720D02*X304700Y262470D01*
X300950Y258720D02*X304700D01*
X309200Y263970D02*X309950Y264720D01*
X312200D01*
X312950Y263970D01*
Y262470D01*
X309200Y258720D02*X312950Y262470D01*
X309200Y258720D02*X312950D01*
X314750Y259470D02*X315500Y258720D01*
X314750Y263970D02*Y259470D01*
Y263970D02*X315500Y264720D01*
X317000D01*
X317750Y263970D01*
Y259470D01*
X317000Y258720D02*X317750Y259470D01*
X315500Y258720D02*X317000D01*
X314750Y260220D02*X317750Y263220D01*
X320300Y258720D02*X321800D01*
X321050Y264720D02*Y258720D01*
X319550Y263220D02*X321050Y264720D01*
X323600Y258720D02*X326600Y261720D01*
Y263970D02*Y261720D01*
X325850Y264720D02*X326600Y263970D01*
X324350Y264720D02*X325850D01*
X323600Y263970D02*X324350Y264720D01*
X323600Y263970D02*Y262470D01*
X324350Y261720D01*
X326600D01*
X331100Y264720D02*Y259470D01*
X331850Y258720D01*
X333350D01*
X334100Y259470D01*
Y264720D02*Y259470D01*
X335900Y264720D02*X338900D01*
X337400D02*Y258720D01*
X341450D02*X343700D01*
X340700Y259470D02*X341450Y258720D01*
X340700Y263970D02*Y259470D01*
Y263970D02*X341450Y264720D01*
X343700D01*
X200000Y278970D02*Y273720D01*
Y278970D02*X200750Y279720D01*
X203000D01*
X203750Y278970D01*
Y273720D01*
X200000Y276720D02*X203750D01*
X205550D02*Y274470D01*
X206300Y273720D01*
X207800D01*
X208550Y274470D01*
Y276720D02*Y274470D01*
X211100Y279720D02*Y274470D01*
X211850Y273720D01*
X210350Y277470D02*X211850D01*
X213350Y279720D02*Y273720D01*
Y275970D02*X214100Y276720D01*
X215600D01*
X216350Y275970D01*
Y273720D01*
X218150Y275970D02*Y274470D01*
Y275970D02*X218900Y276720D01*
X220400D01*
X221150Y275970D01*
Y274470D01*
X220400Y273720D02*X221150Y274470D01*
X218900Y273720D02*X220400D01*
X218150Y274470D02*X218900Y273720D01*
X223700Y275970D02*Y273720D01*
Y275970D02*X224450Y276720D01*
X225950D01*
X222950D02*X223700Y275970D01*
X227750Y277470D02*X228500D01*
X227750Y275970D02*X228500D01*
X233000Y279720D02*Y273720D01*
X235250Y275970D01*
X237500Y273720D01*
Y279720D02*Y273720D01*
X241550Y276720D02*X242300Y275970D01*
X240050Y276720D02*X241550D01*
X239300Y275970D02*X240050Y276720D01*
X239300Y275970D02*Y274470D01*
X240050Y273720D01*
X242300Y276720D02*Y274470D01*
X243050Y273720D01*
X240050D02*X241550D01*
X242300Y274470D01*
X244850Y279720D02*Y274470D01*
X245600Y273720D01*
X247850Y279720D02*Y274470D01*
X248600Y273720D01*
X247100Y277470D02*X248600D01*
X250850Y273720D02*X253100D01*
X250100Y274470D02*X250850Y273720D01*
X250100Y275970D02*Y274470D01*
Y275970D02*X250850Y276720D01*
X252350D01*
X253100Y275970D01*
X250100Y275220D02*X253100D01*
Y275970D02*Y275220D01*
X255650Y275970D02*Y273720D01*
Y275970D02*X256400Y276720D01*
X257900D01*
X254900D02*X255650Y275970D01*
X263150Y279720D02*Y273720D01*
X262400Y279720D02*X265400D01*
X266150Y278970D01*
Y277470D01*
X265400Y276720D02*X266150Y277470D01*
X263150Y276720D02*X265400D01*
X267950Y278220D02*Y277470D01*
Y275970D02*Y273720D01*
X270200Y275970D02*Y273720D01*
Y275970D02*X270950Y276720D01*
X272450D01*
X269450D02*X270200Y275970D01*
X275000D02*Y273720D01*
Y275970D02*X275750Y276720D01*
X277250D01*
X274250D02*X275000Y275970D01*
X279050Y278220D02*Y277470D01*
Y275970D02*Y273720D01*
X200000Y294720D02*X203000D01*
X201500D02*Y288720D01*
X204800Y293220D02*Y292470D01*
Y290970D02*Y288720D01*
X207050Y294720D02*Y289470D01*
X207800Y288720D01*
X206300Y292470D02*X207800D01*
X209300Y294720D02*Y289470D01*
X210050Y288720D01*
X212300D02*X214550D01*
X211550Y289470D02*X212300Y288720D01*
X211550Y290970D02*Y289470D01*
Y290970D02*X212300Y291720D01*
X213800D01*
X214550Y290970D01*
X211550Y290220D02*X214550D01*
Y290970D02*Y290220D01*
X216350Y292470D02*X217100D01*
X216350Y290970D02*X217100D01*
X221600Y289470D02*X222350Y288720D01*
X221600Y293970D02*X222350Y294720D01*
X221600Y293970D02*Y289470D01*
X224150Y291720D02*Y289470D01*
X224900Y288720D01*
X226400D01*
X227150Y289470D01*
Y291720D02*Y289470D01*
X229700Y290970D02*Y288720D01*
Y290970D02*X230450Y291720D01*
X231200D01*
X231950Y290970D01*
Y288720D01*
X228950Y291720D02*X229700Y290970D01*
X233750Y294720D02*Y288720D01*
Y290970D02*X236000Y288720D01*
X233750Y290970D02*X235250Y292470D01*
X238550Y290970D02*Y288720D01*
Y290970D02*X239300Y291720D01*
X240050D01*
X240800Y290970D01*
Y288720D01*
X237800Y291720D02*X238550Y290970D01*
X242600D02*Y289470D01*
Y290970D02*X243350Y291720D01*
X244850D01*
X245600Y290970D01*
Y289470D01*
X244850Y288720D02*X245600Y289470D01*
X243350Y288720D02*X244850D01*
X242600Y289470D02*X243350Y288720D01*
X247400Y291720D02*Y289470D01*
X248150Y288720D01*
X248900D01*
X249650Y289470D01*
Y291720D02*Y289470D01*
X250400Y288720D01*
X251150D01*
X251900Y289470D01*
Y291720D02*Y289470D01*
X254450Y290970D02*Y288720D01*
Y290970D02*X255200Y291720D01*
X255950D01*
X256700Y290970D01*
Y288720D01*
X253700Y291720D02*X254450Y290970D01*
X258500Y294720D02*X259250Y293970D01*
Y289470D01*
X258500Y288720D02*X259250Y289470D01*
X263750Y291720D02*X266750D01*
X271250Y294720D02*Y288720D01*
Y294720D02*X274250D01*
X271250Y291720D02*X273500D01*
X278300D02*X279050Y290970D01*
X276800Y291720D02*X278300D01*
X276050Y290970D02*X276800Y291720D01*
X276050Y290970D02*Y289470D01*
X276800Y288720D01*
X279050Y291720D02*Y289470D01*
X279800Y288720D01*
X276800D02*X278300D01*
X279050Y289470D01*
X281600Y294720D02*Y288720D01*
Y289470D02*X282350Y288720D01*
X283850D01*
X284600Y289470D01*
Y290970D02*Y289470D01*
X283850Y291720D02*X284600Y290970D01*
X282350Y291720D02*X283850D01*
X281600Y290970D02*X282350Y291720D01*
X287150Y290970D02*Y288720D01*
Y290970D02*X287900Y291720D01*
X289400D01*
X286400D02*X287150Y290970D01*
X291200Y293220D02*Y292470D01*
Y290970D02*Y288720D01*
X293450Y291720D02*X295700D01*
X292700Y290970D02*X293450Y291720D01*
X292700Y290970D02*Y289470D01*
X293450Y288720D01*
X295700D01*
X299750Y291720D02*X300500Y290970D01*
X298250Y291720D02*X299750D01*
X297500Y290970D02*X298250Y291720D01*
X297500Y290970D02*Y289470D01*
X298250Y288720D01*
X300500Y291720D02*Y289470D01*
X301250Y288720D01*
X298250D02*X299750D01*
X300500Y289470D01*
X303800Y294720D02*Y289470D01*
X304550Y288720D01*
X303050Y292470D02*X304550D01*
X306050Y293220D02*Y292470D01*
Y290970D02*Y288720D01*
X307550Y290970D02*Y289470D01*
Y290970D02*X308300Y291720D01*
X309800D01*
X310550Y290970D01*
Y289470D01*
X309800Y288720D02*X310550Y289470D01*
X308300Y288720D02*X309800D01*
X307550Y289470D02*X308300Y288720D01*
X313100Y290970D02*Y288720D01*
Y290970D02*X313850Y291720D01*
X314600D01*
X315350Y290970D01*
Y288720D01*
X312350Y291720D02*X313100Y290970D01*
X320600Y294720D02*Y288720D01*
X322850Y294720D02*X323600Y293970D01*
Y289470D01*
X322850Y288720D02*X323600Y289470D01*
X319850Y288720D02*X322850D01*
X319850Y294720D02*X322850D01*
X326150Y290970D02*Y288720D01*
Y290970D02*X326900Y291720D01*
X328400D01*
X325400D02*X326150Y290970D01*
X332450Y291720D02*X333200Y290970D01*
X330950Y291720D02*X332450D01*
X330200Y290970D02*X330950Y291720D01*
X330200Y290970D02*Y289470D01*
X330950Y288720D01*
X333200Y291720D02*Y289470D01*
X333950Y288720D01*
X330950D02*X332450D01*
X333200Y289470D01*
X335750Y291720D02*Y289470D01*
X336500Y288720D01*
X337250D01*
X338000Y289470D01*
Y291720D02*Y289470D01*
X338750Y288720D01*
X339500D01*
X340250Y289470D01*
Y291720D02*Y289470D01*
X342050Y293220D02*Y292470D01*
Y290970D02*Y288720D01*
X344300Y290970D02*Y288720D01*
Y290970D02*X345050Y291720D01*
X345800D01*
X346550Y290970D01*
Y288720D01*
X343550Y291720D02*X344300Y290970D01*
X350600Y291720D02*X351350Y290970D01*
X349100Y291720D02*X350600D01*
X348350Y290970D02*X349100Y291720D01*
X348350Y290970D02*Y289470D01*
X349100Y288720D01*
X350600D01*
X351350Y289470D01*
X348350Y287220D02*X349100Y286470D01*
X350600D01*
X351350Y287220D01*
Y291720D02*Y287220D01*
M02*
